<?xml version="1.0" encoding="UTF-8"?>
<!DOCTYPE svg PUBLIC "-//W3C//DTD SVG 1.1//EN" "http://www.w3.org/Graphics/SVG/1.1/DTD/svg11.dtd">
<!-- Creator: CorelDRAW X7 -->
<svg xmlns="http://www.w3.org/2000/svg" xml:space="preserve" width="100%" height="100%" version="1.1" style="shape-rendering:geometricPrecision; text-rendering:geometricPrecision; image-rendering:optimizeQuality; fill-rule:evenodd; clip-rule:evenodd"
viewBox="0 0 1168 875"
 xmlns:xlink="http://www.w3.org/1999/xlink">
 <defs>
  <style type="text/css">
   <![CDATA[
    .fil0 {fill:#252525}
    .fil1 {fill:#F3F308}
   ]]>
  </style>
 </defs>
 <g id="Layer_x0020_1">
  <metadata id="CorelCorpID_0Corel-Layer"/>
  <g id="_781583573088">
   <path class="fil0" d="M437 875l731 0 0 -875 -731 0c-241,0 -437,196 -437,437l0 2c0,240 196,436 437,436z"/>
   <circle class="fil1" cx="438" cy="431" r="337"/>
   <path class="fil0" d="M227 383l0 150c0,15 -1,22 6,31 5,7 13,12 25,12 106,1 221,0 329,0 11,0 27,-15 27,-26l0 -181c0,-16 -13,-27 -29,-27l-250 0 0 -45 -60 0 0 35c0,6 1,10 -5,10 -36,0 -43,3 -43,41zm149 164c-42,-18 -59,-65 -54,-107 2,-12 8,-28 14,-37 13,-22 33,-35 57,-42 16,-5 16,-2 20,-3 10,-3 6,-3 25,0 13,2 25,7 37,13 15,10 27,21 36,39 12,24 14,56 4,83 -5,13 -14,29 -25,38 -2,2 -4,4 -7,6 -4,4 -9,6 -15,9 -21,13 -63,15 -86,4 0,0 -1,0 -1,-1 0,0 -1,0 -1,0 -4,-2 0,0 -4,-2z"/>
   <path class="fil0" d="M413 409c-12,3 -19,3 -32,19l-8 17c-2,6 -2,15 -1,22 3,9 10,22 17,27 45,38 108,-19 71,-68l-2 -2 -1 -1c-2,-3 -4,-4 -7,-6l-11 -6 -1 0c-6,-3 -14,-5 -21,-3 -10,1 6,-1 -4,1z"/>
  </g>
 </g>
</svg>
