<?xml version="1.0" encoding="UTF-8"?>
<!DOCTYPE svg PUBLIC "-//W3C//DTD SVG 1.1//EN" "http://www.w3.org/Graphics/SVG/1.1/DTD/svg11.dtd">
<!-- Creator: CorelDRAW X7 -->
<svg xmlns="http://www.w3.org/2000/svg" xml:space="preserve" width="100%" height="100%" version="1.1" style="shape-rendering:geometricPrecision; text-rendering:geometricPrecision; image-rendering:optimizeQuality; fill-rule:evenodd; clip-rule:evenodd"
viewBox="0 0 1232 1217"
 xmlns:xlink="http://www.w3.org/1999/xlink">
 <defs>
  <style type="text/css">
   <![CDATA[
    .fil0 {fill:#877157;fill-rule:nonzero}
    .fil1 {fill:#F8ECDC;fill-rule:nonzero}
   ]]>
  </style>
 </defs>
 <g id="Layer_x0020_1">
  <metadata id="CorelCorpID_0Corel-Layer"/>
  <path class="fil0" d="M0 17l0 1184c0,9 11,16 26,16l1180 0c15,0 26,-7 26,-16l0 -1184c0,-10 -11,-17 -26,-17l-1180 0c-15,0 -26,7 -26,17zm1144 1049l0 0c5,0 9,3 9,6l0 96c0,3 -4,6 -9,6l-148 0c-5,0 -9,-3 -9,-6l0 -96c0,-3 4,-6 9,-6l148 0zm-229 0l0 0c5,0 9,3 9,6l0 96c0,3 -4,6 -9,6l-148 0c-5,0 -8,-3 -8,-6l0 -96c0,-3 3,-6 8,-6l148 0zm-229 0l0 0c5,0 9,3 9,6l0 96c0,3 -4,6 -9,6l-148 0c-4,0 -8,-3 -8,-6l0 -96c0,-3 4,-6 8,-6l148 0zm-228 0l0 0c4,0 8,3 8,6l0 96c0,3 -4,6 -8,6l-148 0c-5,0 -9,-3 -9,-6l0 -96c0,-3 4,-6 9,-6l148 0zm-229 0l0 0c5,0 8,3 8,6l0 96c0,3 -3,6 -8,6l-148 0c-5,0 -9,-3 -9,-6l0 -96c0,-3 4,-6 9,-6l148 0zm915 -1000l0 0c5,0 9,2 9,5l0 97c0,3 -4,5 -9,5l-148 0c-5,0 -9,-2 -9,-5l0 -97c0,-3 4,-5 9,-5l148 0zm-229 0l0 0c5,0 9,2 9,5l0 97c0,3 -4,5 -9,5l-148 0c-5,0 -8,-2 -8,-5l0 -97c0,-3 3,-5 8,-5l148 0zm-229 0l0 0c5,0 9,2 9,5l0 97c0,3 -4,5 -9,5l-148 0c-4,0 -8,-2 -8,-5l0 -97c0,-3 4,-5 8,-5l148 0zm-228 0l0 0c4,0 8,2 8,5l0 97c0,3 -4,5 -8,5l-148 0c-5,0 -9,-2 -9,-5l0 -97c0,-3 4,-5 9,-5l148 0zm-229 0l0 0c5,0 8,2 8,5l0 97c0,3 -3,5 -8,5l-148 0c-5,0 -9,-2 -9,-5l0 -97c0,-3 4,-5 9,-5l148 0z"/>
  <g id="_426021570416">
   <path class="fil1" d="M987 380l-601 0 0 -17c0,-10 -8,-18 -18,-18l-73 0c-9,0 -17,8 -17,18l0 17 -33 0c-10,0 -17,8 -17,18l0 457c0,9 7,17 17,17l742 0c10,0 17,-8 17,-17l0 -457c0,-10 -7,-18 -17,-18zm-619 407l0 0c0,9 -7,17 -17,17l-56 0c-9,0 -17,-8 -17,-17l0 -322c0,-10 8,-18 17,-18l56 0c10,0 17,8 17,18l0 322zm296 16l0 0c-91,0 -165,-74 -165,-166 0,-91 74,-165 165,-165 92,0 166,74 166,165 0,92 -74,166 -166,166zm303 -327l0 0c0,10 -8,17 -17,17l-103 0c-9,0 -17,-7 -17,-17l0 -11c0,-10 8,-18 17,-18l103 0c9,0 17,8 17,18l0 11z"/>
   <path class="fil1" d="M664 507c-72,0 -130,58 -130,130 0,72 58,131 130,131 72,0 131,-59 131,-131 0,-72 -59,-130 -131,-130z"/>
  </g>
 </g>
</svg>
