<?xml version="1.0" encoding="UTF-8"?>
<!DOCTYPE svg PUBLIC "-//W3C//DTD SVG 1.1//EN" "http://www.w3.org/Graphics/SVG/1.1/DTD/svg11.dtd">
<!-- Creator: CorelDRAW X7 -->
<svg xmlns="http://www.w3.org/2000/svg" xml:space="preserve" width="100%" height="100%" version="1.1" style="shape-rendering:geometricPrecision; text-rendering:geometricPrecision; image-rendering:optimizeQuality; fill-rule:evenodd; clip-rule:evenodd"
viewBox="0 0 642 642"
 xmlns:xlink="http://www.w3.org/1999/xlink">
 <defs>
  <style type="text/css">
   <![CDATA[
    .fil1 {fill:#877157}
    .fil0 {fill:#877157;fill-rule:nonzero}
    .fil2 {fill:#F8ECDC;fill-rule:nonzero}
   ]]>
  </style>
 </defs>
 <g id="Layer_x0020_1">
  <metadata id="CorelCorpID_0Corel-Layer"/>
  <g id="_425997455328">
   <path class="fil0" d="M321 0c89,0 169,36 227,94 58,58 94,138 94,227 0,89 -36,169 -94,227 -58,58 -138,94 -227,94 -89,0 -169,-36 -227,-94 -58,-58 -94,-138 -94,-227 0,-89 36,-169 94,-227 58,-58 138,-94 227,-94zm204 118c-52,-52 -124,-85 -204,-85 -79,0 -151,33 -203,85 -52,52 -85,124 -85,203 0,80 33,152 85,204 52,52 124,84 203,84 80,0 152,-32 204,-84 52,-52 84,-124 84,-204 0,-79 -32,-151 -84,-203z"/>
   <circle class="fil1" cx="321" cy="321" r="254"/>
   <g>
    <path class="fil2" d="M201 214c-4,-3 -4,-9 0,-13 4,-4 10,-4 13,0l227 227c4,4 4,10 0,13 -3,4 -9,4 -13,0l-227 -227z"/>
    <path class="fil2" d="M214 441c-3,4 -9,4 -13,0 -4,-3 -4,-9 0,-13l227 -227c4,-4 10,-4 13,0 4,4 4,10 0,13l-227 227z"/>
   </g>
  </g>
 </g>
</svg>
