<?xml version="1.0" encoding="UTF-8"?>
<!DOCTYPE svg PUBLIC "-//W3C//DTD SVG 1.1//EN" "http://www.w3.org/Graphics/SVG/1.1/DTD/svg11.dtd">
<!-- Creator: CorelDRAW X7 -->
<svg xmlns="http://www.w3.org/2000/svg" xml:space="preserve" width="100%" height="100%" version="1.1" style="shape-rendering:geometricPrecision; text-rendering:geometricPrecision; image-rendering:optimizeQuality; fill-rule:evenodd; clip-rule:evenodd"
viewBox="0 0 1232 1217"
 xmlns:xlink="http://www.w3.org/1999/xlink">
 <defs>
  <style type="text/css">
   <![CDATA[
    .fil1 {fill:#F8ECDC}
    .fil0 {fill:#877157;fill-rule:nonzero}
    .fil2 {fill:#F8ECDC;fill-rule:nonzero}
   ]]>
  </style>
 </defs>
 <g id="Layer_x0020_1">
  <metadata id="CorelCorpID_0Corel-Layer"/>
  <path class="fil0" d="M0 17l0 1184c0,9 11,16 26,16l1180 0c15,0 26,-7 26,-16l0 -1184c0,-10 -11,-17 -26,-17l-1180 0c-15,0 -26,7 -26,17zm1144 1049l0 0c5,0 9,3 9,6l0 96c0,3 -4,6 -9,6l-148 0c-5,0 -9,-3 -9,-6l0 -96c0,-3 4,-6 9,-6l148 0zm-229 0l0 0c5,0 9,3 9,6l0 96c0,3 -4,6 -9,6l-148 0c-5,0 -8,-3 -8,-6l0 -96c0,-3 3,-6 8,-6l148 0zm-229 0l0 0c5,0 9,3 9,6l0 96c0,3 -4,6 -9,6l-148 0c-4,0 -8,-3 -8,-6l0 -96c0,-3 4,-6 8,-6l148 0zm-228 0l0 0c4,0 8,3 8,6l0 96c0,3 -4,6 -8,6l-148 0c-5,0 -9,-3 -9,-6l0 -96c0,-3 4,-6 9,-6l148 0zm-229 0l0 0c5,0 8,3 8,6l0 96c0,3 -3,6 -8,6l-148 0c-5,0 -9,-3 -9,-6l0 -96c0,-3 4,-6 9,-6l148 0zm915 -1000l0 0c5,0 9,2 9,5l0 97c0,3 -4,5 -9,5l-148 0c-5,0 -9,-2 -9,-5l0 -97c0,-3 4,-5 9,-5l148 0zm-229 0l0 0c5,0 9,2 9,5l0 97c0,3 -4,5 -9,5l-148 0c-5,0 -8,-2 -8,-5l0 -97c0,-3 3,-5 8,-5l148 0zm-229 0l0 0c5,0 9,2 9,5l0 97c0,3 -4,5 -9,5l-148 0c-4,0 -8,-2 -8,-5l0 -97c0,-3 4,-5 8,-5l148 0zm-228 0l0 0c4,0 8,2 8,5l0 97c0,3 -4,5 -8,5l-148 0c-5,0 -9,-2 -9,-5l0 -97c0,-3 4,-5 9,-5l148 0zm-229 0l0 0c5,0 8,2 8,5l0 97c0,3 -3,5 -8,5l-148 0c-5,0 -9,-2 -9,-5l0 -97c0,-3 4,-5 9,-5l148 0z"/>
  <path class="fil1" d="M723 504c-28,27 -139,142 -152,149 -7,-3 -2,0 -8,-4l-103 -103 -53 53c11,17 159,161 164,163l254 -253c-4,-9 -43,-47 -53,-54 -16,13 -34,33 -49,49z"/>
  <path class="fil2" d="M831 465l3 -141 -437 0 0 503c0,18 8,34 19,46 12,12 28,20 46,20l370 -2 -1 -165 30 0 0 180 0 15 -15 0 -384 2c-26,-1 -50,-12 -67,-29 -17,-17 -27,-41 -27,-67l0 -517 0 -15 14 0 467 0 15 0 0 15 -3 156 -30 -1z"/>
 </g>
</svg>
