<?xml version="1.0" encoding="UTF-8"?>
<!DOCTYPE svg PUBLIC "-//W3C//DTD SVG 1.1//EN" "http://www.w3.org/Graphics/SVG/1.1/DTD/svg11.dtd">
<!-- Creator: CorelDRAW X7 -->
<svg xmlns="http://www.w3.org/2000/svg" xml:space="preserve" width="100%" height="100%" version="1.1" style="shape-rendering:geometricPrecision; text-rendering:geometricPrecision; image-rendering:optimizeQuality; fill-rule:evenodd; clip-rule:evenodd"
viewBox="0 0 1232 1217"
 xmlns:xlink="http://www.w3.org/1999/xlink">
 <defs>
  <style type="text/css">
   <![CDATA[
    .fil0 {fill:#877157;fill-rule:nonzero}
    .fil1 {fill:#F8ECDC;fill-rule:nonzero}
   ]]>
  </style>
 </defs>
 <g id="Layer_x0020_1">
  <metadata id="CorelCorpID_0Corel-Layer"/>
  <g id="_426064973648">
   <path class="fil0" d="M0 17l0 1184c0,9 11,16 26,16l1180 0c15,0 26,-7 26,-16l0 -1184c0,-10 -11,-17 -26,-17l-1180 0c-15,0 -26,7 -26,17zm1144 1049l0 0c5,0 9,3 9,6l0 96c0,3 -4,6 -9,6l-148 0c-5,0 -9,-3 -9,-6l0 -96c0,-3 4,-6 9,-6l148 0zm-229 0l0 0c5,0 9,3 9,6l0 96c0,3 -4,6 -9,6l-148 0c-5,0 -8,-3 -8,-6l0 -96c0,-3 3,-6 8,-6l148 0zm-229 0l0 0c5,0 9,3 9,6l0 96c0,3 -4,6 -9,6l-148 0c-4,0 -8,-3 -8,-6l0 -96c0,-3 4,-6 8,-6l148 0zm-228 0l0 0c4,0 8,3 8,6l0 96c0,3 -4,6 -8,6l-148 0c-5,0 -9,-3 -9,-6l0 -96c0,-3 4,-6 9,-6l148 0zm-229 0l0 0c5,0 8,3 8,6l0 96c0,3 -3,6 -8,6l-148 0c-5,0 -9,-3 -9,-6l0 -96c0,-3 4,-6 9,-6l148 0zm915 -1000l0 0c5,0 9,2 9,5l0 97c0,3 -4,5 -9,5l-148 0c-5,0 -9,-2 -9,-5l0 -97c0,-3 4,-5 9,-5l148 0zm-229 0l0 0c5,0 9,2 9,5l0 97c0,3 -4,5 -9,5l-148 0c-5,0 -8,-2 -8,-5l0 -97c0,-3 3,-5 8,-5l148 0zm-229 0l0 0c5,0 9,2 9,5l0 97c0,3 -4,5 -9,5l-148 0c-4,0 -8,-2 -8,-5l0 -97c0,-3 4,-5 8,-5l148 0zm-228 0l0 0c4,0 8,2 8,5l0 97c0,3 -4,5 -8,5l-148 0c-5,0 -9,-2 -9,-5l0 -97c0,-3 4,-5 9,-5l148 0zm-229 0l0 0c5,0 8,2 8,5l0 97c0,3 -3,5 -8,5l-148 0c-5,0 -9,-2 -9,-5l0 -97c0,-3 4,-5 9,-5l148 0z"/>
   <g>
    <path class="fil1" d="M730 374l0 197c0,6 5,11 11,11l72 0c5,0 8,2 10,6 2,4 1,9 -2,12l-193 193c-4,4 -11,4 -15,0l-193 -193c-3,-3 -4,-8 -2,-12 1,-4 5,-6 10,-6l72 0c6,0 11,-5 11,-11l0 -197c0,-6 5,-11 11,-11l197 0c6,0 11,5 11,11z"/>
    <path class="fil1" d="M346 656c0,-11 8,-20 17,-20 9,1 17,10 16,21l-1 168 493 0 -1 -170c0,-11 7,-20 16,-20 10,0 17,8 17,19l2 189c0,0 0,1 0,2 0,11 -8,20 -17,20l-527 0 0 -1 0 0c-9,0 -17,-9 -17,-20l2 -188z"/>
   </g>
  </g>
 </g>
</svg>
