<?xml version="1.0" encoding="UTF-8"?>
<!DOCTYPE svg PUBLIC "-//W3C//DTD SVG 1.1//EN" "http://www.w3.org/Graphics/SVG/1.1/DTD/svg11.dtd">
<!-- Creator: CorelDRAW X7 -->
<svg xmlns="http://www.w3.org/2000/svg" xml:space="preserve" width="100%" height="100%" version="1.1" style="shape-rendering:geometricPrecision; text-rendering:geometricPrecision; image-rendering:optimizeQuality; fill-rule:evenodd; clip-rule:evenodd"
viewBox="0 0 1232 1217"
 xmlns:xlink="http://www.w3.org/1999/xlink">
 <defs>
  <style type="text/css">
   <![CDATA[
    .fil1 {fill:#F8ECDC}
    .fil0 {fill:#877157;fill-rule:nonzero}
    .fil2 {fill:#F8ECDC;fill-rule:nonzero}
   ]]>
  </style>
 </defs>
 <g id="Layer_x0020_1">
  <metadata id="CorelCorpID_0Corel-Layer"/>
  <g id="_426014997280">
   <path class="fil0" d="M0 17l0 1184c0,9 11,16 26,16l1180 0c15,0 26,-7 26,-16l0 -1184c0,-10 -11,-17 -26,-17l-1180 0c-15,0 -26,7 -26,17zm1144 1049l0 0c5,0 9,3 9,6l0 96c0,3 -4,6 -9,6l-148 0c-5,0 -9,-3 -9,-6l0 -96c0,-3 4,-6 9,-6l148 0zm-229 0l0 0c5,0 9,3 9,6l0 96c0,3 -4,6 -9,6l-148 0c-5,0 -8,-3 -8,-6l0 -96c0,-3 3,-6 8,-6l148 0zm-229 0l0 0c5,0 9,3 9,6l0 96c0,3 -4,6 -9,6l-148 0c-4,0 -8,-3 -8,-6l0 -96c0,-3 4,-6 8,-6l148 0zm-228 0l0 0c4,0 8,3 8,6l0 96c0,3 -4,6 -8,6l-148 0c-5,0 -9,-3 -9,-6l0 -96c0,-3 4,-6 9,-6l148 0zm-229 0l0 0c5,0 8,3 8,6l0 96c0,3 -3,6 -8,6l-148 0c-5,0 -9,-3 -9,-6l0 -96c0,-3 4,-6 9,-6l148 0zm915 -1000l0 0c5,0 9,2 9,5l0 97c0,3 -4,5 -9,5l-148 0c-5,0 -9,-2 -9,-5l0 -97c0,-3 4,-5 9,-5l148 0zm-229 0l0 0c5,0 9,2 9,5l0 97c0,3 -4,5 -9,5l-148 0c-5,0 -8,-2 -8,-5l0 -97c0,-3 3,-5 8,-5l148 0zm-229 0l0 0c5,0 9,2 9,5l0 97c0,3 -4,5 -9,5l-148 0c-4,0 -8,-2 -8,-5l0 -97c0,-3 4,-5 8,-5l148 0zm-228 0l0 0c4,0 8,2 8,5l0 97c0,3 -4,5 -8,5l-148 0c-5,0 -9,-2 -9,-5l0 -97c0,-3 4,-5 9,-5l148 0zm-229 0l0 0c5,0 8,2 8,5l0 97c0,3 -3,5 -8,5l-148 0c-5,0 -9,-2 -9,-5l0 -97c0,-3 4,-5 9,-5l148 0z"/>
   <g>
    <path class="fil1" d="M580 523l-62 2c-5,15 -4,70 -1,86l63 0 0 240 90 0 1 -240 88 0c4,-16 7,-72 3,-86l-92 0c1,-20 -3,-78 6,-92 13,-18 61,-8 86,-11 1,-17 5,-66 0,-80 -81,-7 -166,-2 -181,88 -4,24 -1,66 -1,93z"/>
    <path class="fil2" d="M830 519c-4,-7 -2,-16 5,-20 7,-4 16,-1 20,6 15,26 26,55 32,85 6,29 7,60 4,91 -10,79 -50,147 -109,193 -58,46 -133,69 -213,60 -79,-9 -147,-50 -193,-108 -45,-58 -69,-134 -60,-213 8,-60 33,-114 70,-156 38,-44 88,-75 145,-90 8,-2 16,3 18,10 2,8 -3,16 -11,18 -50,14 -96,42 -130,81 -33,38 -56,86 -62,140 -9,71 13,139 54,191 41,53 102,89 173,98 71,8 139,-13 191,-54 52,-41 89,-102 97,-173 4,-28 2,-56 -3,-82 -5,-27 -15,-53 -28,-77z"/>
   </g>
  </g>
 </g>
</svg>
