<?xml version="1.0" encoding="UTF-8"?>
<!DOCTYPE svg PUBLIC "-//W3C//DTD SVG 1.1//EN" "http://www.w3.org/Graphics/SVG/1.1/DTD/svg11.dtd">
<!-- Creator: CorelDRAW X7 -->
<svg xmlns="http://www.w3.org/2000/svg" xml:space="preserve" width="100%" height="100%" version="1.1" style="shape-rendering:geometricPrecision; text-rendering:geometricPrecision; image-rendering:optimizeQuality; fill-rule:evenodd; clip-rule:evenodd"
viewBox="0 0 2393 11049"
 xmlns:xlink="http://www.w3.org/1999/xlink">
 <defs>
  <style type="text/css">
   <![CDATA[
    .fil3 {fill:#372D20;fill-rule:nonzero}
    .fil4 {fill:#F8ECDC;fill-rule:nonzero}
    .fil5 {fill:#372D20;fill-rule:nonzero;fill-opacity:0.290196}
    .fil6 {fill:#F8ECDC;fill-rule:nonzero;fill-opacity:0.290196}
    .fil1 {fill:#00AEEB;fill-rule:nonzero;fill-opacity:0.450980}
    .fil2 {fill:#FFB700;fill-rule:nonzero;fill-opacity:0.450980}
    .fil0 {fill:#FF6076;fill-rule:nonzero;fill-opacity:0.980392}
   ]]>
  </style>
 </defs>
 <g id="Layer_x0020_1">
  <metadata id="CorelCorpID_0Corel-Layer"/>
  <g id="_425724842880">
   <path class="fil0" d="M98 7108l0 1643c0,12 10,22 23,22l1380 0c12,0 23,-10 23,-22l0 -1643c0,-12 -11,-22 -23,-22l-1380 0c-13,0 -23,10 -23,22z"/>
   <path class="fil1" d="M590 3458l0 1643c0,12 11,22 23,22l1380 0c13,0 23,-10 23,-22l0 -1643c0,-13 -10,-23 -23,-23l-1380 0c-12,0 -23,10 -23,23z"/>
   <path class="fil2" d="M98 114l0 1336c0,13 10,23 23,23l1380 0c12,0 23,-10 23,-23l0 -1336 -1426 0z"/>
   <g>
    <g>
     <path class="fil3" d="M2393 5530l0 5519 -2393 0 0 -5519 2393 0zm-120 540l0 0c11,0 20,-9 20,-20l0 -126c0,-11 -9,-21 -20,-21l-162 0c-11,0 -20,10 -20,21l0 126c0,11 9,20 20,20l162 0zm0 305l0 0c11,0 20,-10 20,-21l0 -126c0,-11 -9,-20 -20,-20l-162 0c-11,0 -20,9 -20,20l0 126c0,11 9,21 20,21l162 0zm0 304l0 0c11,0 20,-9 20,-20l0 -127c0,-11 -9,-20 -20,-20l-162 0c-11,0 -20,9 -20,20l0 127c0,11 9,20 20,20l162 0zm0 304l0 0c11,0 20,-9 20,-20l0 -127c0,-11 -9,-20 -20,-20l-162 0c-11,0 -20,9 -20,20l0 127c0,11 9,20 20,20l162 0zm0 304l0 0c11,0 20,-9 20,-20l0 -127c0,-11 -9,-20 -20,-20l-162 0c-11,0 -20,9 -20,20l0 127c0,11 9,20 20,20l162 0zm0 609l0 0c11,0 20,-10 20,-21l0 -126c0,-11 -9,-20 -20,-20l-162 0c-11,0 -20,9 -20,20l0 126c0,11 9,21 20,21l162 0zm0 304l0 0c11,0 20,-9 20,-21l0 -126c0,-11 -9,-20 -20,-20l-162 0c-11,0 -20,9 -20,20l0 126c0,12 9,21 20,21l162 0zm0 304l0 0c11,0 20,-9 20,-20l0 -127c0,-11 -9,-20 -20,-20l-162 0c-11,0 -20,9 -20,20l0 127c0,11 9,20 20,20l162 0zm0 304l0 0c11,0 20,-9 20,-20l0 -127c0,-11 -9,-20 -20,-20l-162 0c-11,0 -20,9 -20,20l0 127c0,11 9,20 20,20l162 0zm0 304l0 0c11,0 20,-9 20,-20l0 -126c0,-12 -9,-21 -20,-21l-162 0c-11,0 -20,9 -20,21l0 126c0,11 9,20 20,20l162 0zm0 609l0 0c11,0 20,-9 20,-21l0 -126c0,-11 -9,-20 -20,-20l-162 0c-11,0 -20,9 -20,20l0 126c0,12 9,21 20,21l162 0zm0 304l0 0c11,0 20,-9 20,-20l0 -127c0,-11 -9,-20 -20,-20l-162 0c-11,0 -20,9 -20,20l0 127c0,11 9,20 20,20l162 0zm0 304l0 0c11,0 20,-9 20,-20l0 -127c0,-11 -9,-20 -20,-20l-162 0c-11,0 -20,9 -20,20l0 127c0,11 9,20 20,20l162 0zm0 304l0 0c11,0 20,-9 20,-20l0 -127c0,-11 -9,-20 -20,-20l-162 0c-11,0 -20,9 -20,20l0 127c0,11 9,20 20,20l162 0zm0 304l0 0c11,0 20,-9 20,-20l0 -126c0,-11 -9,-21 -20,-21l-162 0c-11,0 -20,10 -20,21l0 126c0,11 9,20 20,20l162 0zm-2096 -167l0 0c-11,0 -21,10 -21,21l0 126c0,11 10,20 21,20l162 0c11,0 20,-9 20,-20l0 -126c0,-11 -9,-21 -20,-21l-162 0zm0 -304l0 0c-11,0 -21,9 -21,20l0 127c0,11 10,20 21,20l162 0c11,0 20,-9 20,-20l0 -127c0,-11 -9,-20 -20,-20l-162 0zm0 -304l0 0c-11,0 -21,9 -21,20l0 127c0,11 10,20 21,20l162 0c11,0 20,-9 20,-20l0 -127c0,-11 -9,-20 -20,-20l-162 0zm0 -304l0 0c-11,0 -21,9 -21,20l0 127c0,11 10,20 21,20l162 0c11,0 20,-9 20,-20l0 -127c0,-11 -9,-20 -20,-20l-162 0zm0 -304l0 0c-11,0 -21,9 -21,20l0 126c0,12 10,21 21,21l162 0c11,0 20,-9 20,-21l0 -126c0,-11 -9,-20 -20,-20l-162 0zm0 -305l0 0c-11,0 -21,10 -21,21l0 126c0,11 10,20 21,20l162 0c11,0 20,-9 20,-20l0 -126c0,-11 -9,-21 -20,-21l-162 0zm377 0l0 0c-13,0 -23,11 -23,23l0 1643c0,12 10,22 23,22l1380 0c13,0 23,-10 23,-22l0 -1643c0,-12 -10,-23 -23,-23l-1380 0zm1557 0l0 0c-11,0 -20,10 -20,21l0 126c0,11 9,20 20,20l162 0c11,0 20,-9 20,-20l0 -126c0,-11 -9,-21 -20,-21l-162 0zm-1934 -304l0 0c-11,0 -21,9 -21,21l0 126c0,11 10,20 21,20l162 0c11,0 20,-9 20,-20l0 -126c0,-12 -9,-21 -20,-21l-162 0zm0 -304l0 0c-11,0 -21,9 -21,20l0 127c0,11 10,20 21,20l162 0c11,0 20,-9 20,-20l0 -127c0,-11 -9,-20 -20,-20l-162 0zm0 -304l0 0c-11,0 -21,9 -21,20l0 127c0,11 10,20 21,20l162 0c11,0 20,-9 20,-20l0 -127c0,-11 -9,-20 -20,-20l-162 0zm0 -304l0 0c-11,0 -21,9 -21,20l0 126c0,12 10,21 21,21l162 0c11,0 20,-9 20,-21l0 -126c0,-11 -9,-20 -20,-20l-162 0zm0 -304l0 0c-11,0 -21,9 -21,20l0 126c0,11 10,21 21,21l162 0c11,0 20,-10 20,-21l0 -126c0,-11 -9,-20 -20,-20l-162 0zm0 -305l0 0c-11,0 -21,9 -21,21l0 126c0,11 10,20 21,20l162 0c11,0 20,-9 20,-20l0 -126c0,-12 -9,-21 -20,-21l-162 0zm377 0l0 0c-13,0 -23,11 -23,23l0 1643c0,12 10,22 23,22l1380 0c13,0 23,-10 23,-22l0 -1643c0,-12 -10,-23 -23,-23l-1380 0zm1557 0l0 0c-11,0 -20,9 -20,21l0 126c0,11 9,20 20,20l162 0c11,0 20,-9 20,-20l0 -126c0,-12 -9,-21 -20,-21l-162 0zm-1934 -304l0 0c-11,0 -21,9 -21,20l0 127c0,11 10,20 21,20l162 0c11,0 20,-9 20,-20l0 -127c0,-11 -9,-20 -20,-20l-162 0zm0 -304l0 0c-11,0 -21,9 -21,20l0 127c0,11 10,20 21,20l162 0c11,0 20,-9 20,-20l0 -127c0,-11 -9,-20 -20,-20l-162 0zm0 -304l0 0c-11,0 -21,9 -21,20l0 127c0,11 10,20 21,20l162 0c11,0 20,-9 20,-20l0 -127c0,-11 -9,-20 -20,-20l-162 0zm0 -304l0 0c-11,0 -21,9 -21,20l0 126c0,11 10,21 21,21l162 0c11,0 20,-10 20,-21l0 -126c0,-11 -9,-20 -20,-20l-162 0zm0 -305l0 0c-11,0 -21,10 -21,21l0 126c0,11 10,20 21,20l162 0c11,0 20,-9 20,-20l0 -126c0,-11 -9,-21 -20,-21l-162 0zm0 -304l0 0c-11,0 -21,9 -21,20l0 127c0,11 10,20 21,20l162 0c11,0 20,-9 20,-20l0 -127c0,-11 -9,-20 -20,-20l-162 0zm377 0l0 0c-13,0 -23,10 -23,23l0 1642c0,13 10,23 23,23l1380 0c13,0 23,-10 23,-23l0 -1642c0,-13 -10,-23 -23,-23l-1380 0zm1557 0l0 0c-11,0 -20,9 -20,20l0 127c0,11 9,20 20,20l162 0c11,0 20,-9 20,-20l0 -127c0,-11 -9,-20 -20,-20l-162 0z"/>
     <path class="fil4" d="M2091 10917l0 -126c0,-11 9,-21 20,-21l162 0c11,0 20,10 20,21l0 126c0,11 -9,20 -20,20l-162 0c-11,0 -20,-9 -20,-20z"/>
     <path class="fil4" d="M2091 10613l0 -127c0,-11 9,-20 20,-20l162 0c11,0 20,9 20,20l0 127c0,11 -9,20 -20,20l-162 0c-11,0 -20,-9 -20,-20z"/>
     <path class="fil4" d="M2091 10309l0 -127c0,-11 9,-20 20,-20l162 0c11,0 20,9 20,20l0 127c0,11 -9,20 -20,20l-162 0c-11,0 -20,-9 -20,-20z"/>
     <path class="fil4" d="M2091 10005l0 -127c0,-11 9,-20 20,-20l162 0c11,0 20,9 20,20l0 127c0,11 -9,20 -20,20l-162 0c-11,0 -20,-9 -20,-20z"/>
     <path class="fil4" d="M2091 9700l0 -126c0,-11 9,-20 20,-20l162 0c11,0 20,9 20,20l0 126c0,12 -9,21 -20,21l-162 0c-11,0 -20,-9 -20,-21z"/>
     <path class="fil4" d="M2293 9270l0 126c0,11 -9,20 -20,20l-162 0c-11,0 -20,-9 -20,-20l0 -126c0,-11 9,-21 20,-21l162 0c11,0 20,10 20,21z"/>
     <path class="fil4" d="M2091 9092l0 -126c0,-12 9,-21 20,-21l162 0c11,0 20,9 20,21l0 126c0,11 -9,20 -20,20l-162 0c-11,0 -20,-9 -20,-20z"/>
     <path class="fil4" d="M2091 8788l0 -127c0,-11 9,-20 20,-20l162 0c11,0 20,9 20,20l0 127c0,11 -9,20 -20,20l-162 0c-11,0 -20,-9 -20,-20z"/>
     <path class="fil4" d="M2091 8484l0 -127c0,-11 9,-20 20,-20l162 0c11,0 20,9 20,20l0 127c0,11 -9,20 -20,20l-162 0c-11,0 -20,-9 -20,-20z"/>
     <path class="fil4" d="M2091 8179l0 -126c0,-11 9,-20 20,-20l162 0c11,0 20,9 20,20l0 126c0,12 -9,21 -20,21l-162 0c-11,0 -20,-9 -20,-21z"/>
     <path class="fil4" d="M2091 7875l0 -126c0,-11 9,-20 20,-20l162 0c11,0 20,9 20,20l0 126c0,11 -9,21 -20,21l-162 0c-11,0 -20,-10 -20,-21z"/>
     <path class="fil4" d="M2293 7445l0 126c0,11 -9,20 -20,20l-162 0c-11,0 -20,-9 -20,-20l0 -126c0,-12 9,-21 20,-21l162 0c11,0 20,9 20,21z"/>
     <path class="fil4" d="M2091 7267l0 -127c0,-11 9,-20 20,-20l162 0c11,0 20,9 20,20l0 127c0,11 -9,20 -20,20l-162 0c-11,0 -20,-9 -20,-20z"/>
     <path class="fil4" d="M2091 6963l0 -127c0,-11 9,-20 20,-20l162 0c11,0 20,9 20,20l0 127c0,11 -9,20 -20,20l-162 0c-11,0 -20,-9 -20,-20z"/>
     <path class="fil4" d="M2091 6659l0 -127c0,-11 9,-20 20,-20l162 0c11,0 20,9 20,20l0 127c0,11 -9,20 -20,20l-162 0c-11,0 -20,-9 -20,-20z"/>
     <path class="fil4" d="M2091 6354l0 -126c0,-11 9,-20 20,-20l162 0c11,0 20,9 20,20l0 126c0,11 -9,21 -20,21l-162 0c-11,0 -20,-10 -20,-21z"/>
     <path class="fil4" d="M2091 6050l0 -126c0,-11 9,-21 20,-21l162 0c11,0 20,10 20,21l0 126c0,11 -9,20 -20,20l-162 0c-11,0 -20,-9 -20,-20z"/>
     <path class="fil4" d="M2293 5619l0 127c0,11 -9,20 -20,20l-162 0c-11,0 -20,-9 -20,-20l0 -127c0,-11 9,-20 20,-20l162 0c11,0 20,9 20,20z"/>
     <path class="fil4" d="M359 10791l0 126c0,11 -9,20 -20,20l-162 0c-11,0 -21,-9 -21,-20l0 -126c0,-11 10,-21 21,-21l162 0c11,0 20,10 20,21z"/>
     <path class="fil4" d="M359 10486l0 127c0,11 -9,20 -20,20l-162 0c-11,0 -21,-9 -21,-20l0 -127c0,-11 10,-20 21,-20l162 0c11,0 20,9 20,20z"/>
     <path class="fil4" d="M359 10182l0 127c0,11 -9,20 -20,20l-162 0c-11,0 -21,-9 -21,-20l0 -127c0,-11 10,-20 21,-20l162 0c11,0 20,9 20,20z"/>
     <path class="fil4" d="M359 9878l0 127c0,11 -9,20 -20,20l-162 0c-11,0 -21,-9 -21,-20l0 -127c0,-11 10,-20 21,-20l162 0c11,0 20,9 20,20z"/>
     <path class="fil4" d="M359 9574l0 126c0,12 -9,21 -20,21l-162 0c-11,0 -21,-9 -21,-21l0 -126c0,-11 10,-20 21,-20l162 0c11,0 20,9 20,20z"/>
     <path class="fil4" d="M359 9270l0 126c0,11 -9,20 -20,20l-162 0c-11,0 -21,-9 -21,-20l0 -126c0,-11 10,-21 21,-21l162 0c11,0 20,10 20,21z"/>
     <path class="fil4" d="M359 8966l0 126c0,11 -9,20 -20,20l-162 0c-11,0 -21,-9 -21,-20l0 -126c0,-12 10,-21 21,-21l162 0c11,0 20,9 20,21z"/>
     <path class="fil4" d="M359 8661l0 127c0,11 -9,20 -20,20l-162 0c-11,0 -21,-9 -21,-20l0 -127c0,-11 10,-20 21,-20l162 0c11,0 20,9 20,20z"/>
     <path class="fil4" d="M359 8357l0 127c0,11 -9,20 -20,20l-162 0c-11,0 -21,-9 -21,-20l0 -127c0,-11 10,-20 21,-20l162 0c11,0 20,9 20,20z"/>
     <path class="fil4" d="M359 8053l0 126c0,12 -9,21 -20,21l-162 0c-11,0 -21,-9 -21,-21l0 -126c0,-11 10,-20 21,-20l162 0c11,0 20,9 20,20z"/>
     <path class="fil4" d="M359 7749l0 126c0,11 -9,21 -20,21l-162 0c-11,0 -21,-10 -21,-21l0 -126c0,-11 10,-20 21,-20l162 0c11,0 20,9 20,20z"/>
     <path class="fil4" d="M359 7445l0 126c0,11 -9,20 -20,20l-162 0c-11,0 -21,-9 -21,-20l0 -126c0,-12 10,-21 21,-21l162 0c11,0 20,9 20,21z"/>
     <path class="fil4" d="M359 7140l0 127c0,11 -9,20 -20,20l-162 0c-11,0 -21,-9 -21,-20l0 -127c0,-11 10,-20 21,-20l162 0c11,0 20,9 20,20z"/>
     <path class="fil4" d="M359 6836l0 127c0,11 -9,20 -20,20l-162 0c-11,0 -21,-9 -21,-20l0 -127c0,-11 10,-20 21,-20l162 0c11,0 20,9 20,20z"/>
     <path class="fil4" d="M359 6532l0 127c0,11 -9,20 -20,20l-162 0c-11,0 -21,-9 -21,-20l0 -127c0,-11 10,-20 21,-20l162 0c11,0 20,9 20,20z"/>
     <path class="fil4" d="M359 6228l0 126c0,11 -9,21 -20,21l-162 0c-11,0 -21,-10 -21,-21l0 -126c0,-11 10,-20 21,-20l162 0c11,0 20,9 20,20z"/>
     <path class="fil4" d="M359 5924l0 126c0,11 -9,20 -20,20l-162 0c-11,0 -21,-9 -21,-20l0 -126c0,-11 10,-21 21,-21l162 0c11,0 20,10 20,21z"/>
     <path class="fil4" d="M359 5619l0 127c0,11 -9,20 -20,20l-162 0c-11,0 -21,-9 -21,-20l0 -127c0,-11 10,-20 21,-20l162 0c11,0 20,9 20,20z"/>
    </g>
    <g>
     <path class="fil3" d="M2393 5532l0 -5532 -2393 0 0 5532 2393 0zm-120 -540l0 0c11,0 20,9 20,20l0 126c0,12 -9,21 -20,21l-162 0c-11,0 -20,-9 -20,-21l0 -126c0,-11 9,-20 20,-20l162 0zm0 -305l0 0c11,0 20,10 20,21l0 126c0,11 -9,20 -20,20l-162 0c-11,0 -20,-9 -20,-20l0 -126c0,-11 9,-21 20,-21l162 0zm0 -304l0 0c11,0 20,9 20,21l0 126c0,11 -9,20 -20,20l-162 0c-11,0 -20,-9 -20,-20l0 -126c0,-12 9,-21 20,-21l162 0zm0 -304l0 0c11,0 20,9 20,20l0 127c0,11 -9,20 -20,20l-162 0c-11,0 -20,-9 -20,-20l0 -127c0,-11 9,-20 20,-20l162 0zm0 -304l0 0c11,0 20,9 20,20l0 127c0,11 -9,20 -20,20l-162 0c-11,0 -20,-9 -20,-20l0 -127c0,-11 9,-20 20,-20l162 0zm0 -608l0 0c11,0 20,9 20,20l0 126c0,11 -9,20 -20,20l-162 0c-11,0 -20,-9 -20,-20l0 -126c0,-11 9,-20 20,-20l162 0zm0 -305l0 0c11,0 20,9 20,21l0 126c0,11 -9,20 -20,20l-162 0c-11,0 -20,-9 -20,-20l0 -126c0,-12 9,-21 20,-21l162 0zm0 -304l0 0c11,0 20,9 20,20l0 127c0,11 -9,20 -20,20l-162 0c-11,0 -20,-9 -20,-20l0 -127c0,-11 9,-20 20,-20l162 0zm0 -304l0 0c11,0 20,9 20,20l0 127c0,11 -9,20 -20,20l-162 0c-11,0 -20,-9 -20,-20l0 -127c0,-11 9,-20 20,-20l162 0zm0 -304l0 0c11,0 20,9 20,20l0 126c0,12 -9,21 -20,21l-162 0c-11,0 -20,-9 -20,-21l0 -126c0,-11 9,-20 20,-20l162 0zm0 -609l0 0c11,0 20,9 20,21l0 126c0,11 -9,20 -20,20l-162 0c-11,0 -20,-9 -20,-20l0 -126c0,-12 9,-21 20,-21l162 0zm0 -304l0 0c11,0 20,9 20,20l0 127c0,11 -9,20 -20,20l-162 0c-11,0 -20,-9 -20,-20l0 -127c0,-11 9,-20 20,-20l162 0zm0 -304l0 0c11,0 20,9 20,20l0 127c0,11 -9,20 -20,20l-162 0c-11,0 -20,-9 -20,-20l0 -127c0,-11 9,-20 20,-20l162 0zm0 -304l0 0c11,0 20,9 20,20l0 127c0,11 -9,20 -20,20l-162 0c-11,0 -20,-9 -20,-20l0 -127c0,-11 9,-20 20,-20l162 0zm0 -304l0 0c11,0 20,9 20,20l0 126c0,11 -9,21 -20,21l-162 0c-11,0 -20,-10 -20,-21l0 -126c0,-11 9,-20 20,-20l162 0zm-2096 167l0 0c-11,0 -21,-10 -21,-21l0 -126c0,-11 10,-20 21,-20l162 0c11,0 20,9 20,20l0 126c0,11 -9,21 -20,21l-162 0zm0 304l0 0c-11,0 -21,-9 -21,-20l0 -127c0,-11 10,-20 21,-20l162 0c11,0 20,9 20,20l0 127c0,11 -9,20 -20,20l-162 0zm0 304l0 0c-11,0 -21,-9 -21,-20l0 -127c0,-11 10,-20 21,-20l162 0c11,0 20,9 20,20l0 127c0,11 -9,20 -20,20l-162 0zm0 304l0 0c-11,0 -21,-9 -21,-20l0 -127c0,-11 10,-20 21,-20l162 0c11,0 20,9 20,20l0 127c0,11 -9,20 -20,20l-162 0zm0 304l0 0c-11,0 -21,-9 -21,-20l0 -126c0,-12 10,-21 21,-21l162 0c11,0 20,9 20,21l0 126c0,11 -9,20 -20,20l-162 0zm0 305l0 0c-11,0 -21,-10 -21,-21l0 -126c0,-11 10,-20 21,-20l162 0c11,0 20,9 20,20l0 126c0,11 -9,21 -20,21l-162 0zm377 0l0 0c-13,0 -23,-11 -23,-23l0 -1643c0,-12 10,-22 23,-22l1380 0c13,0 23,10 23,22l0 1643c0,12 -10,23 -23,23l-1380 0zm1557 0l0 0c-11,0 -20,-10 -20,-21l0 -126c0,-11 9,-20 20,-20l162 0c11,0 20,9 20,20l0 126c0,11 -9,21 -20,21l-162 0zm-1934 304l0 0c-11,0 -21,-9 -21,-21l0 -126c0,-11 10,-20 21,-20l162 0c11,0 20,9 20,20l0 126c0,12 -9,21 -20,21l-162 0zm0 304l0 0c-11,0 -21,-9 -21,-20l0 -127c0,-11 10,-20 21,-20l162 0c11,0 20,9 20,20l0 127c0,11 -9,20 -20,20l-162 0zm0 304l0 0c-11,0 -21,-9 -21,-20l0 -127c0,-11 10,-20 21,-20l162 0c11,0 20,9 20,20l0 127c0,11 -9,20 -20,20l-162 0zm0 304l0 0c-11,0 -21,-9 -21,-20l0 -126c0,-12 10,-21 21,-21l162 0c11,0 20,9 20,21l0 126c0,11 -9,20 -20,20l-162 0zm0 304l0 0c-11,0 -21,-9 -21,-20l0 -126c0,-11 10,-20 21,-20l162 0c11,0 20,9 20,20l0 126c0,11 -9,20 -20,20l-162 0zm0 305l0 0c-11,0 -21,-9 -21,-21l0 -126c0,-11 10,-20 21,-20l162 0c11,0 20,9 20,20l0 126c0,12 -9,21 -20,21l-162 0zm377 0l0 0c-13,0 -23,-11 -23,-23l0 -1643c0,-12 10,-22 23,-22l1380 0c13,0 23,10 23,22l0 1643c0,12 -10,23 -23,23l-1380 0zm1557 0l0 0c-11,0 -20,-9 -20,-21l0 -126c0,-11 9,-20 20,-20l162 0c11,0 20,9 20,20l0 126c0,12 -9,21 -20,21l-162 0zm-1934 304l0 0c-11,0 -21,-9 -21,-20l0 -127c0,-11 10,-20 21,-20l162 0c11,0 20,9 20,20l0 127c0,11 -9,20 -20,20l-162 0zm0 304l0 0c-11,0 -21,-9 -21,-20l0 -127c0,-11 10,-20 21,-20l162 0c11,0 20,9 20,20l0 127c0,11 -9,20 -20,20l-162 0zm0 304l0 0c-11,0 -21,-9 -21,-20l0 -126c0,-12 10,-21 21,-21l162 0c11,0 20,9 20,21l0 126c0,11 -9,20 -20,20l-162 0zm0 304l0 0c-11,0 -21,-9 -21,-20l0 -126c0,-11 10,-21 21,-21l162 0c11,0 20,10 20,21l0 126c0,11 -9,20 -20,20l-162 0zm0 305l0 0c-11,0 -21,-9 -21,-21l0 -126c0,-11 10,-20 21,-20l162 0c11,0 20,9 20,20l0 126c0,12 -9,21 -20,21l-162 0zm0 304l0 0c-11,0 -21,-9 -21,-20l0 -127c0,-11 10,-20 21,-20l162 0c11,0 20,9 20,20l0 127c0,11 -9,20 -20,20l-162 0zm377 0l0 0c-13,0 -23,-10 -23,-23l0 -1642c0,-13 10,-23 23,-23l1380 0c13,0 23,10 23,23l0 1642c0,13 -10,23 -23,23l-1380 0zm1557 0l0 0c-11,0 -20,-9 -20,-20l0 -127c0,-11 9,-20 20,-20l162 0c11,0 20,9 20,20l0 127c0,11 -9,20 -20,20l-162 0z"/>
     <path class="fil4" d="M2091 145l0 126c0,11 9,21 20,21l162 0c11,0 20,-10 20,-21l0 -126c0,-11 -9,-20 -20,-20l-162 0c-11,0 -20,9 -20,20z"/>
     <path class="fil4" d="M2091 449l0 127c0,11 9,20 20,20l162 0c11,0 20,-9 20,-20l0 -127c0,-11 -9,-20 -20,-20l-162 0c-11,0 -20,9 -20,20z"/>
     <path class="fil4" d="M2091 753l0 127c0,11 9,20 20,20l162 0c11,0 20,-9 20,-20l0 -127c0,-11 -9,-20 -20,-20l-162 0c-11,0 -20,9 -20,20z"/>
     <path class="fil4" d="M2091 1057l0 127c0,11 9,20 20,20l162 0c11,0 20,-9 20,-20l0 -127c0,-11 -9,-20 -20,-20l-162 0c-11,0 -20,9 -20,20z"/>
     <path class="fil4" d="M2091 1362l0 126c0,11 9,20 20,20l162 0c11,0 20,-9 20,-20l0 -126c0,-12 -9,-21 -20,-21l-162 0c-11,0 -20,9 -20,21z"/>
     <path class="fil4" d="M2293 1792l0 -126c0,-11 -9,-20 -20,-20l-162 0c-11,0 -20,9 -20,20l0 126c0,11 9,21 20,21l162 0c11,0 20,-10 20,-21z"/>
     <path class="fil4" d="M2091 1970l0 126c0,12 9,21 20,21l162 0c11,0 20,-9 20,-21l0 -126c0,-11 -9,-20 -20,-20l-162 0c-11,0 -20,9 -20,20z"/>
     <path class="fil4" d="M2091 2274l0 127c0,11 9,20 20,20l162 0c11,0 20,-9 20,-20l0 -127c0,-11 -9,-20 -20,-20l-162 0c-11,0 -20,9 -20,20z"/>
     <path class="fil4" d="M2091 2578l0 127c0,11 9,20 20,20l162 0c11,0 20,-9 20,-20l0 -127c0,-11 -9,-20 -20,-20l-162 0c-11,0 -20,9 -20,20z"/>
     <path class="fil4" d="M2091 2883l0 126c0,11 9,20 20,20l162 0c11,0 20,-9 20,-20l0 -126c0,-12 -9,-21 -20,-21l-162 0c-11,0 -20,9 -20,21z"/>
     <path class="fil4" d="M2091 3187l0 126c0,11 9,20 20,20l162 0c11,0 20,-9 20,-20l0 -126c0,-11 -9,-20 -20,-20l-162 0c-11,0 -20,9 -20,20z"/>
     <path class="fil4" d="M2293 3617l0 -126c0,-11 -9,-20 -20,-20l-162 0c-11,0 -20,9 -20,20l0 126c0,12 9,21 20,21l162 0c11,0 20,-9 20,-21z"/>
     <path class="fil4" d="M2091 3795l0 127c0,11 9,20 20,20l162 0c11,0 20,-9 20,-20l0 -127c0,-11 -9,-20 -20,-20l-162 0c-11,0 -20,9 -20,20z"/>
     <path class="fil4" d="M2091 4099l0 127c0,11 9,20 20,20l162 0c11,0 20,-9 20,-20l0 -127c0,-11 -9,-20 -20,-20l-162 0c-11,0 -20,9 -20,20z"/>
     <path class="fil4" d="M2091 4404l0 126c0,11 9,20 20,20l162 0c11,0 20,-9 20,-20l0 -126c0,-12 -9,-21 -20,-21l-162 0c-11,0 -20,9 -20,21z"/>
     <path class="fil4" d="M2091 4708l0 126c0,11 9,20 20,20l162 0c11,0 20,-9 20,-20l0 -126c0,-11 -9,-21 -20,-21l-162 0c-11,0 -20,10 -20,21z"/>
     <path class="fil4" d="M2091 5012l0 126c0,12 9,21 20,21l162 0c11,0 20,-9 20,-21l0 -126c0,-11 -9,-20 -20,-20l-162 0c-11,0 -20,9 -20,20z"/>
     <path class="fil4" d="M2293 5443l0 -127c0,-11 -9,-20 -20,-20l-162 0c-11,0 -20,9 -20,20l0 127c0,11 9,20 20,20l162 0c11,0 20,-9 20,-20z"/>
     <path class="fil4" d="M359 271l0 -126c0,-11 -9,-20 -20,-20l-162 0c-11,0 -21,9 -21,20l0 126c0,11 10,21 21,21l162 0c11,0 20,-10 20,-21z"/>
     <path class="fil4" d="M359 576l0 -127c0,-11 -9,-20 -20,-20l-162 0c-11,0 -21,9 -21,20l0 127c0,11 10,20 21,20l162 0c11,0 20,-9 20,-20z"/>
     <path class="fil4" d="M359 880l0 -127c0,-11 -9,-20 -20,-20l-162 0c-11,0 -21,9 -21,20l0 127c0,11 10,20 21,20l162 0c11,0 20,-9 20,-20z"/>
     <path class="fil4" d="M359 1184l0 -127c0,-11 -9,-20 -20,-20l-162 0c-11,0 -21,9 -21,20l0 127c0,11 10,20 21,20l162 0c11,0 20,-9 20,-20z"/>
     <path class="fil4" d="M359 1488l0 -126c0,-12 -9,-21 -20,-21l-162 0c-11,0 -21,9 -21,21l0 126c0,11 10,20 21,20l162 0c11,0 20,-9 20,-20z"/>
     <path class="fil4" d="M359 1792l0 -126c0,-11 -9,-20 -20,-20l-162 0c-11,0 -21,9 -21,20l0 126c0,11 10,21 21,21l162 0c11,0 20,-10 20,-21z"/>
     <path class="fil4" d="M359 2096l0 -126c0,-11 -9,-20 -20,-20l-162 0c-11,0 -21,9 -21,20l0 126c0,12 10,21 21,21l162 0c11,0 20,-9 20,-21z"/>
     <path class="fil4" d="M359 2401l0 -127c0,-11 -9,-20 -20,-20l-162 0c-11,0 -21,9 -21,20l0 127c0,11 10,20 21,20l162 0c11,0 20,-9 20,-20z"/>
     <path class="fil4" d="M359 2705l0 -127c0,-11 -9,-20 -20,-20l-162 0c-11,0 -21,9 -21,20l0 127c0,11 10,20 21,20l162 0c11,0 20,-9 20,-20z"/>
     <path class="fil4" d="M359 3009l0 -126c0,-12 -9,-21 -20,-21l-162 0c-11,0 -21,9 -21,21l0 126c0,11 10,20 21,20l162 0c11,0 20,-9 20,-20z"/>
     <path class="fil4" d="M359 3313l0 -126c0,-11 -9,-20 -20,-20l-162 0c-11,0 -21,9 -21,20l0 126c0,11 10,20 21,20l162 0c11,0 20,-9 20,-20z"/>
     <path class="fil4" d="M359 3617l0 -126c0,-11 -9,-20 -20,-20l-162 0c-11,0 -21,9 -21,20l0 126c0,12 10,21 21,21l162 0c11,0 20,-9 20,-21z"/>
     <path class="fil4" d="M359 3922l0 -127c0,-11 -9,-20 -20,-20l-162 0c-11,0 -21,9 -21,20l0 127c0,11 10,20 21,20l162 0c11,0 20,-9 20,-20z"/>
     <path class="fil4" d="M359 4226l0 -127c0,-11 -9,-20 -20,-20l-162 0c-11,0 -21,9 -21,20l0 127c0,11 10,20 21,20l162 0c11,0 20,-9 20,-20z"/>
     <path class="fil4" d="M359 4530l0 -126c0,-12 -9,-21 -20,-21l-162 0c-11,0 -21,9 -21,21l0 126c0,11 10,20 21,20l162 0c11,0 20,-9 20,-20z"/>
     <path class="fil4" d="M359 4834l0 -126c0,-11 -9,-21 -20,-21l-162 0c-11,0 -21,10 -21,21l0 126c0,11 10,20 21,20l162 0c11,0 20,-9 20,-20z"/>
     <path class="fil4" d="M359 5138l0 -126c0,-11 -9,-20 -20,-20l-162 0c-11,0 -21,9 -21,20l0 126c0,12 10,21 21,21l162 0c11,0 20,-9 20,-21z"/>
     <path class="fil4" d="M359 5443l0 -127c0,-11 -9,-20 -20,-20l-162 0c-11,0 -21,9 -21,20l0 127c0,11 10,20 21,20l162 0c11,0 20,-9 20,-20z"/>
    </g>
   </g>
   <g>
    <path class="fil5" d="M1987 3706l-1295 0 0 -3693 1295 0 0 46 0 0 -924 0 0 0c-8,0 -15,7 -15,16l0 1099c0,8 7,15 15,15l924 0 0 0 0 92 0 0 -924 0 0 0c-8,0 -15,6 -15,15l0 1099c0,8 7,15 15,15l924 0 0 0 0 92 0 0 -924 0 0 0c-8,0 -15,7 -15,15l0 1099c0,9 7,15 15,15l924 0 0 0 0 75zm-1176 -186l0 0c-8,0 -14,6 -14,13l0 85c0,7 6,13 14,13l108 0c7,0 13,-6 13,-13l0 -85c0,-7 -6,-13 -13,-13l-108 0zm0 -204l0 0c-8,0 -14,6 -14,14l0 84c0,8 6,14 14,14l108 0c7,0 13,-6 13,-14l0 -84c0,-8 -6,-14 -13,-14l-108 0zm0 -203l0 0c-8,0 -14,6 -14,13l0 85c0,7 6,13 14,13l108 0c7,0 13,-6 13,-13l0 -85c0,-7 -6,-13 -13,-13l-108 0zm0 -204l0 0c-8,0 -14,6 -14,14l0 84c0,8 6,14 14,14l108 0c7,0 13,-6 13,-14l0 -84c0,-8 -6,-14 -13,-14l-108 0zm0 -203l0 0c-8,0 -14,6 -14,13l0 85c0,7 6,13 14,13l108 0c7,0 13,-6 13,-13l0 -85c0,-7 -6,-13 -13,-13l-108 0zm0 -204l0 0c-8,0 -14,6 -14,14l0 84c0,8 6,14 14,14l108 0c7,0 13,-6 13,-14l0 -84c0,-8 -6,-14 -13,-14l-108 0zm0 -204l0 0c-8,0 -14,7 -14,14l0 85c0,7 6,13 14,13l108 0c7,0 13,-6 13,-13l0 -85c0,-7 -6,-14 -13,-14l-108 0zm0 -203l0 0c-8,0 -14,6 -14,13l0 85c0,7 6,14 14,14l108 0c7,0 13,-7 13,-14l0 -85c0,-7 -6,-13 -13,-13l-108 0zm0 -204l0 0c-8,0 -14,6 -14,14l0 84c0,8 6,14 14,14l108 0c7,0 13,-6 13,-14l0 -84c0,-8 -6,-14 -13,-14l-108 0zm0 -203l0 0c-8,0 -14,6 -14,13l0 85c0,7 6,13 14,13l108 0c7,0 13,-6 13,-13l0 -85c0,-7 -6,-13 -13,-13l-108 0zm0 -204l0 0c-8,0 -14,6 -14,14l0 84c0,8 6,14 14,14l108 0c7,0 13,-6 13,-14l0 -84c0,-8 -6,-14 -13,-14l-108 0zm0 -203l0 0c-8,0 -14,6 -14,13l0 85c0,7 6,13 14,13l108 0c7,0 13,-6 13,-13l0 -85c0,-7 -6,-13 -13,-13l-108 0zm0 -204l0 0c-8,0 -14,6 -14,14l0 84c0,8 6,14 14,14l108 0c7,0 13,-6 13,-14l0 -84c0,-8 -6,-14 -13,-14l-108 0zm0 -203l0 0c-8,0 -14,6 -14,13l0 85c0,7 6,13 14,13l108 0c7,0 13,-6 13,-13l0 -85c0,-7 -6,-13 -13,-13l-108 0zm0 -204l0 0c-8,0 -14,6 -14,14l0 84c0,8 6,14 14,14l108 0c7,0 13,-6 13,-14l0 -84c0,-8 -6,-14 -13,-14l-108 0zm0 -204l0 0c-8,0 -14,7 -14,14l0 85c0,7 6,13 14,13l108 0c7,0 13,-6 13,-13l0 -85c0,-7 -6,-14 -13,-14l-108 0zm0 -203l0 0c-8,0 -14,6 -14,13l0 85c0,8 6,14 14,14l108 0c7,0 13,-6 13,-14l0 -85c0,-7 -6,-13 -13,-13l-108 0zm0 -204l0 0c-8,0 -14,6 -14,14l0 85c0,7 6,13 14,13l108 0c7,0 13,-6 13,-13l0 -85c0,-8 -6,-14 -13,-14l-108 0z"/>
    <path class="fil6" d="M932 3533l0 85c0,7 -6,13 -13,13l-108 0c-8,0 -14,-6 -14,-13l0 -85c0,-7 6,-13 14,-13l108 0c7,0 13,6 13,13z"/>
    <path class="fil6" d="M932 3330l0 84c0,8 -6,14 -13,14l-108 0c-8,0 -14,-6 -14,-14l0 -84c0,-8 6,-14 14,-14l108 0c7,0 13,6 13,14z"/>
    <path class="fil6" d="M932 3126l0 85c0,7 -6,13 -13,13l-108 0c-8,0 -14,-6 -14,-13l0 -85c0,-7 6,-13 14,-13l108 0c7,0 13,6 13,13z"/>
    <path class="fil6" d="M932 2923l0 84c0,8 -6,14 -13,14l-108 0c-8,0 -14,-6 -14,-14l0 -84c0,-8 6,-14 14,-14l108 0c7,0 13,6 13,14z"/>
    <path class="fil6" d="M932 2719l0 85c0,7 -6,13 -13,13l-108 0c-8,0 -14,-6 -14,-13l0 -85c0,-7 6,-13 14,-13l108 0c7,0 13,6 13,13z"/>
    <path class="fil6" d="M932 2516l0 84c0,8 -6,14 -13,14l-108 0c-8,0 -14,-6 -14,-14l0 -84c0,-8 6,-14 14,-14l108 0c7,0 13,6 13,14z"/>
    <path class="fil6" d="M932 2312l0 85c0,7 -6,13 -13,13l-108 0c-8,0 -14,-6 -14,-13l0 -85c0,-7 6,-14 14,-14l108 0c7,0 13,7 13,14z"/>
    <path class="fil6" d="M932 2108l0 85c0,7 -6,14 -13,14l-108 0c-8,0 -14,-7 -14,-14l0 -85c0,-7 6,-13 14,-13l108 0c7,0 13,6 13,13z"/>
    <path class="fil6" d="M932 1905l0 84c0,8 -6,14 -13,14l-108 0c-8,0 -14,-6 -14,-14l0 -84c0,-8 6,-14 14,-14l108 0c7,0 13,6 13,14z"/>
    <path class="fil6" d="M932 1701l0 85c0,7 -6,13 -13,13l-108 0c-8,0 -14,-6 -14,-13l0 -85c0,-7 6,-13 14,-13l108 0c7,0 13,6 13,13z"/>
    <path class="fil6" d="M932 1498l0 84c0,8 -6,14 -13,14l-108 0c-8,0 -14,-6 -14,-14l0 -84c0,-8 6,-14 14,-14l108 0c7,0 13,6 13,14z"/>
    <path class="fil6" d="M932 1294l0 85c0,7 -6,13 -13,13l-108 0c-8,0 -14,-6 -14,-13l0 -85c0,-7 6,-13 14,-13l108 0c7,0 13,6 13,13z"/>
    <path class="fil6" d="M932 1091l0 84c0,8 -6,14 -13,14l-108 0c-8,0 -14,-6 -14,-14l0 -84c0,-8 6,-14 14,-14l108 0c7,0 13,6 13,14z"/>
    <path class="fil6" d="M932 887l0 85c0,7 -6,13 -13,13l-108 0c-8,0 -14,-6 -14,-13l0 -85c0,-7 6,-13 14,-13l108 0c7,0 13,6 13,13z"/>
    <path class="fil6" d="M932 684l0 84c0,8 -6,14 -13,14l-108 0c-8,0 -14,-6 -14,-14l0 -84c0,-8 6,-14 14,-14l108 0c7,0 13,6 13,14z"/>
    <path class="fil6" d="M932 480l0 85c0,7 -6,13 -13,13l-108 0c-8,0 -14,-6 -14,-13l0 -85c0,-7 6,-14 14,-14l108 0c7,0 13,7 13,14z"/>
    <path class="fil6" d="M932 276l0 85c0,8 -6,14 -13,14l-108 0c-8,0 -14,-6 -14,-14l0 -85c0,-7 6,-13 14,-13l108 0c7,0 13,6 13,13z"/>
    <path class="fil6" d="M932 73l0 85c0,7 -6,13 -13,13l-108 0c-8,0 -14,-6 -14,-13l0 -85c0,-8 6,-14 14,-14l108 0c7,0 13,6 13,14z"/>
    <path class="fil5" d="M693 10974l0 -3618 1294 0 0 46 -924 0 0 0c-8,0 -15,7 -15,15l0 1099c0,9 7,16 15,16l924 0 0 91 -924 0 0 0c-8,0 -15,7 -15,16l0 1099c0,8 7,15 15,15l924 0 0 92 -924 0 0 0c-8,0 -15,7 -15,15l0 1099c0,8 7,15 15,15l-144 0c8,0 14,-6 14,-13l0 -85c0,-7 -6,-14 -14,-14l-108 0 0 0c-7,0 -14,7 -14,14l0 85c0,7 7,13 14,13l-118 0zm118 -315l0 0c-7,0 -14,6 -14,13l0 85c0,8 7,14 14,14l108 0c8,0 14,-6 14,-14l0 -85c0,-7 -6,-13 -14,-13l-108 0zm0 -204l0 0c-7,0 -14,6 -14,14l0 85c0,7 7,13 14,13l108 0c8,0 14,-6 14,-13l0 -85c0,-8 -6,-14 -14,-14l-108 0zm0 -203l0 0c-7,0 -14,6 -14,13l0 85c0,7 7,14 14,14l108 0c8,0 14,-7 14,-14l0 -85c0,-7 -6,-13 -14,-13l-108 0zm0 -204l0 0c-7,0 -14,6 -14,14l0 84c0,8 7,14 14,14l108 0c8,0 14,-6 14,-14l0 -84c0,-8 -6,-14 -14,-14l-108 0zm0 -203l0 0c-7,0 -14,6 -14,13l0 85c0,7 7,13 14,13l108 0c8,0 14,-6 14,-13l0 -85c0,-7 -6,-13 -14,-13l-108 0zm0 -204l0 0c-7,0 -14,6 -14,14l0 84c0,8 7,14 14,14l108 0c8,0 14,-6 14,-14l0 -84c0,-8 -6,-14 -14,-14l-108 0zm0 -203l0 0c-7,0 -14,6 -14,13l0 85c0,7 7,13 14,13l108 0c8,0 14,-6 14,-13l0 -85c0,-7 -6,-13 -14,-13l-108 0zm0 -204l0 0c-7,0 -14,6 -14,14l0 84c0,8 7,14 14,14l108 0c8,0 14,-6 14,-14l0 -84c0,-8 -6,-14 -14,-14l-108 0zm0 -204l0 0c-7,0 -14,7 -14,14l0 85c0,7 7,13 14,13l108 0c8,0 14,-6 14,-13l0 -85c0,-7 -6,-14 -14,-14l-108 0zm0 -203l0 0c-7,0 -14,6 -14,13l0 85c0,8 7,14 14,14l108 0c8,0 14,-6 14,-14l0 -85c0,-7 -6,-13 -14,-13l-108 0zm0 -204l0 0c-7,0 -14,6 -14,14l0 85c0,7 7,13 14,13l108 0c8,0 14,-6 14,-13l0 -85c0,-8 -6,-14 -14,-14l-108 0zm0 -203l0 0c-7,0 -14,6 -14,13l0 85c0,7 7,14 14,14l108 0c8,0 14,-7 14,-14l0 -85c0,-7 -6,-13 -14,-13l-108 0zm0 -204l0 0c-7,0 -14,6 -14,14l0 84c0,8 7,14 14,14l108 0c8,0 14,-6 14,-14l0 -84c0,-8 -6,-14 -14,-14l-108 0zm0 -203l0 0c-7,0 -14,6 -14,13l0 85c0,7 7,13 14,13l108 0c8,0 14,-6 14,-13l0 -85c0,-7 -6,-13 -14,-13l-108 0zm0 -204l0 0c-7,0 -14,6 -14,14l0 84c0,8 7,14 14,14l108 0c8,0 14,-6 14,-14l0 -84c0,-8 -6,-14 -14,-14l-108 0zm0 -203l0 0c-7,0 -14,6 -14,13l0 85c0,7 7,13 14,13l108 0c8,0 14,-6 14,-13l0 -85c0,-7 -6,-13 -14,-13l-108 0zm0 -204l0 0c-7,0 -14,6 -14,14l0 84c0,8 7,14 14,14l108 0c8,0 14,-6 14,-14l0 -84c0,-8 -6,-14 -14,-14l-108 0z"/>
    <path class="fil6" d="M933 10882l0 84c0,3 -1,6 -3,8l-130 0c-2,-2 -3,-5 -3,-8l0 -84c0,-8 7,-14 14,-14l108 0c8,0 14,6 14,14z"/>
    <path class="fil6" d="M933 10678l0 85c0,7 -6,13 -14,13l-108 0c-7,0 -14,-6 -14,-13l0 -85c0,-7 7,-13 14,-13l108 0c8,0 14,6 14,13z"/>
    <path class="fil6" d="M933 10475l0 84c0,8 -6,14 -14,14l-108 0c-7,0 -14,-6 -14,-14l0 -84c0,-8 7,-14 14,-14l108 0c8,0 14,6 14,14z"/>
    <path class="fil6" d="M933 10271l0 85c0,7 -6,13 -14,13l-108 0c-7,0 -14,-6 -14,-13l0 -85c0,-7 7,-13 14,-13l108 0c8,0 14,6 14,13z"/>
    <path class="fil6" d="M933 10068l0 84c0,8 -6,14 -14,14l-108 0c-7,0 -14,-6 -14,-14l0 -84c0,-8 7,-14 14,-14l108 0c8,0 14,6 14,14z"/>
    <path class="fil6" d="M933 9864l0 85c0,7 -6,13 -14,13l-108 0c-7,0 -14,-6 -14,-13l0 -85c0,-7 7,-14 14,-14l108 0c8,0 14,7 14,14z"/>
    <path class="fil6" d="M933 9660l0 85c0,8 -6,14 -14,14l-108 0c-7,0 -14,-6 -14,-14l0 -85c0,-7 7,-13 14,-13l108 0c8,0 14,6 14,13z"/>
    <path class="fil6" d="M933 9457l0 85c0,7 -6,13 -14,13l-108 0c-7,0 -14,-6 -14,-13l0 -85c0,-8 7,-14 14,-14l108 0c8,0 14,6 14,14z"/>
    <path class="fil6" d="M933 9253l0 85c0,7 -6,14 -14,14l-108 0c-7,0 -14,-7 -14,-14l0 -85c0,-7 7,-13 14,-13l108 0c8,0 14,6 14,13z"/>
    <path class="fil6" d="M933 9050l0 84c0,8 -6,14 -14,14l-108 0c-7,0 -14,-6 -14,-14l0 -84c0,-8 7,-14 14,-14l108 0c8,0 14,6 14,14z"/>
    <path class="fil6" d="M933 8846l0 85c0,7 -6,13 -14,13l-108 0c-7,0 -14,-6 -14,-13l0 -85c0,-7 7,-13 14,-13l108 0c8,0 14,6 14,13z"/>
    <path class="fil6" d="M933 8643l0 84c0,8 -6,14 -14,14l-108 0c-7,0 -14,-6 -14,-14l0 -84c0,-8 7,-14 14,-14l108 0c8,0 14,6 14,14z"/>
    <path class="fil6" d="M933 8439l0 85c0,7 -6,13 -14,13l-108 0c-7,0 -14,-6 -14,-13l0 -85c0,-7 7,-13 14,-13l108 0c8,0 14,6 14,13z"/>
    <path class="fil6" d="M933 8236l0 84c0,8 -6,14 -14,14l-108 0c-7,0 -14,-6 -14,-14l0 -84c0,-8 7,-14 14,-14l108 0c8,0 14,6 14,14z"/>
    <path class="fil6" d="M933 8032l0 85c0,7 -6,13 -14,13l-108 0c-7,0 -14,-6 -14,-13l0 -85c0,-7 7,-13 14,-13l108 0c8,0 14,6 14,13z"/>
    <path class="fil6" d="M933 7828l0 85c0,8 -6,14 -14,14l-108 0c-7,0 -14,-6 -14,-14l0 -85c0,-7 7,-13 14,-13l108 0c8,0 14,6 14,13z"/>
    <path class="fil6" d="M933 7625l0 85c0,7 -6,13 -14,13l-108 0c-7,0 -14,-6 -14,-13l0 -85c0,-8 7,-14 14,-14l108 0c8,0 14,6 14,14z"/>
    <path class="fil6" d="M933 7421l0 85c0,7 -6,14 -14,14l-108 0c-7,0 -14,-7 -14,-14l0 -85c0,-7 7,-13 14,-13l108 0c8,0 14,6 14,13z"/>
    <path class="fil5" d="M1987 3659l-1294 0 0 3702 1294 0 0 -46 -924 0 0 0c-8,0 -15,-7 -15,-15l0 -1099c0,-9 7,-15 15,-15l924 0 0 -92 -924 0 0 0c-8,0 -15,-7 -15,-15l0 -1100c0,-8 7,-15 15,-15l924 0 0 -92 -924 0 0 0c-8,0 -15,-6 -15,-15l0 -1099c0,-8 7,-15 15,-15l924 0 0 -84zm-1176 196l0 0c-7,0 -14,-6 -14,-14l0 -85c0,-7 7,-13 14,-13l108 0c8,0 14,6 14,13l0 85c0,8 -6,14 -14,14l-108 0zm0 203l0 0c-7,0 -14,-6 -14,-13l0 -85c0,-7 7,-14 14,-14l108 0c8,0 14,7 14,14l0 85c0,7 -6,13 -14,13l-108 0zm0 204l0 0c-7,0 -14,-6 -14,-14l0 -84c0,-8 7,-14 14,-14l108 0c8,0 14,6 14,14l0 84c0,8 -6,14 -14,14l-108 0zm0 203l0 0c-7,0 -14,-6 -14,-13l0 -85c0,-7 7,-13 14,-13l108 0c8,0 14,6 14,13l0 85c0,7 -6,13 -14,13l-108 0zm0 204l0 0c-7,0 -14,-6 -14,-14l0 -84c0,-8 7,-14 14,-14l108 0c8,0 14,6 14,14l0 84c0,8 -6,14 -14,14l-108 0zm0 203l0 0c-7,0 -14,-6 -14,-13l0 -85c0,-7 7,-13 14,-13l108 0c8,0 14,6 14,13l0 85c0,7 -6,13 -14,13l-108 0zm0 204l0 0c-7,0 -14,-6 -14,-14l0 -84c0,-8 7,-14 14,-14l108 0c8,0 14,6 14,14l0 84c0,8 -6,14 -14,14l-108 0zm0 203l0 0c-7,0 -14,-6 -14,-13l0 -85c0,-7 7,-13 14,-13l108 0c8,0 14,6 14,13l0 85c0,7 -6,13 -14,13l-108 0zm0 204l0 0c-7,0 -14,-6 -14,-14l0 -84c0,-8 7,-14 14,-14l108 0c8,0 14,6 14,14l0 84c0,8 -6,14 -14,14l-108 0zm0 204l0 0c-7,0 -14,-7 -14,-14l0 -85c0,-7 7,-13 14,-13l108 0c8,0 14,6 14,13l0 85c0,7 -6,14 -14,14l-108 0zm0 203l0 0c-7,0 -14,-6 -14,-13l0 -85c0,-8 7,-14 14,-14l108 0c8,0 14,6 14,14l0 85c0,7 -6,13 -14,13l-108 0zm0 204l0 0c-7,0 -14,-6 -14,-14l0 -84c0,-8 7,-14 14,-14l108 0c8,0 14,6 14,14l0 84c0,8 -6,14 -14,14l-108 0zm0 203l0 0c-7,0 -14,-6 -14,-13l0 -85c0,-7 7,-13 14,-13l108 0c8,0 14,6 14,13l0 85c0,7 -6,13 -14,13l-108 0zm0 204l0 0c-7,0 -14,-6 -14,-14l0 -84c0,-8 7,-14 14,-14l108 0c8,0 14,6 14,14l0 84c0,8 -6,14 -14,14l-108 0zm0 203l0 0c-7,0 -14,-6 -14,-13l0 -85c0,-7 7,-13 14,-13l108 0c8,0 14,6 14,13l0 85c0,7 -6,13 -14,13l-108 0zm0 204l0 0c-7,0 -14,-6 -14,-14l0 -84c0,-8 7,-14 14,-14l108 0c8,0 14,6 14,14l0 84c0,8 -6,14 -14,14l-108 0zm0 203l0 0c-7,0 -14,-6 -14,-13l0 -85c0,-7 7,-13 14,-13l108 0c8,0 14,6 14,13l0 85c0,7 -6,13 -14,13l-108 0zm0 204l0 0c-7,0 -14,-6 -14,-14l0 -84c0,-8 7,-14 14,-14l108 0c8,0 14,6 14,14l0 84c0,8 -6,14 -14,14l-108 0z"/>
    <path class="fil6" d="M933 3841l0 -85c0,-7 -6,-13 -14,-13l-108 0c-7,0 -14,6 -14,13l0 85c0,8 7,14 14,14l108 0c8,0 14,-6 14,-14z"/>
    <path class="fil6" d="M933 4045l0 -85c0,-7 -6,-14 -14,-14l-108 0c-7,0 -14,7 -14,14l0 85c0,7 7,13 14,13l108 0c8,0 14,-6 14,-13z"/>
    <path class="fil6" d="M933 4248l0 -84c0,-8 -6,-14 -14,-14l-108 0c-7,0 -14,6 -14,14l0 84c0,8 7,14 14,14l108 0c8,0 14,-6 14,-14z"/>
    <path class="fil6" d="M933 4452l0 -85c0,-7 -6,-13 -14,-13l-108 0c-7,0 -14,6 -14,13l0 85c0,7 7,13 14,13l108 0c8,0 14,-6 14,-13z"/>
    <path class="fil6" d="M933 4655l0 -84c0,-8 -6,-14 -14,-14l-108 0c-7,0 -14,6 -14,14l0 84c0,8 7,14 14,14l108 0c8,0 14,-6 14,-14z"/>
    <path class="fil6" d="M933 4859l0 -85c0,-7 -6,-13 -14,-13l-108 0c-7,0 -14,6 -14,13l0 85c0,7 7,13 14,13l108 0c8,0 14,-6 14,-13z"/>
    <path class="fil6" d="M933 5062l0 -84c0,-8 -6,-14 -14,-14l-108 0c-7,0 -14,6 -14,14l0 84c0,8 7,14 14,14l108 0c8,0 14,-6 14,-14z"/>
    <path class="fil6" d="M933 5266l0 -85c0,-7 -6,-13 -14,-13l-108 0c-7,0 -14,6 -14,13l0 85c0,7 7,13 14,13l108 0c8,0 14,-6 14,-13z"/>
    <path class="fil6" d="M933 5469l0 -84c0,-8 -6,-14 -14,-14l-108 0c-7,0 -14,6 -14,14l0 84c0,8 7,14 14,14l108 0c8,0 14,-6 14,-14z"/>
    <path class="fil6" d="M933 5673l0 -85c0,-7 -6,-13 -14,-13l-108 0c-7,0 -14,6 -14,13l0 85c0,7 7,14 14,14l108 0c8,0 14,-7 14,-14z"/>
    <path class="fil6" d="M933 5877l0 -85c0,-8 -6,-14 -14,-14l-108 0c-7,0 -14,6 -14,14l0 85c0,7 7,13 14,13l108 0c8,0 14,-6 14,-13z"/>
    <path class="fil6" d="M933 6080l0 -84c0,-8 -6,-14 -14,-14l-108 0c-7,0 -14,6 -14,14l0 84c0,8 7,14 14,14l108 0c8,0 14,-6 14,-14z"/>
    <path class="fil6" d="M933 6284l0 -85c0,-7 -6,-13 -14,-13l-108 0c-7,0 -14,6 -14,13l0 85c0,7 7,13 14,13l108 0c8,0 14,-6 14,-13z"/>
    <path class="fil6" d="M933 6487l0 -84c0,-8 -6,-14 -14,-14l-108 0c-7,0 -14,6 -14,14l0 84c0,8 7,14 14,14l108 0c8,0 14,-6 14,-14z"/>
    <path class="fil6" d="M933 6691l0 -85c0,-7 -6,-13 -14,-13l-108 0c-7,0 -14,6 -14,13l0 85c0,7 7,13 14,13l108 0c8,0 14,-6 14,-13z"/>
    <path class="fil6" d="M933 6894l0 -84c0,-8 -6,-14 -14,-14l-108 0c-7,0 -14,6 -14,14l0 84c0,8 7,14 14,14l108 0c8,0 14,-6 14,-14z"/>
    <path class="fil6" d="M933 7098l0 -85c0,-7 -6,-13 -14,-13l-108 0c-7,0 -14,6 -14,13l0 85c0,7 7,13 14,13l108 0c8,0 14,-6 14,-13z"/>
    <path class="fil6" d="M933 7301l0 -84c0,-8 -6,-14 -14,-14l-108 0c-7,0 -14,6 -14,14l0 84c0,8 7,14 14,14l108 0c8,0 14,-6 14,-14z"/>
   </g>
  </g>
 </g>
</svg>
