<?xml version="1.0" encoding="UTF-8"?>
<!DOCTYPE svg PUBLIC "-//W3C//DTD SVG 1.1//EN" "http://www.w3.org/Graphics/SVG/1.1/DTD/svg11.dtd">
<!-- Creator: CorelDRAW X7 -->
<svg xmlns="http://www.w3.org/2000/svg" xml:space="preserve" width="100%" height="100%" version="1.1" style="shape-rendering:geometricPrecision; text-rendering:geometricPrecision; image-rendering:optimizeQuality; fill-rule:evenodd; clip-rule:evenodd"
viewBox="0 0 1232 1217"
 xmlns:xlink="http://www.w3.org/1999/xlink">
 <defs>
  <style type="text/css">
   <![CDATA[
    .fil1 {fill:#F8ECDC}
    .fil0 {fill:#877157;fill-rule:nonzero}
   ]]>
  </style>
 </defs>
 <g id="Layer_x0020_1">
  <metadata id="CorelCorpID_0Corel-Layer"/>
  <g id="_426023675664">
   <path class="fil0" d="M0 17l0 1184c0,9 11,16 26,16l1180 0c15,0 26,-7 26,-16l0 -1184c0,-10 -11,-17 -26,-17l-1180 0c-15,0 -26,7 -26,17zm1144 1049l0 0c5,0 9,3 9,6l0 96c0,3 -4,6 -9,6l-148 0c-5,0 -9,-3 -9,-6l0 -96c0,-3 4,-6 9,-6l148 0zm-229 0l0 0c5,0 9,3 9,6l0 96c0,3 -4,6 -9,6l-148 0c-5,0 -8,-3 -8,-6l0 -96c0,-3 3,-6 8,-6l148 0zm-229 0l0 0c5,0 9,3 9,6l0 96c0,3 -4,6 -9,6l-148 0c-4,0 -8,-3 -8,-6l0 -96c0,-3 4,-6 8,-6l148 0zm-228 0l0 0c4,0 8,3 8,6l0 96c0,3 -4,6 -8,6l-148 0c-5,0 -9,-3 -9,-6l0 -96c0,-3 4,-6 9,-6l148 0zm-229 0l0 0c5,0 8,3 8,6l0 96c0,3 -3,6 -8,6l-148 0c-5,0 -9,-3 -9,-6l0 -96c0,-3 4,-6 9,-6l148 0zm915 -1000l0 0c5,0 9,2 9,5l0 97c0,3 -4,5 -9,5l-148 0c-5,0 -9,-2 -9,-5l0 -97c0,-3 4,-5 9,-5l148 0zm-229 0l0 0c5,0 9,2 9,5l0 97c0,3 -4,5 -9,5l-148 0c-5,0 -8,-2 -8,-5l0 -97c0,-3 3,-5 8,-5l148 0zm-229 0l0 0c5,0 9,2 9,5l0 97c0,3 -4,5 -9,5l-148 0c-4,0 -8,-2 -8,-5l0 -97c0,-3 4,-5 8,-5l148 0zm-228 0l0 0c4,0 8,2 8,5l0 97c0,3 -4,5 -8,5l-148 0c-5,0 -9,-2 -9,-5l0 -97c0,-3 4,-5 9,-5l148 0zm-229 0l0 0c5,0 8,2 8,5l0 97c0,3 -3,5 -8,5l-148 0c-5,0 -9,-2 -9,-5l0 -97c0,-3 4,-5 9,-5l148 0z"/>
   <path class="fil1" d="M338 586l0 36c4,10 7,46 12,62 14,40 29,65 54,95 8,9 32,31 41,36l58 -58c-17,-20 -36,-19 -64,-75 -51,-100 9,-237 133,-256 131,-20 228,95 205,212 -5,29 -29,79 -49,92 -19,-16 -57,-60 -72,-69l0 206 206 0c-7,-15 -60,-61 -75,-77 77,-81 66,-142 77,-170l0 -32c-11,-28 -1,-92 -78,-170 -76,-76 -144,-68 -169,-77l-33 0c-21,8 -98,3 -168,76 -20,21 -36,40 -52,72 -26,54 -19,79 -26,97z"/>
  </g>
 </g>
</svg>
