<?xml version="1.0" encoding="UTF-8"?>
<!DOCTYPE svg PUBLIC "-//W3C//DTD SVG 1.1//EN" "http://www.w3.org/Graphics/SVG/1.1/DTD/svg11.dtd">
<!-- Creator: CorelDRAW X7 -->
<svg xmlns="http://www.w3.org/2000/svg" xml:space="preserve" width="100%" height="100%" version="1.1" style="shape-rendering:geometricPrecision; text-rendering:geometricPrecision; image-rendering:optimizeQuality; fill-rule:evenodd; clip-rule:evenodd"
viewBox="0 0 1253 3310"
 xmlns:xlink="http://www.w3.org/1999/xlink"
 baseProfile="tiny"
 enable-background="new 0 0 253.382 55.879">
 <defs>
  <style type="text/css">
   <![CDATA[
    .fil0 {fill:#125860}
    .fil2 {fill:#175B64}
    .fil1 {fill:#3C868F}
   ]]>
  </style>
 </defs>
 <g id="Layer_x0020_1">
  <metadata id="CorelCorpID_0Corel-Layer"/>
  <g id="_1072824416496">
   <path class="fil0" d="M591 239l492 26c0,0 -15,-221 -111,-248 -96,-27 -508,-15 -508,-15 0,0 42,337 42,255 0,-82 85,-18 85,-18z"/>
   <path class="fil1" d="M464 2c147,71 212,72 214,173 1,102 -468,105 -468,105 0,0 -80,-236 254,-278z"/>
   <polygon class="fil0" points="678,175 133,175 129,327 76,327 75,533 2,533 0,3309 972,3310 820,175 "/>
   <path class="fil1" d="M1167 161l0 260 87 0 0 2890 -649 -3 0 -2761 55 -1 0 -211 52 0 0 -169c0,0 455,0 455,-5z"/>
   <polygon class="fil2" points="863,277 958,279 958,392 862,392 "/>
   <polygon class="fil2" points="863,466 958,467 958,581 862,581 "/>
   <polygon class="fil2" points="863,657 958,658 958,772 862,772 "/>
   <polygon class="fil2" points="863,845 958,847 958,960 862,960 "/>
   <polygon class="fil2" points="863,1030 958,1031 958,1146 862,1146 "/>
   <polygon class="fil2" points="863,1219 958,1220 958,1334 862,1334 "/>
   <polygon class="fil2" points="863,1400 958,1402 958,1516 862,1516 "/>
   <polygon class="fil2" points="863,1589 958,1590 958,1704 862,1704 "/>
   <polygon class="fil2" points="863,1758 958,1759 958,1873 862,1873 "/>
   <polygon class="fil2" points="863,1946 958,1947 958,2061 862,2061 "/>
   <polygon class="fil2" points="863,2141 958,2142 958,2256 862,2256 "/>
   <polygon class="fil2" points="863,2329 958,2330 958,2444 862,2444 "/>
   <polygon class="fil2" points="863,2508 958,2509 958,2623 862,2623 "/>
   <polygon class="fil2" points="863,2696 958,2697 958,2811 862,2811 "/>
   <polygon class="fil2" points="863,2881 958,2882 958,2996 862,2996 "/>
   <polygon class="fil2" points="863,3070 958,3071 958,3185 862,3185 "/>
   <rect class="fil2" x="746" y="442" width="31.2301" height="43.0866"/>
   <rect class="fil2" x="1037" y="442" width="31.2301" height="43.0866"/>
   <rect class="fil2" x="746" y="619" width="31.2301" height="43.0762"/>
   <rect class="fil2" x="1037" y="619" width="31.2301" height="43.0762"/>
   <rect class="fil2" x="746" y="795" width="31.2301" height="43.0605"/>
   <rect class="fil2" x="1037" y="795" width="31.2301" height="43.0605"/>
   <rect class="fil2" x="746" y="972" width="31.2301" height="43.0605"/>
   <rect class="fil2" x="1037" y="972" width="31.2301" height="43.0605"/>
   <rect class="fil2" x="746" y="1146" width="31.2301" height="43.0866"/>
   <rect class="fil2" x="1037" y="1146" width="31.2301" height="43.0866"/>
   <rect class="fil2" x="746" y="1323" width="31.2301" height="43.0762"/>
   <rect class="fil2" x="1037" y="1323" width="31.2301" height="43.0762"/>
   <rect class="fil2" x="746" y="1493" width="31.2301" height="43.0866"/>
   <rect class="fil2" x="1037" y="1493" width="31.2301" height="43.0866"/>
   <rect class="fil2" x="746" y="1670" width="31.2301" height="43.0605"/>
   <rect class="fil2" x="1037" y="1670" width="31.2301" height="43.0605"/>
   <rect class="fil2" x="746" y="1843" width="31.2301" height="43.0762"/>
   <rect class="fil2" x="1037" y="1843" width="31.2301" height="43.0762"/>
   <rect class="fil2" x="746" y="2021" width="31.2301" height="43.0762"/>
   <rect class="fil2" x="1037" y="2021" width="31.2301" height="43.0762"/>
   <rect class="fil2" x="746" y="2196" width="31.2301" height="43.0866"/>
   <rect class="fil2" x="1037" y="2196" width="31.2301" height="43.0866"/>
   <rect class="fil2" x="746" y="2373" width="31.2301" height="43.0605"/>
   <rect class="fil2" x="1037" y="2373" width="31.2301" height="43.0605"/>
   <rect class="fil2" x="746" y="2544" width="31.2301" height="43.0762"/>
   <rect class="fil2" x="1037" y="2544" width="31.2301" height="43.0762"/>
   <rect class="fil2" x="746" y="2722" width="31.2301" height="43.0605"/>
   <rect class="fil2" x="1037" y="2722" width="31.2301" height="43.0605"/>
   <rect class="fil2" x="743" y="2903" width="31.2458" height="43.0762"/>
   <rect class="fil2" x="1034" y="2903" width="31.2458" height="43.0762"/>
   <rect class="fil2" x="743" y="3080" width="31.2458" height="43.0605"/>
   <rect class="fil2" x="1034" y="3080" width="31.2458" height="43.0605"/>
   <rect class="fil1" x="302" y="272" width="127" height="112"/>
   <rect class="fil1" x="232" y="444" width="205.205" height="99.3908"/>
   <rect class="fil1" x="350" y="615" width="102" height="114"/>
   <rect class="fil1" x="480" y="615" width="102" height="114"/>
   <rect class="fil1" x="350" y="780" width="102" height="114"/>
   <rect class="fil1" x="480" y="780" width="102" height="114"/>
   <rect class="fil1" x="350" y="943" width="102" height="114"/>
   <rect class="fil1" x="480" y="943" width="102" height="114"/>
   <rect class="fil1" x="350" y="1592" width="102" height="114"/>
   <rect class="fil1" x="480" y="1592" width="102" height="114"/>
   <rect class="fil1" x="350" y="1757" width="102" height="114"/>
   <rect class="fil1" x="480" y="1757" width="102" height="114"/>
   <rect class="fil1" x="350" y="1920" width="102" height="114"/>
   <rect class="fil1" x="480" y="1920" width="102" height="114"/>
   <rect class="fil1" x="350" y="1106" width="102" height="114"/>
   <rect class="fil1" x="480" y="1106" width="102" height="114"/>
   <rect class="fil1" x="350" y="1271" width="102" height="114"/>
   <rect class="fil1" x="480" y="1271" width="102" height="114"/>
   <rect class="fil1" x="350" y="1434" width="102" height="114"/>
   <rect class="fil1" x="480" y="1434" width="102" height="114"/>
   <rect class="fil1" x="348" y="2571" width="102" height="114"/>
   <rect class="fil1" x="479" y="2571" width="102" height="114"/>
   <rect class="fil1" x="348" y="2736" width="102" height="114"/>
   <rect class="fil1" x="479" y="2736" width="102" height="114"/>
   <rect class="fil1" x="348" y="2899" width="102" height="114"/>
   <rect class="fil1" x="479" y="2899" width="102" height="114"/>
   <rect class="fil1" x="349" y="2085" width="102" height="114"/>
   <rect class="fil1" x="479" y="2085" width="102" height="114"/>
   <rect class="fil1" x="349" y="2250" width="102" height="114"/>
   <rect class="fil1" x="479" y="2250" width="102" height="114"/>
   <rect class="fil1" x="349" y="2413" width="102" height="114"/>
   <rect class="fil1" x="479" y="2413" width="102" height="114"/>
   <rect class="fil1" x="351" y="3062" width="102" height="114"/>
   <rect class="fil1" x="481" y="3062" width="102" height="114"/>
   <rect class="fil1" x="64" y="615" width="102" height="114"/>
   <rect class="fil1" x="194" y="615" width="102" height="114"/>
   <rect class="fil1" x="64" y="780" width="102" height="114"/>
   <rect class="fil1" x="194" y="780" width="102" height="114"/>
   <rect class="fil1" x="64" y="943" width="102" height="114"/>
   <rect class="fil1" x="194" y="943" width="102" height="114"/>
   <rect class="fil1" x="63" y="1592" width="102" height="114"/>
   <rect class="fil1" x="193" y="1592" width="102" height="114"/>
   <rect class="fil1" x="63" y="1757" width="102" height="114"/>
   <rect class="fil1" x="193" y="1757" width="102" height="114"/>
   <rect class="fil1" x="63" y="1920" width="102" height="114"/>
   <rect class="fil1" x="193" y="1920" width="102" height="114"/>
   <rect class="fil1" x="63" y="1106" width="102" height="114"/>
   <rect class="fil1" x="194" y="1106" width="102" height="114"/>
   <rect class="fil1" x="63" y="1271" width="102" height="114"/>
   <rect class="fil1" x="194" y="1271" width="102" height="114"/>
   <rect class="fil1" x="63" y="1434" width="102" height="114"/>
   <rect class="fil1" x="194" y="1434" width="102" height="114"/>
   <rect class="fil1" x="62" y="2571" width="102" height="114"/>
   <rect class="fil1" x="192" y="2571" width="102" height="114"/>
   <rect class="fil1" x="62" y="2736" width="102" height="114"/>
   <rect class="fil1" x="192" y="2736" width="102" height="114"/>
   <rect class="fil1" x="62" y="2899" width="102" height="114"/>
   <rect class="fil1" x="192" y="2899" width="102" height="114"/>
   <rect class="fil1" x="62" y="2085" width="102" height="114"/>
   <rect class="fil1" x="192" y="2085" width="102" height="114"/>
   <rect class="fil1" x="62" y="2250" width="102" height="114"/>
   <rect class="fil1" x="192" y="2250" width="102" height="114"/>
   <rect class="fil1" x="62" y="2413" width="102" height="114"/>
   <rect class="fil1" x="192" y="2413" width="102" height="114"/>
   <rect class="fil1" x="64" y="3062" width="102" height="114"/>
   <rect class="fil1" x="195" y="3062" width="102" height="114"/>
  </g>
 </g>
</svg>
