<?xml version="1.0" encoding="UTF-8"?>
<!DOCTYPE svg PUBLIC "-//W3C//DTD SVG 1.1//EN" "http://www.w3.org/Graphics/SVG/1.1/DTD/svg11.dtd">
<!-- Creator: CorelDRAW X7 -->
<svg xmlns="http://www.w3.org/2000/svg" xml:space="preserve" width="100%" height="100%" version="1.1" style="shape-rendering:geometricPrecision; text-rendering:geometricPrecision; image-rendering:optimizeQuality; fill-rule:evenodd; clip-rule:evenodd"
viewBox="0 0 1273 2747"
 xmlns:xlink="http://www.w3.org/1999/xlink"
 baseProfile="tiny"
 enable-background="new 0 0 253.382 55.879">
 <defs>
  <style type="text/css">
   <![CDATA[
    .fil1 {fill:#125860}
    .fil0 {fill:#3C868F}
   ]]>
  </style>
 </defs>
 <g id="Layer_x0020_1">
  <metadata id="CorelCorpID_0Corel-Layer"/>
  <g id="_1073101359136">
   <polygon class="fil0" points="211,149 644,149 644,0 211,82 "/>
   <polygon class="fil1" points="1273,2747 1272,126 644,0 643,146 423,99 424,2584 "/>
   <polygon class="fil0" points="423,2484 1269,2637 1269,2663 423,2503 "/>
   <polygon class="fil0" points="423,2410 1269,2563 1269,2589 423,2429 "/>
   <polygon class="fil0" points="423,2337 1269,2489 1269,2515 423,2355 "/>
   <polygon class="fil0" points="423,2263 1269,2415 1269,2442 423,2281 "/>
   <polygon class="fil0" points="423,2189 1269,2341 1269,2368 423,2207 "/>
   <polygon class="fil0" points="423,2115 1269,2267 1269,2294 423,2133 "/>
   <polygon class="fil0" points="423,2041 1269,2193 1269,2220 423,2059 "/>
   <polygon class="fil0" points="423,1967 1269,2119 1269,2146 423,1985 "/>
   <polygon class="fil0" points="423,1893 1269,2045 1269,2072 423,1912 "/>
   <polygon class="fil0" points="423,1819 1269,1971 1269,1998 423,1838 "/>
   <polygon class="fil0" points="423,1745 1269,1897 1269,1924 423,1764 "/>
   <polygon class="fil0" points="423,1671 1269,1823 1269,1850 423,1690 "/>
   <polygon class="fil0" points="423,1597 1269,1749 1269,1776 423,1616 "/>
   <polygon class="fil0" points="423,1523 1269,1675 1269,1702 423,1542 "/>
   <polygon class="fil0" points="423,1449 1269,1601 1269,1628 423,1468 "/>
   <polygon class="fil0" points="423,1375 1269,1527 1269,1554 423,1394 "/>
   <polygon class="fil0" points="423,1301 1269,1453 1269,1480 423,1320 "/>
   <polygon class="fil0" points="423,1227 1269,1379 1269,1406 423,1246 "/>
   <polygon class="fil0" points="423,1153 1269,1305 1269,1332 423,1172 "/>
   <polygon class="fil0" points="423,1079 1269,1231 1269,1258 423,1098 "/>
   <polygon class="fil0" points="423,1005 1269,1157 1269,1184 423,1024 "/>
   <polygon class="fil0" points="423,931 1269,1083 1269,1110 423,950 "/>
   <polygon class="fil0" points="423,857 1269,1010 1269,1036 423,876 "/>
   <polygon class="fil0" points="423,783 1269,936 1269,962 423,802 "/>
   <polygon class="fil0" points="423,709 1269,862 1269,888 423,728 "/>
   <polygon class="fil0" points="423,635 1269,788 1269,814 423,654 "/>
   <polygon class="fil0" points="423,561 1269,714 1269,740 423,580 "/>
   <polygon class="fil0" points="423,488 1269,640 1269,666 423,506 "/>
   <polygon class="fil0" points="423,414 1269,566 1269,593 423,432 "/>
   <polygon class="fil0" points="424,191 1270,344 1270,370 424,210 "/>
   <polygon class="fil0" points="1,194 423,99 424,2584 3,2673 "/>
   <polygon class="fil1" points="4,2572 425,2485 425,2504 4,2588 "/>
   <polygon class="fil1" points="4,2498 425,2411 425,2430 4,2514 "/>
   <polygon class="fil1" points="4,2424 425,2337 425,2356 4,2440 "/>
   <polygon class="fil1" points="4,2350 425,2263 425,2282 4,2366 "/>
   <polygon class="fil1" points="4,2276 425,2189 425,2208 4,2292 "/>
   <polygon class="fil1" points="4,2202 425,2115 425,2134 4,2218 "/>
   <polygon class="fil1" points="4,2128 425,2041 425,2060 4,2144 "/>
   <polygon class="fil1" points="4,2054 425,1967 425,1986 4,2070 "/>
   <polygon class="fil1" points="4,1980 425,1893 425,1912 4,1996 "/>
   <polygon class="fil1" points="4,1906 425,1819 425,1838 4,1922 "/>
   <polygon class="fil1" points="4,1832 425,1745 425,1764 4,1848 "/>
   <polygon class="fil1" points="4,1758 425,1671 425,1690 4,1774 "/>
   <polygon class="fil1" points="4,1684 425,1597 425,1616 4,1700 "/>
   <polygon class="fil1" points="4,1611 425,1523 425,1542 4,1626 "/>
   <polygon class="fil1" points="4,1537 425,1449 425,1468 4,1552 "/>
   <polygon class="fil1" points="4,1463 425,1375 425,1394 4,1478 "/>
   <polygon class="fil1" points="4,1389 425,1302 425,1320 4,1404 "/>
   <polygon class="fil1" points="4,1315 425,1228 425,1246 4,1330 "/>
   <polygon class="fil1" points="4,1241 425,1154 425,1172 4,1256 "/>
   <polygon class="fil1" points="4,1167 425,1080 425,1098 4,1182 "/>
   <polygon class="fil1" points="4,1093 425,1006 425,1024 4,1108 "/>
   <polygon class="fil1" points="4,1019 425,932 425,950 4,1034 "/>
   <polygon class="fil1" points="4,945 425,858 425,876 4,960 "/>
   <polygon class="fil1" points="4,871 425,784 425,802 4,886 "/>
   <polygon class="fil1" points="4,797 425,710 425,728 4,812 "/>
   <polygon class="fil1" points="4,723 425,636 425,655 4,739 "/>
   <polygon class="fil1" points="4,649 425,562 425,581 4,665 "/>
   <polygon class="fil1" points="4,575 425,488 425,507 4,591 "/>
   <polygon class="fil1" points="4,501 425,414 425,433 4,517 "/>
   <polygon class="fil1" points="4,427 425,340 425,359 4,443 "/>
   <polygon class="fil1" points="4,353 425,266 425,285 4,369 "/>
   <polygon class="fil1" points="4,279 425,192 425,211 4,295 "/>
   <polygon class="fil0" points="423,266 1269,418 1269,445 423,284 "/>
   <polygon class="fil0" points="425,340 1271,492 1271,519 425,358 "/>
  </g>
 </g>
</svg>
