<?xml version="1.0" encoding="UTF-8"?>
<!DOCTYPE svg PUBLIC "-//W3C//DTD SVG 1.1//EN" "http://www.w3.org/Graphics/SVG/1.1/DTD/svg11.dtd">
<!-- Creator: CorelDRAW X7 -->
<svg xmlns="http://www.w3.org/2000/svg" xml:space="preserve" width="100%" height="100%" version="1.1" style="shape-rendering:geometricPrecision; text-rendering:geometricPrecision; image-rendering:optimizeQuality; fill-rule:evenodd; clip-rule:evenodd"
viewBox="0 0 5780 560"
 xmlns:xlink="http://www.w3.org/1999/xlink"
 baseProfile="tiny"
 enable-background="new 0 0 253.382 55.879">
 <defs>
  <style type="text/css">
   <![CDATA[
    .fil0 {fill:#18484A}
   ]]>
  </style>
 </defs>
 <g id="Layer_x0020_1">
  <metadata id="CorelCorpID_0Corel-Layer"/>
  <polygon class="fil0" points="-1,560 4336,549 5736,546 5781,542 5781,389 5767,389 5767,466 5729,466 5729,403 5690,403 5690,198 5614,198 5614,167 5541,167 5527,268 5527,386 5461,382 5465,299 5465,209 5416,209 5416,237 5367,237 5367,289 5340,289 5340,219 5274,219 5274,198 5201,198 5201,393 5176,393 5180,237 5135,237 5135,28 5055,28 5051,233 5013,233 5004,245 4979,289 4961,289 4961,386 4944,389 4941,398 4941,401 4944,445 4916,445 4920,396 4885,379 4885,351 4854,351 4854,375 4732,375 4732,400 4697,435 4676,435 4676,365 4645,365 4645,285 4635,285 4607,170 4558,171 4558,268 4555,362 4545,362 4545,410 4534,431 4510,344 4510,303 4503,240 4489,240 4489,195 4388,223 4388,362 4374,362 4374,247 4360,247 4360,226 4328,228 4312,250 4312,379 4295,379 4288,421 4288,268 4267,268 4267,240 4225,240 4194,216 4180,191 4142,191 4125,203 4117,226 4069,226 4069,257 4045,257 4045,205 4031,205 4031,191 3996,191 3996,167 3944,167 3944,191 3920,191 3923,212 3899,212 3902,167 3836,167 3836,143 3788,143 3788,174 3742,174 3742,46 3701,46 3701,25 3610,25 3610,66 3590,66 3590,289 3572,289 3573,240 3538,226 3538,195 3465,195 3465,226 3433,226 3433,132 3409,132 3295,94 3295,212 3218,212 3218,355 3117,355 3117,178 3121,0 2999,0 2999,341 2923,341 2926,257 2895,198 2895,167 2781,167 2781,240 2763,244 2763,459 2715,459 2715,372 2680,372 2680,348 2645,348 2645,372 2621,372 2621,462 2590,462 2590,174 2565,174 2565,150 2482,150 2482,167 2472,167 2472,139 2413,174 2413,466 2361,462 2305,462 2305,400 2308,341 2308,278 2284,240 2239,219 2211,237 2211,435 2180,476 2159,476 2159,285 2131,285 2131,268 2100,268 2100,244 2072,244 2072,292 2051,296 2051,473 2017,473 2017,94 1990,81 1982,66 1981,46 1944,39 1854,39 1854,84 1833,84 1833,157 1819,157 1819,455 1722,453 1719,453 1717,452 1711,438 1711,375 1680,375 1656,347 1628,375 1610,375 1610,476 1586,476 1586,337 1545,337 1545,310 1492,310 1496,285 1444,285 1447,310 1423,375 1423,469 1361,457 1364,421 1364,382 1239,382 1239,476 1201,476 1201,334 1072,334 1072,379 1051,379 1051,351 1024,379 1003,379 1003,240 982,240 982,219 926,219 906,247 906,483 881,369 881,219 850,195 805,223 788,223 788,487 628,487 628,393 631,303 590,303 590,278 510,278 510,303 486,299 475,375 475,490 447,490 447,466 426,466 426,337 402,337 402,313 360,313 360,355 347,337 312,334 312,351 281,351 281,459 239,459 239,504 204,504 204,466 176,466 173,445 121,445 121,421 86,421 86,445 55,445 55,494 1,495 -1,503 "/>
 </g>
</svg>
