<?xml version="1.0" encoding="UTF-8"?>
<!DOCTYPE svg PUBLIC "-//W3C//DTD SVG 1.1//EN" "http://www.w3.org/Graphics/SVG/1.1/DTD/svg11.dtd">
<!-- Creator: CorelDRAW X7 -->
<svg xmlns="http://www.w3.org/2000/svg" xml:space="preserve" width="100%" height="100%" version="1.1" style="shape-rendering:geometricPrecision; text-rendering:geometricPrecision; image-rendering:optimizeQuality; fill-rule:evenodd; clip-rule:evenodd"
viewBox="0 0 4273 1153"
 xmlns:xlink="http://www.w3.org/1999/xlink"
 baseProfile="tiny"
 enable-background="new 0 0 253.382 55.879">
 <defs>
  <style type="text/css">
   <![CDATA[
    .fil1 {fill:#18484A}
    .fil0 {fill:#18484A;fill-rule:nonzero}
   ]]>
  </style>
 </defs>
 <g id="Layer_x0020_1">
  <metadata id="CorelCorpID_0Corel-Layer"/>
  <g id="_1073204393584">
   <path class="fil0" d="M105 756c-3,2 -6,1 -8,-2 -2,-3 -1,-7 2,-8 961,-530 1689,-694 2334,-650 645,43 1207,293 1836,589 3,2 5,5 3,8 -1,3 -5,4 -8,3 -628,-296 -1189,-545 -1832,-588 -643,-44 -1368,119 -2327,648z"/>
   <path class="fil0" d="M27 718c-3,2 -7,0 -9,-3 -1,-3 0,-6 3,-8 48,-23 98,-49 150,-76 468,-241 1164,-599 2055,-541 4,0 6,3 6,6 0,4 -3,6 -6,6 -888,-58 -1583,300 -2049,540 -54,27 -104,53 -150,76z"/>
   <path class="fil0" d="M230 1152c-2,2 -6,2 -8,0 -2,-3 -2,-7 0,-9 342,-311 667,-515 960,-647 398,-180 737,-227 976,-228 4,0 6,3 6,6 0,4 -2,6 -6,6 -238,1 -575,47 -971,226 -292,132 -616,336 -957,646z"/>
   <path class="fil0" d="M2158 280c-3,0 -6,-3 -6,-6 1,-3 3,-6 7,-6 310,10 652,65 986,191 279,106 553,263 796,486 3,2 3,6 1,8 -2,2 -6,3 -9,0 -242,-221 -514,-377 -793,-483 -332,-126 -673,-180 -982,-190z"/>
   <path class="fil0" d="M162 1092c-2,2 -6,1 -8,-1 -2,-3 -2,-6 1,-9 229,-188 527,-418 869,-588 342,-169 729,-279 1135,-226 3,1 6,4 5,7 0,3 -3,6 -6,5 -404,-52 -788,56 -1129,225 -341,169 -638,399 -867,587z"/>
   <path class="fil0" d="M2158 280c-3,0 -6,-3 -6,-6 1,-3 3,-6 7,-6 371,21 680,102 926,200 477,190 720,446 731,461 2,2 1,6 -2,8 -3,2 -6,1 -8,-1 -10,-15 -251,-268 -726,-457 -245,-97 -552,-178 -922,-199z"/>
   <path class="fil0" d="M2320 103c-3,0 -5,-3 -5,-6 0,-4 3,-6 6,-6 316,27 612,97 916,201 304,105 616,244 962,412 3,1 4,5 3,8 -2,3 -5,4 -8,2 -346,-167 -657,-306 -960,-410 -304,-105 -599,-174 -914,-201z"/>
   <path class="fil0" d="M2144 97c0,-3 3,-6 6,-6 4,0 6,3 6,6l0 177c0,3 -3,6 -6,6 -4,0 -6,-3 -6,-6l0 -177z"/>
   <path class="fil0" d="M2191 94c0,-3 2,-6 6,-6 3,0 6,3 6,6l1 182c0,3 -3,6 -6,6 -4,0 -6,-3 -6,-6l-1 -182z"/>
   <path class="fil0" d="M2301 97c0,-4 3,-6 6,-6 4,0 6,2 6,6l0 185c0,4 -2,6 -5,6 -4,0 -6,-2 -6,-6l-1 -185z"/>
   <path class="fil0" d="M2341 100c0,-4 3,-6 6,-6 4,-1 6,2 6,5l4 187c0,3 -3,6 -6,6 -3,0 -6,-3 -6,-6l-4 -186z"/>
   <path class="fil0" d="M2453 104c-1,-3 2,-6 5,-6 4,0 6,3 7,6l4 194c0,3 -3,6 -6,6 -3,0 -6,-3 -6,-6l-4 -194z"/>
   <path class="fil0" d="M2492 117c0,-3 3,-6 6,-6 4,0 6,3 6,6l2 197c0,3 -3,6 -6,6 -4,0 -6,-3 -6,-6l-2 -197z"/>
   <path class="fil0" d="M2603 134c0,-3 3,-6 6,-6 3,0 6,3 6,6l1 186c0,3 -3,6 -6,6 -4,0 -6,-3 -6,-6l-1 -186z"/>
   <path class="fil0" d="M2645 142c0,-3 3,-6 6,-6 4,0 6,3 6,6l2 203c0,3 -3,6 -6,6 -4,0 -6,-3 -6,-6l-2 -203z"/>
   <path class="fil0" d="M2756 164c0,-3 3,-6 6,-6 3,0 6,3 6,6l1 187c1,3 -2,6 -5,6 -4,0 -6,-3 -6,-6l-2 -187z"/>
   <path class="fil0" d="M2801 174c0,-3 2,-6 6,-6 3,0 6,3 6,6l1 207c0,3 -3,6 -6,6 -4,0 -6,-3 -6,-6l-1 -207z"/>
   <path class="fil0" d="M2908 200c0,-3 2,-6 6,-6 3,0 5,3 5,6l0 189c0,3 -3,6 -6,6 -3,0 -6,-3 -6,-6l1 -189z"/>
   <path class="fil0" d="M2960 214c0,-3 2,-6 6,-6 3,0 6,3 6,6l-2 216c0,3 -3,6 -6,6 -3,0 -6,-3 -6,-6l2 -216z"/>
   <path class="fil0" d="M3061 243c0,-3 2,-6 6,-6 3,0 6,3 6,6l0 194c0,4 -3,6 -6,6 -4,0 -6,-2 -6,-6l0 -194z"/>
   <path class="fil0" d="M3112 259c0,-3 3,-6 6,-6 4,0 6,3 6,6l1 230c0,3 -2,6 -6,6 -3,0 -6,-3 -6,-6l-1 -230z"/>
   <path class="fil0" d="M3217 294c0,-4 3,-6 6,-6 3,0 6,2 6,6l-2 202c0,3 -3,6 -6,6 -4,0 -6,-3 -6,-6l2 -202z"/>
   <path class="fil0" d="M3270 312c0,-3 3,-6 6,-6 3,0 6,3 6,6l0 248c0,3 -3,6 -6,6 -3,0 -6,-3 -6,-6l0 -248z"/>
   <path class="fil0" d="M3370 348c0,-3 2,-6 6,-6 3,0 6,3 6,6l0 218c0,4 -3,6 -6,6 -4,0 -6,-2 -6,-6l0 -218z"/>
   <path class="fil0" d="M3424 369c0,-3 3,-6 6,-6 3,0 6,3 6,6l0 274c0,3 -3,6 -6,6 -3,0 -6,-3 -6,-6l0 -274z"/>
   <path class="fil0" d="M3523 366c0,-4 2,-6 6,-6 3,0 6,2 6,5l5 286c0,4 -3,6 -6,6 -4,1 -6,-2 -6,-5l-5 -286z"/>
   <path class="fil0" d="M3575 430c0,-4 3,-6 6,-6 4,0 6,2 6,6l5 313c0,3 -3,6 -6,6 -3,0 -6,-2 -6,-6l-5 -313z"/>
   <path class="fil0" d="M3682 430c0,-4 2,-6 6,-6 3,0 6,2 6,6l3 322c0,3 -3,6 -6,6 -4,0 -6,-3 -6,-6l-3 -322z"/>
   <path class="fil0" d="M3739 500c0,-4 3,-6 6,-6 4,0 6,2 6,6l3 375c0,3 -3,6 -6,6 -3,0 -6,-3 -6,-6l-3 -375z"/>
   <path class="fil0" d="M3836 496c0,-3 2,-6 6,-6 3,0 6,2 6,6l5 298c0,4 -3,6 -6,6 -4,1 -6,-2 -6,-5l-5 -299z"/>
   <path class="fil0" d="M3893 569c-1,-4 2,-7 5,-7 4,0 6,3 6,6l7 226c0,4 -2,6 -6,6 -3,1 -6,-2 -6,-5l-6 -226z"/>
   <path class="fil0" d="M3993 566c0,-3 2,-6 6,-6 3,0 6,3 6,6l6 234c0,3 -3,6 -6,6 -3,0 -6,-3 -6,-6l-6 -234z"/>
   <path class="fil0" d="M4055 644c0,-3 3,-6 6,-6 4,0 6,3 6,6l1 161c0,3 -3,6 -6,6 -3,0 -6,-3 -6,-6l-1 -161z"/>
   <path class="fil0" d="M2144 274c0,-3 2,-6 6,-6 3,0 6,3 6,6l3 492c0,3 -3,6 -6,6 -3,0 -6,-3 -6,-6l-3 -492z"/>
   <path class="fil0" d="M2192 276c0,-3 2,-6 6,-6 3,0 6,3 6,6l-4 490c0,4 -2,6 -6,6 -3,0 -6,-2 -6,-6l4 -490z"/>
   <path class="fil0" d="M2302 282c0,-3 2,-6 6,-6 3,0 6,3 5,6l-3 485c0,3 -2,6 -6,6 -3,0 -6,-3 -6,-6l4 -485z"/>
   <path class="fil0" d="M2345 286c0,-3 3,-6 6,-6 3,0 6,3 6,6l-4 481c0,4 -2,6 -6,6 -3,0 -6,-3 -6,-6l4 -481z"/>
   <path class="fil0" d="M2457 298c0,-3 3,-6 6,-6 3,0 6,3 6,6l-5 470c0,3 -2,6 -6,6 -3,0 -6,-3 -6,-6l5 -470z"/>
   <path class="fil0" d="M2494 314c0,-3 2,-6 6,-6 3,0 6,3 6,6l-5 455c0,3 -3,6 -6,5 -4,0 -6,-2 -6,-6l5 -454z"/>
   <path class="fil0" d="M2604 320c0,-3 2,-6 6,-6 3,0 6,3 6,6l-6 450c0,3 -3,6 -6,6 -3,0 -6,-3 -6,-6l6 -450z"/>
   <path class="fil0" d="M2647 345c0,-3 2,-6 6,-6 3,0 6,3 6,6l1 425c0,4 -2,6 -6,6 -3,0 -6,-2 -6,-6l-1 -425z"/>
   <path class="fil0" d="M2154 278c-2,3 -6,3 -8,1 -3,-3 -3,-6 -1,-9l158 -177c2,-3 6,-3 8,-1 3,2 3,6 1,9l-158 177z"/>
   <path class="fil0" d="M2187 280c-2,2 -6,2 -8,0 -3,-2 -3,-6 -1,-8l165 -177c2,-2 6,-2 9,0 2,2 2,6 0,9l-165 176z"/>
   <path class="fil0" d="M2290 285c-2,2 -6,2 -8,0 -3,-2 -3,-6 -1,-9l167 -169c2,-3 6,-3 8,0 3,2 3,6 0,8l-166 170z"/>
   <path class="fil0" d="M2338 294c-3,2 -7,2 -9,0 -2,-2 -2,-6 0,-9l165 -172c2,-2 6,-3 9,0 2,2 2,6 0,8l-165 173z"/>
   <path class="fil0" d="M2449 300c-2,2 -6,2 -8,0 -3,-2 -3,-6 0,-8l164 -177c2,-2 6,-2 8,0 3,2 3,6 0,9l-164 176z"/>
   <path class="fil0" d="M2504 316c-2,3 -6,3 -8,1 -3,-3 -3,-6 -1,-9l152 -170c2,-3 6,-3 8,-1 3,3 3,6 1,9l-152 170z"/>
   <path class="fil0" d="M2614 324c-2,2 -6,3 -8,1 -3,-3 -3,-6 -1,-9l152 -177c2,-3 6,-3 9,-1 2,2 3,6 0,9l-152 177z"/>
   <path class="fil0" d="M2657 332c-3,2 -6,2 -9,0 -2,-2 -2,-6 0,-8l154 -154c3,-3 6,-3 9,0 2,2 2,6 0,8l-154 154z"/>
   <path class="fil0" d="M2768 355c-2,2 -6,3 -8,0 -3,-2 -3,-5 -1,-8l150 -177c2,-3 6,-3 8,-1 3,2 3,6 1,8l-150 178z"/>
   <path class="fil0" d="M2812 385c-2,2 -6,2 -8,0 -3,-2 -3,-6 -1,-8l158 -167c2,-2 6,-2 9,0 2,2 2,6 0,8l-158 167z"/>
   <path class="fil0" d="M2918 393c-3,3 -6,3 -9,1 -2,-3 -3,-6 0,-9l153 -177c2,-3 6,-3 9,-1 2,2 2,6 0,9l-153 177z"/>
   <path class="fil0" d="M2968 434c-2,2 -6,2 -8,0 -3,-2 -3,-6 0,-8l154 -171c2,-2 6,-2 8,0 3,2 3,6 1,9l-155 170z"/>
   <path class="fil0" d="M3071 441c-2,3 -6,3 -8,1 -3,-2 -3,-6 -1,-9l157 -180c2,-2 6,-2 8,0 3,2 3,6 1,8l-157 180z"/>
   <path class="fil0" d="M3124 493c-2,2 -6,2 -9,0 -2,-2 -2,-6 0,-8l156 -177c3,-2 6,-3 9,-1 2,3 3,6 0,9l-156 177z"/>
   <path class="fil0" d="M3225 500c-2,2 -6,3 -8,0 -3,-2 -3,-5 -1,-8l155 -187c2,-3 6,-3 9,-1 2,2 2,6 0,8l-155 188z"/>
   <path class="fil0" d="M3281 564c-2,2 -6,3 -9,1 -2,-3 -3,-6 -1,-9l154 -191c2,-2 6,-3 9,-1 2,2 3,6 1,9l-154 191z"/>
   <path class="fil0" d="M3381 570c-2,3 -6,3 -9,1 -2,-2 -3,-6 -1,-8l153 -201c2,-3 6,-3 8,-1 3,2 4,6 2,8l-153 201z"/>
   <path class="fil0" d="M3435 647c-2,2 -6,3 -8,1 -3,-2 -4,-6 -2,-8l152 -214c2,-3 5,-3 8,-1 3,2 3,5 1,8l-151 214z"/>
   <path class="fil0" d="M3539 655c-2,3 -6,3 -9,1 -3,-1 -3,-5 -1,-8l154 -222c2,-2 5,-3 8,-1 3,2 4,5 2,8l-154 222z"/>
   <path class="fil0" d="M3591 746c-2,3 -5,4 -8,2 -3,-2 -4,-5 -2,-8l159 -244c2,-2 6,-3 9,-1 2,1 3,5 1,8l-159 243z"/>
   <path class="fil0" d="M2520 114l-19 9 0 0c-1,0 -3,0 -4,0l-21 -7 -24 1c-3,0 -6,-3 -6,-6 0,-2 1,-3 2,-4l0 0 6 -7c2,-2 4,-2 7,-1l17 5 40 -1c2,-1 5,1 6,3 1,3 0,7 -4,8z"/>
   <path class="fil0" d="M3696 755c-2,3 -6,4 -8,2 -3,-2 -4,-5 -3,-8l152 -256c1,-3 5,-4 8,-2 3,1 4,5 2,8l-151 256z"/>
   <path class="fil0" d="M3787 796c-1,3 -5,4 -8,3 -3,-2 -4,-5 -3,-8l117 -225c2,-3 5,-4 8,-3 3,2 4,5 3,8l-117 225z"/>
   <path class="fil0" d="M3893 799c-1,3 -5,4 -8,3 -3,-2 -4,-5 -3,-8l111 -231c2,-3 5,-4 8,-2 3,1 5,5 3,8l-111 230z"/>
   <path class="fil0" d="M4056 642c1,-3 5,-4 8,-3 3,1 4,5 3,8l-74 154c-2,3 -5,5 -8,3 -3,-1 -4,-5 -3,-8l74 -154z"/>
   <path class="fil0" d="M4154 691c0,-3 3,-5 6,-5 4,0 6,2 6,6l-3 111c0,4 -3,6 -6,6 -3,0 -6,-3 -6,-6l3 -112z"/>
   <path class="fil0" d="M2758 351c0,-3 2,-6 6,-6 3,0 6,3 5,6l-6 421c0,3 -3,6 -6,6 -3,0 -6,-3 -6,-6l7 -421z"/>
   <path class="fil0" d="M2802 381c0,-4 2,-6 6,-6 3,0 6,2 6,6l-1 392c0,3 -3,6 -6,6 -3,0 -6,-3 -6,-6l1 -392z"/>
   <path class="fil0" d="M2907 389c0,-3 3,-6 6,-6 3,0 6,3 6,6l4 385c0,4 -3,6 -6,6 -3,0 -6,-2 -6,-5l-4 -386z"/>
   <path class="fil0" d="M2958 430c0,-4 3,-6 6,-6 3,0 6,2 6,6l0 345c0,4 -3,6 -6,6 -4,0 -6,-2 -6,-6l0 -345z"/>
   <path class="fil0" d="M3061 437c0,-3 2,-6 6,-6 3,0 6,3 6,6l3 340c0,4 -3,6 -6,6 -3,0 -6,-2 -6,-6l-3 -340z"/>
   <path class="fil0" d="M3113 489c0,-4 3,-6 6,-6 4,0 6,2 6,6l1 289c0,3 -2,6 -6,6 -3,0 -6,-3 -6,-6l-1 -289z"/>
   <path class="fil0" d="M3215 496c0,-3 2,-6 6,-6 3,0 6,2 6,6l2 284c0,4 -3,6 -6,6 -3,0 -6,-2 -6,-6l-2 -284z"/>
   <path class="fil0" d="M3270 560c0,-4 3,-6 6,-6 4,0 6,3 6,6l-5 222c0,3 -3,6 -6,5 -3,0 -6,-2 -6,-6l5 -221z"/>
   <path class="fil0" d="M3385 784c0,3 -2,6 -5,6 -4,0 -6,-3 -7,-6l-3 -218c0,-3 2,-6 6,-6 3,0 6,3 6,6l3 218z"/>
   <path class="fil0" d="M3424 643c0,-3 3,-6 6,-6 4,0 6,3 6,6l-3 142c0,3 -3,6 -6,6 -4,0 -6,-3 -6,-6l3 -142z"/>
   <path class="fil0" d="M3528 651c0,-3 2,-6 6,-6 3,1 6,3 6,7l-4 136c0,3 -2,5 -6,5 -3,0 -6,-2 -6,-6l4 -136z"/>
   <path class="fil0" d="M2013 100l150 170c2,3 2,7 -1,9 -1,1 -2,1 -3,1l-154 5c-3,0 -6,-2 -6,-5 0,-1 0,-1 0,-1l4 -175c0,-4 2,-6 6,-6 2,0 3,0 4,2l0 0zm133 169l-132 -150 -3 154 135 -4z"/>
   <path class="fil0" d="M2040 90c0,-4 3,-6 7,-6 3,0 5,2 5,6l-1 158 141 -157c2,-2 6,-2 9,0 2,2 2,6 0,8l-151 169 0 0c-2,1 -3,2 -5,2 -3,0 -6,-3 -6,-6l1 -174z"/>
   <path class="fil0" d="M2039 264c0,-4 3,-6 6,-6 3,0 6,2 6,6l-1 502c0,3 -2,6 -6,6 -3,0 -6,-3 -6,-6l1 -502z"/>
   <path class="fil0" d="M1999 279c0,-3 2,-6 6,-6 3,0 6,3 6,6l0 487c0,3 -3,6 -6,6 -3,0 -6,-3 -6,-6l0 -487z"/>
   <path class="fil0" d="M2050 260c2,2 2,6 -1,8 -2,2 -6,2 -8,0l-155 -171c-2,-2 -2,-6 1,-8 2,-3 6,-2 8,0l155 171z"/>
   <path class="fil0" d="M2009 277c2,2 2,6 0,8 -3,2 -6,2 -9,0l-136 -151 -3 162c0,3 -3,6 -6,6 -3,0 -6,-3 -6,-6l3 -177c0,-2 1,-3 2,-5 2,-2 6,-2 8,1l147 162z"/>
   <path class="fil0" d="M1885 115c0,-4 2,-6 6,-6 3,0 6,3 6,6l-1 147c0,3 -3,6 -6,6 -3,0 -6,-3 -6,-6l1 -147z"/>
   <path class="fil0" d="M1849 296c0,-3 3,-6 6,-6 3,0 6,3 6,6l2 470c0,4 -3,6 -6,6 -3,0 -6,-2 -6,-6l-2 -470z"/>
   <path class="fil0" d="M1884 262c0,-3 3,-6 6,-6 3,0 6,3 6,6l2 504c0,3 -3,6 -6,6 -4,0 -6,-3 -6,-6l-2 -504z"/>
   <path class="fil0" d="M1704 141c0,-4 3,-6 6,-6 3,0 6,2 6,6l-1 626c0,3 -2,6 -6,6 -3,0 -6,-3 -6,-6l1 -626z"/>
   <path class="fil0" d="M1741 134c0,-3 3,-6 6,-6 3,0 6,3 6,6l-1 633c0,3 -3,6 -6,6 -3,0 -6,-3 -6,-6l1 -633z"/>
   <path class="fil0" d="M1590 162c0,-3 2,-6 6,-6 3,0 6,3 6,6l-1 606c0,4 -2,6 -6,6 -3,0 -6,-2 -6,-6l1 -606z"/>
   <path class="fil0" d="M2615 125c-2,-3 -3,-6 0,-9 2,-2 6,-3 8,0l29 25c2,3 3,6 0,9 -2,2 -6,3 -8,0l-29 -25z"/>
   <path class="fil0" d="M2759 148c-3,-2 -4,-5 -2,-8 1,-3 5,-4 8,-2l56 33c3,2 4,6 2,9 -2,3 -5,3 -8,2l-56 -34z"/>
   <path class="fil0" d="M2909 178c-2,-3 -2,-6 0,-9 2,-2 6,-2 9,0l47 45c3,3 3,6 1,9 -3,2 -6,2 -9,0l-48 -45z"/>
   <path class="fil0" d="M3063 216c-3,-2 -3,-6 -1,-9 3,-2 6,-2 9,0l51 48c3,2 3,6 1,9 -2,2 -6,2 -9,0l-51 -48z"/>
   <path class="fil0" d="M3219 262c-2,-3 -2,-7 0,-9 3,-2 6,-2 9,0l52 55c3,2 2,6 0,8 -2,3 -6,3 -8,0l-53 -54z"/>
   <path class="fil0" d="M3371 313c-2,-3 -2,-7 1,-9 2,-2 6,-2 8,1l54 60c2,2 2,6 0,8 -3,3 -6,2 -9,0l-54 -60z"/>
   <path class="fil0" d="M3524 369c-2,-2 -2,-6 1,-8 3,-2 6,-2 8,1l53 64c2,2 2,6 -1,8 -2,2 -6,2 -8,-1l-53 -64z"/>
   <path class="fil0" d="M3683 433c-2,-2 -2,-6 1,-8 3,-2 6,-2 8,1l58 70c2,2 2,6 -1,8 -2,2 -6,2 -8,-1l-58 -70z"/>
   <path class="fil0" d="M3903 565c2,2 2,6 -1,8 -2,2 -6,2 -8,-1l-57 -73c-2,-2 -1,-6 1,-8 3,-2 7,-2 9,1l56 73z"/>
   <path class="fil0" d="M4066 641c2,2 2,6 -1,8 -2,2 -6,2 -8,-1l-63 -78c-2,-3 -2,-7 1,-9 3,-2 6,-1 8,1l63 79z"/>
   <path class="fil0" d="M3586 749c-4,0 -6,-3 -6,-6 0,-4 3,-6 7,-6l104 9c3,0 6,3 6,6 -1,4 -4,6 -7,6l-104 -9z"/>
   <path class="fil0" d="M3534 645c3,1 6,3 6,7 0,3 -3,6 -7,5l-103 -2c-3,0 -6,-3 -6,-6 0,-3 3,-6 6,-6l104 2z"/>
   <path class="fil0" d="M3376 560c3,0 6,3 6,6 0,4 -3,6 -6,6l-100 -2c-3,0 -6,-3 -6,-6 0,-3 3,-6 6,-6l100 2z"/>
   <path class="fil0" d="M3221 490c3,0 6,3 6,6 -1,4 -4,6 -7,6l-101 -7c-3,-1 -6,-4 -6,-7 1,-3 3,-6 7,-5l101 7z"/>
   <path class="fil0" d="M3067 431c3,1 6,3 6,7 -1,3 -3,6 -7,5l-102 -7c-4,-1 -6,-4 -6,-7 0,-3 3,-6 6,-5l103 7z"/>
   <path class="fil0" d="M2914 383c3,0 5,3 5,7 0,3 -3,5 -6,5l-106 -8c-3,0 -6,-3 -5,-7 0,-3 3,-5 6,-5l106 8z"/>
   <path class="fil0" d="M2764 345c3,0 6,3 5,6 0,4 -3,6 -6,6l-111 -9c-3,0 -6,-3 -5,-7 0,-3 3,-5 6,-5l111 9z"/>
   <path class="fil0" d="M2610 314c3,0 6,3 6,6 -1,4 -4,6 -7,6l-110 -8c-3,0 -6,-3 -5,-6 0,-4 3,-6 6,-6l110 8z"/>
   <g>
    <path class="fil0" d="M3999 560c3,0 6,3 6,6 0,3 -3,6 -6,6l-100 3c-2,0 -4,-1 -5,-2l0 0 -55 -71 -93 4c-2,0 -4,-1 -5,-3l-56 -67 -103 1c-2,0 -4,-1 -5,-2l0 0 -51 -63 -96 3c-2,0 -4,-1 -5,-2l-52 -58 -97 3c-3,0 -6,-3 -6,-6 0,-3 2,-6 6,-6l100 -3 0 0c1,0 3,0 4,2l52 58 96 -3c2,-1 4,0 5,2l51 63 104 -1c1,0 3,0 4,2l56 67 94 -3c1,0 3,0 5,2l54 71 98 -3zm-574 -187c-1,-1 -1,-3 -1,-4l1 4z"/>
   </g>
   <path class="fil0" d="M3223 251c4,0 6,3 6,6 0,4 -2,6 -6,6l-105 2c-1,0 -3,0 -4,-1l0 0 -50 -46 -111 -1c-2,0 -3,-1 -4,-2l0 0 -38 -36 -104 1c-2,0 -3,0 -4,-1l-43 -30 -112 3c-2,0 -3,-1 -4,-2l0 0 -27 -24 -109 -7c-3,0 -6,-3 -6,-6 1,-4 3,-6 7,-6l110 7c2,0 3,1 4,2l27 24 112 -3 0 0c1,0 2,0 3,1l43 30 105 -1c2,0 3,1 5,2l37 36 111 1c2,0 4,0 5,1l50 46 102 -2z"/>
   <path class="fil0" d="M1556 169c0,-3 3,-6 6,-6 4,0 6,3 6,6l-1 600c0,3 -3,6 -6,6 -3,0 -6,-3 -6,-6l1 -600z"/>
   <path class="fil0" d="M1457 770c0,3 -3,6 -6,6 -3,0 -6,-3 -6,-6l2 -576c1,-3 3,-6 7,-6 3,0 5,3 5,6l-2 576z"/>
   <path class="fil0" d="M1407 204c0,-3 3,-6 6,-6 4,0 6,3 6,6l2 567c0,3 -3,6 -6,6 -3,0 -6,-3 -6,-6l-2 -567z"/>
   <path class="fil0" d="M1887 88c3,-2 6,-1 8,1 2,3 2,7 -1,9l-32 25c-3,2 -7,2 -9,-1 -2,-2 -1,-6 1,-8l33 -26z"/>
   <path class="fil0" d="M1735 100c2,-2 6,-2 8,0 3,2 3,5 1,8l-29 36c-3,3 -6,3 -9,1 -3,-2 -3,-6 -1,-8l30 -37z"/>
   <path class="fil0" d="M1591 119c2,-3 5,-4 8,-2 3,2 3,6 1,9l-33 47c-2,2 -6,3 -8,1 -3,-2 -4,-6 -2,-8l34 -47z"/>
   <path class="fil0" d="M1449 143c2,-3 5,-4 8,-2 3,2 4,6 2,9l-41 58c-2,2 -5,3 -8,1 -3,-2 -4,-5 -2,-8l41 -58z"/>
   <path class="fil0" d="M1296 238c0,-3 3,-6 6,-6 4,0 6,3 6,6l1 538c0,3 -3,6 -6,6 -3,0 -6,-3 -6,-6l-1 -538z"/>
   <path class="fil0" d="M1266 245c-1,-3 1,-6 4,-7 3,-1 7,1 8,4 2,7 -2,530 -2,531 0,4 -3,6 -6,6 -3,0 -6,-2 -6,-6 0,-1 4,-522 2,-528z"/>
   <path class="fil0" d="M1145 282c0,-4 2,-6 6,-6 3,0 6,2 6,6l2 494c0,3 -3,6 -6,6 -4,0 -6,-3 -6,-6l-2 -494z"/>
   <path class="fil0" d="M1113 292c0,-3 3,-6 6,-6 4,0 6,3 6,6l3 485c0,3 -2,6 -6,6 -3,0 -6,-3 -6,-6l-3 -485z"/>
   <path class="fil0" d="M1291 179c2,-3 5,-5 8,-4 3,2 5,5 4,8l-26 63c-1,3 -4,4 -7,3 -3,-1 -5,-5 -4,-8l25 -62z"/>
   <path class="fil0" d="M1145 218c1,-3 5,-4 8,-3 3,1 4,5 3,8l-31 71c-1,3 -5,5 -8,3 -3,-1 -4,-4 -3,-7l31 -72z"/>
   <path class="fil0" d="M1003 330c0,-3 3,-6 6,-5 4,0 6,2 6,6l-4 449c0,3 -3,6 -6,6 -3,0 -6,-3 -6,-6l4 -450z"/>
   <path class="fil0" d="M970 343c0,-3 2,-6 6,-6 3,0 6,3 6,6l1 437c0,4 -3,6 -6,6 -4,0 -6,-2 -6,-6l-1 -437z"/>
   <path class="fil0" d="M854 388c0,-4 3,-6 6,-6 4,0 6,2 6,6l-3 396c0,3 -2,6 -6,6 -3,0 -6,-3 -6,-6l3 -396z"/>
   <path class="fil0" d="M1005 262c1,-3 4,-4 7,-3 4,1 5,5 4,8l-35 78c-1,3 -5,5 -8,3 -3,-1 -4,-4 -3,-7l35 -79z"/>
   <path class="fil0" d="M824 400c0,-4 3,-6 6,-6 4,0 6,2 6,6l1 385c0,3 -2,6 -6,6 -3,0 -6,-3 -6,-6l-1 -385z"/>
   <path class="fil0" d="M855 316c1,-3 5,-5 8,-3 3,1 4,4 3,7l-30 82c-1,3 -5,4 -8,3 -3,-1 -4,-4 -3,-7l30 -82z"/>
   <path class="fil0" d="M704 450c0,-3 3,-6 6,-6 4,0 6,3 6,6l-1 339c0,3 -2,6 -6,6 -3,0 -6,-3 -6,-6l1 -339z"/>
   <path class="fil0" d="M668 466c0,-3 2,-6 6,-6 3,0 6,3 6,6l1 324c0,3 -3,6 -6,6 -3,0 -6,-3 -6,-6l-1 -324z"/>
   <path class="fil0" d="M705 376c1,-3 5,-4 8,-3 3,1 4,5 3,8l-37 87c-1,4 -5,5 -8,4 -3,-2 -4,-5 -3,-8l37 -88z"/>
   <path class="fil0" d="M560 515c0,-3 3,-6 6,-6 3,0 6,2 6,6l2 279c0,3 -3,6 -6,6 -3,0 -6,-2 -6,-6l-2 -279z"/>
   <path class="fil0" d="M524 532c0,-3 2,-6 6,-6 3,0 6,2 6,6l7 263c0,4 -2,6 -5,6 -4,1 -7,-2 -7,-5l-7 -264z"/>
   <path class="fil0" d="M560 440c1,-3 5,-4 8,-3 3,1 4,5 3,8l-36 89c-1,3 -4,5 -7,3 -3,-1 -5,-4 -4,-7l36 -90z"/>
   <path class="fil0" d="M413 585c0,-3 3,-6 6,-6 3,0 6,3 6,6l0 215c0,4 -2,6 -6,6 -3,0 -6,-2 -6,-6l0 -215z"/>
   <path class="fil0" d="M379 602c0,-3 3,-6 6,-6 4,0 6,3 6,6l-1 200c0,3 -3,6 -6,6 -4,0 -6,-3 -6,-6l1 -200z"/>
   <path class="fil0" d="M413 510c1,-3 5,-4 8,-3 3,1 5,4 4,7l-34 90c-1,3 -5,5 -8,4 -3,-1 -4,-5 -3,-8l33 -90z"/>
   <path class="fil0" d="M251 808c0,3 -3,6 -6,6 -3,0 -6,-2 -6,-6l-2 -133c0,-1 0,-1 1,-2l0 0 41 -96c2,-3 5,-4 8,-3 3,1 5,5 3,8l-41 94 2 132zm24 -152c0,-3 3,-6 6,-6 3,0 6,3 6,6l3 150c0,3 -2,6 -6,6 -3,0 -6,-2 -6,-6l-3 -150z"/>
   <path class="fil0" d="M2011 109c-3,1 -7,0 -8,-3 -1,-3 0,-7 4,-8l37 -14c4,-1 7,0 8,4 1,3 0,6 -3,7l-38 14z"/>
   <path class="fil0" d="M2009 98c3,0 6,3 6,6 -1,3 -4,6 -7,6l-115 -11 -27 28c-1,1 -3,2 -5,2l0 0 -119 -18 -27 33c-2,2 -4,3 -6,2l-111 -17 -31 44c-1,2 -4,2 -6,2l0 0 -105 -22 -38 55c-1,2 -4,3 -6,2l-111 -22 -24 58c-1,3 -3,4 -6,3l0 0 -117 -22 -29 67c-1,3 -4,4 -7,4l0 0 -104 -26 -33 73c-1,3 -4,5 -7,4l-109 -24 -29 77c-1,2 -4,4 -7,4l0 0 -115 -21 -35 83c-1,3 -4,5 -7,4l0 0 -103 -22 -34 84c-1,3 -3,4 -6,4l0 0 -106 -19 -32 85c-1,3 -4,5 -7,4l0 0 -101 -23c-3,0 -5,-4 -4,-7 1,-3 4,-5 7,-4l96 21 31 -84c1,-3 4,-5 7,-5l106 19 34 -84c1,-3 4,-5 7,-4l103 22 35 -82c1,-3 3,-5 6,-4l115 20 29 -77c1,-2 4,-4 7,-4l110 24 33 -74c1,-2 4,-4 7,-3l104 26 29 -67c1,-2 4,-4 7,-4l116 23 23 -58 1 0c1,-3 3,-5 6,-4l113 23 38 -55 0 0c1,-2 3,-3 6,-3l105 22 31 -43 0 0c1,-2 3,-3 6,-3l110 18 27 -33c2,-2 4,-3 6,-3l120 18 26 -27 0 0c2,-1 3,-2 5,-2l118 11z"/>
   <path class="fil0" d="M977 599c3,0 6,3 5,6 0,4 -3,6 -6,6l-118 -16c-3,0 -6,-3 -5,-6 0,-4 3,-6 7,-6l117 16z"/>
   <path class="fil0" d="M1122 528c3,1 5,4 5,8 -1,3 -4,5 -7,4l-114 -25c-3,-1 -5,-4 -4,-7 1,-3 4,-5 7,-5l113 25z"/>
   <path class="fil0" d="M831 683c4,0 6,3 6,6 0,3 -3,6 -6,6l-126 -7c-3,0 -6,-2 -6,-6 0,-3 3,-6 7,-6l125 7z"/>
   <path class="fil0" d="M676 784c3,1 6,4 5,7 0,3 -3,6 -7,5l-107 -16c-3,0 -6,-3 -5,-7 0,-3 3,-5 7,-5l107 16z"/>
   <path class="fil0" d="M1273 457c3,1 5,4 5,7 -1,3 -4,6 -7,5l-121 -21c-3,-1 -5,-4 -5,-7 1,-4 4,-6 7,-5l121 21z"/>
   <path class="fil0" d="M1415 403c4,1 6,4 5,7 -1,4 -4,6 -8,5l-111 -28c-3,-1 -5,-4 -4,-7 0,-3 4,-5 7,-5l111 28z"/>
   <path class="fil0" d="M1563 356c4,1 5,4 5,8 -1,3 -5,5 -8,4l-109 -29c-3,-1 -5,-4 -4,-8 1,-3 4,-5 7,-4l109 29z"/>
   <path class="fil0" d="M1711 319c3,1 5,4 5,7 -1,3 -4,5 -8,5l-114 -27c-3,-1 -5,-4 -4,-7 0,-4 4,-6 7,-5l114 27z"/>
   <path class="fil0" d="M1856 292c4,1 6,4 5,7 -1,4 -4,6 -7,5l-108 -25c-4,-1 -6,-4 -5,-7 1,-3 4,-5 7,-5l108 25z"/>
   <path class="fil0" d="M2006 275c3,0 5,3 5,7 -1,3 -4,5 -7,5l-115 -19c-3,-1 -6,-4 -5,-7 0,-3 4,-5 7,-5l115 19z"/>
   <path class="fil0" d="M2151 267c3,0 6,3 6,7 -1,3 -4,5 -7,5l-145 -11c-4,-1 -6,-3 -6,-7 0,-3 3,-6 7,-5l145 11z"/>
   <path class="fil0" d="M1894 258c3,2 2,6 0,8 -2,3 -6,3 -8,0l-151 -158c-2,-2 -2,-6 0,-8 3,-2 6,-2 9,0l150 158z"/>
   <path class="fil0" d="M1751 269c2,2 2,6 0,9 -2,2 -6,2 -8,0l-152 -152c-2,-2 -2,-6 0,-8 3,-3 6,-3 9,0l151 151z"/>
   <path class="fil0" d="M1860 294c2,2 2,6 -1,8 -2,3 -6,2 -8,0l-146 -157c-2,-3 -2,-7 1,-9 2,-2 6,-2 8,0l146 158z"/>
   <path class="fil0" d="M1714 321c2,2 2,6 0,8 -3,3 -6,2 -9,0l-147 -156c-2,-2 -2,-6 0,-8 2,-3 6,-2 9,0l147 156z"/>
   <path class="fil0" d="M1600 294c2,2 2,6 0,8 -3,3 -7,2 -9,0l-142 -152c-2,-2 -2,-6 1,-8 2,-2 6,-2 8,0l142 152z"/>
   <path class="fil0" d="M1566 358c2,2 2,6 0,8 -3,3 -6,3 -9,0l-148 -158c-2,-2 -2,-6 0,-8 3,-2 6,-2 9,0l148 158z"/>
   <path class="fil0" d="M1457 329c2,2 2,6 0,8 -2,2 -6,2 -8,0l-156 -152c-2,-2 -3,-6 0,-8 2,-3 6,-3 8,0l156 152z"/>
   <path class="fil0" d="M1418 405c3,3 2,6 0,8 -3,3 -6,2 -9,0l-142 -166c-2,-2 -2,-6 1,-8 3,-2 6,-2 8,1l142 165z"/>
   <path class="fil0" d="M1307 377c2,3 2,6 0,9 -3,2 -7,2 -9,-1l-152 -160c-2,-3 -2,-7 0,-9 3,-2 6,-2 9,0l152 161z"/>
   <path class="fil0" d="M1270 462c3,2 2,6 0,8 -3,2 -7,2 -9,-1l-146 -173c-2,-3 -2,-7 1,-9 2,-2 6,-1 8,1l146 174z"/>
   <path class="fil0" d="M1156 438c2,2 2,6 -1,8 -3,2 -6,2 -8,-1l-142 -177c-2,-2 -1,-6 1,-8 3,-2 7,-2 9,1l141 177z"/>
   <path class="fil0" d="M1126 531c2,2 1,6 -2,8 -2,2 -6,1 -8,-1l-145 -191c-2,-3 -2,-7 1,-9 3,-2 6,-1 8,1l146 192z"/>
   <path class="fil0" d="M1012 506c2,2 2,6 -1,8 -2,2 -6,1 -8,-1l-147 -191c-2,-3 -2,-7 1,-9 3,-2 6,-1 8,2l147 191z"/>
   <path class="fil0" d="M981 601c2,3 2,7 -1,9 -3,2 -7,1 -9,-2l-146 -205c-1,-3 -1,-6 2,-8 3,-2 6,-2 8,1l146 205z"/>
   <path class="fil0" d="M836 685c2,3 1,7 -1,9 -3,2 -7,1 -9,-2l-163 -224c-2,-2 -1,-6 2,-8 2,-2 6,-1 8,1l163 224z"/>
   <path class="fil0" d="M710 679c2,3 1,7 -2,9 -3,1 -6,0 -8,-3l-140 -239c-1,-3 0,-7 3,-9 2,-1 6,0 8,3l139 239z"/>
   <path class="fil0" d="M863 585c3,3 2,7 0,9 -3,2 -6,2 -9,-1 -13,-14 -148,-210 -149,-211 -1,-3 -1,-6 2,-8 3,-2 6,-1 8,1 1,1 135,196 148,210z"/>
   <path class="fil0" d="M680 787c2,3 1,7 -2,8 -3,2 -7,1 -8,-2l-145 -258c-2,-3 -1,-7 2,-8 3,-2 7,-1 8,2l145 258z"/>
   <path class="fil0" d="M573 771c2,3 1,7 -2,8 -3,2 -7,1 -8,-2l-149 -262c-2,-3 -1,-6 2,-8 3,-2 7,-1 8,2l149 262z"/>
   <g>
    <path class="fil1" d="M2151 95l-1 -85 1 85zm1 -83c4,4 10,7 20,10 4,3 7,8 6,14 -10,-5 -16,-5 -27,-7 0,-12 1,-17 1,-17z"/>
   </g>
   <path class="fil0" d="M2157 95c0,4 -3,6 -6,6 -4,0 -6,-2 -6,-6l-1 -85c0,-4 3,-6 6,-6 2,0 5,1 5,3l1 0c2,2 4,3 7,5 3,1 6,3 11,5 0,0 1,0 1,0l0 0c3,2 6,5 7,9 2,3 3,7 2,11 0,3 -3,6 -6,5 -1,0 -2,0 -3,0 -7,-4 -12,-5 -19,-6l1 59zm4 -70c-1,-1 -2,-2 -4,-2l0 1c2,0 3,0 4,1z"/>
   <g>
    <path class="fil1" d="M2195 91l-1 -85 1 85zm1 -83c5,4 11,7 20,10 4,3 7,8 7,14 -10,-5 -16,-5 -27,-7 0,-12 0,-17 0,-17z"/>
   </g>
   <path class="fil0" d="M2201 91c0,4 -2,6 -6,6 -3,0 -6,-2 -6,-6l-1 -85c0,-4 3,-6 6,-6 3,0 5,1 6,3l0 1c2,1 4,2 7,4 3,1 7,3 12,5 0,0 0,0 1,0l0 0c3,2 5,5 7,9 1,3 2,7 2,11 0,3 -3,6 -7,5 0,0 -1,0 -2,0 -7,-4 -12,-5 -19,-6l0 59zm5 -70c-2,-1 -3,-2 -4,-2l0 1c1,0 3,0 4,1z"/>
   <path class="fil1" d="M4133 803c-1469,-37 -2584,-66 -4132,17l0 54c711,-37 1404,-56 2104,-58 701,-2 1408,13 2149,44l-4 -54 -117 -3z"/>
  </g>
 </g>
</svg>
