<?xml version="1.0" encoding="UTF-8"?>
<!DOCTYPE svg PUBLIC "-//W3C//DTD SVG 1.1//EN" "http://www.w3.org/Graphics/SVG/1.1/DTD/svg11.dtd">
<!-- Creator: CorelDRAW X7 -->
<svg xmlns="http://www.w3.org/2000/svg" xml:space="preserve" width="100%" height="100%" version="1.1" style="shape-rendering:geometricPrecision; text-rendering:geometricPrecision; image-rendering:optimizeQuality; fill-rule:evenodd; clip-rule:evenodd"
viewBox="0 0 1189 5183"
 xmlns:xlink="http://www.w3.org/1999/xlink">
 <defs>
  <style type="text/css">
   <![CDATA[
    .fil3 {fill:#EEF3F3}
    .fil9 {fill:#003357}
    .fil10 {fill:#005F7E}
    .fil7 {fill:#053871}
    .fil8 {fill:#1798F3}
    .fil2 {fill:#1A5A64}
    .fil1 {fill:#317E88}
    .fil4 {fill:#053871;fill-rule:nonzero}
    .fil6 {fill:#1798F3;fill-rule:nonzero}
    .fil0 {fill:#2B2A29;fill-rule:nonzero}
    .fil11 {fill:#99C0C0;fill-opacity:0.709804}
    .fil5 {fill:url(#id0);fill-rule:nonzero;fill-opacity:0.168627}
   ]]>
  </style>
  <linearGradient id="id0" gradientUnits="userSpaceOnUse" x1="559.933" y1="1696.07" x2="302.783" y2="1349.41">
   <stop offset="0" style="stop-opacity:1; stop-color:white"/>
   <stop offset="0.180392" style="stop-opacity:1; stop-color:white"/>
   <stop offset="0.54902" style="stop-opacity:1; stop-color:black"/>
   <stop offset="1" style="stop-opacity:1; stop-color:black"/>
  </linearGradient>
 </defs>
 <g id="Layer_x0020_1">
  <metadata id="CorelCorpID_0Corel-Layer"/>
  <g id="_426304297472">
   <g>
    <g id="_1073216239024">
     <path class="fil0" d="M864 1025c0,5 -2,9 -7,9 -6,0 -8,-4 -8,-9l-9 -1016c0,-5 2,-9 9,-9 4,0 8,4 8,9l7 1016z"/>
     <g>
      <path class="fil1" d="M729 4997l346 0 3 70 -347 0c-7,-20 -7,-48 -2,-70zm-589 0l170 0c4,22 6,50 -2,70l-168 0c-7,-20 -5,-48 0,-70zm534 70l-292 0c-7,-35 -5,-33 -2,-67 26,-5 294,-5 314,0 2,61 6,67 -20,67l0 0zm393 -168c6,13 4,44 2,63l-347 3c-2,-16 -2,-37 -2,-51 0,-26 2,-21 30,-21 55,2 304,-5 317,6l0 0zm-382 -4c6,19 4,48 0,67l-312 3c-4,-66 -7,-70 17,-72l295 2 0 0zm-382 0l2 67 -174 3c0,-11 -2,-51 0,-59 2,-20 24,-13 48,-13 37,2 89,-3 124,2zm764 -92c8,11 4,46 4,63 -20,9 -325,9 -349,3 -2,-16 -2,-37 -2,-51 2,-24 4,-19 30,-19 51,0 306,-5 317,4zm-382 -2c6,17 4,48 2,68 -35,4 -286,6 -314,0 -2,-13 0,-29 0,-42 -2,-39 -4,-28 113,-28 64,0 136,-2 199,2l0 0zm-386 0l6 13c0,4 0,15 0,20 0,11 0,22 -2,35 -22,4 -152,4 -172,-3 -4,-67 -11,-67 48,-67 28,0 100,-5 120,2zm423 -107c26,-4 332,-2 347,2 4,20 6,48 0,68l-347 0 0 -70 0 0zm-347 0l310 0c6,20 6,48 0,68l-310 2c-6,-20 -6,-50 0,-70l0 0zm-72 0l2 68c-24,4 -154,4 -174,0 0,-9 -2,-48 0,-57 2,-20 24,-11 48,-11 35,0 89,-4 124,0zm419 -94c39,-4 332,-6 345,3 8,13 4,45 2,63 -15,8 -325,8 -347,2l0 -68zm-349 0l312 0c6,18 6,48 2,68l-314 2 0 -70 0 0zm-70 0l2 68c-21,6 -150,6 -174,-2 -4,-68 -11,-68 48,-66 39,0 85,-4 124,0zm447 -96l293 0 30 3 -2 69 -345 -2c-6,-17 -4,-52 -2,-67l26 -3 0 0zm-373 5c27,-11 262,-5 312,-5l0 72c-50,0 -285,7 -314,-4l2 -63 0 0zm-242 -2c20,-5 153,-7 173,2 2,17 4,52 -5,63 -13,9 -142,7 -170,2l2 -67zm591 -27c-6,-17 -6,-50 0,-69l347 2 -2 70 -345 -3zm-591 -69l173 2 0 67 -175 0 2 -69 0 0zm266 72c-28,0 -26,2 -26,-27 0,-13 -4,-37 7,-43 6,-5 85,-2 100,-2 52,0 164,-5 209,2l-2 67 -288 3 0 0zm323 -179l349 2 0 70 -349 -3 0 -69zm-349 4c22,-7 290,-7 316,0l-2 65c-19,7 -290,7 -314,-2l0 -63zm-240 0c20,-7 153,-7 173,0l0 63c-18,9 -153,7 -175,2l2 -65zm591 -96l347 0 -2 70 -347 -2 2 -68 0 0zm-331 70c-24,0 -20,0 -20,-26 0,-13 0,-29 2,-44l314 0 -2 68 -294 2 0 0zm-87 -5c-27,14 -92,5 -125,5 -35,0 -63,17 -48,-70l173 0 0 65 0 0zm410 -163c43,-2 325,-4 349,2l2 68c-44,6 -306,6 -351,0l0 -70 0 0zm-347 2c33,-4 292,-6 314,2l2 64c-26,6 -292,8 -318,0l2 -66zm-242 -2l172 0 0 70c-26,6 -142,4 -174,0l2 -70zm2 -24c-9,-20 -9,-55 0,-72l170 2c4,20 4,48 0,70l-170 0zm589 -70c19,-6 179,-2 214,-2 113,0 133,-15 135,24 0,15 0,35 -7,44 -13,8 -316,8 -342,2 -7,-20 -7,-48 0,-68l0 0zm-351 26c0,-24 -7,-28 17,-30l238 2c46,0 61,-15 61,28 0,57 -4,44 -57,44 -63,0 -211,4 -257,0l-2 -44 0 0zm-238 -67c-9,-18 -7,-48 -2,-70l174 2 -2 70 -170 -2zm589 -68c41,-4 327,-4 347,2 2,18 4,53 -5,63 -11,7 -316,9 -344,3l2 -68zm-347 68c-4,-9 -7,-46 -2,-68 35,-7 296,-4 314,2 0,18 4,53 -4,63 -16,11 -271,7 -308,3zm342 -94c-4,-20 -4,-48 0,-68l349 0 -2 70 -347 -2 0 0zm-34 0c-40,6 -149,2 -195,2 -117,0 -122,11 -122,-26 0,-15 0,-28 2,-44l315 0 0 68 0 0zm-554 -68l170 0c8,72 0,68 -18,70l-155 -2 3 -68 0 0zm588 -26c-4,-20 -4,-50 0,-72l347 2c7,20 5,48 0,70 -22,4 -323,4 -347,0zm-447 -72c29,0 37,-13 31,72 -46,4 -129,4 -175,0l3 -70 141 -2zm125 74c-35,0 -29,-2 -29,-37 0,-35 -4,-37 29,-37 39,0 266,-4 288,4l0 68c-79,4 -205,2 -288,2l0 0zm325 -181l346 0 -2 70 -349 0 5 -70 0 0zm-352 68c-2,-13 -2,-33 -2,-48 2,-20 7,-20 26,-20 53,-2 271,-4 291,5l0 65 -315 -2zm-239 -66c21,-4 152,-8 172,5l-2 63 -173 0 3 -68zm588 -93c27,-7 325,-7 349,0l0 67 -351 0 2 -67zm-349 0c29,-9 267,-3 317,-3l-2 72c-57,-2 -277,7 -315,-4l0 -65 0 0zm-242 0c22,-7 151,-5 175,0l0 65c-20,7 -151,7 -175,2l0 -67zm594 -27c-7,-19 -5,-48 -3,-69l349 0 -2 69 -344 0 0 0zm-587 0c-9,-19 -7,-50 -2,-69l172 0c2,21 4,50 -2,69l-168 0zm235 -69l315 2c2,19 4,52 -5,65 -13,5 -277,5 -310,2l0 -69 0 0zm-74 -142c18,-7 731,-7 753,0l0 65 -757 -2c0,-20 -4,-48 4,-63zm-4 -90c15,-11 30,-6 50,-6 131,2 676,-7 707,2 2,20 4,50 -5,63 -17,5 -735,5 -748,0 -6,-6 -4,-48 -4,-59zm2 -100l750 2c5,18 5,48 -2,68l-750 0 2 -70 0 0zm0 -28c-4,-16 -4,-48 0,-66l753 0 -3 70c-17,-11 -665,0 -750,-4l0 0zm-2 -164l755 2 -3 66 -752 -2 0 -66zm2 -30c-6,-20 -4,-44 -2,-66 24,-6 720,-6 755,0 2,22 4,48 -3,68l-750 -2zm2 -88c-6,-13 -4,-43 -2,-61 20,-6 731,-6 755,0 2,18 2,48 -2,61 -20,9 -733,7 -751,0zm-4 -131c0,-34 -2,-30 30,-30l727 2 -2 66c-51,4 -583,0 -692,0 -74,0 -63,6 -63,-38l0 0zm2 -126c90,-4 694,-4 755,2l0 63c-18,9 -733,11 -757,0l2 -65zm0 -94l755 0 0 63c-18,7 -731,9 -757,0l2 -63zm0 -91l748 0c7,19 5,56 0,67l-750 0 2 -67zm0 -99l753 3 -3 65 -752 0 2 -68zm-2 -93c26,-7 724,-9 755,-3l-5 68 -750 -2 0 -63zm0 -96c24,-7 724,-7 755,0l-3 65c-30,7 -728,7 -752,0l0 -65zm4 -24c-4,-9 -6,-35 -4,-51 2,-19 2,-15 35,-15 109,5 687,-4 722,2l0 64c-29,8 -740,6 -753,0l0 0zm-2 -162l755 2 0 64c-24,6 -733,6 -757,0l2 -66zm0 -96c22,-4 731,-4 755,0l-2 66 -755 0 2 -66zm0 -96c22,-6 729,-9 755,0l-2 66c-33,11 -319,2 -378,2 -50,0 -353,6 -377,-5l2 -63zm-2 -91c26,-7 726,-7 752,0 5,17 7,48 0,67 -32,5 -728,5 -752,-2l0 -65zm0 -96l755 2 -3 65 -752 0 0 -67zm0 -96l755 0 -3 67 -752 -2 0 -65zm2 -99l753 3 -3 65 -752 -2 2 -66zm334 -215l-521 2 -3 2327 -100 2 0 1774 1189 0 -2 -1774 -42 -2 -2 -2325 -52 -2c-7,-16 -5,-37 -3,-55l-464 -2 0 55 0 0z"/>
      <path class="fil2" d="M288 1738c24,11 327,5 377,5 59,0 345,9 378,-2l2 -66c-26,-8 -733,-6 -755,0l-2 63z"/>
      <path class="fil2" d="M288 1649c24,7 720,7 752,2 7,-19 5,-50 0,-67 -26,-7 -726,-7 -752,0l0 65z"/>
      <path class="fil2" d="M290 2526l-2 65c24,11 739,9 757,0l0 -63c-61,-6 -665,-6 -755,-2z"/>
      <path class="fil2" d="M288 2118c24,7 722,7 752,0l3 -65c-31,-7 -731,-7 -755,0l0 65z"/>
      <path class="fil2" d="M290 2871l750 2c7,-20 5,-46 3,-68 -35,-6 -731,-6 -755,0 -2,22 -4,46 2,66z"/>
      <path class="fil2" d="M292 2783c18,7 731,9 751,0 4,-13 4,-43 2,-61 -24,-6 -735,-6 -755,0 -2,18 -4,48 2,61z"/>
      <path class="fil2" d="M292 2029c13,6 724,8 753,0l0 -64c-35,-6 -613,3 -722,-2 -33,0 -33,-4 -35,15 -2,16 0,42 4,51l0 0z"/>
      <path class="fil2" d="M288 2495c26,9 739,7 757,0l0 -63 -755 0 -2 63z"/>
      <path class="fil2" d="M288 1933c24,6 733,6 757,0l0 -64 -755 -2 -2 66z"/>
      <path class="fil2" d="M288 2212l750 2 5 -68c-31,-6 -729,-4 -755,3l0 63z"/>
      <path class="fil2" d="M288 3193c0,11 -2,53 4,59 13,5 731,5 748,0 9,-13 7,-43 5,-63 -31,-9 -576,0 -707,-2 -20,0 -35,-5 -50,6z"/>
      <path class="fil2" d="M288 1837l755 0 2 -66c-24,-4 -733,-4 -755,0l-2 66z"/>
      <path class="fil2" d="M288 3163l750 0c7,-20 7,-50 2,-68l-750 -2 -2 70 0 0z"/>
      <path class="fil2" d="M288 2652c0,44 -11,38 63,38 109,0 641,4 692,0l2 -66 -727 -2c-32,0 -30,-4 -30,30l0 0z"/>
      <path class="fil2" d="M292 3283c-8,15 -4,43 -4,63l757 2 0 -65c-22,-7 -735,-7 -753,0z"/>
      <path class="fil2" d="M288 2408l750 0c5,-11 7,-48 0,-67l-748 0 -2 67z"/>
      <polygon class="fil2" points="288,1555 1040,1555 1043,1490 288,1488 "/>
      <polygon class="fil2" points="288,2310 1040,2310 1043,2245 290,2242 "/>
      <polygon class="fil2" points="288,2967 1040,2969 1043,2903 288,2901 "/>
      <path class="fil2" d="M290 3065c85,4 733,-7 750,4l3 -70 -753 0c-4,18 -4,50 0,66l0 0z"/>
      <polygon class="fil2" points="288,1359 1040,1361 1043,1296 290,1293 "/>
      <polygon class="fil2" points="288,1457 1040,1459 1043,1392 288,1392 "/>
      <path class="fil2" d="M720 4020c-7,20 -7,48 0,68 26,6 329,6 342,-2 7,-9 7,-29 7,-44 -2,-39 -22,-24 -135,-24 -35,0 -195,-4 -214,2l0 0z"/>
      <path class="fil2" d="M718 4184c45,6 307,6 351,0l-2 -68c-24,-6 -306,-4 -349,-2l0 70 0 0z"/>
      <path class="fil2" d="M715 3791c24,4 325,4 347,0 5,-22 7,-50 0,-70l-347 -2c-4,22 -4,52 0,72z"/>
      <path class="fil2" d="M722 4668c22,6 332,6 347,-2 2,-18 6,-50 -2,-63 -13,-9 -306,-7 -345,-3l0 68z"/>
      <path class="fil2" d="M718 3979c28,6 333,4 344,-3 9,-10 7,-45 5,-63 -20,-6 -306,-6 -347,-2l-2 68z"/>
      <path class="fil2" d="M1067 4803c-11,-9 -266,-4 -317,-4 -26,0 -28,-5 -30,19 0,14 0,35 2,51 24,6 329,6 349,-3 0,-17 4,-52 -4,-63z"/>
      <path class="fil2" d="M713 3588l351 0 0 -67c-24,-7 -322,-7 -349,0l-2 67z"/>
      <path class="fil2" d="M724 4507c-2,15 -4,50 2,67l345 2 2 -69 -30 -3 -293 0 -26 3 0 0z"/>
      <path class="fil2" d="M722 4764l347 0c6,-20 4,-48 0,-68 -15,-4 -321,-6 -347,-2l0 70 0 0z"/>
      <path class="fil2" d="M1067 4899c-13,-11 -262,-4 -317,-6 -28,0 -30,-5 -30,21 0,14 0,35 2,51l347 -3c2,-19 4,-50 -2,-63l0 0z"/>
      <path class="fil2" d="M729 4997c-5,22 -5,50 2,70l347 0 -3 -70 -346 0z"/>
      <polygon class="fil2" points="713,3682 1062,3682 1064,3612 718,3612 "/>
      <polygon class="fil2" points="724,4373 1073,4376 1073,4306 724,4304 "/>
      <path class="fil2" d="M718 3494l344 0 2 -69 -349 0c-2,21 -4,50 3,69l0 0z"/>
      <polygon class="fil2" points="724,4280 1071,4282 1073,4212 726,4212 "/>
      <path class="fil2" d="M726 4480l345 3 2 -70 -347 -2c-6,19 -6,52 0,69z"/>
      <path class="fil2" d="M715 3885l347 2 2 -70 -349 0c-4,20 -4,48 0,68l0 0z"/>
      <path class="fil2" d="M393 3793c83,0 209,2 288,-2l0 -68c-22,-8 -249,-4 -288,-4 -33,0 -29,2 -29,37 0,35 -6,37 29,37l0 0z"/>
      <path class="fil2" d="M366 3586c38,11 258,2 315,4l2 -72c-50,0 -288,-6 -317,3l0 65 0 0z"/>
      <path class="fil2" d="M369 4046l2 44c46,4 194,0 257,0 53,0 57,13 57,-44 0,-43 -15,-28 -61,-28l-238 -2c-24,2 -17,6 -17,30l0 0z"/>
      <path class="fil2" d="M373 3979c37,4 292,8 308,-3 8,-10 4,-45 4,-63 -18,-6 -279,-9 -314,-2 -5,22 -2,59 2,68z"/>
      <path class="fil2" d="M369 4182c26,8 292,6 318,0l-2 -64c-22,-8 -281,-6 -314,-2l-2 66z"/>
      <path class="fil2" d="M375 4572c29,11 264,4 314,4l0 -72c-50,0 -285,-6 -312,5l-2 63 0 0z"/>
      <path class="fil2" d="M375 4371c24,9 295,9 314,2l2 -65c-26,-7 -294,-7 -316,0l0 63z"/>
      <path class="fil2" d="M685 4801c-63,-4 -135,-2 -199,-2 -117,0 -115,-11 -113,28 0,13 -2,29 0,42 28,6 279,4 314,0 2,-20 4,-51 -2,-68l0 0z"/>
      <path class="fil2" d="M674 5067c26,0 22,-6 20,-67 -20,-5 -288,-5 -314,0 -3,34 -5,32 2,67l292 0 0 0z"/>
      <path class="fil2" d="M366 3680l315 2 0 -65c-20,-9 -238,-7 -291,-5 -19,0 -24,0 -26,20 0,15 0,35 2,48z"/>
      <path class="fil2" d="M401 4483l288 -3 2 -67c-45,-7 -157,-2 -209,-2 -15,0 -94,-3 -100,2 -11,6 -7,30 -7,43 0,29 -2,27 26,27l0 0z"/>
      <path class="fil2" d="M681 3885l0 -68 -315 0c-2,16 -2,29 -2,44 0,37 5,26 122,26 46,0 155,4 195,-2l0 0z"/>
      <path class="fil2" d="M375 4694c-6,20 -6,50 0,70l310 -2c6,-20 6,-48 0,-68l-310 0 0 0z"/>
      <path class="fil2" d="M366 3494c33,3 297,3 310,-2 9,-13 7,-46 5,-65l-315 -2 0 69 0 0z"/>
      <path class="fil2" d="M390 4893c-24,2 -21,6 -17,72l312 -3c4,-19 6,-48 0,-67l-295 -2 0 0z"/>
      <path class="fil2" d="M373 4670l314 -2c4,-20 4,-50 -2,-68l-312 0 0 70 0 0z"/>
      <path class="fil2" d="M689 4280l2 -68 -314 0c-2,15 -2,31 -2,44 0,26 -4,26 20,26l294 -2 0 0z"/>
      <path class="fil2" d="M127 3721l-3 70c46,4 129,4 175,0 6,-85 -2,-72 -31,-72l-141 2z"/>
      <path class="fil2" d="M133 4574c28,5 157,7 170,-2 9,-11 7,-46 5,-63 -20,-9 -153,-7 -173,-2l-2 67z"/>
      <path class="fil2" d="M124 3588c24,5 155,5 175,-2l0 -65c-24,-5 -153,-7 -175,0l0 67z"/>
      <path class="fil2" d="M299 4801c-20,-7 -92,-2 -120,-2 -59,0 -52,0 -48,67 20,7 150,7 172,3 2,-13 2,-24 2,-35 0,-5 0,-16 0,-20l-6 -13z"/>
      <path class="fil2" d="M131 4090l170 0c4,-22 4,-50 0,-70l-170 -2c-9,17 -9,52 0,72z"/>
      <path class="fil2" d="M133 4373c22,5 157,7 175,-2l0 -63c-20,-7 -153,-7 -173,0l-2 65z"/>
      <path class="fil2" d="M303 4600c-39,-4 -85,0 -124,0 -59,-2 -52,-2 -48,66 24,8 153,8 174,2l-2 -68z"/>
      <path class="fil2" d="M127 4184c32,4 148,6 174,0l0 -70 -172 0 -2 70z"/>
      <path class="fil2" d="M308 4277l0 -65 -173 0c-15,87 13,70 48,70 33,0 98,9 125,-5l0 0z"/>
      <path class="fil2" d="M303 4694c-35,-4 -89,0 -124,0 -24,0 -46,-9 -48,11 -2,9 0,48 0,57 20,4 150,4 174,0l-2 -68z"/>
      <path class="fil2" d="M124 3682l173 0 2 -63c-20,-13 -151,-9 -172,-5l-3 68z"/>
      <path class="fil2" d="M140 4997c-5,22 -7,50 0,70l168 0c8,-20 6,-48 2,-70l-170 0z"/>
      <path class="fil2" d="M131 3494l168 0c6,-19 4,-48 2,-69l-172 0c-5,19 -7,50 2,69z"/>
      <path class="fil2" d="M131 3979l170 2 2 -70 -174 -2c-5,22 -7,52 2,70z"/>
      <path class="fil2" d="M303 4895c-35,-5 -87,0 -124,-2 -24,0 -46,-7 -48,13 -2,8 0,48 0,59l174 -3 -2 -67z"/>
      <path class="fil2" d="M124 3885l155 2c18,-2 26,2 18,-70l-170 0 -3 68 0 0z"/>
      <polygon class="fil2" points="133,4480 308,4480 308,4413 135,4411 "/>
     </g>
    </g>
   </g>
   <g>
    <rect class="fil3" x="109" y="1305" width="1028" height="400"/>
    <path class="fil4" d="M109 1289l1027 0c4,0 8,3 8,8l0 415c0,4 -4,7 -8,7l-1027 0c-5,0 -8,-3 -8,-7l0 -415c0,-5 3,-8 8,-8zm1020 15l-1013 0 0 401 1013 0 0 -401z"/>
    <path class="fil5" d="M599 1455c0,0 -60,-3 -97,-17 -37,-14 -91,-54 -91,-54 0,0 0,2 -2,7l-52 -50c0,0 -45,40 -81,56 -36,16 -102,25 -102,25 0,0 44,96 64,124 6,7 13,15 23,22l136 137 151 -1 141 -161 -90 -88 0 0z"/>
    <path class="fil6" d="M501 1436c-36,-14 -90,-54 -90,-54 0,0 -36,99 -41,134 -6,34 10,102 54,118 1,0 1,1 2,1l26 -69c-13,-6 -28,-6 -41,0 -4,2 -8,0 -10,-4 -2,-3 0,-8 4,-10 17,-7 36,-7 52,0l6 -16c-1,0 -2,-1 -2,-1 -3,-1 -6,-3 -7,-7 -1,0 0,-1 0,-1l0 0c1,0 1,0 2,1 1,3 4,5 8,6l37 -98 0 0zm-79 2l0 0c2,0 4,0 7,0 2,0 4,0 7,0 3,0 5,1 7,1 3,0 5,1 7,1 4,1 6,2 6,2 0,0 -2,0 -6,0 -2,0 -4,0 -7,0 -2,0 -5,0 -7,0 -3,-1 -5,-1 -8,-1 -2,0 -4,-1 -6,-1 -4,-1 -6,-2 -6,-2 0,0 2,0 6,0zm-14 28l0 0c2,-6 13,-6 23,-3 11,5 18,12 16,17 -2,6 -12,7 -23,2 -11,-3 -18,-11 -16,-16z"/>
    <path class="fil7" d="M424 1482c11,5 21,4 23,-2 2,-5 -5,-12 -16,-17 -10,-3 -21,-3 -23,3 -2,5 5,13 16,16z"/>
    <path class="fil7" d="M436 1442c2,0 5,0 7,0 3,0 5,0 7,0 4,0 6,0 6,0 0,0 -2,-1 -6,-2 -2,0 -4,-1 -7,-1 -2,0 -4,-1 -7,-1 -3,0 -5,0 -7,0 -3,0 -5,0 -7,0 -4,0 -6,0 -6,0 0,0 2,1 6,2 2,0 4,1 6,1 3,0 5,0 8,1z"/>
    <path class="fil7" d="M411 1566c13,-6 28,-6 41,0l5 -14c-16,-7 -35,-7 -52,0 -4,2 -6,7 -4,10 2,4 6,6 10,4l0 0z"/>
    <path class="fil8" d="M545 1483c2,2 4,3 7,4 1,2 3,3 5,4 3,2 6,3 6,3 0,0 -2,-2 -5,-5 -1,-1 -3,-3 -5,-4 -2,-2 -4,-3 -6,-5 -2,-1 -4,-3 -6,-4 -2,-1 -4,-3 -5,-3 -3,-3 -6,-4 -6,-4 0,0 2,2 5,5 1,1 3,3 4,4 2,2 4,4 6,5z"/>
    <path class="fil8" d="M527 1521c11,4 21,3 23,-2 2,-5 -5,-13 -16,-17 -10,-4 -21,-3 -23,3 -2,5 5,12 16,16z"/>
    <path class="fil8" d="M482 1595c2,1 4,1 6,0 3,-2 5,-6 3,-10 -7,-15 -19,-27 -34,-33l-5 14c11,5 20,14 26,25 0,2 2,4 4,4l0 0z"/>
    <path class="fil8" d="M463 1536c3,0 5,0 7,-1 1,-1 1,-1 1,-2 0,0 -1,0 -1,0 -2,1 -4,1 -6,1l-1 2 0 0z"/>
    <path class="fil4" d="M426 1635c44,15 98,-26 116,-55 19,-29 57,-127 57,-127 0,0 -61,-3 -98,-17l-37 98c2,0 4,0 6,-1 0,0 1,0 1,0 0,1 0,1 -1,2 -2,1 -4,1 -7,1l-6 16c15,6 27,18 34,33 2,4 0,8 -3,10l0 0c-2,1 -4,1 -6,0 -2,0 -4,-2 -4,-4 -6,-11 -15,-20 -26,-25l-26 69 0 0zm101 -114l0 0c-11,-4 -18,-11 -16,-16 2,-6 13,-7 23,-3 11,4 18,12 16,17 -2,5 -12,6 -23,2zm30 -30l0 0c-2,-1 -4,-2 -5,-4 -3,-1 -5,-2 -7,-4 -2,-1 -4,-3 -6,-5 -1,-1 -3,-3 -4,-4 -3,-3 -5,-5 -5,-5 0,0 3,1 6,4 1,0 3,2 5,3 2,1 4,3 6,4 2,2 4,3 6,5 2,1 4,3 5,4 3,3 5,5 5,5 0,0 -3,-1 -6,-3z"/>
    <path class="fil7" d="M454 1528c1,4 4,6 7,7 0,0 1,1 2,1l1 -2c-4,-1 -7,-3 -8,-6 -1,-1 -1,-1 -2,-1 0,0 -1,1 0,1l0 0z"/>
    <path class="fil6" d="M275 1396c-35,15 -102,24 -102,24 0,0 44,96 64,124 21,28 79,66 122,47 1,0 1,-1 2,-1l-24 -54c0,1 -1,1 -2,2 -15,6 -33,7 -50,1 -4,-2 -6,-6 -5,-10 2,-4 6,-6 10,-4 14,5 29,4 41,-2l-13 -30c-1,1 -1,1 -2,1 -3,2 -7,2 -10,1 0,0 -1,-1 0,-2l0 0c0,0 0,-1 1,0 4,1 7,0 10,-2l-42 -95zm-55 56l0 0c1,-1 3,-3 5,-4 1,-2 3,-4 5,-5 2,-2 4,-3 6,-5 2,-1 4,-3 5,-4 4,-2 6,-3 6,-3 0,0 -2,2 -4,5 -2,1 -3,3 -5,4 -2,2 -4,4 -5,5 -2,2 -4,4 -6,5 -2,1 -4,3 -6,4 -3,2 -5,3 -5,3 0,0 1,-2 4,-5zm10 30l0 0c-2,-6 4,-13 15,-18 10,-5 21,-4 23,1 2,5 -5,13 -15,18 -10,4 -21,4 -23,-1z"/>
    <path class="fil7" d="M233 1445c1,-1 3,-3 5,-5 2,-1 3,-3 5,-4 2,-3 4,-5 4,-5 0,0 -2,1 -6,3 -1,1 -3,3 -5,4 -2,2 -4,3 -6,5 -2,1 -4,3 -5,5 -2,1 -4,3 -5,4 -3,3 -4,5 -4,5 0,0 2,-1 5,-3 2,-1 4,-3 6,-4 2,-1 4,-3 6,-5z"/>
    <path class="fil7" d="M253 1483c10,-5 17,-13 15,-18 -2,-5 -13,-6 -23,-1 -11,5 -17,12 -15,18 2,5 13,5 23,1z"/>
    <path class="fil8" d="M347 1397c2,-1 5,-1 6,-2 4,0 7,-1 7,-1 0,0 -3,-1 -7,0 -2,0 -4,0 -6,0 -3,0 -5,0 -8,1 -2,0 -5,0 -7,1 -3,0 -5,1 -7,1 -3,1 -6,2 -6,2 0,0 3,0 7,0 2,0 4,0 6,0 3,0 5,-1 8,-1 2,0 5,-1 7,-1z"/>
    <path class="fil8" d="M354 1438c10,-4 16,-12 14,-17 -2,-6 -12,-6 -23,-1 -10,4 -17,12 -15,17 3,6 13,6 24,1z"/>
    <path class="fil4" d="M361 1590c42,-20 52,-87 45,-120 -8,-34 -49,-131 -49,-131 0,0 -46,41 -82,57l42 95c2,-1 3,-2 4,-4 0,-1 0,-1 1,-1 0,0 1,1 0,2 0,2 -2,4 -4,5l13 30c11,-6 20,-15 24,-27 2,-4 6,-6 10,-4 4,1 6,6 5,10l0 0c-7,16 -19,28 -33,35l24 53 0 0zm-7 -152l0 0c-11,5 -21,5 -24,-1 -2,-5 5,-13 15,-17 11,-5 21,-5 23,1 2,5 -4,13 -14,17zm-1 -43l0 0c-1,1 -4,1 -6,2 -2,0 -5,1 -7,1 -3,0 -5,1 -8,1 -2,0 -4,0 -6,0 -4,0 -7,0 -7,0 0,0 3,-1 6,-2 2,0 4,-1 7,-1 2,-1 5,-1 7,-1 3,-1 5,-1 8,-1 2,0 4,0 6,0 4,-1 7,0 7,0 0,0 -3,1 -7,1z"/>
    <path class="fil8" d="M337 1537c14,-7 26,-19 33,-35 1,-4 -1,-9 -5,-10 -4,-2 -8,0 -10,4 -4,12 -13,21 -24,27l6 14z"/>
    <path class="fil9" d="M318 1493c2,-1 4,-3 4,-5 1,-1 0,-2 0,-2 -1,0 -1,0 -1,1 -1,2 -2,3 -4,4l1 2z"/>
    <path class="fil7" d="M335 1538c1,-1 2,-1 2,-2l-6 -13c-12,6 -27,7 -41,2 -4,-2 -8,0 -10,4 -1,4 1,8 5,10 17,6 35,5 50,-1l0 0z"/>
    <path class="fil10" d="M306 1495c3,1 7,1 10,-1 1,0 1,0 2,-1l-1 -2c-3,2 -6,3 -10,2 -1,-1 -1,0 -1,0 -1,1 0,2 0,2l0 0z"/>
    <g>
     <path class="fil11" d="M858 1579l-19 0 0 -84 18 0 0 13c4,-5 8,-10 13,-12 5,-3 11,-4 17,-4 7,0 12,1 17,4 4,2 7,7 9,12 5,-6 10,-10 14,-12 5,-3 11,-4 18,-4 5,0 10,1 14,3 4,2 7,5 10,9 1,1 2,4 2,6 1,3 1,6 1,11l0 7 0 51 -19 0 0 -43c0,-12 -2,-19 -4,-23 -2,-3 -7,-5 -13,-5 -7,0 -13,2 -16,7 -3,5 -5,13 -5,25l0 39 -19 0 0 -43c0,-11 -1,-18 -4,-22 -2,-4 -7,-6 -13,-6 -4,0 -7,1 -10,2 -3,2 -6,5 -8,8 -1,2 -2,4 -2,7 -1,3 -1,8 -1,15l0 39zm221 -39l-68 0c1,7 3,14 7,18 5,4 10,7 17,7 6,0 12,-2 16,-4 4,-3 7,-7 11,-13l16 9c-5,9 -11,15 -18,19 -7,4 -15,6 -24,6 -14,0 -25,-4 -33,-12 -8,-8 -12,-19 -12,-33 0,-13 5,-24 13,-33 8,-8 19,-12 32,-12 13,0 24,4 31,11 8,8 12,19 12,33l0 4zm-20 -13c-1,-6 -3,-11 -7,-14 -4,-3 -9,-5 -16,-5 -6,0 -11,2 -15,5 -4,3 -7,7 -8,14l46 0z"/>
     <path class="fil11" d="M742 1515c0,-1 -1,-4 -1,-9 -1,-3 -1,-7 -1,-9 -1,3 -2,6 -3,9 -1,3 -2,6 -3,9l-34 69 -34 -71c-2,-3 -3,-5 -4,-8 -1,-3 -2,-5 -3,-8 0,3 0,5 0,8 -1,3 -1,7 -2,10l-14 64 -19 0 30 -136 39 82c0,2 1,4 2,7 2,3 3,7 5,11 1,-4 3,-8 6,-14 0,-2 1,-3 1,-4l38 -82 31 136 -20 0 -14 -64zm48 -57c0,-3 1,-6 3,-8 3,-2 5,-4 9,-4 3,0 6,2 8,4 3,2 4,5 4,8 0,4 -1,7 -4,9 -2,2 -5,4 -8,4 -4,0 -6,-2 -9,-4 -2,-2 -3,-5 -3,-9zm2 121l0 -84 19 0 0 84 -19 0z"/>
    </g>
    <path class="fil8" d="M847 1574l-19 0 0 -84 18 0 0 14c4,-6 8,-10 13,-13 5,-3 11,-4 17,-4 7,0 12,1 17,4 4,3 7,7 9,12 5,-5 10,-10 15,-12 5,-3 10,-4 17,-4 5,0 10,1 14,3 4,2 7,5 10,9 1,2 2,4 2,6 1,3 1,6 1,11l0 7 0 51 -19 0 0 -43c0,-12 -2,-19 -4,-23 -2,-3 -7,-5 -13,-5 -7,0 -13,3 -16,7 -3,5 -5,14 -5,26l0 38 -19 0 0 -43c0,-11 -1,-18 -4,-22 -2,-4 -7,-6 -13,-6 -4,0 -7,1 -10,3 -3,1 -6,4 -8,7 -1,2 -2,4 -2,7 -1,3 -1,8 -1,16l0 38zm221 -39l-68 0c1,8 3,14 7,18 5,5 10,7 17,7 6,0 12,-2 16,-4 4,-3 7,-7 11,-13l16 9c-5,9 -11,15 -18,19 -7,4 -15,6 -24,6 -14,0 -25,-4 -33,-12 -8,-8 -12,-19 -12,-33 0,-13 5,-24 13,-32 8,-9 19,-13 32,-13 13,0 24,4 31,12 8,7 12,18 12,32l0 4zm-20 -13c-1,-6 -3,-11 -7,-14 -4,-3 -9,-5 -16,-5 -6,0 -11,2 -15,5 -4,3 -7,8 -8,14l46 0z"/>
    <path class="fil7" d="M731 1510c0,-1 -1,-4 -1,-8 -1,-4 -1,-7 -1,-10 -1,3 -2,6 -3,9 -1,3 -2,6 -3,9l-34 69 -34 -70c-2,-3 -3,-6 -4,-9 -1,-3 -2,-5 -3,-8 0,3 0,6 0,9 -1,3 -1,6 -2,9l-14 64 -19 0 30 -135 39 82c0,1 1,3 2,6 2,3 3,7 5,11 1,-4 3,-8 6,-14 0,-2 1,-3 1,-4l38 -81 31 135 -20 0 -14 -64zm48 -56c0,-4 1,-6 3,-9 3,-2 5,-3 9,-3 3,0 6,1 8,3 3,2 4,5 4,9 0,3 -1,6 -4,8 -2,3 -5,4 -8,4 -4,0 -6,-1 -9,-4 -2,-2 -3,-5 -3,-8zm2 120l0 -84 19 0 0 84 -19 0z"/>
   </g>
  </g>
 </g>
</svg>
