<?xml version="1.0" encoding="UTF-8"?>
<!DOCTYPE svg PUBLIC "-//W3C//DTD SVG 1.1//EN" "http://www.w3.org/Graphics/SVG/1.1/DTD/svg11.dtd">
<!-- Creator: CorelDRAW X7 -->
<svg xmlns="http://www.w3.org/2000/svg" xml:space="preserve" width="100%" height="100%" version="1.1" style="shape-rendering:geometricPrecision; text-rendering:geometricPrecision; image-rendering:optimizeQuality; fill-rule:evenodd; clip-rule:evenodd"
viewBox="0 0 1110 2840"
 xmlns:xlink="http://www.w3.org/1999/xlink">
 <defs>
  <style type="text/css">
   <![CDATA[
    .fil2 {fill:#175B64}
    .fil0 {fill:#185E66}
    .fil4 {fill:#195D66}
    .fil1 {fill:#337D88}
    .fil3 {fill:#398690}
   ]]>
  </style>
 </defs>
 <g id="Layer_x0020_1">
  <metadata id="CorelCorpID_0Corel-Layer"/>
  <g id="_1073093944688">
   <path class="fil0" d="M72 191l936 -40c0,0 -47,-91 -169,-113 -122,-22 -420,-38 -420,-38l-187 7c0,0 -126,78 -141,97 -16,18 -19,87 -19,87z"/>
   <polygon class="fil1" points="308,90 308,2840 1110,2787 1105,134 "/>
   <path class="fil2" d="M338 151c37,2 74,4 111,7 0,104 0,208 0,312 -37,-2 -74,-4 -111,-6 0,-104 0,-208 0,-313z"/>
   <path class="fil2" d="M464 159c37,2 74,4 111,6 0,104 0,207 0,311 -37,-2 -74,-4 -110,-6 0,-103 0,-207 -1,-311z"/>
   <path class="fil2" d="M590 166c36,3 73,5 109,7 0,103 0,206 0,309 -36,-2 -73,-4 -109,-5 0,-104 0,-207 0,-311z"/>
   <path class="fil2" d="M590 166c36,3 73,5 109,7 0,103 0,206 0,309 -36,-2 -73,-4 -109,-5 0,-104 0,-207 0,-311z"/>
   <path class="fil2" d="M715 174c36,2 72,5 108,7 0,102 0,204 0,307 -36,-2 -72,-4 -107,-6 -1,-102 -1,-205 -1,-308z"/>
   <path class="fil2" d="M837 182c36,2 71,4 106,6 0,102 0,204 0,305 -35,-1 -70,-3 -106,-5 0,-102 0,-204 0,-306z"/>
   <path class="fil3" d="M958 189c35,2 70,5 105,7 0,101 0,202 0,303 -35,-2 -70,-3 -105,-5 0,-102 0,-203 0,-305z"/>
   <path class="fil2" d="M958 189c35,2 70,5 105,7 0,101 0,202 0,303 -35,-2 -70,-3 -105,-5 0,-102 0,-203 0,-305z"/>
   <path class="fil2" d="M338 504c37,2 74,3 112,5 0,29 0,59 0,88 -38,-2 -75,-3 -112,-5 0,-29 0,-58 0,-88z"/>
   <path class="fil2" d="M465 510c36,1 73,3 110,5 0,29 0,58 0,87 -37,-1 -74,-3 -110,-4 0,-30 0,-59 0,-88z"/>
   <path class="fil2" d="M590 515c36,2 73,4 109,5 0,29 0,58 0,87 -36,-1 -72,-3 -109,-4 0,-29 0,-58 0,-88z"/>
   <path class="fil2" d="M590 515c36,2 73,4 109,5 0,29 0,58 0,87 -36,-1 -72,-3 -109,-4 0,-29 0,-58 0,-88z"/>
   <path class="fil2" d="M716 521c35,2 71,3 107,5 0,29 0,57 0,86 -36,-1 -72,-3 -107,-4 0,-29 0,-58 0,-87z"/>
   <path class="fil2" d="M837 526c36,2 71,4 106,5 0,29 1,58 1,86 -36,-1 -71,-3 -107,-4 0,-29 0,-58 0,-87z"/>
   <path class="fil2" d="M959 532c34,2 70,3 104,5 0,28 0,57 0,85 -34,-2 -69,-3 -104,-4 0,-29 0,-57 0,-86z"/>
   <path class="fil2" d="M959 532c34,2 70,3 104,5 0,28 0,57 0,85 -34,-2 -69,-3 -104,-4 0,-29 0,-57 0,-86z"/>
   <path class="fil2" d="M590 641c39,2 78,3 117,5 39,1 78,3 116,5 0,153 0,307 0,460 -38,0 -77,-1 -116,-1 -39,-1 -78,-2 -117,-2 0,-156 0,-311 0,-467z"/>
   <path class="fil2" d="M837 651c36,1 71,3 107,4 0,29 0,58 0,86 -36,-1 -71,-2 -106,-4 -1,-28 -1,-57 -1,-86z"/>
   <path class="fil2" d="M959 656c35,1 70,2 104,4 0,28 0,57 0,85 -34,-1 -69,-2 -104,-4 0,-28 0,-56 0,-85z"/>
   <path class="fil2" d="M959 656c35,1 70,2 104,4 0,28 0,57 0,85 -34,-1 -69,-2 -104,-4 0,-28 0,-56 0,-85z"/>
   <path class="fil2" d="M838 765c35,1 70,3 106,4 0,28 0,57 0,85 -36,-1 -71,-2 -106,-3 0,-29 0,-57 0,-86z"/>
   <path class="fil2" d="M959 769c35,1 70,3 104,4 0,28 1,56 1,85 -35,-1 -70,-2 -105,-3 0,-29 0,-57 0,-86z"/>
   <path class="fil2" d="M959 769c35,1 70,3 104,4 0,28 1,56 1,85 -35,-1 -70,-2 -105,-3 0,-29 0,-57 0,-86z"/>
   <path class="fil2" d="M838 889c35,1 70,2 106,3 0,29 0,58 0,86 -35,0 -71,-1 -106,-2 0,-29 0,-58 0,-87z"/>
   <path class="fil2" d="M959 893c35,1 70,2 105,2 0,29 0,58 0,86 -35,-1 -70,-1 -105,-2 0,-29 0,-57 0,-86z"/>
   <path class="fil2" d="M959 893c35,1 70,2 105,2 0,29 0,58 0,86 -35,-1 -70,-1 -105,-2 0,-29 0,-57 0,-86z"/>
   <path class="fil2" d="M838 1020c35,1 71,2 106,2 0,29 0,58 0,86 -35,0 -71,-1 -106,-2 0,-28 0,-57 0,-86z"/>
   <path class="fil2" d="M959 1023c35,0 70,1 105,2 0,28 0,57 0,85 -35,0 -70,-1 -105,-2 0,-28 0,-57 0,-85z"/>
   <path class="fil2" d="M959 1023c35,0 70,1 105,2 0,28 0,57 0,85 -35,0 -70,-1 -105,-2 0,-28 0,-57 0,-85z"/>
   <path class="fil2" d="M838 1144c35,1 71,1 106,2 0,29 0,58 0,86 -35,0 -71,-1 -106,-1 0,-29 0,-58 0,-87z"/>
   <path class="fil2" d="M959 1146c35,1 70,1 105,2 0,28 0,57 0,85 -35,0 -70,0 -105,-1 0,-28 0,-57 0,-86z"/>
   <path class="fil2" d="M959 1146c35,1 70,1 105,2 0,28 0,57 0,85 -35,0 -70,0 -105,-1 0,-28 0,-57 0,-86z"/>
   <path class="fil2" d="M340 632c37,1 74,3 111,4 0,29 0,59 0,88 -37,-1 -74,-3 -111,-4 0,-29 0,-59 0,-88z"/>
   <path class="fil2" d="M467 637c36,1 73,2 110,4 0,29 0,58 0,87 -37,-1 -74,-2 -110,-4 0,-29 0,-58 0,-87z"/>
   <path class="fil2" d="M467 637c36,1 73,2 110,4 0,29 0,58 0,87 -37,-1 -74,-2 -110,-4 0,-29 0,-58 0,-87z"/>
   <path class="fil2" d="M340 749c37,1 74,2 111,3 0,30 0,59 0,88 -37,-1 -74,-2 -111,-3 0,-30 0,-59 0,-88z"/>
   <path class="fil2" d="M467 753c37,1 73,2 110,3 0,30 0,59 0,88 -37,-1 -73,-3 -110,-4 0,-29 0,-58 0,-87z"/>
   <path class="fil2" d="M467 753c37,1 73,2 110,3 0,30 0,59 0,88 -37,-1 -73,-3 -110,-4 0,-29 0,-58 0,-87z"/>
   <path class="fil2" d="M340 876c37,1 74,2 111,3 0,29 0,59 0,88 -37,-1 -74,-1 -111,-2 0,-30 0,-59 0,-89z"/>
   <path class="fil2" d="M467 879c37,1 73,2 110,3 0,30 0,59 0,88 -37,-1 -73,-2 -110,-2 0,-30 0,-59 0,-89z"/>
   <path class="fil2" d="M467 879c37,1 73,2 110,3 0,30 0,59 0,88 -37,-1 -73,-2 -110,-2 0,-30 0,-59 0,-89z"/>
   <path class="fil2" d="M340 1010c37,1 74,1 111,2 0,30 0,59 0,88 -37,0 -74,-1 -111,-2 0,-29 0,-58 0,-88z"/>
   <path class="fil2" d="M467 1013c37,0 73,1 110,2 0,29 0,58 0,87 -37,0 -73,-1 -110,-2 0,-29 0,-58 0,-87z"/>
   <path class="fil2" d="M467 1013c37,0 73,1 110,2 0,29 0,58 0,87 -37,0 -73,-1 -110,-2 0,-29 0,-58 0,-87z"/>
   <path class="fil2" d="M340 1137c37,1 74,1 111,2 0,29 0,59 0,88 -37,0 -74,-1 -111,-1 0,-29 0,-59 0,-89z"/>
   <path class="fil2" d="M467 1139c37,1 73,1 110,2 0,29 0,58 0,87 -37,0 -73,0 -110,-1 0,-29 0,-58 0,-88z"/>
   <path class="fil2" d="M467 1139c37,1 73,1 110,2 0,29 0,58 0,87 -37,0 -73,0 -110,-1 0,-29 0,-58 0,-88z"/>
   <path class="fil2" d="M597 1141c36,1 73,1 109,2 0,29 0,58 0,87 -36,-1 -73,-1 -109,-1 0,-29 0,-59 0,-88z"/>
   <path class="fil2" d="M721 1143c36,0 72,1 108,1 0,29 0,58 0,87 -36,0 -72,-1 -108,-1 0,-29 0,-58 0,-87z"/>
   <path class="fil2" d="M721 1143c36,0 72,1 108,1 0,29 0,58 0,87 -36,0 -72,-1 -108,-1 0,-29 0,-58 0,-87z"/>
   <path class="fil2" d="M838 1271c35,0 71,0 106,1 0,29 0,57 0,86 -35,0 -71,0 -106,-1 0,-28 0,-57 0,-86z"/>
   <path class="fil2" d="M959 1272c35,0 70,1 105,1 0,28 0,57 0,85 -35,0 -70,0 -105,0 0,-29 0,-57 0,-86z"/>
   <path class="fil2" d="M959 1272c35,0 70,1 105,1 0,28 0,57 0,85 -35,0 -70,0 -105,0 0,-29 0,-57 0,-86z"/>
   <path class="fil2" d="M340 1267c37,0 74,0 111,1 0,29 0,59 0,88 -37,0 -74,0 -111,0 0,-30 0,-59 0,-89z"/>
   <path class="fil2" d="M467 1268c37,0 73,1 110,1 0,29 0,58 0,88 -37,-1 -73,-1 -110,-1 0,-29 0,-59 0,-88z"/>
   <path class="fil2" d="M467 1268c37,0 73,1 110,1 0,29 0,58 0,88 -37,-1 -73,-1 -110,-1 0,-29 0,-59 0,-88z"/>
   <path class="fil2" d="M597 1269c36,0 73,1 109,1 0,29 0,58 0,87 -36,0 -73,0 -109,0 0,-29 0,-59 0,-88z"/>
   <path class="fil2" d="M721 1270c36,0 72,1 108,1 0,29 0,58 0,86 -36,0 -72,0 -108,0 0,-29 0,-58 0,-87z"/>
   <path class="fil2" d="M721 1270c36,0 72,1 108,1 0,29 0,58 0,86 -36,0 -72,0 -108,0 0,-29 0,-58 0,-87z"/>
   <path class="fil2" d="M838 1388c35,1 71,1 106,1 0,28 0,57 0,86 -35,0 -70,0 -106,0 0,-29 0,-58 0,-87z"/>
   <path class="fil2" d="M959 1389c35,0 70,0 105,0 0,29 0,57 0,86 -35,0 -70,0 -105,0 0,-29 0,-58 0,-86z"/>
   <path class="fil2" d="M959 1389c35,0 70,0 105,0 0,29 0,57 0,86 -35,0 -70,0 -105,0 0,-29 0,-58 0,-86z"/>
   <path class="fil2" d="M340 1387c37,0 74,1 111,1 0,29 0,59 0,88 -37,0 -74,0 -111,0 0,-29 0,-59 0,-89z"/>
   <path class="fil2" d="M467 1388c37,0 73,0 110,0 0,29 0,59 0,88 -37,0 -73,0 -110,0 0,-29 0,-59 0,-88z"/>
   <path class="fil2" d="M467 1388c37,0 73,0 110,0 0,29 0,59 0,88 -37,0 -73,0 -110,0 0,-29 0,-59 0,-88z"/>
   <path class="fil2" d="M597 1388c36,0 73,0 109,0 0,29 0,58 0,87 -36,0 -73,0 -109,1 0,-29 0,-59 0,-88z"/>
   <path class="fil2" d="M721 1388c36,0 72,0 108,0 0,29 0,58 0,87 -36,0 -72,0 -108,0 0,-29 0,-58 0,-87z"/>
   <path class="fil2" d="M721 1388c36,0 72,0 108,0 0,29 0,58 0,87 -36,0 -72,0 -108,0 0,-29 0,-58 0,-87z"/>
   <path class="fil2" d="M838 1515c36,0 71,0 106,0 0,28 0,57 0,86 -35,0 -70,0 -106,0 0,-28 0,-57 0,-86z"/>
   <path class="fil2" d="M959 1515c35,-1 70,-1 105,-1 0,29 0,57 0,86 -35,0 -70,0 -105,0 0,-28 0,-57 0,-85z"/>
   <path class="fil2" d="M959 1515c35,-1 70,-1 105,-1 0,29 0,57 0,86 -35,0 -70,0 -105,0 0,-28 0,-57 0,-85z"/>
   <path class="fil2" d="M340 1517c37,0 74,0 111,0 0,29 0,58 0,88 -37,0 -74,0 -111,1 0,-30 0,-59 0,-89z"/>
   <path class="fil2" d="M467 1516c37,0 73,0 110,0 0,29 0,59 0,88 -37,0 -73,0 -110,1 0,-30 0,-59 0,-89z"/>
   <path class="fil2" d="M467 1516c37,0 73,0 110,0 0,29 0,59 0,88 -37,0 -73,0 -110,1 0,-30 0,-59 0,-89z"/>
   <path class="fil2" d="M597 1516c36,0 73,0 109,0 0,29 0,58 0,87 -36,0 -73,0 -109,1 0,-29 0,-59 0,-88z"/>
   <path class="fil2" d="M721 1515c36,0 72,0 108,0 0,29 0,58 0,87 -36,0 -72,0 -108,1 0,-29 0,-58 0,-88z"/>
   <path class="fil2" d="M721 1515c36,0 72,0 108,0 0,29 0,58 0,87 -36,0 -72,0 -108,1 0,-29 0,-58 0,-88z"/>
   <path class="fil2" d="M838 1637c36,0 71,-1 106,-1 0,29 0,58 0,86 -35,1 -70,1 -106,2 0,-29 0,-58 0,-87z"/>
   <path class="fil2" d="M959 1636c35,0 70,-1 105,-1 0,28 0,57 0,85 -35,1 -70,1 -105,2 0,-29 0,-57 0,-86z"/>
   <path class="fil2" d="M959 1636c35,0 70,-1 105,-1 0,28 0,57 0,85 -35,1 -70,1 -105,2 0,-29 0,-57 0,-86z"/>
   <path class="fil2" d="M340 1642c37,0 74,-1 111,-1 0,30 0,59 0,88 -37,1 -74,1 -111,2 0,-30 0,-59 0,-89z"/>
   <path class="fil2" d="M467 1641c37,0 73,-1 110,-1 0,29 0,58 0,87 -37,1 -73,2 -110,2 0,-29 0,-59 0,-88z"/>
   <path class="fil2" d="M467 1641c37,0 73,-1 110,-1 0,29 0,58 0,87 -37,1 -73,2 -110,2 0,-29 0,-59 0,-88z"/>
   <path class="fil2" d="M597 1640c36,-1 73,-1 109,-2 0,30 0,59 0,88 -36,0 -73,1 -109,1 0,-29 0,-58 0,-87z"/>
   <path class="fil2" d="M721 1638c36,0 72,0 108,-1 0,29 0,58 0,87 -36,0 -72,1 -108,1 0,-29 0,-58 0,-87z"/>
   <path class="fil2" d="M721 1638c36,0 72,0 108,-1 0,29 0,58 0,87 -36,0 -72,1 -108,1 0,-29 0,-58 0,-87z"/>
   <path class="fil2" d="M838 1764c36,-1 71,-2 106,-2 0,29 0,57 0,86 -35,1 -70,1 -106,2 0,-29 0,-58 0,-86z"/>
   <path class="fil2" d="M959 1762c36,-1 70,-2 105,-2 0,28 0,57 0,85 -34,1 -69,2 -105,3 0,-29 0,-58 0,-86z"/>
   <path class="fil2" d="M959 1762c36,-1 70,-2 105,-2 0,28 0,57 0,85 -34,1 -69,2 -105,3 0,-29 0,-58 0,-86z"/>
   <path class="fil2" d="M340 1772c37,-1 74,-1 111,-2 0,29 0,59 0,88 -37,1 -74,2 -111,2 0,-29 0,-59 0,-88z"/>
   <path class="fil2" d="M467 1770c37,-1 73,-2 110,-2 0,29 0,58 0,87 -37,1 -73,2 -110,3 0,-29 0,-59 0,-88z"/>
   <path class="fil2" d="M467 1770c37,-1 73,-2 110,-2 0,29 0,58 0,87 -37,1 -73,2 -110,3 0,-29 0,-59 0,-88z"/>
   <path class="fil2" d="M597 1767c36,0 73,-1 109,-1 0,29 0,58 0,87 -36,1 -72,1 -109,2 0,-29 0,-58 0,-88z"/>
   <path class="fil2" d="M721 1766c36,-1 72,-2 108,-2 0,29 0,58 0,86 -36,1 -72,2 -108,3 0,-29 0,-58 0,-87z"/>
   <path class="fil2" d="M721 1766c36,-1 72,-2 108,-2 0,29 0,58 0,86 -36,1 -72,2 -108,3 0,-29 0,-58 0,-87z"/>
   <path class="fil2" d="M838 1882c36,-1 71,-2 106,-3 1,29 1,58 1,86 -36,1 -71,2 -107,3 0,-29 0,-58 0,-86z"/>
   <path class="fil2" d="M959 1879c36,-1 71,-2 105,-3 0,29 0,58 0,86 -34,1 -69,2 -104,3 0,-29 -1,-57 -1,-86z"/>
   <path class="fil2" d="M959 1879c36,-1 71,-2 105,-3 0,29 0,58 0,86 -34,1 -69,2 -104,3 0,-29 -1,-57 -1,-86z"/>
   <path class="fil2" d="M340 1893c37,-1 74,-2 111,-3 0,30 0,59 0,88 -37,1 -74,2 -111,3 0,-29 0,-59 0,-88z"/>
   <path class="fil2" d="M467 1890c37,-1 73,-2 110,-3 0,30 0,59 0,88 -37,1 -73,2 -110,3 0,-29 0,-59 0,-88z"/>
   <path class="fil2" d="M467 1890c37,-1 73,-2 110,-3 0,30 0,59 0,88 -37,1 -73,2 -110,3 0,-29 0,-59 0,-88z"/>
   <path class="fil2" d="M597 1887c37,-1 73,-2 109,-3 0,29 0,59 0,87 -36,1 -72,2 -109,3 0,-29 0,-58 0,-87z"/>
   <path class="fil2" d="M721 1884c36,-1 72,-2 108,-2 0,29 0,57 0,86 -36,1 -72,2 -108,3 0,-29 0,-58 0,-87z"/>
   <path class="fil2" d="M721 1884c36,-1 72,-2 108,-2 0,29 0,57 0,86 -36,1 -72,2 -108,3 0,-29 0,-58 0,-87z"/>
   <path class="fil2" d="M838 2008c36,-1 71,-2 107,-3 0,29 0,57 0,86 -36,1 -71,2 -107,3 0,-28 0,-57 0,-86z"/>
   <path class="fil2" d="M960 2004c35,-1 70,-1 104,-3 0,29 1,58 1,86 -35,1 -70,2 -105,4 0,-29 0,-58 0,-87z"/>
   <path class="fil2" d="M960 2004c35,-1 70,-1 104,-3 0,29 1,58 1,86 -35,1 -70,2 -105,4 0,-29 0,-58 0,-87z"/>
   <path class="fil2" d="M340 2022c37,-1 74,-2 111,-3 0,29 0,59 0,88 -37,1 -74,3 -111,4 0,-30 0,-59 0,-89z"/>
   <path class="fil2" d="M467 2018c37,-1 73,-2 110,-3 0,30 0,59 0,88 -36,1 -73,2 -110,4 0,-30 0,-59 0,-89z"/>
   <path class="fil2" d="M467 2018c37,-1 73,-2 110,-3 0,30 0,59 0,88 -36,1 -73,2 -110,4 0,-30 0,-59 0,-89z"/>
   <path class="fil2" d="M597 2015c37,-1 73,-2 109,-3 0,29 0,58 0,87 -36,1 -72,2 -109,3 0,-29 0,-58 0,-87z"/>
   <path class="fil2" d="M721 2011c36,-1 72,-2 108,-3 0,29 0,58 0,87 -36,1 -71,2 -108,3 0,-29 0,-58 0,-87z"/>
   <path class="fil2" d="M721 2011c36,-1 72,-2 108,-3 0,29 0,58 0,87 -36,1 -71,2 -108,3 0,-29 0,-58 0,-87z"/>
   <path class="fil2" d="M838 2129c36,-2 71,-3 107,-4 0,29 0,58 0,86 -36,2 -71,3 -107,4 0,-28 0,-57 0,-86z"/>
   <path class="fil2" d="M960 2125c35,-2 70,-3 105,-4 0,29 0,57 0,86 -35,1 -70,2 -105,4 0,-29 0,-57 0,-86z"/>
   <path class="fil2" d="M960 2125c35,-2 70,-3 105,-4 0,29 0,57 0,86 -35,1 -70,2 -105,4 0,-29 0,-57 0,-86z"/>
   <path class="fil2" d="M340 2146c37,-1 74,-3 111,-4 0,30 0,59 0,89 -37,1 -74,2 -111,4 0,-30 0,-59 0,-89z"/>
   <path class="fil2" d="M467 2142c37,-2 74,-3 110,-4 0,29 0,59 0,88 -36,1 -73,3 -110,4 0,-29 0,-59 0,-88z"/>
   <path class="fil2" d="M467 2142c37,-2 74,-3 110,-4 0,29 0,59 0,88 -36,1 -73,3 -110,4 0,-29 0,-59 0,-88z"/>
   <path class="fil2" d="M597 2137c37,-1 73,-2 109,-4 0,30 0,59 0,88 -36,1 -72,2 -109,4 0,-29 0,-58 0,-88z"/>
   <path class="fil2" d="M721 2133c37,-2 72,-3 108,-4 0,29 0,58 0,87 -36,1 -71,3 -107,4 0,-29 -1,-58 -1,-87z"/>
   <path class="fil2" d="M721 2133c37,-2 72,-3 108,-4 0,29 0,58 0,87 -36,1 -71,3 -107,4 0,-29 -1,-58 -1,-87z"/>
   <path class="fil2" d="M838 2255c36,-1 71,-3 107,-4 0,29 0,58 0,86 -36,2 -71,3 -107,5 0,-29 0,-58 0,-87z"/>
   <path class="fil2" d="M960 2251c35,-2 70,-3 105,-5 0,29 0,57 0,86 -35,1 -70,3 -105,5 0,-29 0,-58 0,-86z"/>
   <path class="fil2" d="M960 2251c35,-2 70,-3 105,-5 0,29 0,57 0,86 -35,1 -70,3 -105,5 0,-29 0,-58 0,-86z"/>
   <path class="fil2" d="M340 2276c37,-2 74,-3 111,-5 0,30 0,59 0,88 -37,2 -74,4 -111,5 0,-29 0,-59 0,-88z"/>
   <path class="fil2" d="M467 2271c37,-2 74,-3 110,-5 0,29 0,59 0,88 -36,1 -73,3 -110,5 0,-29 0,-59 0,-88z"/>
   <path class="fil2" d="M467 2271c37,-2 74,-3 110,-5 0,29 0,59 0,88 -36,1 -73,3 -110,5 0,-29 0,-59 0,-88z"/>
   <path class="fil2" d="M597 2265c37,-1 73,-3 109,-4 0,29 0,58 0,87 -36,2 -72,3 -109,5 0,-29 0,-59 0,-88z"/>
   <path class="fil2" d="M722 2260c36,-1 71,-3 107,-4 0,29 0,58 0,86 -36,2 -71,4 -107,5 0,-29 0,-58 0,-87z"/>
   <path class="fil2" d="M722 2260c36,-1 71,-3 107,-4 0,29 0,58 0,86 -36,2 -71,4 -107,5 0,-29 0,-58 0,-87z"/>
   <path class="fil2" d="M838 2373c36,-1 71,-3 107,-5 0,29 0,58 0,87 -36,1 -71,3 -107,5 0,-29 0,-58 0,-87z"/>
   <path class="fil2" d="M960 2368c35,-2 70,-4 105,-5 0,28 0,57 0,86 -35,1 -70,3 -105,5 0,-29 0,-58 0,-86z"/>
   <path class="fil2" d="M960 2368c35,-2 70,-4 105,-5 0,28 0,57 0,86 -35,1 -70,3 -105,5 0,-29 0,-58 0,-86z"/>
   <path class="fil2" d="M340 2397c37,-2 74,-4 111,-6 0,30 0,59 0,89 -37,2 -74,4 -111,5 0,-29 0,-59 0,-88z"/>
   <path class="fil2" d="M467 2391c37,-2 74,-4 110,-6 0,30 0,59 0,88 -36,2 -73,4 -110,6 0,-29 0,-59 0,-88z"/>
   <path class="fil2" d="M467 2391c37,-2 74,-4 110,-6 0,30 0,59 0,88 -36,2 -73,4 -110,6 0,-29 0,-59 0,-88z"/>
   <path class="fil2" d="M597 2385c37,-2 73,-4 109,-6 0,30 0,59 0,88 -36,2 -72,4 -109,5 0,-29 0,-58 0,-87z"/>
   <path class="fil2" d="M722 2379c36,-2 71,-4 107,-5 0,29 0,58 0,87 -36,1 -71,3 -107,5 0,-29 0,-58 0,-87z"/>
   <path class="fil2" d="M722 2379c36,-2 71,-4 107,-5 0,29 0,58 0,87 -36,1 -71,3 -107,5 0,-29 0,-58 0,-87z"/>
   <path class="fil2" d="M838 2500c36,-2 72,-3 107,-5 0,28 0,57 0,86 -35,2 -71,4 -107,6 0,-29 0,-58 0,-87z"/>
   <path class="fil2" d="M960 2494c35,-2 70,-4 105,-6 0,29 0,58 0,86 -35,2 -70,4 -105,6 0,-29 0,-57 0,-86z"/>
   <path class="fil2" d="M960 2494c35,-2 70,-4 105,-6 0,29 0,58 0,86 -35,2 -70,4 -105,6 0,-29 0,-57 0,-86z"/>
   <path class="fil2" d="M340 2526c37,-2 74,-4 111,-5 0,29 0,59 0,88 -37,2 -74,4 -111,6 0,-29 0,-59 0,-89z"/>
   <path class="fil2" d="M467 2520c37,-2 74,-4 110,-6 0,29 0,59 0,88 -36,2 -73,4 -110,6 0,-29 0,-59 0,-88z"/>
   <path class="fil2" d="M467 2520c37,-2 74,-4 110,-6 0,29 0,59 0,88 -36,2 -73,4 -110,6 0,-29 0,-59 0,-88z"/>
   <path class="fil2" d="M597 2513c37,-2 73,-4 109,-6 0,29 0,58 0,87 -36,2 -72,4 -108,7 -1,-29 -1,-59 -1,-88z"/>
   <path class="fil2" d="M722 2506c36,-2 71,-4 107,-5 0,29 0,58 0,86 -35,2 -71,4 -107,6 0,-28 0,-57 0,-87z"/>
   <path class="fil2" d="M722 2506c36,-2 71,-4 107,-5 0,29 0,58 0,86 -35,2 -71,4 -107,6 0,-28 0,-57 0,-87z"/>
   <path class="fil2" d="M839 2622c35,-2 71,-4 106,-6 0,29 0,58 0,86 -35,3 -71,5 -106,7 0,-28 0,-57 0,-87z"/>
   <path class="fil2" d="M960 2615c35,-2 70,-4 105,-6 0,29 0,58 0,86 -35,2 -70,4 -105,7 0,-29 0,-58 0,-87z"/>
   <path class="fil2" d="M960 2615c35,-2 70,-4 105,-6 0,29 0,58 0,86 -35,2 -70,4 -105,7 0,-29 0,-58 0,-87z"/>
   <path class="fil2" d="M340 2652c37,-2 74,-5 111,-7 0,30 0,60 0,89 -37,2 -74,4 -111,7 0,-30 0,-59 0,-89z"/>
   <path class="fil2" d="M467 2644c37,-2 74,-4 110,-6 0,29 0,59 0,88 -36,2 -73,4 -110,7 0,-30 0,-59 0,-89z"/>
   <path class="fil2" d="M467 2644c37,-2 74,-4 110,-6 0,29 0,59 0,88 -36,2 -73,4 -110,7 0,-30 0,-59 0,-89z"/>
   <path class="fil2" d="M597 2637c37,-2 73,-5 109,-7 0,30 0,59 0,88 -36,2 -72,4 -109,6 0,-29 0,-58 0,-87z"/>
   <path class="fil2" d="M722 2629c36,-2 72,-4 107,-6 0,29 0,58 0,87 -35,2 -71,4 -107,7 0,-29 0,-58 0,-88z"/>
   <path class="fil2" d="M722 2629c36,-2 72,-4 107,-6 0,29 0,58 0,87 -35,2 -71,4 -107,7 0,-29 0,-58 0,-88z"/>
   <path class="fil1" d="M308 90c-53,18 -105,34 -156,51 -51,16 -100,32 -148,48 -1,429 -1,859 -2,1291 -1,434 -1,870 -2,1307 49,8 99,17 150,25 51,9 104,18 158,28 0,-463 0,-924 0,-1384 0,-457 0,-912 0,-1366z"/>
   <path class="fil4" d="M11 219c14,-4 28,-9 43,-13 0,33 0,67 0,100 -15,4 -29,8 -43,13 0,-33 0,-66 0,-100z"/>
   <path class="fil4" d="M58 205c14,-5 28,-9 43,-14 0,34 0,67 0,101 -15,4 -29,8 -43,13 0,-34 0,-67 0,-100z"/>
   <path class="fil4" d="M105 189c15,-4 30,-9 44,-14 0,35 0,68 0,102 -14,5 -29,9 -44,13 0,-33 0,-67 0,-101z"/>
   <path class="fil4" d="M154 174c15,-5 30,-10 45,-14 0,34 0,68 0,102 -15,5 -30,9 -45,14 0,-34 0,-68 0,-102z"/>
   <path class="fil4" d="M203 158c15,-4 30,-9 46,-14 0,35 0,69 0,103 -16,5 -31,9 -46,14 0,-34 0,-68 0,-103z"/>
   <path class="fil4" d="M253 142c16,-5 31,-10 47,-15 0,36 0,70 0,105 -16,5 -31,9 -47,14 0,-35 0,-69 0,-104z"/>
   <path class="fil4" d="M11 339c14,-4 28,-8 43,-12 0,33 -1,66 -1,99 -14,4 -28,8 -42,12 0,-33 0,-66 0,-99z"/>
   <path class="fil4" d="M58 326c14,-5 28,-9 43,-13 0,33 0,67 0,100 -15,4 -29,8 -44,12 0,-33 0,-66 1,-99z"/>
   <path class="fil4" d="M105 311c15,-4 30,-8 44,-13 0,34 0,68 0,102 -15,4 -29,8 -44,12 0,-34 0,-67 0,-101z"/>
   <path class="fil4" d="M154 297c15,-4 30,-9 45,-13 0,34 0,68 0,102 -15,4 -30,9 -45,13 0,-34 0,-68 0,-102z"/>
   <path class="fil4" d="M203 283c15,-5 30,-9 46,-14 0,34 0,69 0,103 -16,5 -31,9 -46,13 0,-34 0,-68 0,-102z"/>
   <path class="fil4" d="M253 268c16,-5 31,-9 47,-14 0,35 0,69 0,104 -16,5 -31,9 -47,13 0,-34 0,-69 0,-103z"/>
   <path class="fil4" d="M11 455c14,-3 28,-7 42,-11 0,33 0,66 0,100 -14,3 -28,7 -42,11 0,-33 0,-67 0,-100z"/>
   <path class="fil4" d="M57 443c15,-4 29,-8 44,-12 0,33 0,67 0,101 -15,3 -29,7 -44,11 0,-34 0,-67 0,-100z"/>
   <path class="fil4" d="M105 430c15,-4 29,-8 44,-12 0,34 0,67 0,101 -15,4 -29,8 -44,12 0,-34 0,-68 0,-101z"/>
   <path class="fil4" d="M154 416c15,-4 30,-8 45,-12 0,34 0,68 0,102 -15,4 -30,8 -45,12 0,-34 0,-68 0,-102z"/>
   <path class="fil4" d="M203 403c15,-4 30,-8 46,-13 0,35 0,69 0,104 -16,4 -31,8 -46,11 0,-34 0,-68 0,-102z"/>
   <path class="fil4" d="M253 389c16,-4 31,-8 47,-13 0,35 0,70 0,105 -16,4 -31,8 -47,12 0,-35 0,-69 0,-104z"/>
   <path class="fil4" d="M11 576c14,-4 28,-7 42,-11 0,33 0,67 0,100 -14,3 -28,6 -42,10 0,-33 0,-66 0,-99z"/>
   <path class="fil4" d="M57 564c15,-4 29,-7 44,-11 0,34 0,67 0,101 -15,3 -30,7 -44,10 0,-33 0,-67 0,-100z"/>
   <path class="fil4" d="M105 552c15,-4 29,-7 44,-11 0,34 0,68 0,102 -15,3 -30,6 -44,10 0,-34 0,-67 0,-101z"/>
   <path class="fil4" d="M154 540c15,-4 30,-8 45,-12 0,35 0,69 0,103 -15,4 -30,7 -45,11 0,-34 0,-68 0,-102z"/>
   <path class="fil4" d="M203 527c15,-3 30,-7 46,-11 0,35 0,69 0,104 -16,3 -31,7 -46,10 0,-34 0,-68 0,-103z"/>
   <path class="fil4" d="M253 515c16,-4 31,-8 47,-12 0,35 0,70 0,104 -16,4 -31,8 -47,12 0,-35 0,-70 0,-104z"/>
   <path class="fil4" d="M10 698c15,-3 29,-7 43,-10 0,33 0,66 0,100 -14,3 -29,6 -43,9 0,-33 0,-66 0,-99z"/>
   <path class="fil4" d="M57 687c14,-3 29,-6 43,-10 0,34 0,67 0,101 -14,3 -29,6 -43,9 0,-33 0,-67 0,-100z"/>
   <path class="fil4" d="M105 676c14,-3 29,-6 44,-10 0,34 0,68 0,102 -15,3 -30,6 -44,9 0,-34 0,-67 0,-101z"/>
   <path class="fil4" d="M154 665c15,-3 30,-7 45,-10 0,34 0,68 0,103 -16,3 -30,6 -45,9 0,-34 0,-68 0,-102z"/>
   <path class="fil4" d="M203 654c15,-3 30,-7 46,-10 0,34 0,69 0,103 -16,3 -31,7 -46,10 0,-34 0,-69 0,-103z"/>
   <path class="fil4" d="M253 643c16,-4 31,-7 47,-11 0,35 0,70 0,105 -16,3 -31,6 -47,9 0,-34 0,-69 0,-103z"/>
   <path class="fil4" d="M10 818c14,-3 29,-6 43,-9 0,34 0,67 0,101 -14,2 -29,5 -43,7 0,-33 0,-66 0,-99z"/>
   <path class="fil4" d="M57 808c14,-3 29,-6 43,-9 0,34 0,68 0,102 -14,2 -29,5 -43,8 0,-34 0,-67 0,-101z"/>
   <path class="fil4" d="M105 799c14,-3 29,-7 44,-10 0,35 0,69 0,102 -15,3 -30,6 -44,9 0,-34 0,-68 0,-101z"/>
   <path class="fil4" d="M154 788c15,-3 29,-6 45,-9 0,35 0,69 0,103 -16,3 -31,6 -46,9 0,-34 0,-68 1,-103z"/>
   <path class="fil4" d="M203 778c15,-3 30,-6 46,-9 0,35 0,70 0,104 -16,3 -31,6 -46,9 0,-35 0,-69 0,-104z"/>
   <path class="fil4" d="M253 768c16,-3 31,-6 47,-10 0,36 0,71 0,106 -16,3 -31,5 -47,8 0,-34 0,-69 0,-104z"/>
   <path class="fil4" d="M10 935c14,-3 29,-6 43,-8 0,33 0,67 0,100 -15,2 -29,5 -43,7 0,-33 0,-66 0,-99z"/>
   <path class="fil4" d="M57 926c14,-3 29,-5 43,-8 0,34 0,68 0,101 -14,3 -29,5 -43,7 0,-33 0,-66 0,-100z"/>
   <path class="fil4" d="M104 917c15,-2 30,-5 45,-8 0,34 0,68 0,102 -15,3 -30,5 -45,8 0,-34 0,-68 0,-102z"/>
   <path class="fil4" d="M153 908c15,-2 30,-5 46,-8 0,35 0,69 0,103 -16,3 -31,5 -46,8 0,-34 0,-68 0,-103z"/>
   <path class="fil4" d="M203 899c15,-2 30,-5 46,-8 0,35 0,69 0,104 -16,3 -31,5 -46,7 0,-34 0,-68 0,-103z"/>
   <path class="fil4" d="M253 890c16,-3 31,-6 47,-8 0,35 0,70 0,105 -16,2 -31,5 -47,7 0,-34 0,-69 0,-104z"/>
   <path class="fil4" d="M10 1055c14,-2 28,-4 43,-7 0,34 0,67 0,101 -15,2 -29,4 -43,6 0,-33 0,-66 0,-100z"/>
   <path class="fil4" d="M57 1048c14,-3 29,-5 43,-7 0,34 0,67 0,101 -15,2 -29,4 -43,6 0,-33 0,-67 0,-100z"/>
   <path class="fil4" d="M104 1040c15,-2 30,-5 45,-7 0,34 0,68 0,102 -15,2 -30,4 -45,6 0,-33 0,-67 0,-101z"/>
   <path class="fil4" d="M153 1032c15,-2 30,-5 45,-7 0,35 0,69 0,103 -15,3 -30,5 -45,7 0,-35 0,-68 0,-103z"/>
   <path class="fil4" d="M203 1024c15,-2 30,-5 46,-7 0,35 0,70 0,104 -16,3 -31,5 -46,7 0,-35 0,-69 0,-104z"/>
   <path class="fil4" d="M253 1016c16,-2 31,-5 47,-7 0,35 0,70 0,105 -16,2 -31,5 -47,7 0,-35 0,-70 0,-105z"/>
   <path class="fil4" d="M10 1178c14,-2 28,-4 43,-6 0,34 0,67 -1,101 -14,1 -28,3 -42,5 0,-34 0,-67 0,-100z"/>
   <path class="fil4" d="M57 1171c14,-2 28,-4 43,-6 0,34 0,68 0,102 -15,2 -29,3 -44,5 0,-33 0,-67 1,-101z"/>
   <path class="fil4" d="M104 1165c15,-2 30,-4 45,-6 0,34 0,68 0,102 -15,2 -30,4 -45,5 0,-33 0,-67 0,-101z"/>
   <path class="fil4" d="M153 1158c15,-2 30,-4 45,-6 0,35 0,69 0,103 -15,2 -30,4 -45,6 0,-34 0,-68 0,-103z"/>
   <path class="fil4" d="M203 1152c15,-3 30,-5 46,-7 0,35 0,70 0,105 -16,1 -31,3 -46,5 0,-34 0,-69 0,-103z"/>
   <path class="fil4" d="M253 1145c16,-3 31,-5 47,-7 0,36 0,70 0,106 -16,1 -31,3 -47,5 0,-35 0,-69 0,-104z"/>
   <path class="fil4" d="M10 1299c14,-2 28,-4 42,-5 0,34 0,67 0,101 -14,1 -28,2 -42,4 0,-34 0,-67 0,-100z"/>
   <path class="fil4" d="M56 1293c15,-1 29,-3 44,-5 0,35 0,68 0,102 -15,1 -29,3 -44,4 0,-33 0,-67 0,-101z"/>
   <path class="fil4" d="M104 1288c15,-2 30,-3 45,-5 0,34 0,68 -1,103 -14,1 -29,2 -44,4 0,-34 0,-68 0,-102z"/>
   <path class="fil4" d="M153 1282c15,-1 30,-3 45,-5 0,35 0,69 0,104 -15,1 -30,3 -45,4 0,-34 0,-68 0,-103z"/>
   <path class="fil4" d="M203 1277c15,-2 30,-4 46,-5 0,35 0,69 0,104 -16,2 -31,3 -47,4 0,-34 1,-68 1,-103z"/>
   <path class="fil4" d="M253 1271c16,-2 31,-3 47,-5 0,35 0,70 0,105 -16,2 -31,3 -47,5 0,-35 0,-70 0,-105z"/>
   <path class="fil4" d="M10 1416c14,-1 28,-3 42,-4 0,33 0,67 0,100 -14,2 -28,3 -43,4 0,-34 0,-67 1,-100z"/>
   <path class="fil4" d="M56 1412c15,-2 29,-3 44,-5 0,34 0,68 0,102 -15,1 -29,2 -44,3 0,-33 0,-67 0,-100z"/>
   <path class="fil4" d="M104 1407c15,-1 30,-3 44,-4 0,34 0,68 0,103 -15,1 -29,2 -44,3 0,-34 0,-68 0,-102z"/>
   <path class="fil4" d="M153 1403c15,-2 30,-3 45,-4 0,34 0,69 0,103 -15,1 -30,2 -45,3 0,-34 0,-68 0,-102z"/>
   <path class="fil4" d="M202 1398c16,-1 31,-2 47,-4 0,35 -1,70 -1,105 -15,1 -30,2 -46,3 0,-35 0,-69 0,-104z"/>
   <path class="fil4" d="M253 1394c16,-2 31,-3 47,-5 0,36 0,71 0,106 -16,1 -31,2 -47,3 0,-34 0,-69 0,-104z"/>
   <path class="fil4" d="M9 1537c14,-1 29,-2 43,-3 0,34 0,67 0,101 -14,1 -29,1 -43,2 0,-33 0,-67 0,-100z"/>
   <path class="fil4" d="M56 1534c14,-1 29,-2 44,-3 0,34 0,68 0,102 -15,0 -30,1 -44,2 0,-34 0,-68 0,-101z"/>
   <path class="fil4" d="M104 1531c15,-1 29,-2 44,-3 0,34 0,68 0,102 -15,1 -29,2 -44,2 0,-33 0,-68 0,-101z"/>
   <path class="fil4" d="M153 1527c15,-1 30,-2 45,-3 0,35 0,69 0,104 -15,1 -30,1 -45,2 0,-34 0,-68 0,-103z"/>
   <path class="fil4" d="M202 1524c16,-1 31,-2 46,-3 0,35 0,70 0,104 -15,1 -30,2 -46,3 0,-35 0,-69 0,-104z"/>
   <path class="fil4" d="M253 1520c16,-1 31,-2 47,-3 0,36 0,71 0,106 -16,1 -31,2 -47,2 0,-35 0,-70 0,-105z"/>
   <path class="fil4" d="M9 1660c14,-1 29,-1 43,-2 0,34 0,68 0,101 -15,0 -29,1 -43,1 0,-33 0,-66 0,-100z"/>
   <path class="fil4" d="M56 1658c14,-1 29,-1 44,-2 -1,34 -1,68 -1,102 -14,0 -29,1 -43,1 0,-34 0,-67 0,-101z"/>
   <path class="fil4" d="M104 1656c15,-1 29,-1 44,-2 0,34 0,68 0,103 -15,0 -30,1 -44,1 0,-34 0,-68 0,-102z"/>
   <path class="fil4" d="M153 1654c15,-1 30,-2 45,-2 0,35 0,69 0,104 -15,0 -30,0 -45,1 0,-35 0,-69 0,-103z"/>
   <path class="fil4" d="M202 1652c16,-1 31,-2 46,-2 0,34 0,69 0,104 -15,1 -31,1 -46,1 0,-34 0,-69 0,-103z"/>
   <path class="fil4" d="M253 1649c16,0 31,-1 47,-2 0,36 0,71 0,106 -16,1 -32,1 -47,1 0,-35 0,-70 0,-105z"/>
   <path class="fil4" d="M9 1782c14,-1 28,-1 43,-1 0,33 0,67 0,101 -15,0 -29,0 -43,0 0,-34 0,-67 0,-100z"/>
   <path class="fil4" d="M56 1781c14,-1 29,-1 43,-1 0,34 0,68 0,102 -14,0 -29,0 -43,0 0,-34 0,-68 0,-101z"/>
   <path class="fil4" d="M104 1780c14,-1 29,-1 44,-1 0,34 0,68 0,103 -15,0 -30,0 -44,0 0,-34 0,-68 0,-102z"/>
   <path class="fil4" d="M153 1779c15,0 30,-1 45,-1 0,34 0,69 0,104 -15,0 -30,0 -45,0 0,-35 0,-69 0,-103z"/>
   <path class="fil4" d="M202 1778c15,-1 31,-1 46,-1 0,35 0,70 0,104 -15,0 -31,1 -46,1 0,-35 0,-70 0,-104z"/>
   <path class="fil4" d="M253 1777c15,-1 31,-1 47,-1 0,35 0,70 0,105 -16,0 -32,0 -47,0 0,-34 0,-69 0,-104z"/>
   <path class="fil4" d="M9 1899c14,0 28,0 43,1 0,33 0,67 0,101 -15,-1 -29,-1 -43,-1 0,-34 0,-67 0,-101z"/>
   <path class="fil4" d="M56 1900c14,0 29,0 43,0 0,34 0,68 0,101 -14,0 -29,0 -43,0 0,-34 0,-68 0,-101z"/>
   <path class="fil4" d="M104 1900c14,-1 29,0 44,0 0,34 0,68 0,103 -15,-1 -30,-1 -45,-1 0,-34 1,-68 1,-102z"/>
   <path class="fil4" d="M153 1900c15,0 30,0 45,0 0,34 0,69 0,104 -15,-1 -30,-1 -45,-1 0,-35 0,-69 0,-103z"/>
   <path class="fil4" d="M202 1900c15,0 31,0 46,0 0,35 0,70 0,105 -15,0 -31,-1 -46,-1 0,-35 0,-69 0,-104z"/>
   <path class="fil4" d="M253 1900c15,0 31,0 47,0 0,35 0,71 0,106 -16,-1 -32,-1 -47,-1 0,-35 0,-70 0,-105z"/>
   <path class="fil4" d="M9 2021c14,0 28,1 43,1 0,34 -1,68 -1,101 -14,0 -28,-1 -43,-2 0,-33 0,-66 1,-100z"/>
   <path class="fil4" d="M56 2022c14,0 29,1 43,1 0,34 0,69 0,103 -15,-1 -29,-2 -44,-2 0,-34 1,-68 1,-102z"/>
   <path class="fil4" d="M103 2023c15,1 30,1 45,1 0,35 0,69 0,104 -15,-1 -30,-2 -45,-2 0,-34 0,-68 0,-103z"/>
   <path class="fil4" d="M153 2024c15,1 30,1 45,2 0,35 0,69 0,104 -15,-1 -30,-1 -45,-2 0,-34 0,-69 0,-104z"/>
   <path class="fil4" d="M202 2026c15,0 31,0 46,1 0,35 0,70 0,105 -15,-1 -31,-1 -46,-2 0,-34 0,-69 0,-104z"/>
   <path class="fil4" d="M253 2027c15,1 31,1 47,1 0,36 0,71 0,107 -16,-1 -32,-2 -47,-3 0,-35 0,-70 0,-105z"/>
   <path class="fil4" d="M8 2141c15,1 29,1 43,2 0,34 0,67 0,102 -14,-1 -28,-2 -43,-3 0,-34 0,-67 0,-101z"/>
   <path class="fil4" d="M55 2143c15,1 29,2 44,2 0,34 0,68 0,103 -15,-1 -29,-2 -44,-3 0,-34 0,-68 0,-102z"/>
   <path class="fil4" d="M103 2145c15,1 30,2 45,3 0,34 0,69 0,103 -15,-1 -30,-2 -45,-3 0,-34 0,-68 0,-103z"/>
   <path class="fil4" d="M153 2148c14,1 30,1 45,2 0,35 0,70 0,104 -15,-1 -31,-2 -46,-3 1,-34 1,-69 1,-103z"/>
   <path class="fil4" d="M202 2150c15,1 31,2 46,3 0,35 0,69 0,105 -15,-2 -31,-3 -46,-3 0,-35 0,-70 0,-105z"/>
   <path class="fil4" d="M253 2153c15,1 31,1 47,2 0,35 0,71 0,106 -16,-1 -32,-2 -47,-3 0,-35 0,-70 0,-105z"/>
   <path class="fil4" d="M8 2263c15,1 29,2 43,3 0,34 0,68 0,102 -14,-2 -29,-3 -43,-4 0,-34 0,-67 0,-101z"/>
   <path class="fil4" d="M55 2266c15,1 29,2 44,4 0,34 0,68 0,102 -15,-1 -29,-3 -44,-4 0,-34 0,-68 0,-102z"/>
   <path class="fil4" d="M103 2270c15,1 30,2 45,3 0,35 0,69 0,103 -15,-1 -30,-2 -45,-4 0,-34 0,-68 0,-102z"/>
   <path class="fil4" d="M152 2273c15,1 31,2 46,3 0,35 0,70 0,105 -15,-1 -31,-3 -46,-4 0,-35 0,-69 0,-104z"/>
   <path class="fil4" d="M202 2277c15,1 31,2 46,3 0,35 0,70 0,106 -15,-2 -31,-3 -46,-5 0,-34 0,-69 0,-104z"/>
   <path class="fil4" d="M253 2280c15,2 31,3 47,4 0,35 0,71 0,106 -16,-1 -32,-2 -47,-4 0,-35 0,-70 0,-106z"/>
   <path class="fil4" d="M8 2381c14,2 29,3 43,4 0,34 0,68 0,102 -15,-2 -29,-3 -43,-5 0,-34 0,-67 0,-101z"/>
   <path class="fil4" d="M55 2386c15,1 29,2 44,4 0,34 0,68 0,102 -15,-1 -30,-3 -44,-5 0,-33 0,-67 0,-101z"/>
   <path class="fil4" d="M103 2390c15,2 30,3 45,4 0,35 0,70 0,104 -15,-2 -30,-4 -45,-5 0,-34 0,-68 0,-103z"/>
   <path class="fil4" d="M152 2395c15,1 31,3 46,4 0,35 0,70 0,105 -16,-2 -31,-4 -46,-6 0,-34 0,-68 0,-103z"/>
   <path class="fil4" d="M202 2399c15,2 31,3 46,5 0,35 0,70 0,105 -15,-1 -31,-3 -46,-5 0,-35 0,-70 0,-105z"/>
   <path class="fil4" d="M253 2404c15,2 31,3 47,5 0,35 0,71 0,106 -16,-1 -32,-3 -47,-5 0,-35 0,-71 0,-106z"/>
   <path class="fil4" d="M8 2503c14,2 28,4 43,5 0,35 0,68 0,102 -15,-1 -29,-4 -43,-5 0,-34 0,-68 0,-102z"/>
   <path class="fil4" d="M55 2509c14,2 29,3 44,5 0,34 0,69 0,103 -15,-2 -30,-4 -44,-6 0,-34 0,-68 0,-102z"/>
   <path class="fil4" d="M103 2515c15,1 30,3 45,5 0,35 0,69 0,104 -15,-2 -30,-4 -45,-6 0,-35 0,-69 0,-103z"/>
   <path class="fil4" d="M152 2520c15,2 30,4 46,6 0,35 0,70 0,105 -16,-3 -31,-5 -46,-7 0,-34 0,-69 0,-104z"/>
   <path class="fil4" d="M202 2526c15,2 31,4 46,5 0,36 0,71 0,107 -15,-3 -31,-5 -46,-7 0,-35 0,-70 0,-105z"/>
   <path class="fil4" d="M253 2532c15,2 31,4 47,6 0,35 0,71 0,107 -16,-3 -32,-5 -47,-7 0,-35 0,-70 0,-106z"/>
   <path class="fil4" d="M8 2631c14,2 28,4 43,7 0,34 0,68 0,101 -15,-2 -29,-4 -43,-7 0,-33 0,-67 0,-101z"/>
   <path class="fil4" d="M55 2638c14,2 29,4 44,6 0,35 0,69 -1,103 -14,-2 -29,-5 -43,-7 0,-34 0,-68 0,-102z"/>
   <path class="fil4" d="M103 2645c15,2 30,4 45,6 0,35 -1,70 -1,104 -15,-2 -29,-5 -44,-7 0,-34 0,-69 0,-103z"/>
   <path class="fil4" d="M152 2652c15,2 30,4 46,6 0,35 0,70 0,105 -16,-2 -31,-5 -46,-7 0,-35 0,-69 0,-104z"/>
   <path class="fil2" d="M202 2659c15,2 31,4 46,7 0,35 0,70 0,105 -15,-2 -31,-5 -46,-7 0,-35 0,-70 0,-105z"/>
   <path class="fil4" d="M253 2666c15,2 31,5 47,7 0,36 0,71 0,107 -16,-3 -32,-5 -47,-8 0,-35 0,-70 0,-106z"/>
  </g>
 </g>
</svg>
