<?xml version="1.0" encoding="UTF-8"?>
<!DOCTYPE svg PUBLIC "-//W3C//DTD SVG 1.1//EN" "http://www.w3.org/Graphics/SVG/1.1/DTD/svg11.dtd">
<!-- Creator: CorelDRAW X7 -->
<svg xmlns="http://www.w3.org/2000/svg" xml:space="preserve" width="100%" height="100%" version="1.1" style="shape-rendering:geometricPrecision; text-rendering:geometricPrecision; image-rendering:optimizeQuality; fill-rule:evenodd; clip-rule:evenodd"
viewBox="0 0 360 360"
 xmlns:xlink="http://www.w3.org/1999/xlink"
 baseProfile="tiny">
 <defs>
  <style type="text/css">
   <![CDATA[
    .fil0 {fill:#2A2928}
   ]]>
  </style>
 </defs>
 <g id="Layer_x0020_1">
  <metadata id="CorelCorpID_0Corel-Layer"/>
  <g id="_1072879508928">
   <path class="fil0" d="M257 322l0 0zm-86 -322l16 0c34,2 68,13 97,33 11,8 21,17 30,27 6,7 8,10 15,19 27,39 38,93 26,141 -7,30 -17,50 -36,74 -10,13 -21,23 -34,32 -32,23 -66,34 -109,34 -26,0 -55,-8 -72,-17 -20,-10 -36,-21 -52,-37 -5,-5 -17,-19 -20,-25 -4,-4 -6,-8 -9,-14 -2,-3 -3,-4 -4,-7 -1,-2 -2,-4 -3,-7 -3,-5 -5,-12 -7,-16 -16,-52 -10,-99 14,-145 8,-15 27,-38 41,-49 14,-12 22,-17 40,-26 5,-3 11,-5 16,-7 17,-6 34,-9 51,-10zm33 340l0 -13c4,0 13,-2 17,-4 15,-4 18,-3 32,-2 -1,7 -13,10 -22,13 -7,2 -20,6 -27,6zm-57 -19c2,-2 9,-6 12,-8l0 6c-4,0 -8,2 -12,2zm57 -2l0 -15c4,0 12,-4 25,-4 -4,5 -14,10 -19,14 -2,1 -4,3 -6,5zm-53 -22c-8,0 -34,15 -47,18 3,-5 47,-29 55,-33l0 11c-3,0 -2,0 -3,1 4,-1 1,0 3,0l0 16c-5,3 -16,8 -18,14 8,0 12,-2 18,-3l0 19c-15,0 -41,-10 -54,-17 -3,-1 -4,-2 -7,-3 1,-2 9,-4 13,-5 4,-2 37,-16 40,-18zm-54 22l-16 -11c-4,-3 -4,-1 -2,-4 -2,0 -2,1 -4,0 2,-3 25,-16 30,-18 4,-2 6,-4 11,-6 6,-3 39,-21 43,-21l0 21c-4,0 -6,2 -9,4 -3,1 -5,3 -8,4 -11,7 -20,11 -31,19 -3,2 -5,3 -8,5 -7,3 -6,3 -6,7zm107 -33l0 -10 14 -2c-1,3 -11,10 -14,12zm-131 15l-10 -9c4,-2 6,-1 8,-4 -3,0 -3,1 -7,2 4,-6 60,-35 70,-40 4,-2 8,-4 12,-6 4,-3 8,-4 13,-6l0 18c-4,1 -22,11 -28,13 -2,2 -3,3 -5,4l-53 28zm84 -113c1,-1 3,1 1,0 0,0 -2,1 -1,0zm-89 -124l0 0zm158 -9c5,0 21,-8 26,-10 7,-3 9,-5 12,-3 4,1 9,6 11,6l0 2c-3,0 -9,4 -12,5 -4,2 -9,4 -11,7l26 -11c4,3 12,10 15,14 -4,0 -24,8 -29,11 -2,1 -2,0 -3,3 3,0 28,-12 33,-13 7,4 17,18 22,26 21,32 31,77 23,118 -6,30 -21,61 -41,80l-4 5c-7,7 -29,25 -37,27l0 -3c-5,-1 -8,-2 -14,-2 -13,0 -32,7 -39,8 0,-4 0,-4 6,-8l17 -11c3,-3 5,-5 6,-9 -20,0 -21,4 -29,4l0 -13c5,-3 16,-11 19,-15 -16,0 -9,0 -19,1l0 -40 39 0c1,-4 -1,-4 2,-14 1,-5 0,-11 2,-16 1,-2 1,-2 1,-5 0,-8 1,-7 -2,-11 7,-2 33,-16 38,-24 -3,-1 -3,-1 -6,0 2,1 1,1 4,1 -4,5 -7,6 -12,8 -3,1 -1,0 -4,2 -4,4 -15,8 -21,11 -1,1 -2,2 -4,2 -2,1 -33,1 -37,1l0 -14 32 -17c9,-3 42,-20 50,-26 3,-2 2,0 3,-3 -4,-1 -12,-3 -14,0 3,0 8,0 10,1 -1,3 -16,10 -19,11 -23,12 -39,19 -62,31 0,-8 -1,-26 9,-29 10,-4 26,-3 37,-3l0 -17c7,-3 32,-13 35,-15 -7,0 -30,12 -35,12l0 -19c6,-2 13,-5 18,-8 1,0 2,0 3,-1 2,0 2,-1 3,-1 -5,0 -22,8 -26,8 -9,1 -24,0 -35,0 1,-1 0,0 2,-1 9,-5 21,-6 38,-16l-46 17c-9,1 -10,0 -20,5 -1,1 -1,1 -3,2 -3,2 -3,2 -6,3l-28 11c-3,1 -5,1 -7,3 5,0 12,-3 16,-4l14 -6 -2 4c-1,1 -2,2 -3,3 -1,1 -1,1 -1,2l-1 2c0,0 0,0 0,0l-7 14c-2,2 -5,2 -7,5 2,0 6,-2 8,-3 0,4 -2,1 -1,10l0 36c-7,1 -1,3 -15,3 -6,0 -12,0 -18,0 2,-3 21,-11 24,-14 -7,1 -8,3 -13,5 -16,9 -32,17 -49,25 -9,3 -34,13 -34,22 3,-1 2,-1 5,-1 -1,-2 0,-1 -1,-1 -2,-3 0,1 -1,-2l63 -32 0 15c-7,1 -28,13 -36,17 -9,5 -29,13 -34,21 3,0 5,0 6,-1 3,-3 -5,2 0,-2 4,-4 60,-33 64,-34l0 14c-4,1 -22,10 -28,13 -3,2 -6,3 -9,5l-28 14c-3,1 -7,2 -7,6 9,0 2,-1 8,-5l9 -4c18,-9 41,-19 55,-27 0,2 0,6 0,8 1,4 2,3 6,3l-5 3c-1,1 -2,1 -4,2l-30 15c-7,3 -29,15 -35,20 -2,1 -1,0 -2,1 10,0 5,-1 12,-6 5,-3 31,-15 38,-19 8,-4 16,-8 25,-12 7,-3 5,-4 15,-4 6,0 12,0 19,0 -1,3 -1,2 -6,4l-45 23c-4,2 -7,4 -11,6 -5,3 -8,5 -13,7l-23 16c-2,-2 -2,-2 -4,-4 -1,-2 -2,-3 -3,-5 -41,-51 -47,-116 -18,-175 6,-12 6,-8 7,-10 1,-1 -3,-2 3,-5l15 -8c5,-3 34,-16 38,-20 -5,1 -43,19 -50,23 1,-3 6,-9 8,-11 4,-6 5,-6 11,-9 6,-2 24,-9 27,-13 -4,1 -10,4 -13,6 -5,1 -10,4 -14,5 2,-4 8,-8 13,-12 34,-28 86,-40 129,-31 3,1 7,2 11,2l0 1c-8,2 -21,7 -23,15 3,0 4,-1 6,-1 0,-3 1,-1 -3,-1 2,-2 6,-4 8,-5 19,-12 17,-6 30,-3l0 2c-2,0 -9,3 -11,4 -5,3 -32,14 -34,17 3,1 3,-1 8,-3 3,-1 5,-2 8,-4l33 -14c3,0 12,6 17,7 -2,3 -12,7 -17,9 -3,1 -5,2 -8,4l-7 4c-2,0 -1,0 -2,0z"/>
   <path class="fil0" d="M28 205c3,0 62,-29 70,-33 6,-3 19,-8 22,-12 -2,0 -3,1 -6,2l-17 9c-4,1 -8,3 -12,5l-46 22c-2,2 -2,2 -5,3 -3,2 -5,2 -6,4z"/>
   <path class="fil0" d="M113 88c-7,2 -6,4 -11,6 -16,6 -17,7 -32,15 -12,5 -34,13 -39,24l5 0c-1,-4 -4,-2 0,-5 16,-9 40,-20 57,-28 5,-3 17,-8 20,-12z"/>
   <path class="fil0" d="M105 133c-7,1 -46,21 -58,27 -10,4 -11,5 -20,11 -2,1 -3,1 -4,4 7,-2 8,-6 19,-12 7,-3 61,-27 63,-30z"/>
   <path class="fil0" d="M30 151c3,0 4,0 6,-1 6,-4 -2,0 2,-3l30 -15c9,-5 21,-12 31,-15 4,-2 6,-2 9,-6 -2,0 -17,8 -20,9 -7,4 -13,7 -20,10l-20 9c-4,2 -17,8 -18,12z"/>
   <path class="fil0" d="M114 178c-5,1 -40,18 -49,22l-24 11c-3,1 -3,1 -4,4 4,-1 25,-11 29,-13l47 -23c1,0 0,0 1,-1z"/>
   <path class="fil0" d="M96 154c-3,1 -10,5 -17,7 -8,4 -43,18 -47,25 9,-1 8,-4 16,-8l48 -24z"/>
   <path class="fil0" d="M83 87c-3,0 -9,3 -12,5 -10,4 -14,6 -23,11 -3,2 -9,6 -12,7l0 2c8,0 5,-1 13,-6 10,-7 27,-13 34,-19z"/>
   <path class="fil0" d="M213 61l-24 8c-5,2 -8,3 -12,5 -3,1 -10,4 -11,6 8,0 11,-4 24,-9 4,-2 20,-7 23,-10z"/>
   <path class="fil0" d="M208 79c4,0 9,-3 12,-4l8 -4c2,-1 0,0 1,-1 -4,0 -15,5 -19,8 -2,1 -1,0 -2,1z"/>
   <path class="fil0" d="M233 69c4,-1 13,-4 15,-7l-8 3c-3,1 -5,2 -7,4z"/>
   <path class="fil0" d="M113 131c5,-4 8,-4 9,-7 -4,1 -8,3 -9,7z"/>
   <path class="fil0" d="M182 91c2,-1 4,-2 6,-3 4,-1 5,0 6,-4 -2,1 -4,2 -6,3 -4,1 -4,1 -6,4z"/>
   <path class="fil0" d="M150 144c-4,3 -3,2 -4,4 4,-1 6,0 8,-3l-4 -1z"/>
   <path class="fil0" d="M141 166c2,-1 4,-2 7,-2 -2,-2 -2,-2 -4,-1 -3,1 -3,1 -3,3z"/>
   <path class="fil0" d="M180 60c4,0 6,0 7,-2 -3,0 -7,-1 -7,2z"/>
   <path class="fil0" d="M286 86c3,0 7,-3 10,-5 -3,0 -4,1 -6,2l-4 3z"/>
   <path class="fil0" d="M101 152l8 -2c-3,-4 -8,1 -8,2z"/>
   <path class="fil0" d="M130 170c4,0 5,0 6,-3 -3,0 -4,1 -6,3z"/>
   <path class="fil0" d="M119 177l3 -1c2,-2 2,-1 2,-3 -3,1 -4,1 -5,4z"/>
   <path class="fil0" d="M222 57c2,0 1,0 2,0 3,-1 1,-1 2,-2 -1,1 0,0 -2,1 -2,1 -1,0 -2,1z"/>
   <path class="fil0" d="M287 107c-4,0 -2,0 -2,1 3,0 1,0 2,-1z"/>
   <path class="fil0" d="M278 89c-4,0 -2,0 -3,1 4,0 2,0 3,-1z"/>
   <polygon class="fil0" points="99,63 100,63 100,62 "/>
   <polygon class="fil0" points="83,87 84,87 83,86 "/>
   <polygon class="fil0" points="151,297 152,297 151,296 "/>
   <polygon class="fil0" points="152,175 152,175 152,174 "/>
   <polygon class="fil0" points="215,60 215,60 215,59 "/>
   <polygon class="fil0" points="95,53 96,53 95,52 "/>
   <polygon class="fil0" points="96,154 97,154 96,153 "/>
   <polygon class="fil0" points="182,91 181,91 182,91 "/>
   <polygon class="fil0" points="279,88 280,88 279,87 "/>
   <polygon class="fil0" points="113,88 113,88 113,87 "/>
   <polygon class="fil0" points="215,60 213,61 "/>
   <polygon class="fil0" points="221,58 219,58 "/>
   <polygon class="fil0" points="222,57 221,58 "/>
   <polygon class="fil0" points="289,106 290,106 "/>
   <polygon class="fil0" points="152,175 150,175 "/>
   <polygon class="fil0" points="289,106 287,107 "/>
   <polygon class="fil0" points="275,90 274,91 "/>
   <polygon class="fil0" points="105,133 107,133 "/>
   <polygon class="fil0" points="152,143 150,144 "/>
   <polygon class="fil0" points="279,88 278,89 "/>
   <polygon class="fil0" points="114,178 116,178 "/>
  </g>
 </g>
</svg>
