<?xml version="1.0" encoding="UTF-8"?>
<!DOCTYPE svg PUBLIC "-//W3C//DTD SVG 1.1//EN" "http://www.w3.org/Graphics/SVG/1.1/DTD/svg11.dtd">
<!-- Creator: CorelDRAW X7 -->
<svg xmlns="http://www.w3.org/2000/svg" xml:space="preserve" width="100%" height="100%" version="1.1" style="shape-rendering:geometricPrecision; text-rendering:geometricPrecision; image-rendering:optimizeQuality; fill-rule:evenodd; clip-rule:evenodd"
viewBox="0 0 3252 900"
 xmlns:xlink="http://www.w3.org/1999/xlink">
 <defs>
  <style type="text/css">
   <![CDATA[
    .fil0 {fill:#252525}
    .fil1 {fill:#F3F308}
   ]]>
  </style>
 </defs>
 <g id="Layer_x0020_1">
  <metadata id="CorelCorpID_0Corel-Layer"/>
  <path class="fil0" d="M462 0l2328 0c254,0 462,202 462,450l0 0c0,248 -208,450 -462,450l-2328 0c-254,0 -462,-202 -462,-450l0 0c0,-248 208,-450 462,-450z"/>
  <circle class="fil1" cx="450" cy="452" r="365"/>
  <path class="fil1" d="M1473 552l-39 0 -32 -85 -52 0 0 85 -37 0 0 -206 89 0c25,0 43,6 54,17 12,11 18,26 18,44 0,26 -13,44 -37,54l36 91zm-123 -114l46 0c13,0 23,-3 30,-9 6,-5 9,-13 9,-23 0,-9 -3,-16 -9,-22 -7,-5 -16,-8 -27,-8l-49 0 0 62zm251 65l31 4c-4,14 -12,25 -23,34 -12,9 -26,14 -44,14 -21,0 -38,-7 -51,-21 -12,-15 -19,-34 -19,-58 0,-23 7,-42 19,-57 13,-15 31,-22 53,-22 22,0 38,7 50,22 12,15 18,34 18,57l0 4 -104 0c0,10 1,19 3,25 2,6 5,11 11,16 6,5 13,7 22,7 17,0 28,-8 34,-25zm-2 -45c0,-11 -3,-20 -10,-27 -6,-7 -14,-10 -24,-10 -9,0 -17,3 -23,9 -6,7 -10,16 -11,28l68 0zm206 -87l0 26 -11 0c-4,0 -9,1 -12,2 -3,1 -7,4 -10,10 12,10 18,21 18,33 0,14 -6,25 -17,34 -11,8 -26,13 -45,13 -8,0 -17,-1 -28,-4 -7,3 -10,8 -10,15 0,4 1,7 5,10 3,3 8,5 15,5l45 0c16,0 28,4 37,12 8,8 13,17 13,29 0,15 -7,26 -20,36 -13,9 -33,14 -59,14 -49,0 -74,-14 -74,-41 0,-14 8,-24 23,-31 -10,-8 -15,-16 -15,-25 0,-13 8,-24 25,-31 -14,-9 -21,-21 -21,-36 0,-12 5,-23 15,-32 10,-9 26,-13 47,-13 10,0 19,1 29,3 5,-19 17,-29 37,-29l13 0zm-78 98c18,0 28,-9 28,-27 0,-7 -3,-12 -7,-17 -5,-4 -12,-7 -21,-7 -9,0 -16,3 -21,8 -5,4 -7,10 -7,18 0,7 2,13 7,18 5,4 12,7 21,7zm-38 74c-5,5 -7,9 -7,13 0,7 4,13 12,19 8,5 21,8 39,8 27,0 40,-7 40,-21 0,-5 -2,-8 -7,-11 -5,-3 -10,-4 -16,-4l-36 0c-7,0 -15,-1 -25,-4zm171 -161l-35 0 0 -36 35 0 0 36zm0 170l-35 0 0 -152 35 0 0 152zm22 -35l33 -6c5,12 15,18 32,18 21,0 32,-6 32,-19 0,-4 -2,-7 -5,-10 -3,-2 -7,-4 -12,-5l-27 -5c-31,-6 -46,-21 -46,-45 0,-14 4,-25 14,-34 10,-10 24,-14 44,-14 32,0 51,11 58,35l-30 6c-3,-11 -12,-17 -27,-17 -19,0 -28,6 -28,17 0,8 8,14 22,17l33 6c25,6 38,20 38,44 0,17 -7,29 -20,37 -13,9 -28,13 -46,13 -16,0 -29,-3 -41,-10 -12,-6 -20,-15 -24,-28zm229 8l0 27c-10,2 -18,3 -24,3 -9,0 -17,-2 -23,-6 -7,-3 -12,-8 -15,-15 -3,-6 -5,-16 -5,-29l0 -79 -18 0 0 -26 20 0 4 -40 28 -2 0 42 30 0 0 26 -30 0 0 75c0,9 1,16 5,19 3,3 10,5 19,5 3,0 6,0 9,0zm121 -22l31 4c-4,14 -12,25 -23,34 -12,9 -27,14 -44,14 -21,0 -38,-7 -51,-21 -13,-15 -19,-34 -19,-58 0,-23 6,-42 19,-57 13,-15 31,-22 53,-22 21,0 38,7 50,22 12,15 18,34 18,57l0 4 -105 0c0,10 1,19 3,25 2,6 6,11 12,16 6,5 13,7 22,7 17,0 28,-8 34,-25zm-2 -45c0,-11 -3,-20 -10,-27 -6,-7 -14,-10 -24,-10 -9,0 -17,3 -23,9 -7,7 -10,16 -12,28l69 0zm101 94l-34 0 0 -152 31 0 0 36c4,-14 10,-24 18,-31 8,-6 16,-10 24,-10 1,0 2,0 4,0l0 37c-17,0 -29,6 -34,17 -6,11 -9,22 -9,32l0 71z"/>
 </g>
 <g id="Objects">
  <metadata id="CorelCorpID_1Corel-Layer"/>
  <g id="_425992368864">
   <path class="fil0" d="M595 363c-17,2 -76,4 -85,-5 -9,-9 -7,-68 -5,-85 15,9 83,75 90,90zm-289 -20c3,-92 -33,-72 138,-73 29,-1 42,-3 41,28 0,86 -4,85 61,85 53,0 53,-6 53,48 0,28 3,190 -3,201 -3,4 -2,5 -16,5 -49,1 -257,1 -271,-2 -6,-15 -3,-71 -3,-92 -10,-10 -17,-21 -28,-26 -1,116 -16,148 57,148 63,0 127,0 190,0 103,0 102,8 102,-90 0,-64 0,-127 0,-191 0,-44 -15,-48 -51,-84 -25,-26 -48,-56 -77,-59l-135 0c-51,0 -86,-9 -86,50 0,39 -3,27 14,40 6,5 7,8 14,12z"/>
   <path class="fil0" d="M212 412c29,24 90,92 114,112 13,12 27,27 37,38 1,-2 14,-58 62,-59 -32,-35 -71,-71 -106,-106 -33,-32 -52,-71 -91,-25 -8,9 -17,21 -16,40z"/>
   <path class="fil0" d="M570 448l0 -19 -177 0c15,27 37,19 78,19 33,0 66,1 99,0z"/>
   <polygon class="fil0" points="335,355 466,354 467,336 335,335 "/>
   <path class="fil0" d="M440 477c14,21 21,19 54,19 25,0 50,-1 76,0l0 -20 -130 1z"/>
   <path class="fil0" d="M467 401l-1 -19 -120 0c12,21 18,19 49,19 24,0 48,0 72,0z"/>
   <polygon class="fil0" points="569,523 463,524 469,543 570,543 "/>
   <polygon class="fil0" points="480,588 570,590 569,571 478,571 "/>
   <path class="fil0" d="M406 575c8,6 34,13 45,14 1,-11 -8,-33 -11,-46 -20,1 -33,15 -34,32z"/>
  </g>
 </g>
</svg>
