<?xml version="1.0" encoding="UTF-8"?>
<!DOCTYPE svg PUBLIC "-//W3C//DTD SVG 1.1//EN" "http://www.w3.org/Graphics/SVG/1.1/DTD/svg11.dtd">
<!-- Creator: CorelDRAW X7 -->
<svg xmlns="http://www.w3.org/2000/svg" xml:space="preserve" width="100%" height="100%" version="1.1" style="shape-rendering:geometricPrecision; text-rendering:geometricPrecision; image-rendering:optimizeQuality; fill-rule:evenodd; clip-rule:evenodd"
viewBox="0 0 213 213"
 xmlns:xlink="http://www.w3.org/1999/xlink">
 <defs>
  <style type="text/css">
   <![CDATA[
    .fil0 {fill:#FEFEFE}
   ]]>
  </style>
 </defs>
 <g id="Objects">
  <metadata id="CorelCorpID_0Corel-Layer"/>
  <g id="_426021541872">
   <path class="fil0" d="M197 61c-9,1 -39,2 -44,-2 -5,-5 -4,-34 -2,-43 7,5 42,38 46,45zm-149 -10c2,-46 -17,-36 71,-36 15,0 22,-2 21,14 0,43 -2,42 32,42 27,0 27,-2 27,25 0,14 2,95 -2,101 -1,1 -1,2 -8,2 -25,0 -132,1 -139,-1 -3,-8 -2,-36 -2,-46 -5,-5 -9,-11 -14,-13 -1,58 -8,74 29,74 33,0 65,0 98,0 53,0 52,4 52,-45 0,-32 0,-64 0,-96 0,-22 -8,-24 -26,-42 -13,-13 -25,-28 -39,-30l-70 0c-26,0 -44,-4 -44,25 0,20 -2,14 7,20 3,3 4,4 7,6z"/>
   <path class="fil0" d="M0 86c15,12 46,46 58,56 7,6 14,14 20,20 0,-1 7,-30 32,-30 -17,-18 -37,-36 -55,-53 -17,-17 -27,-36 -47,-13 -4,5 -9,10 -8,20z"/>
   <path class="fil0" d="M184 104l0 -9 -91 0c8,13 19,9 40,9 17,0 34,1 51,0z"/>
   <polygon class="fil0" points="63,57 130,57 131,48 63,48 "/>
   <path class="fil0" d="M117 119c7,10 11,9 28,9 13,0 26,0 39,0l0 -10 -67 1z"/>
   <path class="fil0" d="M131 81l0 -10 -62 0c6,10 9,10 25,10 12,0 24,0 37,0z"/>
   <polygon class="fil0" points="184,142 129,142 132,152 184,152 "/>
   <polygon class="fil0" points="138,174 184,175 184,166 137,166 "/>
   <path class="fil0" d="M99 168c5,3 18,7 24,7 0,-5 -4,-17 -6,-23 -10,0 -17,7 -18,16z"/>
  </g>
 </g>
</svg>
