<?xml version="1.0" encoding="UTF-8"?>
<!DOCTYPE svg PUBLIC "-//W3C//DTD SVG 1.1//EN" "http://www.w3.org/Graphics/SVG/1.1/DTD/svg11.dtd">
<!-- Creator: CorelDRAW X7 -->
<svg xmlns="http://www.w3.org/2000/svg" xml:space="preserve" width="100%" height="100%" version="1.1" style="shape-rendering:geometricPrecision; text-rendering:geometricPrecision; image-rendering:optimizeQuality; fill-rule:evenodd; clip-rule:evenodd"
viewBox="0 0 360 360"
 xmlns:xlink="http://www.w3.org/1999/xlink"
 baseProfile="tiny">
 <defs>
  <style type="text/css">
   <![CDATA[
    .fil2 {fill:none}
    .fil1 {fill:#2B2A29}
    .fil0 {fill:#2B2A29;fill-rule:nonzero}
   ]]>
  </style>
    <clipPath id="id0">
     <path d="M180 8c-95,0 -172,77 -172,172 0,95 77,172 172,172 95,0 172,-77 172,-172 0,-95 -77,-172 -172,-172z"/>
    </clipPath>
 </defs>
 <g id="Layer_x0020_1">
  <metadata id="CorelCorpID_0Corel-Layer"/>
  <g id="_1073597150032">
   <path class="fil0" d="M180 0c50,0 95,20 127,53 33,32 53,77 53,127 0,50 -20,95 -53,127 -32,33 -77,53 -127,53 -50,0 -95,-20 -127,-53 -33,-32 -53,-77 -53,-127 0,-50 20,-95 53,-127 32,-33 77,-53 127,-53zm115 65c-30,-29 -70,-47 -115,-47 -45,0 -85,18 -115,47 -29,30 -47,70 -47,115 0,45 18,85 47,115 30,29 70,47 115,47 45,0 85,-18 115,-47 29,-30 47,-70 47,-115 0,-45 -18,-85 -47,-115z"/>
   <g>
    <path class="fil1" d="M112 210c-2,1 -2,-1 -1,2 5,16 21,24 37,26 -5,5 -16,11 -24,13 -13,5 -19,4 -32,5l-2 0c68,45 178,1 176,-104 2,-1 4,-3 6,-4 3,-3 12,-12 14,-16 -7,2 -13,5 -20,5 -4,2 -2,0 -3,0 1,-1 1,-1 2,-1 5,-2 13,-12 16,-20 -5,1 -10,4 -16,6 -11,4 -9,3 -14,-1 -18,-15 -45,-11 -59,8 -6,9 -8,19 -6,33 -37,-2 -62,-18 -84,-42l-2 3c-6,13 -4,30 4,41 3,4 7,7 10,10 -9,-1 -11,-3 -18,-5 1,22 12,34 32,40 -5,2 -10,1 -16,1z"/>
    <path class="fil1" d="M266 137l-1 -1c-1,0 -1,0 -2,1 1,0 -1,2 3,0z"/>
    <path class="fil1" d="M111 212c-1,-3 -1,-1 1,-2l-2 0c0,2 0,1 1,2z"/>
    <polygon class="fil1" points="90,256 92,256 88,255 "/>
   </g>
   <g>
   </g>
   <g style="clip-path:url(#id0)">
    <g id="_1073597151632">
     <g>
      <path class="fil1" d="M629 315c-1,-2 0,-6 -6,-6 2,2 3,5 6,6z"/>
      <path class="fil1" d="M622 308c2,0 1,-2 1,-3 -1,-1 -4,-1 -5,-2 -3,2 4,3 4,5z"/>
      <path class="fil1" d="M471 329c-3,-1 -4,-3 -8,-4 2,2 5,5 8,4z"/>
      <path class="fil1" d="M353 22c22,6 52,3 73,4 -4,-5 -22,-1 -36,-2 -16,0 -31,-3 -37,-2z"/>
      <path class="fil1" d="M409 409c-14,-9 -31,-17 -47,-24 4,7 24,11 33,18 -7,0 -15,-6 -26,-6 -3,2 1,4 2,5 -5,-1 -11,-4 -18,-2 1,7 8,10 12,14 -2,3 -5,1 -8,2 3,2 6,2 10,1 0,-1 1,-1 2,-1 -1,-7 -11,-8 -11,-14 8,1 12,4 21,5 2,-5 -4,-5 -6,-7 13,2 21,8 36,9z"/>
      <path class="fil1" d="M332 -11c-4,8 -15,15 -14,24 6,-7 15,-15 14,-24z"/>
      <path class="fil1" d="M215 84c24,12 54,21 75,34 -2,2 -6,-1 -9,-1 3,2 7,3 12,4 1,-6 -18,-14 -32,-20 -17,-7 -32,-12 -46,-17z"/>
      <path class="fil1" d="M291 133c-16,-10 -36,-18 -56,-25 15,9 37,14 50,25 2,0 4,0 6,0z"/>
      <path class="fil1" d="M283 75c1,0 1,-2 1,-2 -20,-10 -41,-18 -65,-25 21,9 46,16 64,27z"/>
      <path class="fil1" d="M281 58c-1,-2 -4,-3 -8,-3 1,2 7,1 6,4 1,0 1,-1 2,-1z"/>
      <path class="fil1" d="M277 -37c3,-3 -2,-6 -3,-11 -2,3 2,8 3,11z"/>
      <path class="fil1" d="M272 -49c2,-2 -1,-8 -5,-9 2,3 3,7 5,9z"/>
      <path class="fil1" d="M264 -65c2,-1 1,-5 -3,-5 1,2 3,3 3,5z"/>
      <path class="fil1" d="M263 -70c-1,-2 0,-5 -4,-5 1,2 0,5 4,5z"/>
      <path class="fil1" d="M194 199c3,-1 -2,-4 -4,-4 -1,2 4,2 4,4z"/>
      <path class="fil1" d="M184 192c-3,-1 -4,-3 -9,-3 2,1 4,3 9,3z"/>
      <path class="fil1" d="M80 296c22,1 40,10 59,15 -18,-7 -36,-17 -64,-16 23,20 63,31 91,49 -34,-4 -65,-26 -103,-24 9,11 29,16 38,27 -17,-1 -42,-12 -63,-6 -1,8 7,10 11,15 4,-5 -8,-7 -8,-13 21,-6 44,7 64,6 -6,-13 -27,-17 -37,-28 39,1 67,22 99,25 2,0 2,0 3,-1 -10,-11 -54,-26 -72,-37 -6,-4 -12,-8 -18,-12z"/>
      <path class="fil1" d="M141 239c3,-3 -5,-5 -9,-6 2,3 7,3 9,6z"/>
      <path class="fil1" d="M142 183c1,-1 -1,-1 -1,-2 -46,-19 -96,-40 -145,-54 46,17 92,34 137,52 1,2 -4,1 -1,3 4,0 5,2 10,1z"/>
      <path class="fil1" d="M142 101c-17,-8 -40,-13 -59,-20 14,8 37,11 51,20 4,-1 4,1 8,0z"/>
      <path class="fil1" d="M128 180c1,-3 -15,-6 -19,-6 5,3 14,4 19,6z"/>
      <path class="fil1" d="M109 203c0,-1 0,-2 0,-2 -31,-19 -73,-31 -106,-49 1,-2 9,-1 13,-1 -2,-3 -14,-1 -16,1 31,19 74,30 106,49 -1,1 -7,0 -10,0 3,2 9,4 13,2z"/>
      <path class="fil1" d="M82 81c-37,-15 -71,-30 -112,-43 38,14 73,30 112,43z"/>
      <path class="fil1" d="M-36 320c27,17 52,35 81,50 -7,-8 -28,-17 -42,-26 -12,-8 -23,-18 -39,-24z"/>
      <path class="fil1" d="M30 374c0,0 0,-1 0,-2 -28,-15 -59,-32 -81,-49 -5,0 -5,-4 -10,-5 10,11 26,18 40,27 16,10 31,21 51,29z"/>
      <path class="fil1" d="M6 379c1,0 1,-1 1,-2 -28,-18 -61,-36 -91,-54 -4,-2 -8,-6 -14,-5 32,18 62,37 95,54 1,3 -2,2 0,4 4,0 6,2 9,3z"/>
      <path class="fil1" d="M-10 31c3,-3 -7,-4 -9,-6 -3,3 8,3 9,6z"/>
      <path class="fil1" d="M-23 381c0,-1 0,-2 0,-2 -12,-8 -26,-15 -37,-23 -23,-9 -40,-25 -62,-33 28,19 60,35 89,52 -1,2 -8,-3 -7,0 7,1 10,5 17,6z"/>
      <path class="fil1" d="M-97 91c2,3 5,6 8,8 4,9 15,16 20,25 6,8 4,17 12,25 3,-18 -22,-44 -40,-58z"/>
      <path class="fil1" d="M-61 48c1,-3 -8,-5 -13,-6 2,3 10,3 13,6z"/>
      <path class="fil1" d="M583 310c2,-1 -2,-5 -3,-6 -3,1 3,4 3,6z"/>
      <path class="fil1" d="M519 381c-40,-12 -81,-24 -119,-37 -1,0 0,0 0,0 30,14 68,22 101,34 6,0 13,4 18,3z"/>
      <path class="fil1" d="M435 398c1,-1 -1,-1 0,-3 -22,-6 -45,-13 -62,-23 4,-1 10,3 7,1 -2,-2 -11,-4 -15,-3 18,12 45,19 70,28z"/>
      <path class="fil1" d="M306 196c-13,-9 -30,-16 -47,-23 -16,-6 -33,-14 -51,-19 25,12 59,22 84,35 5,2 7,7 14,7z"/>
      <path class="fil1" d="M193 181c6,5 16,8 25,12 26,11 55,23 81,34 4,-2 -11,-4 -12,-7 -24,-9 -44,-20 -68,-28 -7,-4 -18,-7 -26,-11z"/>
      <path class="fil1" d="M298 173c-9,-9 -28,-14 -44,-21 -16,-6 -31,-13 -46,-20 2,4 11,6 17,9 21,8 43,19 65,28 1,0 1,1 -1,1 2,1 4,3 9,3z"/>
      <path class="fil1" d="M292 154c2,0 5,-1 5,1 -6,-10 -26,-16 -40,-22 -15,-7 -31,-14 -45,-18 -2,-4 -9,-4 -12,-7 10,9 30,14 46,21 17,7 32,15 47,22 1,2 -4,1 -1,3z"/>
      <path class="fil1" d="M296 208c-7,-6 -19,-11 -30,-15 -11,-5 -23,-9 -35,-13 -2,-3 -9,-4 -11,-4 17,8 43,17 63,26 2,3 6,5 13,6z"/>
      <path class="fil1" d="M294 66c-4,-1 -5,-5 -10,-7 0,2 6,6 10,7z"/>
      <path class="fil1" d="M289 236c1,0 -1,0 0,-2 -33,-10 -59,-25 -92,-35 30,13 61,25 92,37z"/>
      <path class="fil1" d="M284 99c1,-4 -5,-3 -8,-5 -18,-7 -37,-13 -55,-20 15,10 38,15 56,22 -11,-1 -3,3 7,3z"/>
      <path class="fil1" d="M278 87c8,0 2,-4 1,-5 -4,-4 -46,-18 -52,-20 -1,0 -6,-4 -10,-4 19,10 51,16 61,29z"/>
      <path class="fil1" d="M277 281c1,-3 -7,-6 -11,-7 -32,-16 -72,-30 -106,-45 32,17 76,31 111,49 1,1 -1,4 6,3z"/>
      <path class="fil1" d="M274 297c-37,-22 -84,-37 -125,-57 1,3 9,5 12,7 31,15 70,30 103,45 1,2 5,6 10,5z"/>
      <path class="fil1" d="M267 264c2,1 6,2 7,1 -9,-8 -26,-14 -41,-21 -15,-6 -29,-14 -46,-19 28,13 59,24 84,39 0,1 -2,0 -4,0z"/>
      <path class="fil1" d="M265 248c3,-1 3,1 6,0 -2,-7 -20,-13 -31,-18 -25,-10 -52,-21 -74,-32 -5,0 -7,-2 -11,-3 34,16 76,33 112,50 2,2 -4,0 -2,3z"/>
      <path class="fil1" d="M271 55c3,-2 -5,-4 -8,-5 -12,-6 -25,-10 -39,-14 15,7 34,11 47,19z"/>
      <path class="fil1" d="M259 311c-5,1 -6,-1 -9,-1 3,2 8,4 15,4 -43,-29 -101,-49 -152,-73 47,25 102,44 146,70z"/>
      <path class="fil1" d="M251 328c-3,1 -6,-2 -10,-2 3,3 9,4 16,5 -6,-8 -21,-13 -32,-19 -34,-16 -70,-33 -109,-48 -4,-2 -7,-6 -15,-7 49,25 104,45 150,71z"/>
      <path class="fil1" d="M220 341c2,-5 -6,-7 -10,-9 -32,-18 -73,-36 -105,-54 1,-2 4,2 8,0 -3,-2 -9,-3 -15,-3 35,23 81,40 117,62 -18,-3 -41,-15 -58,-19 20,8 39,17 63,23z"/>
      <path class="fil1" d="M217 173c-3,-1 -6,-4 -10,-2 2,1 6,2 10,2z"/>
      <path class="fil1" d="M202 152c1,-2 -6,-5 -10,-7 -2,3 8,5 10,7z"/>
      <path class="fil1" d="M185 225c2,-2 -6,-4 -8,-6 -2,2 7,4 8,6z"/>
      <path class="fil1" d="M173 220c-3,-6 -17,-11 -28,-14 9,5 21,8 28,14z"/>
      <path class="fil1" d="M170 187c2,-1 -3,-3 -8,-2 2,1 6,1 8,2z"/>
      <path class="fil1" d="M168 145c-43,-15 -89,-28 -130,-44 21,13 62,21 89,33 15,2 28,10 41,11z"/>
      <path class="fil1" d="M160 166c0,1 -3,1 -5,1 3,1 5,2 10,2 -20,-13 -49,-23 -76,-33 -27,-9 -55,-18 -82,-28 50,21 106,37 153,58z"/>
      <path class="fil1" d="M153 316c-3,-2 -7,-4 -12,-5 2,3 8,4 12,5z"/>
      <path class="fil1" d="M124 113c0,-2 -10,-5 -15,-7 -1,3 12,4 15,7z"/>
      <path class="fil1" d="M125 82c-1,-4 -5,-1 -7,-2 -2,0 4,2 7,2z"/>
      <path class="fil1" d="M0 33c36,13 72,26 107,40 1,1 1,0 1,0 -34,-14 -68,-29 -108,-40z"/>
      <path class="fil1" d="M102 59c-2,0 -4,0 -4,-1 -3,1 3,2 6,3 0,-7 -14,-11 -22,-14 -33,-12 -68,-25 -100,-38 33,18 85,31 120,50z"/>
      <path class="fil1" d="M93 101c-8,-4 -16,-7 -26,-10 8,4 16,7 26,10z"/>
      <path class="fil1" d="M65 218c-9,0 -14,-1 -18,2 -1,4 3,5 2,9 8,0 2,-5 3,-8 5,-2 14,0 20,0 -4,-6 -14,-9 -22,-13 -7,-3 -15,-7 -23,-10 -2,-1 -2,-2 -4,-3 -4,0 -4,-2 -8,-2 -1,-2 -12,-6 -3,-7 -2,-2 -6,0 -6,1 15,13 40,20 59,31z"/>
      <path class="fil1" d="M65 91c-5,-4 -12,-5 -18,-8 0,3 13,5 18,8z"/>
      <path class="fil1" d="M52 362c-10,-9 -24,-18 -37,-26 -11,-7 -22,-15 -34,-20 12,9 38,25 55,36 6,3 9,8 16,10z"/>
      <path class="fil1" d="M43 84c-14,-10 -43,-17 -63,-25 1,4 9,5 14,7 15,5 34,12 49,18z"/>
      <path class="fil1" d="M35 421c-2,1 -1,4 -2,6 1,1 4,-5 2,-6z"/>
      <path class="fil1" d="M30 101c5,0 -3,-4 -3,-4 -8,-4 -24,-8 -34,-11 11,6 27,9 37,15z"/>
      <path class="fil1" d="M3 108c1,1 -6,-5 -11,-5 4,1 6,4 11,5z"/>
      <path class="fil1" d="M-23 59c-1,-2 -7,-2 -10,-4 -2,2 6,4 10,4z"/>
      <path class="fil1" d="M-28 77c-3,-1 -8,-4 -10,-3 -1,0 4,3 10,3z"/>
      <path class="fil1" d="M-32 38c0,-3 -5,-2 -6,-4 -2,1 3,3 6,4z"/>
      <path class="fil1" d="M-39 320c3,-2 -5,-4 -8,-4 0,2 7,1 8,4z"/>
      <path class="fil1" d="M-40 35c-2,-4 -8,-1 -8,-4 -3,0 -5,0 -8,0 7,3 11,1 16,4z"/>
      <path class="fil1" d="M-41 54c-4,-3 -8,-5 -16,-5 5,2 10,3 16,5z"/>
      <path class="fil1" d="M-44 72c-7,-3 -11,-7 -21,-8 7,3 13,6 21,8z"/>
      <path class="fil1" d="M-78 42c1,1 -6,-4 -11,-4 4,1 6,3 11,4z"/>
      <path class="fil1" d="M-99 36c6,3 14,0 0,0l0 0z"/>
      <path class="fil1" d="M-97 91c-2,-3 -6,-5 -9,-8 -1,2 6,6 9,8z"/>
     </g>
    </g>
   </g>
   <path class="fil2" d="M180 8c-95,0 -172,77 -172,172 0,95 77,172 172,172 95,0 172,-77 172,-172 0,-95 -77,-172 -172,-172z"/>
  </g>
 </g>
</svg>
