<?xml version="1.0" encoding="UTF-8"?>
<!DOCTYPE svg PUBLIC "-//W3C//DTD SVG 1.1//EN" "http://www.w3.org/Graphics/SVG/1.1/DTD/svg11.dtd">
<!-- Creator: CorelDRAW X7 -->
<svg xmlns="http://www.w3.org/2000/svg" xml:space="preserve" width="100%" height="100%" version="1.1" style="shape-rendering:geometricPrecision; text-rendering:geometricPrecision; image-rendering:optimizeQuality; fill-rule:evenodd; clip-rule:evenodd"
viewBox="0 0 360 360"
 xmlns:xlink="http://www.w3.org/1999/xlink"
 baseProfile="tiny">
 <defs>
  <style type="text/css">
   <![CDATA[
    .fil2 {fill:none}
    .fil1 {fill:#2B2A29}
    .fil0 {fill:#2B2A29;fill-rule:nonzero}
   ]]>
  </style>
    <clipPath id="id0">
     <path d="M180 352c94,0 171,-77 171,-172 0,-95 -77,-172 -171,-172 -95,0 -172,77 -172,172 0,95 77,172 172,172z"/>
    </clipPath>
 </defs>
 <g id="Layer_x0020_1">
  <metadata id="CorelCorpID_0Corel-Layer"/>
  <g id="_1072985211968">
   <path class="fil0" d="M180 0c50,0 95,20 127,53 33,32 53,77 53,127 0,50 -20,95 -53,127 -32,33 -77,53 -127,53 -50,0 -95,-20 -127,-53 -33,-32 -53,-77 -53,-127 0,-50 20,-95 53,-127 32,-33 77,-53 127,-53zm115 65c-30,-29 -70,-47 -115,-47 -45,0 -85,18 -115,47 -29,30 -47,70 -47,115 0,45 18,85 47,115 30,29 70,47 115,47 45,0 85,-18 115,-47 29,-30 47,-70 47,-115 0,-45 -18,-85 -47,-115z"/>
   <path class="fil1" d="M161 209l0 -56c0,1 43,23 47,25 1,1 5,3 6,3l-47 25c-1,1 -5,3 -6,3zm-80 -14c0,6 0,13 1,19 0,7 1,17 5,24 3,6 8,11 16,13 9,2 27,2 37,2 12,1 25,1 38,1 16,0 31,0 47,-1 6,0 13,0 19,0 12,-1 20,-1 28,-10 7,-7 8,-21 9,-30 1,-12 1,-17 1,-28 0,-12 0,-18 -1,-31 -1,-8 -2,-17 -5,-24 -1,-2 -2,-4 -4,-6 -1,-1 -3,-3 -5,-4 -7,-5 -15,-5 -23,-6 -23,-1 -48,-1 -70,-1 -13,0 -27,0 -40,1 -6,0 -12,0 -19,1 -6,0 -11,0 -17,3 -2,1 -4,2 -6,4 -1,1 -3,3 -4,5 -3,5 -4,10 -5,16 -2,13 -2,36 -2,52z"/>
   <g>
   </g>
   <g style="clip-path:url(#id0)">
    <g id="_1072985212416">
     <path class="fil1" d="M-258 67c0,2 0,6 5,6 -2,-2 -2,-5 -5,-6z"/>
     <path class="fil1" d="M-252 74c-2,0 -1,2 -1,3 1,0 4,0 4,2 3,-2 -3,-3 -3,-5z"/>
     <path class="fil1" d="M-121 53c3,1 3,3 7,3 -1,-1 -4,-5 -7,-3z"/>
     <path class="fil1" d="M-19 360c-19,-6 -45,-3 -63,-5 3,6 19,2 32,2 13,1 26,4 31,3z"/>
     <path class="fil1" d="M-67 -28c12,10 26,17 41,25 -3,-8 -21,-11 -29,-18 6,0 13,6 23,6 2,-2 -1,-4 -2,-6 5,1 9,5 15,3 0,-7 -7,-10 -10,-15 2,-2 5,0 7,-2 -2,-1 -5,-1 -9,0 0,1 0,1 -1,1 0,7 9,7 9,14 -6,-1 -10,-4 -18,-5 -2,5 3,5 5,7 -11,-2 -18,-8 -31,-10z"/>
     <path class="fil1" d="M0 393c3,-8 13,-16 12,-24 -5,7 -13,15 -12,24z"/>
     <path class="fil1" d="M101 298c-20,-12 -46,-21 -64,-34 1,-2 4,1 7,1 -3,-2 -6,-4 -11,-4 0,6 17,14 28,19 16,8 29,13 40,18z"/>
     <path class="fil1" d="M36 249c13,10 30,18 48,25 -13,-9 -32,-14 -43,-25 -2,0 -4,0 -5,0z"/>
     <path class="fil1" d="M43 307c-1,0 -1,1 -1,2 17,9 35,18 56,25 -18,-9 -40,-16 -55,-27z"/>
     <path class="fil1" d="M44 324c1,1 3,3 7,3 -1,-2 -6,-2 -5,-5 -1,1 -1,2 -2,2z"/>
     <path class="fil1" d="M48 418c-3,4 1,7 2,12 2,-3 -1,-8 -2,-12z"/>
     <path class="fil1" d="M52 430c-2,3 1,9 4,10 -2,-3 -2,-7 -4,-10z"/>
     <path class="fil1" d="M59 446c-2,1 -1,6 2,5 -1,-1 -2,-2 -2,-5z"/>
     <path class="fil1" d="M60 452c0,2 0,5 3,5 -1,-2 0,-5 -3,-5z"/>
     <path class="fil1" d="M120 183c-3,1 1,4 4,4 0,-3 -4,-2 -4,-4z"/>
     <path class="fil1" d="M129 190c2,1 3,3 7,3 -2,-2 -3,-3 -7,-3z"/>
     <path class="fil1" d="M219 86c-19,-1 -35,-10 -51,-15 15,7 31,17 55,16 -20,-20 -55,-31 -79,-49 30,4 57,26 89,24 -7,-11 -25,-16 -33,-27 15,1 37,12 56,6 1,-8 -7,-10 -11,-15 -2,5 8,7 8,13 -18,6 -39,-7 -56,-6 5,13 23,17 32,28 -33,-2 -58,-22 -86,-25 -1,0 -2,0 -2,1 8,11 46,26 62,37 6,3 11,8 16,12z"/>
     <path class="fil1" d="M166 143c-2,3 4,5 8,6 -2,-3 -7,-3 -8,-6z"/>
     <path class="fil1" d="M176 202c0,1 1,1 1,2 40,19 72,36 115,51 -40,-17 -69,-31 -108,-49 0,-2 4,-1 1,-3 -3,0 -4,-2 -9,-1z"/>
     <path class="fil1" d="M165 280c14,9 35,13 51,21 -12,-9 -32,-12 -44,-20 -4,0 -4,-1 -7,-1z"/>
     <path class="fil1" d="M188 204c-1,4 13,7 17,7 -4,-3 -12,-4 -17,-7z"/>
     <path class="fil1" d="M210 189c0,1 0,2 0,2 27,19 47,21 75,38 0,3 -7,1 -11,2 3,3 13,1 14,-1 -26,-19 -48,-20 -75,-39 1,-1 6,0 8,0 -2,-1 -8,-4 -11,-2z"/>
     <path class="fil1" d="M217 301c32,14 62,30 97,42 -33,-14 -63,-29 -97,-42z"/>
     <path class="fil1" d="M319 61c-22,-17 -45,-34 -69,-49 5,8 23,17 35,26 12,8 21,18 34,23z"/>
     <path class="fil1" d="M262 7c0,1 0,2 0,3 25,14 52,32 71,49 4,0 4,4 9,4 -9,-10 -23,-18 -35,-26 -14,-10 -28,-21 -45,-30z"/>
     <path class="fil1" d="M283 3c-1,0 0,1 -1,2 25,18 53,36 79,54 3,2 7,5 12,5 -27,-18 -54,-37 -82,-54 -1,-3 1,-3 0,-4 -4,0 -5,-2 -8,-3z"/>
     <path class="fil1" d="M297 351c-3,3 6,4 8,6 3,-3 -7,-4 -8,-6z"/>
     <path class="fil1" d="M308 1c0,1 0,2 0,2 11,8 23,14 33,23 19,9 35,25 53,33 -24,-19 -51,-35 -77,-52 1,-3 7,3 6,0 -6,-2 -8,-5 -15,-6z"/>
     <path class="fil1" d="M372 290c-2,-3 -4,-5 -7,-7 -2,-9 -12,-16 -17,-25 -5,-8 -3,-17 -10,-25 -3,18 19,44 34,57z"/>
     <path class="fil1" d="M342 334c-2,2 6,5 11,5 -2,-3 -9,-2 -11,-5z"/>
     <path class="fil1" d="M-218 72c-2,1 2,4 3,6 1,-1 -3,-4 -3,-6z"/>
     <path class="fil1" d="M-163 1c35,12 71,24 103,37 1,0 1,0 0,0 -26,-14 -59,-22 -87,-34 -5,-1 -11,-4 -16,-3z"/>
     <path class="fil1" d="M-89 -16c-2,1 0,1 0,2 19,7 38,14 53,24 -4,1 -9,-3 -6,-1 2,2 10,3 13,3 -16,-12 -39,-20 -60,-28z"/>
     <path class="fil1" d="M22 186c11,9 27,15 41,22 14,7 29,15 44,20 -21,-12 -51,-22 -72,-35 -5,-2 -6,-7 -13,-7z"/>
     <path class="fil1" d="M121 201c-6,-5 -14,-9 -22,-12 -22,-11 -48,-23 -71,-34 -3,2 10,4 11,7 20,8 38,19 59,27 6,5 15,8 23,12z"/>
     <path class="fil1" d="M29 209c8,9 25,14 38,20 14,7 28,14 40,21 -1,-5 -9,-6 -14,-9 -18,-9 -38,-19 -56,-28 -2,-1 -1,-1 1,-1 -2,-2 -4,-3 -9,-3z"/>
     <path class="fil1" d="M35 228c-2,0 -4,0 -5,-1 5,10 22,15 35,22 13,7 27,14 39,18 2,3 7,4 10,6 -8,-8 -25,-14 -40,-21 -14,-7 -27,-14 -41,-21 0,-3 4,-1 2,-3z"/>
     <path class="fil1" d="M31 174c7,6 17,10 26,15 10,5 20,9 31,13 2,2 7,4 9,4 -15,-8 -37,-17 -54,-26 -2,-3 -6,-5 -12,-6z"/>
     <path class="fil1" d="M32 315c5,2 5,6 10,7 0,-1 -5,-5 -10,-7z"/>
     <path class="fil1" d="M38 145c-2,1 0,1 0,2 28,11 51,26 79,36 -26,-13 -53,-25 -79,-38z"/>
     <path class="fil1" d="M42 283c-1,3 4,3 7,4 15,7 31,14 47,21 -13,-10 -33,-15 -48,-23 10,2 2,-2 -6,-2z"/>
     <path class="fil1" d="M47 294c-7,1 -2,5 -1,5 3,5 40,19 45,21 1,0 5,3 9,4 -17,-10 -44,-16 -53,-30z"/>
     <path class="fil1" d="M48 101c-1,3 6,5 9,7 28,15 63,30 92,45 -27,-17 -66,-32 -96,-49 -1,-1 1,-4 -5,-3z"/>
     <path class="fil1" d="M50 85c32,21 74,37 108,57 0,-3 -7,-5 -10,-7 -27,-15 -60,-30 -89,-45 -1,-2 -4,-6 -9,-5z"/>
     <path class="fil1" d="M56 117c-1,-1 -5,-2 -6,0 8,8 23,14 36,21 13,6 25,14 40,19 -24,-14 -51,-25 -73,-39 0,-1 2,-1 3,-1z"/>
     <path class="fil1" d="M58 134c-3,1 -3,-1 -5,-1 1,8 17,14 27,19 22,10 45,20 64,32 5,0 6,2 9,3 -29,-16 -66,-33 -97,-50 -1,-2 3,-1 2,-3z"/>
     <path class="fil1" d="M53 327c-3,2 4,4 7,5 10,5 21,10 34,14 -13,-7 -30,-12 -41,-19z"/>
     <path class="fil1" d="M63 70c5,0 5,2 8,2 -3,-2 -7,-4 -13,-4 37,29 88,49 132,72 -41,-24 -89,-43 -127,-70z"/>
     <path class="fil1" d="M70 54c2,-2 5,2 9,2 -3,-3 -8,-4 -14,-5 5,8 18,13 28,19 29,16 61,33 94,47 4,3 7,6 13,7 -42,-24 -90,-44 -130,-70z"/>
     <path class="fil1" d="M97 41c-2,4 6,7 9,9 28,18 63,36 91,54 -1,2 -3,-2 -7,-1 3,3 8,3 13,4 -31,-23 -70,-40 -102,-62 16,3 36,15 51,19 -17,-8 -34,-17 -55,-23z"/>
     <path class="fil1" d="M100 208c3,1 5,5 8,3 -2,-1 -4,-2 -8,-3z"/>
     <path class="fil1" d="M112 229c0,2 6,6 10,7 1,-2 -8,-4 -10,-7z"/>
     <path class="fil1" d="M128 157c-2,2 4,4 7,6 2,-2 -6,-4 -7,-6z"/>
     <path class="fil1" d="M138 162c2,6 15,10 25,13 -8,-4 -19,-7 -25,-13z"/>
     <path class="fil1" d="M141 194c-2,1 2,4 6,3 -1,-1 -5,-1 -6,-3z"/>
     <path class="fil1" d="M142 237c38,14 78,28 114,43 -19,-12 -54,-20 -78,-32 -13,-2 -24,-10 -36,-11z"/>
     <path class="fil1" d="M149 215c1,-1 3,0 4,0 -2,-2 -4,-3 -8,-2 18,13 42,23 66,32 23,10 48,19 71,28 -43,-20 -92,-36 -133,-58z"/>
     <path class="fil1" d="M155 66c3,1 6,3 11,4 -2,-2 -7,-3 -11,-4z"/>
     <path class="fil1" d="M181 269c-1,2 8,4 12,7 1,-4 -10,-4 -12,-7z"/>
     <path class="fil1" d="M180 300c0,3 4,1 6,2 2,0 -3,-2 -6,-2z"/>
     <path class="fil1" d="M288 348c-31,-12 -63,-26 -93,-40 0,-1 -1,0 -1,1 30,14 60,29 94,39z"/>
     <path class="fil1" d="M199 323c2,0 4,0 4,1 2,-1 -3,-3 -5,-3 0,7 12,10 19,13 29,13 59,26 87,39 -28,-18 -74,-31 -105,-50z"/>
     <path class="fil1" d="M208 281c6,4 13,7 22,9 -7,-3 -14,-7 -22,-9z"/>
     <path class="fil1" d="M232 164c7,-1 12,1 16,-2 0,-4 -4,-5 -3,-10 -6,1 -1,6 -2,9 -4,2 -12,0 -17,0 3,5 12,9 18,12 7,4 14,7 21,11 1,1 2,2 3,3 4,-1 4,2 7,2 1,1 11,6 3,7 1,2 5,0 5,-1 -13,-13 -35,-20 -51,-31z"/>
     <path class="fil1" d="M232 291c4,3 11,5 16,8 -1,-4 -12,-5 -16,-8z"/>
     <path class="fil1" d="M243 20c9,8 21,18 32,26 10,7 20,15 30,20 -11,-10 -33,-25 -48,-36 -5,-4 -8,-8 -14,-10z"/>
     <path class="fil1" d="M251 298c12,9 37,16 55,24 -1,-3 -8,-4 -12,-6 -14,-5 -30,-12 -43,-18z"/>
     <path class="fil1" d="M258 -39c1,-1 1,-4 2,-6 -1,-1 -4,5 -2,6z"/>
     <path class="fil1" d="M262 281c-4,0 3,4 3,4 7,3 21,8 30,11 -10,-6 -24,-9 -33,-15z"/>
     <path class="fil1" d="M285 274c0,-1 6,5 11,5 -4,-1 -6,-4 -11,-5z"/>
     <path class="fil1" d="M308 322c1,3 7,3 9,5 2,-2 -6,-4 -9,-5z"/>
     <path class="fil1" d="M313 304c2,1 7,5 8,4 1,0 -3,-4 -8,-4z"/>
     <path class="fil1" d="M316 344c0,2 4,2 5,4 2,-1 -2,-4 -5,-4z"/>
     <path class="fil1" d="M322 62c-2,2 5,4 7,4 0,-3 -6,-1 -7,-4z"/>
     <path class="fil1" d="M323 347c1,4 7,1 7,4 3,0 5,0 7,0 -6,-3 -10,-2 -14,-4z"/>
     <path class="fil1" d="M324 328c4,2 7,5 14,5 -4,-2 -9,-3 -14,-5z"/>
     <path class="fil1" d="M326 310c6,2 10,7 19,8 -6,-3 -11,-6 -19,-8z"/>
     <path class="fil1" d="M356 340c-1,-1 5,4 9,4 -3,-1 -4,-4 -9,-4z"/>
     <path class="fil1" d="M374 346c-5,-4 -12,0 0,0l0 0z"/>
     <path class="fil1" d="M372 291c2,3 6,5 9,8 0,-3 -5,-6 -9,-8z"/>
    </g>
   </g>
   <path class="fil2" d="M180 352c94,0 171,-77 171,-172 0,-95 -77,-172 -171,-172 -95,0 -172,77 -172,172 0,95 77,172 172,172z"/>
  </g>
 </g>
</svg>
