<?xml version="1.0" encoding="UTF-8"?>
<!DOCTYPE svg PUBLIC "-//W3C//DTD SVG 1.1//EN" "http://www.w3.org/Graphics/SVG/1.1/DTD/svg11.dtd">
<!-- Creator: CorelDRAW X7 -->
<svg xmlns="http://www.w3.org/2000/svg" xml:space="preserve" width="100%" height="100%" version="1.1" style="shape-rendering:geometricPrecision; text-rendering:geometricPrecision; image-rendering:optimizeQuality; fill-rule:evenodd; clip-rule:evenodd"
viewBox="0 0 1110 870"
 xmlns:xlink="http://www.w3.org/1999/xlink">
 <defs>
  <style type="text/css">
   <![CDATA[
    .fil0 {fill:#EFC65D}
   ]]>
  </style>
 </defs>
 <g id="Layer_x0020_1">
  <metadata id="CorelCorpID_0Corel-Layer"/>
  <path class="fil0" d="M541 464l0 0zm570 -84l0 21c-1,15 -4,19 -4,35 -1,42 2,101 4,157l0 124c-1,5 -1,9 -2,13 -15,104 -30,136 -56,140l-16 0c-25,-3 -60,-19 -110,-21 -20,0 -25,-3 -42,-3 -19,-1 -23,2 -38,3 -71,4 -181,-3 -247,-10 -66,-8 -329,-38 -381,-50 -24,-5 -42,-10 -72,-14 -27,-4 -50,-6 -77,-10 -16,-2 -57,-4 -71,-13 16,0 13,-3 28,-3 43,-3 18,6 41,-12l35 -28c40,-32 120,-59 165,-84 22,-13 21,-16 54,-33 20,-9 35,-17 57,-26 25,-11 79,-54 93,-74l-57 -1 39 -41 -109 37c-19,5 -36,11 -55,17l-54 19c16,-25 76,-33 121,-77 3,-3 7,-6 11,-9 9,-7 16,-11 25,-17 16,-13 37,-23 47,-40 -25,6 -50,20 -66,-3 24,-35 65,4 92,-13 27,-16 17,-4 58,-31 39,-26 17,-15 49,-56 8,-11 14,-19 22,-30 65,-87 46,-9 181,-79 15,-8 11,-14 28,-25 13,-9 17,-12 28,-24 9,-10 15,-19 22,-30 9,-17 2,-4 13,-15 7,-7 6,-4 7,-16 -14,7 -25,15 -39,26 -17,12 -16,19 -34,32l-83 49c11,-16 21,-18 31,-38 -9,3 -11,6 -20,11 -17,11 -37,18 -57,26 -25,10 -57,26 -89,26l26 -19c9,-7 17,-13 25,-21 44,-39 67,-45 106,-74 9,-7 17,-12 26,-20 11,-8 15,-10 26,-18 44,-32 51,-45 91,-34 23,6 10,5 25,20 26,25 73,3 112,61 -17,32 -116,79 -133,83 -18,4 -30,3 -43,12 -22,17 0,37 -82,78 -50,25 -38,27 -41,42 -3,17 -19,37 -29,51 -61,77 -38,15 -98,61 -24,18 -48,30 -53,52 13,-4 24,-16 57,-30l60 -27c11,-6 41,-28 48,-39 10,-16 6,-13 22,-23l57 -30c11,-4 19,-6 32,-10 49,-15 60,-33 85,-46 73,-37 53,-66 150,-63 28,1 36,16 42,45 9,46 16,85 17,139zm-650 66l-7 4 7 -4zm0 0l0 0zm288 -319l0 0z"/>
 </g>
</svg>
