<?xml version="1.0" encoding="UTF-8"?>
<!DOCTYPE svg PUBLIC "-//W3C//DTD SVG 1.1//EN" "http://www.w3.org/Graphics/SVG/1.1/DTD/svg11.dtd">
<!-- Creator: CorelDRAW X7 -->
<svg xmlns="http://www.w3.org/2000/svg" xml:space="preserve" width="100%" height="100%" version="1.1" style="shape-rendering:geometricPrecision; text-rendering:geometricPrecision; image-rendering:optimizeQuality; fill-rule:evenodd; clip-rule:evenodd"
viewBox="0 0 18746 7228"
 xmlns:xlink="http://www.w3.org/1999/xlink">
 <defs>
  <style type="text/css">
   <![CDATA[
    .fil6 {fill:#CDA582}
    .fil2 {fill:#9E6E59;fill-rule:nonzero}
    .fil5 {fill:#C27F63;fill-rule:nonzero}
    .fil1 {fill:#CDA582;fill-rule:nonzero}
    .fil3 {fill:#D8AA82;fill-rule:nonzero}
    .fil4 {fill:#E6BC91;fill-rule:nonzero}
    .fil0 {fill:#EFC8A0;fill-rule:nonzero}
   ]]>
  </style>
 </defs>
 <g id="Layer_x0020_1">
  <metadata id="CorelCorpID_0Corel-Layer"/>
  <g id="_896585315504">
   <g>
    <polygon class="fil0" points="30,7228 1010,7228 899,1419 199,1419 "/>
    <polygon class="fil1" points="532,7228 532,1533 199,1533 34,7228 "/>
    <path class="fil2" d="M392 297l90 -103c0,-1 0,-2 0,-3 0,-20 10,-38 25,-45 -5,-5 -8,-13 -8,-22 0,-14 8,-25 19,-28l0 -44c-7,-3 -12,-11 -12,-20 0,-12 8,-21 18,-21 10,0 18,9 18,21 0,9 -5,17 -12,20l0 44c11,3 19,14 19,28 0,9 -3,17 -8,22 15,7 25,25 25,45 0,1 0,2 0,3l0 0 104 119 -278 -16z"/>
    <path class="fil3" d="M745 412c0,83 -99,149 -220,149 -122,0 -221,-66 -221,-149 0,-83 99,-150 221,-150 121,0 220,67 220,150z"/>
    <path class="fil1" d="M123 970l0 597 229 -97 0 -596 -229 96zm23 273l0 0c1,-37 5,-103 26,-145 28,-55 60,-73 64,-99l1 0c5,22 37,13 64,44 17,19 23,62 25,97l0 340 -180 75 0 -289c0,1 0,2 0,2 0,-1 0,-2 0,-4l0 -21z"/>
    <path class="fil0" d="M753 874l0 596 229 58 0 -558 -229 -96zm26 266l0 0c2,-35 8,-78 25,-97 27,-31 59,-22 64,-44l1 0c4,26 37,44 64,99 21,42 25,108 26,145l0 21c0,2 0,3 0,4 0,0 0,-1 0,-2l0 289 -180 -75 0 -340z"/>
    <path class="fil4" d="M353 874l0 596 400 0 0 -596 -400 0zm40 282l0 0c1,-36 8,-101 45,-134 48,-43 104,-48 112,-72l2 0c7,24 64,29 112,72 28,26 39,71 43,107l0 340 -314 0 0 -290c0,1 0,2 0,2 0,-1 0,-2 0,-3l0 -22z"/>
    <path class="fil0" d="M223 474l0 0c-2,2 -3,5 -5,7l0 1c-2,2 -3,5 -5,7l0 1c-2,2 -3,5 -4,7l-1 2c-1,2 -3,4 -4,6l-1 2c-1,2 -2,4 -3,6 -1,1 -1,2 -2,3 -1,2 -2,4 -3,6 0,1 -1,2 -1,3 -1,2 -2,4 -3,6 0,1 -1,2 -1,3 -1,2 -2,4 -3,6 -1,1 -1,2 -2,3 0,2 -1,4 -2,6 -1,1 -1,2 -2,3 0,2 -1,4 -2,6 -1,1 -1,3 -2,4 0,2 -1,4 -2,6 0,1 -1,3 -2,4 0,2 -1,4 -1,5 -1,2 -2,3 -2,5 -1,2 -1,4 -2,5 -1,2 -1,4 -2,6 0,1 -1,3 -1,4 -1,3 -2,5 -2,7 -1,1 -1,3 -2,4 -1,3 -2,7 -3,10 -70,241 61,256 61,256 5,70 133,-54 280,-60 1,0 3,0 5,0l0 0c9,0 18,0 26,0l0 0c142,4 315,67 338,60 50,-16 98,59 72,-175 -29,-263 -246,-402 -399,-402 -116,0 -237,52 -318,177z"/>
    <path class="fil2" d="M42 863c109,-83 334,-124 499,-124 2,0 5,0 7,0l0 0c3,0 6,0 8,0 165,0 389,41 499,124 8,6 16,12 24,18 0,50 -59,124 -106,89 -133,-61 -252,-81 -417,-81l-6 0 0 0 -2 0 0 0 -2 0 0 0 -5 0c-165,0 -284,20 -418,81 -46,35 -105,-39 -105,-89 8,-6 16,-12 24,-18z"/>
    <path class="fil2" d="M982 3870c-98,-65 -299,-98 -447,-98 -2,0 -5,0 -7,0l0 0c-2,0 -5,0 -7,0 -148,0 -349,33 -447,98 -7,5 -14,10 -21,15 0,39 53,98 94,71 120,-49 226,-65 374,-65l5 0 0 0 2 0 0 0 2 0 0 0 5 0c148,0 254,16 374,65 41,27 94,-32 94,-71 -7,-5 -14,-10 -21,-15z"/>
    <path class="fil2" d="M1007 6201c-107,-71 -325,-107 -485,-107 -2,0 -5,0 -7,0l0 0c-3,0 -5,0 -8,0 -160,0 -378,36 -484,107 -8,5 -16,10 -23,15 0,43 57,107 102,77 130,-53 245,-70 405,-70l6 0 0 0 2 0 0 0 2 0 0 0 5 0c160,0 276,17 406,70 44,30 102,-34 102,-77 -8,-5 -15,-10 -23,-15z"/>
    <path class="fil5" d="M151 1508c20,-10 44,-19 70,-27 31,-9 65,-17 101,-23l0 -318 0 0c-1,-19 -4,-41 -8,-60 -4,-14 -9,-26 -16,-34 -13,-15 -27,-20 -39,-24 -9,-4 -17,-6 -21,-12 -5,10 -12,19 -21,30 -12,15 -27,33 -41,60 -8,16 -14,37 -18,59 -5,31 -7,63 -7,84l0 0 0 21 0 0 0 4 0 0 0 0 0 0 0 0 0 240zm73 -19c-29,9 -55,19 -76,30l-6 4 0 -8 0 -249 0 0 0 -1 0 -1 0 -21 0 0c0,-22 2,-54 7,-86 4,-22 10,-44 19,-61 14,-28 30,-47 42,-62 11,-13 20,-24 22,-35l0 -3 3 -1 1 0 5 -2 1 5c1,9 9,12 20,15 13,5 28,11 43,27 8,9 13,23 17,38 5,20 8,42 9,62l0 0 0 322 0 3 -4 1c-36,6 -72,14 -103,23z"/>
    <path class="fil1" d="M397 1181l0 266c25,-2 49,-5 73,-6 27,-2 52,-3 76,-3l0 1 7 0 0 0 0 0 0 0 6 0 0 -1c23,0 48,1 73,3 23,1 47,3 71,6l0 -318c-2,-19 -7,-42 -15,-63 -6,-16 -15,-30 -27,-41 -24,-21 -50,-33 -71,-42 -18,-8 -32,-15 -39,-25 -7,10 -22,17 -40,25 -20,9 -46,21 -70,42 -18,16 -28,40 -35,64 -6,24 -8,49 -9,67l0 0 0 22 0 0 0 3 0 0zm-9 271l0 -273 0 0 0 -1 0 0 0 -22 0 0c1,-18 3,-44 10,-69 6,-26 18,-51 37,-68 25,-23 51,-35 73,-44 20,-9 35,-16 38,-26l1 -3 3 0 2 0 3 0 1 3c3,10 18,17 38,26 21,9 48,21 73,44 13,11 22,27 29,44 9,21 13,45 16,66l0 0 0 323 0 5 -5 -1c-26,-3 -51,-5 -75,-6 -26,-2 -50,-3 -73,-3l0 0 -6 0 0 0 0 0 0 0 -7 0 0 0c-24,0 -49,1 -75,3 -25,1 -52,4 -78,7l-5 0 0 -5z"/>
    <path class="fil4" d="M783 1140l0 318c36,6 70,14 101,23 26,8 50,17 71,27l0 -240 0 0 0 0 0 0 0 0 0 -4 0 0 0 -21 0 0c-1,-18 -2,-44 -6,-70 -3,-26 -10,-53 -20,-73 -14,-27 -29,-45 -40,-60 -10,-11 -17,-20 -21,-30 -5,6 -13,8 -22,12 -11,4 -26,9 -39,24 -7,8 -12,20 -15,34 -5,19 -8,41 -9,60l0 0zm-9 322l0 -322 0 0c2,-20 4,-42 9,-62 4,-15 10,-29 17,-38 15,-16 31,-22 43,-27 11,-3 19,-6 21,-15l1 -5 5 2 1 0 2 1 0 3c2,11 11,22 22,36 13,14 28,33 42,61 11,21 17,49 21,76 4,26 5,52 5,71l0 0 0 21 0 1 0 1 0 0 0 249 0 8 -6 -4c-21,-11 -47,-21 -76,-29 -31,-10 -66,-18 -103,-24l-4 -1 0 -3z"/>
    <path class="fil2" d="M985 1518c-95,-50 -288,-75 -430,-75 -3,0 -5,0 -7,0l0 0c-2,0 -5,0 -7,0 -142,0 -336,25 -431,75 -6,3 -13,7 -20,10 0,30 51,75 91,54 115,-37 218,-49 360,-49l5 0 0 0 2 0 0 0 2 0 0 0 5 0c142,0 245,12 360,49 39,21 90,-24 90,-54 -6,-3 -13,-7 -20,-10z"/>
    <path class="fil6" d="M147 807c63,-22 131,-39 203,-52 -23,-216 0,-354 58,-434 -36,15 -68,34 -98,56 -124,122 -183,264 -163,430z"/>
   </g>
   <g>
    <polygon class="fil0" points="17698,7217 18677,7217 18566,1408 17867,1408 "/>
    <polygon class="fil1" points="18200,7217 18200,1522 17867,1522 17701,7217 "/>
    <path class="fil2" d="M18060 286l89 -103c0,-1 0,-2 0,-3 0,-20 11,-38 26,-45 -5,-5 -9,-13 -9,-22 0,-14 8,-25 19,-28l0 -44c-7,-3 -12,-11 -12,-20 0,-12 8,-21 18,-21 11,0 19,9 19,21 0,9 -5,17 -12,20l0 44c11,3 19,14 19,28 0,9 -4,17 -9,22 15,7 26,25 26,45 0,1 0,2 0,3l0 0 103 119 -277 -16z"/>
    <path class="fil3" d="M18413 401c0,83 -99,150 -221,150 -122,0 -221,-67 -221,-150 0,-83 99,-149 221,-149 122,0 221,66 221,149z"/>
    <path class="fil1" d="M17791 959l0 597 229 -96 0 -597 -229 96zm23 273l0 0c0,-37 5,-103 26,-145 27,-55 59,-73 64,-99l1 0c4,22 36,13 64,44 16,19 23,62 25,97l0 340 -180 76 0 -290c0,1 0,2 0,2 0,-1 0,-2 0,-3l0 -22z"/>
    <path class="fil0" d="M18420 863l0 597 229 57 0 -558 -229 -96zm26 266l0 0c2,-35 9,-78 25,-97 28,-31 60,-22 64,-44l1 0c5,26 37,44 64,99 22,42 26,108 27,145l0 22c-1,1 -1,2 -1,3 0,0 0,-1 1,-2l0 290 -181 -76 0 -340z"/>
    <path class="fil4" d="M18020 863l0 597 400 0 0 -597 -400 0zm40 282l0 0c1,-36 9,-101 46,-134 47,-43 104,-47 111,-71l2 0c8,24 64,28 112,71 29,26 40,71 44,107l0 340 -315 0 0 -290c0,1 0,2 0,3 0,-1 0,-3 0,-4l0 -22z"/>
    <path class="fil0" d="M17890 463l0 0c-1,2 -3,5 -4,7l-1 1c-1,2 -3,5 -4,7l-1 1c-1,3 -3,5 -4,7l-1 2c-1,2 -2,4 -3,6l-1 2c-2,2 -3,4 -4,6 0,1 -1,2 -1,3 -1,2 -2,4 -3,6 -1,1 -1,2 -1,3 -1,2 -2,4 -3,6 -1,1 -1,2 -2,3 -1,2 -2,4 -3,6 0,1 -1,2 -1,3 -1,2 -2,4 -3,6 0,1 -1,2 -1,4 -1,1 -2,3 -2,5 -1,2 -2,3 -2,4 -1,2 -2,4 -2,6 -1,1 -1,3 -2,4 -1,2 -1,4 -2,5 -1,2 -1,4 -2,5 0,2 -1,4 -2,5 0,2 -1,4 -1,6 -1,1 -1,3 -2,5 -1,2 -1,4 -2,6 0,1 -1,3 -1,4 -1,3 -2,7 -3,11 -70,240 60,255 60,255 5,70 134,-54 280,-60 2,0 3,0 5,0l0 0c9,0 18,0 27,0l0 0c142,4 315,67 338,60 50,-16 98,59 72,-175 -29,-263 -247,-402 -400,-402 -116,0 -237,52 -318,177z"/>
    <path class="fil2" d="M17709 852c110,-83 334,-124 499,-124 3,0 5,0 8,0l0 0c3,0 5,0 8,0 164,0 389,41 499,124 8,6 15,12 23,18 0,50 -59,124 -105,89 -133,-61 -253,-81 -417,-81l-6 0 0 0 -2 0 0 0 -2 0 0 0 -6 0c-165,0 -284,20 -417,81 -46,35 -105,-39 -105,-89 7,-6 15,-12 23,-18z"/>
    <path class="fil2" d="M18650 3859c-99,-65 -300,-98 -447,-98 -3,0 -5,0 -7,0l-1 0c-2,0 -4,0 -6,0 -148,0 -349,33 -448,98 -7,5 -14,10 -21,15 0,39 53,98 95,71 119,-49 226,-65 374,-65l5 0 0 0 1 0 1 0 1 0 0 0 6 0c147,0 254,16 373,65 42,27 95,-32 95,-71 -7,-5 -14,-10 -21,-15z"/>
    <path class="fil2" d="M18674 6190c-106,-71 -324,-107 -484,-107 -3,0 -5,0 -8,1l0 0c-2,-1 -5,-1 -7,-1 -160,0 -378,36 -485,107 -8,5 -15,10 -23,15 0,43 58,107 103,77 129,-53 245,-70 405,-70l5 0 0 0 2 0 0 0 2 0 0 0 6 0c160,0 276,17 405,70 45,30 102,-34 102,-77 -7,-5 -15,-10 -23,-15z"/>
    <path class="fil5" d="M17818 1497c20,-10 44,-19 71,-27 31,-9 65,-17 100,-23l0 -318 0 0c-1,-19 -3,-41 -8,-60 -4,-14 -9,-26 -15,-34 -13,-15 -28,-20 -40,-24 -9,-4 -16,-6 -21,-12 -4,10 -12,19 -21,30 -12,15 -27,33 -40,60 -9,17 -15,38 -18,59 -6,31 -8,63 -8,84l0 0 0 22 0 0 0 3 0 0 0 0 0 0 0 0 0 240zm73 -18c-29,8 -54,18 -75,29l-7 4 0 -8 0 -249 0 0 0 -1 0 0 0 -22 0 0c1,-22 2,-54 8,-86 4,-22 10,-44 19,-61 14,-28 29,-47 41,-61 12,-14 20,-25 22,-36l1 -3 2 -1 1 0 5 -2 1 5c2,9 10,12 20,15 13,5 29,11 43,27 8,9 14,23 18,38 5,20 7,42 8,62l0 0 0 322 0 4 -3 0c-37,6 -72,14 -104,24z"/>
    <path class="fil1" d="M18064 1170l0 266c25,-2 50,-5 74,-6 26,-2 52,-2 76,-2l0 0 6 0 0 0 0 0 0 0 6 0 0 0c23,0 48,0 73,2 24,1 48,3 71,6l0 -318c-2,-19 -6,-42 -15,-63 -6,-15 -15,-30 -27,-41 -23,-21 -49,-33 -70,-42 -18,-8 -33,-15 -40,-25 -7,10 -21,17 -39,25 -21,9 -47,21 -71,42 -17,16 -28,40 -34,64 -7,24 -9,49 -10,67l0 0 0 22 0 0 1 3 -1 0zm-8 271l0 -273 0 0 0 -1 0 0 0 -22 0 0c0,-18 2,-44 9,-69 7,-26 18,-51 38,-68 24,-22 51,-34 72,-44 20,-9 35,-16 38,-26l1 -3 3 0 2 0 3 0 1 3c4,10 19,17 38,26 22,10 48,22 73,44 13,11 23,27 30,44 8,22 13,45 15,66l0 0 0 323 0 5 -5 -1c-25,-3 -50,-5 -75,-6 -25,-2 -49,-3 -73,-3l0 0 -6 0 0 0 0 0 0 0 -6 0 0 0c-24,0 -50,1 -76,3 -25,1 -51,4 -78,7l-4 0 0 -5z"/>
    <path class="fil4" d="M18451 1129l0 318c35,6 70,14 100,23 27,8 51,17 71,27l0 -240 0 0 0 0 0 0 0 0 0 -3 0 0 0 -22 0 0c0,-18 -1,-44 -5,-70 -4,-26 -10,-53 -21,-73 -13,-27 -28,-45 -40,-60 -9,-11 -17,-20 -21,-30 -5,6 -12,8 -21,12 -12,4 -26,9 -39,24 -7,8 -12,20 -16,34 -5,19 -7,41 -8,60l0 0zm-9 322l0 -322 0 0c1,-20 4,-42 9,-62 4,-15 9,-29 17,-38 15,-16 30,-22 43,-27 10,-3 18,-6 20,-15l1 -5 5 2 1 0 2 1 1 3c2,11 10,22 22,36 12,14 27,33 41,61 11,21 18,49 22,76 3,26 5,53 5,71l0 0 0 22 0 0 0 1 0 0 0 249 0 8 -7 -4c-20,-11 -46,-21 -75,-29 -32,-10 -67,-18 -103,-24l-4 0 0 -4z"/>
    <path class="fil2" d="M18653 1507c-95,-50 -289,-75 -431,-75 -2,0 -4,0 -7,0l0 0c-2,0 -4,0 -6,0 -143,0 -336,25 -431,75 -7,3 -14,7 -20,10 0,31 51,75 91,54 115,-37 217,-49 360,-49l5 0 0 0 1 0 0 0 2 0 0 0 5 0c142,0 245,12 360,49 40,21 91,-23 91,-54 -7,-3 -14,-7 -20,-10z"/>
    <path class="fil6" d="M17815 796c62,-22 130,-39 203,-52 -24,-216 0,-353 58,-434 -37,15 -69,34 -98,56 -124,122 -183,264 -163,430z"/>
   </g>
  </g>
 </g>
</svg>
