<?xml version="1.0" encoding="UTF-8"?>
<!DOCTYPE svg PUBLIC "-//W3C//DTD SVG 1.1//EN" "http://www.w3.org/Graphics/SVG/1.1/DTD/svg11.dtd">
<!-- Creator: CorelDRAW X7 -->
<svg xmlns="http://www.w3.org/2000/svg" xml:space="preserve" width="100%" height="100%" version="1.1" style="shape-rendering:geometricPrecision; text-rendering:geometricPrecision; image-rendering:optimizeQuality; fill-rule:evenodd; clip-rule:evenodd"
viewBox="0 0 31640 14130"
 xmlns:xlink="http://www.w3.org/1999/xlink">
 <defs>
  <style type="text/css">
   <![CDATA[
    .str0 {stroke:#EFC8A0;stroke-width:9.99606}
    .fil6 {fill:#EFC8A0}
    .fil7 {fill:#824F41;fill-rule:nonzero}
    .fil2 {fill:#9E6E59;fill-rule:nonzero}
    .fil3 {fill:#CDA582;fill-rule:nonzero}
    .fil4 {fill:#D8AA82;fill-rule:nonzero}
    .fil1 {fill:#EFC8A0;fill-rule:nonzero}
    .fil5 {fill:#FBE2B5;fill-rule:nonzero}
    .fil0 {fill:#FDEDB5;fill-rule:nonzero}
   ]]>
  </style>
 </defs>
 <g id="Layer_x0020_1">
  <metadata id="CorelCorpID_0Corel-Layer"/>
  <g id="_896514669584">
   <polygon class="fil0" points="19142,11757 12619,11757 12619,11650 19142,11650 "/>
   <g>
    <polygon class="fil0" points="12619,13631 19142,13631 19142,11650 12619,11650 "/>
   </g>
   <g>
    <polygon class="fil1 str0" points="15397,13631 14685,13631 14685,12623 15397,12623 "/>
   </g>
   <g>
    <polygon class="fil1 str0" points="16263,13631 15550,13631 15550,12623 16263,12623 "/>
   </g>
   <g>
    <polygon class="fil1 str0" points="17128,13631 16415,13631 16415,12623 17128,12623 "/>
   </g>
   <g>
    <polygon class="fil1 str0" points="17993,13631 17281,13631 17281,12623 17993,12623 "/>
   </g>
   <g>
    <polygon class="fil1 str0" points="14532,13631 13819,13631 13819,12623 14532,12623 "/>
   </g>
   <g>
    <polygon class="fil1 str0" points="13666,13631 12954,13631 12954,12623 13666,12623 "/>
   </g>
   <g>
    <polygon class="fil1 str0" points="18859,13631 18146,13631 18146,12623 18859,12623 "/>
   </g>
   <g>
    <polygon class="fil1" points="19142,13869 29189,13869 29189,11921 19142,11921 "/>
   </g>
   <g>
    <polygon class="fil1" points="29189,12029 19142,12029 19142,11921 29189,11921 "/>
   </g>
   <g>
    <polygon class="fil2" points="29189,12192 19142,12192 19142,12029 29189,12029 "/>
   </g>
   <polygon class="fil3" points="21920,12668 21207,12668 21207,12338 21920,12338 "/>
   <polygon class="fil3" points="22785,12668 22073,12668 22073,12338 22785,12338 "/>
   <polygon class="fil3" points="23651,12668 22938,12668 22938,12338 23651,12338 "/>
   <polygon class="fil3" points="24516,12668 23804,12668 23804,12338 24516,12338 "/>
   <polygon class="fil3" points="21054,12668 20342,12668 20342,12338 21054,12338 "/>
   <polygon class="fil3" points="20189,12668 19477,12668 19477,12338 20189,12338 "/>
   <polygon class="fil3" points="25382,12668 24669,12668 24669,12338 25382,12338 "/>
   <polygon class="fil3" points="21920,13869 21207,13869 21207,12895 21920,12895 "/>
   <polygon class="fil3" points="22785,13869 22073,13869 22073,12895 22785,12895 "/>
   <polygon class="fil3" points="23651,13869 22938,13869 22938,12895 23651,12895 "/>
   <polygon class="fil3" points="24516,13869 23804,13869 23804,12895 24516,12895 "/>
   <polygon class="fil3" points="21054,13869 20342,13869 20342,12895 21054,12895 "/>
   <polygon class="fil3" points="20189,13869 19477,13869 19477,12895 20189,12895 "/>
   <polygon class="fil3" points="25382,13869 24669,13869 24669,12895 25382,12895 "/>
   <polygon class="fil3" points="27971,12668 27259,12668 27259,12338 27971,12338 "/>
   <polygon class="fil3" points="28837,12668 28124,12668 28124,12338 28837,12338 "/>
   <polygon class="fil3" points="27106,12668 26393,12668 26393,12338 27106,12338 "/>
   <polygon class="fil3" points="26240,12668 25528,12668 25528,12338 26240,12338 "/>
   <polygon class="fil3" points="27971,13869 27259,13869 27259,12895 27971,12895 "/>
   <polygon class="fil3" points="28837,13869 28124,13869 28124,12895 28837,12895 "/>
   <polygon class="fil3" points="27106,13869 26393,13869 26393,12895 27106,12895 "/>
   <polygon class="fil3" points="26240,13869 25528,13869 25528,12895 26240,12895 "/>
   <g>
    <polygon class="fil1" points="2571,13869 12619,13869 12619,11921 2571,11921 "/>
   </g>
   <g>
    <polygon class="fil2" points="12619,12192 2571,12192 2571,12029 12619,12029 "/>
   </g>
   <polygon class="fil3" points="5350,12668 4637,12668 4637,12338 5350,12338 "/>
   <polygon class="fil3" points="6215,12668 5502,12668 5502,12338 6215,12338 "/>
   <polygon class="fil3" points="7080,12668 6368,12668 6368,12338 7080,12338 "/>
   <polygon class="fil3" points="7946,12668 7233,12668 7233,12338 7946,12338 "/>
   <polygon class="fil3" points="4484,12668 3772,12668 3772,12338 4484,12338 "/>
   <polygon class="fil3" points="3619,12668 2906,12668 2906,12338 3619,12338 "/>
   <polygon class="fil3" points="8811,12668 8099,12668 8099,12338 8811,12338 "/>
   <polygon class="fil3" points="5350,13869 4637,13869 4637,12895 5350,12895 "/>
   <polygon class="fil3" points="6215,13869 5502,13869 5502,12895 6215,12895 "/>
   <polygon class="fil3" points="7080,13869 6368,13869 6368,12895 7080,12895 "/>
   <polygon class="fil3" points="7946,13869 7233,13869 7233,12895 7946,12895 "/>
   <polygon class="fil3" points="4484,13869 3772,13869 3772,12895 4484,12895 "/>
   <polygon class="fil3" points="3619,13869 2906,13869 2906,12895 3619,12895 "/>
   <polygon class="fil3" points="8811,13869 8099,13869 8099,12895 8811,12895 "/>
   <polygon class="fil3" points="11401,12668 10688,12668 10688,12338 11401,12338 "/>
   <polygon class="fil3" points="12266,12668 11554,12668 11554,12338 12266,12338 "/>
   <polygon class="fil3" points="10535,12668 9823,12668 9823,12338 10535,12338 "/>
   <polygon class="fil3" points="9670,12668 8957,12668 8957,12338 9670,12338 "/>
   <polygon class="fil3" points="11401,13869 10688,13869 10688,12895 11401,12895 "/>
   <polygon class="fil3" points="12266,13869 11554,13869 11554,12895 12266,12895 "/>
   <polygon class="fil3" points="10535,13869 9823,13869 9823,12895 10535,12895 "/>
   <polygon class="fil3" points="9670,13869 8957,13869 8957,12895 9670,12895 "/>
   <g>
    <path class="fil2" d="M15717 12953c76,-67 165,-74 178,-111l3 0c12,37 101,44 177,111 59,51 71,152 72,208l0 33c0,3 0,5 0,6 0,3 0,3 0,0 0,-1 0,-2 0,-3l0 449 -499 0 0 -527c6,-56 23,-126 69,-166z"/>
    <path class="fil0" d="M15712 12946c39,-34 81,-53 115,-68 31,-14 55,-24 60,-39l2 -6 6 0 3 0 6 0 1 6c5,15 29,25 60,39 34,15 76,34 115,68 26,22 43,53 54,86 16,46 21,95 22,129l0 0 0 33 0 1 -1 2 1 0 0 449 0 9 -9 0 -499 0 -8 0 0 -9 0 -527 0 -1c3,-28 9,-60 20,-91 11,-31 28,-60 52,-81zm122 -53c-33,15 -74,33 -111,66 -22,19 -37,45 -47,74 -11,29 -17,59 -20,87l0 518 483 0 0 -436 0 0 0 0 0 0 0 0 0 0 0 -2 0 -1 0 -2 0 0 0 -3 0 0 0 -33 0 0c-1,-32 -6,-80 -21,-124 -10,-30 -26,-58 -48,-78 -38,-33 -79,-51 -112,-66 -28,-12 -50,-22 -62,-37 -11,15 -34,25 -62,37z"/>
   </g>
   <g>
    <path class="fil2" d="M14857 12953c76,-67 165,-74 178,-111l3 0c12,37 101,44 177,111 59,51 71,152 72,208l0 33c0,3 0,5 0,6 0,3 0,3 0,0 0,-1 0,-2 0,-3l0 449 -499 0 0 -527c6,-56 23,-126 69,-166z"/>
    <path class="fil0" d="M14852 12946c39,-34 81,-53 115,-68 31,-14 55,-24 60,-39l2 -6 6 0 3 0 6 0 1 6c5,15 29,25 60,39 34,15 76,34 115,68 26,22 43,53 54,86 16,46 21,95 22,129l0 0 0 33 0 1 -1 2 1 0 0 449 0 9 -9 0 -499 0 -8 0 0 -9 0 -527 0 -1c3,-28 9,-60 20,-91 11,-31 28,-60 52,-81zm122 -53c-33,15 -74,33 -111,66 -22,19 -37,45 -47,74 -11,29 -17,59 -20,87l0 518 483 0 0 -436 0 0 0 0 0 0 0 0 0 0 0 -2 0 -1 0 -2 0 0 0 -3 0 0 0 -33 0 0c-1,-32 -6,-80 -21,-124 -10,-30 -26,-58 -48,-78 -38,-33 -79,-51 -112,-66 -28,-12 -50,-22 -62,-37 -11,15 -34,25 -62,37z"/>
   </g>
   <g>
    <path class="fil2" d="M13997 12953c76,-67 165,-74 178,-111l3 0c12,37 101,44 177,111 59,51 71,152 72,208l0 33c0,3 0,5 0,6 0,3 0,3 0,0 0,-1 0,-2 0,-3l0 449 -499 0 0 -527c6,-56 23,-126 69,-166z"/>
    <path class="fil0" d="M13992 12946c39,-34 81,-53 115,-68 31,-14 55,-24 60,-39l2 -6 6 0 3 0 6 0 1 6c5,15 29,25 60,39 34,15 76,34 115,68 26,22 43,53 54,86 16,46 21,95 22,129l0 0 0 33 0 1 -1 2 1 0 0 449 0 9 -9 0 -499 0 -8 0 0 -9 0 -527 0 -1c3,-28 9,-60 20,-91 11,-31 28,-60 52,-81zm122 -53c-33,15 -74,33 -111,66 -22,19 -37,45 -47,74 -11,29 -17,59 -20,87l0 518 483 0 0 -436 0 0 0 0 0 0 0 0 0 0 0 -2 0 -1 0 -2 0 0 0 -3 0 0 0 -33 0 0c-1,-32 -6,-80 -21,-124 -10,-30 -26,-58 -48,-78 -38,-33 -79,-51 -112,-66 -28,-12 -50,-22 -62,-37 -11,15 -34,25 -62,37z"/>
   </g>
   <g>
    <path class="fil2" d="M13137 12953c76,-67 165,-74 178,-111l3 0c12,37 101,44 177,111 59,51 71,152 72,208l0 33c0,3 0,5 0,6 0,3 0,3 0,0 0,-1 0,-2 0,-3l0 449 -499 0 0 -527c6,-56 23,-126 69,-166z"/>
    <path class="fil0" d="M13132 12946c39,-34 81,-53 115,-68 31,-14 55,-24 60,-39l2 -6 6 0 3 0 6 0 1 6c5,15 29,25 60,39 34,15 76,34 115,68 26,22 43,53 54,86 16,46 21,95 22,129l0 0 0 33 0 1 -1 2 1 0 0 449 0 9 -9 0 -499 0 -8 0 0 -9 0 -527 0 -1c3,-28 9,-60 20,-91 11,-31 28,-60 52,-81zm122 -53c-33,15 -74,33 -111,66 -22,19 -37,45 -47,74 -11,29 -17,59 -20,87l0 518 483 0 0 -436 0 0 0 0 0 0 0 0 0 0 0 -2 0 -1 0 -2 0 0 0 -3 0 0 0 -33 0 0c-1,-32 -6,-80 -21,-124 -10,-30 -26,-58 -48,-78 -38,-33 -79,-51 -112,-66 -28,-12 -50,-22 -62,-37 -11,15 -34,25 -62,37z"/>
   </g>
   <g>
    <path class="fil2" d="M18307 12953c76,-67 165,-74 178,-111l3 0c12,37 101,44 177,111 59,51 71,152 72,208l0 33c0,3 0,5 0,6 0,3 0,3 0,0 0,-1 0,-2 0,-3l0 449 -499 0 0 -527c6,-56 23,-126 69,-166z"/>
    <path class="fil0" d="M18302 12946c39,-34 81,-53 115,-68 31,-14 55,-24 60,-39l2 -6 6 0 3 0 6 0 1 6c5,15 29,25 60,39 34,15 76,34 115,68 26,22 43,53 54,86 16,46 21,95 22,129l0 0 0 33 0 1 -1 2 1 0 0 449 0 9 -9 0 -499 0 -8 0 0 -9 0 -527 0 -1c3,-28 9,-60 20,-91 11,-31 28,-60 52,-81zm122 -53c-33,15 -74,33 -111,66 -22,19 -37,45 -47,74 -11,29 -17,59 -20,87l0 518 483 0 0 -436 0 0 0 0 0 0 0 0 0 0 0 -2 0 -1 0 -2 0 0 0 -3 0 0 0 -33 0 0c-1,-32 -6,-80 -21,-124 -10,-30 -26,-58 -48,-78 -38,-33 -79,-51 -112,-66 -28,-12 -50,-22 -62,-37 -11,15 -34,25 -62,37z"/>
   </g>
   <g>
    <path class="fil2" d="M17447 12953c76,-67 165,-74 178,-111l3 0c12,37 101,44 177,111 59,51 71,152 72,208l0 33c0,3 0,5 0,6 0,3 0,3 0,0 0,-1 0,-2 0,-3l0 449 -499 0 0 -527c6,-56 23,-126 69,-166z"/>
    <path class="fil0" d="M17442 12946c39,-34 81,-53 115,-68 31,-14 55,-24 60,-39l2 -6 6 0 3 0 6 0 1 6c5,15 29,25 60,39 34,15 76,34 115,68 26,22 43,53 54,86 16,46 21,95 22,129l0 0 0 33 0 1 -1 2 1 0 0 449 0 9 -9 0 -499 0 -8 0 0 -9 0 -527 0 -1c3,-28 9,-60 20,-91 11,-31 28,-60 52,-81zm122 -53c-33,15 -74,33 -111,66 -22,19 -37,45 -47,74 -11,29 -17,59 -20,87l0 518 483 0 0 -436 0 0 0 0 0 0 0 0 0 0 0 -2 0 -1 0 -2 0 0 0 -3 0 0 0 -33 0 0c-1,-32 -6,-80 -21,-124 -10,-30 -26,-58 -48,-78 -38,-33 -79,-51 -112,-66 -28,-12 -50,-22 -62,-37 -11,15 -34,25 -62,37z"/>
   </g>
   <g>
    <path class="fil2" d="M16587 12953c76,-67 165,-74 178,-111l3 0c12,37 101,44 177,111 59,51 71,152 72,208l0 33c0,3 0,5 0,6 0,3 0,3 0,0 0,-1 0,-2 0,-3l0 449 -499 0 0 -527c6,-56 23,-126 69,-166z"/>
    <path class="fil0" d="M16582 12946c39,-34 81,-53 115,-68 31,-14 55,-24 60,-39l2 -6 6 0 3 0 6 0 1 6c5,15 29,25 60,39 34,15 76,34 115,68 26,22 43,53 54,86 16,46 21,95 22,129l0 0 0 33 0 1 -1 2 1 0 0 449 0 9 -9 0 -499 0 -8 0 0 -9 0 -527 0 -1c3,-28 9,-60 20,-91 11,-31 28,-60 52,-81zm122 -53c-33,15 -74,33 -111,66 -22,19 -37,45 -47,74 -11,29 -17,59 -20,87l0 518 483 0 0 -436 0 0 0 0 0 0 0 0 0 0 0 -2 0 -1 0 -2 0 0 0 -3 0 0 0 -33 0 0c-1,-32 -6,-80 -21,-124 -10,-30 -26,-58 -48,-78 -38,-33 -79,-51 -112,-66 -28,-12 -50,-22 -62,-37 -11,15 -34,25 -62,37z"/>
   </g>
   <polygon class="fil4" points="19142,11921 12619,11921 12619,11757 19142,11757 "/>
   <g>
    <polygon class="fil1 str0" points="15397,12397 14685,12397 14685,12066 15397,12066 "/>
   </g>
   <g>
    <polygon class="fil1 str0" points="16263,12397 15550,12397 15550,12066 16263,12066 "/>
   </g>
   <g>
    <polygon class="fil1 str0" points="17128,12397 16415,12397 16415,12066 17128,12066 "/>
   </g>
   <g>
    <polygon class="fil1 str0" points="17993,12397 17281,12397 17281,12066 17993,12066 "/>
   </g>
   <g>
    <polygon class="fil1 str0" points="14532,12397 13819,12397 13819,12066 14532,12066 "/>
   </g>
   <g>
    <polygon class="fil1 str0" points="13666,12397 12954,12397 12954,12066 13666,12066 "/>
   </g>
   <g>
    <polygon class="fil1 str0" points="18859,12397 18146,12397 18146,12066 18859,12066 "/>
   </g>
   <g>
    <path class="fil2" d="M11781 13175c50,-44 109,-49 117,-73l2 0c8,24 68,29 118,73 39,34 47,101 48,139l0 22c0,1 0,3 0,3 -1,3 -1,2 0,0 0,0 0,-1 0,-2l0 298 -331 0 0 -349c4,-37 15,-84 46,-111z"/>
    <path class="fil1" d="M11777 13171c26,-23 54,-35 77,-45 20,-9 36,-16 39,-26l1 -4 4 0 2 0 4 0 2 4c3,10 18,17 39,26 22,10 50,22 77,45 16,15 28,35 35,57 11,30 14,63 14,86l0 0 0 22 0 0 0 1 0 0 0 298 0 6 -5 0 -331 0 -6 0 0 -6 0 -349 0 -1c2,-19 6,-40 14,-60 7,-21 18,-40 34,-54zm81 -35c-22,10 -49,22 -74,43 -14,13 -24,31 -31,49 -7,20 -11,40 -13,58l0 344 320 0 0 -289 0 0 0 0 0 0 0 -1 0 0 0 -1 0 0 0 -1 0 0 0 -2 0 0 0 -22 0 0c0,-22 -3,-54 -13,-83 -7,-20 -18,-38 -33,-52 -24,-21 -52,-33 -74,-43 -18,-8 -33,-15 -41,-25 -7,10 -22,17 -41,25z"/>
    <path class="fil2" d="M10921 13175c50,-44 109,-49 117,-73l2 0c8,24 68,29 118,73 39,34 47,101 48,139l0 22c0,1 0,3 0,3 -1,3 -1,2 0,0 0,0 0,-1 0,-2l0 298 -331 0 0 -349c4,-37 15,-84 46,-111z"/>
    <path class="fil1" d="M10917 13171c26,-23 54,-35 77,-45 20,-9 36,-16 39,-26l1 -4 4 0 2 0 4 0 2 4c3,10 18,17 39,26 22,10 50,22 77,45 16,15 28,35 35,57 11,30 14,63 14,86l0 0 0 22 0 0 0 1 0 0 0 298 0 6 -5 0 -331 0 -6 0 0 -6 0 -349 0 -1c2,-19 6,-40 14,-60 7,-21 18,-40 34,-54zm81 -35c-22,10 -49,22 -74,43 -14,13 -24,31 -31,49 -7,20 -11,40 -13,58l0 344 320 0 0 -289 0 0 0 0 0 0 0 -1 0 0 0 -1 0 0 0 -1 0 0 0 -2 0 0 0 -22 0 0c0,-22 -3,-54 -13,-83 -7,-20 -18,-38 -33,-52 -24,-21 -52,-33 -74,-43 -18,-8 -33,-15 -41,-25 -7,10 -22,17 -41,25z"/>
    <path class="fil2" d="M10051 13175c50,-44 109,-49 117,-73l2 0c8,24 68,29 118,73 39,34 47,101 48,139l0 22c0,1 0,3 0,3 -1,3 -1,2 0,0 0,0 0,-1 0,-2l0 298 -331 0 0 -349c4,-37 15,-84 46,-111z"/>
    <path class="fil1" d="M10047 13171c26,-23 54,-35 77,-45 20,-9 36,-16 39,-26l1 -4 4 0 2 0 4 0 2 4c3,10 18,17 39,26 22,10 50,22 77,45 16,15 28,35 35,57 11,30 14,63 14,86l0 0 0 22 0 0 0 1 0 0 0 298 0 6 -5 0 -331 0 -6 0 0 -6 0 -349 0 -1c2,-19 6,-40 14,-60 7,-21 18,-40 34,-54zm81 -35c-22,10 -49,22 -74,43 -14,13 -24,31 -31,49 -7,20 -11,40 -13,58l0 344 320 0 0 -289 0 0 0 0 0 0 0 -1 0 0 0 -1 0 0 0 -1 0 0 0 -2 0 0 0 -22 0 0c0,-22 -3,-54 -13,-83 -7,-20 -18,-38 -33,-52 -24,-21 -52,-33 -74,-43 -18,-8 -33,-15 -41,-25 -7,10 -22,17 -41,25z"/>
    <path class="fil2" d="M9191 13175c50,-44 109,-49 117,-73l2 0c8,24 68,29 118,73 39,34 47,101 48,139l0 22c0,1 0,3 0,3 -1,3 -1,2 0,0 0,0 0,-1 0,-2l0 298 -331 0 0 -349c4,-37 15,-84 46,-111z"/>
    <path class="fil1" d="M9187 13171c26,-23 54,-35 77,-45 20,-9 36,-16 39,-26l1 -4 4 0 2 0 4 0 2 4c3,10 18,17 39,26 22,10 50,22 77,45 16,15 28,35 35,57 11,30 14,63 14,86l0 0 0 22 0 0 0 1 0 0 0 298 0 6 -5 0 -331 0 -6 0 0 -6 0 -349 0 -1c2,-19 6,-40 14,-60 7,-21 18,-40 34,-54zm81 -35c-22,10 -49,22 -74,43 -14,13 -24,31 -31,49 -7,20 -11,40 -13,58l0 344 320 0 0 -289 0 0 0 0 0 0 0 -1 0 0 0 -1 0 0 0 -1 0 0 0 -2 0 0 0 -22 0 0c0,-22 -3,-54 -13,-83 -7,-20 -18,-38 -33,-52 -24,-21 -52,-33 -74,-43 -18,-8 -33,-15 -41,-25 -7,10 -22,17 -41,25z"/>
    <path class="fil2" d="M5721 13175c50,-44 109,-49 117,-73l2 0c8,24 68,29 118,73 39,34 47,101 48,139l0 22c0,1 0,3 0,3 -1,3 -1,2 0,0 0,0 0,-1 0,-2l0 298 -331 0 0 -349c4,-37 15,-84 46,-111z"/>
    <path class="fil1" d="M5717 13171c26,-23 54,-35 77,-45 20,-9 36,-16 39,-26l1 -4 4 0 2 0 4 0 2 4c3,10 18,17 39,26 22,10 50,22 77,45 16,15 28,35 35,57 11,30 14,63 14,86l0 0 0 22 0 0 0 1 0 0 0 298 0 6 -5 0 -331 0 -6 0 0 -6 0 -349 0 -1c2,-19 6,-40 14,-60 7,-21 18,-40 34,-54zm81 -35c-22,10 -49,22 -74,43 -14,13 -24,31 -31,49 -7,20 -11,40 -13,58l0 344 320 0 0 -289 0 0 0 0 0 0 0 -1 0 0 0 -1 0 0 0 -1 0 0 0 -2 0 0 0 -22 0 0c0,-22 -3,-54 -13,-83 -7,-20 -18,-38 -33,-52 -24,-21 -52,-33 -74,-43 -18,-8 -33,-15 -41,-25 -7,10 -22,17 -41,25z"/>
    <path class="fil2" d="M4861 13175c50,-44 109,-49 117,-73l2 0c8,24 68,29 118,73 39,34 47,101 48,139l0 22c0,1 0,3 0,3 -1,3 -1,2 0,0 0,0 0,-1 0,-2l0 298 -331 0 0 -349c4,-37 15,-84 46,-111z"/>
    <path class="fil1" d="M4857 13171c26,-23 54,-35 77,-45 20,-9 36,-16 39,-26l1 -4 4 0 2 0 4 0 2 4c3,10 18,17 39,26 22,10 50,22 77,45 16,15 28,35 35,57 11,30 14,63 14,86l0 0 0 22 0 0 0 1 0 0 0 298 0 6 -5 0 -331 0 -6 0 0 -6 0 -349 0 -1c2,-19 6,-40 14,-60 7,-21 18,-40 34,-54zm81 -35c-22,10 -49,22 -74,43 -14,13 -24,31 -31,49 -7,20 -11,40 -13,58l0 344 320 0 0 -289 0 0 0 0 0 0 0 -1 0 0 0 -1 0 0 0 -1 0 0 0 -2 0 0 0 -22 0 0c0,-22 -3,-54 -13,-83 -7,-20 -18,-38 -33,-52 -24,-21 -52,-33 -74,-43 -18,-8 -33,-15 -41,-25 -7,10 -22,17 -41,25z"/>
    <path class="fil2" d="M3991 13175c50,-44 109,-49 117,-73l2 0c8,24 68,29 118,73 39,34 47,101 48,139l0 22c0,1 0,3 0,3 -1,3 -1,2 0,0 0,0 0,-1 0,-2l0 298 -331 0 0 -349c4,-37 15,-84 46,-111z"/>
    <path class="fil1" d="M3987 13171c26,-23 54,-35 77,-45 20,-9 36,-16 39,-26l1 -4 4 0 2 0 4 0 2 4c3,10 18,17 39,26 22,10 50,22 77,45 16,15 28,35 35,57 11,30 14,63 14,86l0 0 0 22 0 0 0 1 0 0 0 298 0 6 -5 0 -331 0 -6 0 0 -6 0 -349 0 -1c2,-19 6,-40 14,-60 7,-21 18,-40 34,-54zm81 -35c-22,10 -49,22 -74,43 -14,13 -24,31 -31,49 -7,20 -11,40 -13,58l0 344 320 0 0 -289 0 0 0 0 0 0 0 -1 0 0 0 -1 0 0 0 -1 0 0 0 -2 0 0 0 -22 0 0c0,-22 -3,-54 -13,-83 -7,-20 -18,-38 -33,-52 -24,-21 -52,-33 -74,-43 -18,-8 -33,-15 -41,-25 -7,10 -22,17 -41,25z"/>
    <path class="fil2" d="M3131 13175c50,-44 109,-49 117,-73l2 0c8,24 68,29 118,73 39,34 47,101 48,139l0 22c0,1 0,3 0,3 -1,3 -1,2 0,0 0,0 0,-1 0,-2l0 298 -331 0 0 -349c4,-37 15,-84 46,-111z"/>
    <path class="fil1" d="M3127 13171c26,-23 54,-35 77,-45 20,-9 36,-16 39,-26l1 -4 4 0 2 0 4 0 2 4c3,10 18,17 39,26 22,10 50,22 77,45 16,15 28,35 35,57 11,30 14,63 14,86l0 0 0 22 0 0 0 1 0 0 0 298 0 6 -5 0 -331 0 -6 0 0 -6 0 -349 0 -1c2,-19 6,-40 14,-60 7,-21 18,-40 34,-54zm81 -35c-22,10 -49,22 -74,43 -14,13 -24,31 -31,49 -7,20 -11,40 -13,58l0 344 320 0 0 -289 0 0 0 0 0 0 0 -1 0 0 0 -1 0 0 0 -1 0 0 0 -2 0 0 0 -22 0 0c0,-22 -3,-54 -13,-83 -7,-20 -18,-38 -33,-52 -24,-21 -52,-33 -74,-43 -18,-8 -33,-15 -41,-25 -7,10 -22,17 -41,25z"/>
    <path class="fil2" d="M8311 13175c50,-44 109,-49 117,-73l2 0c8,24 68,29 118,73 39,34 47,101 48,139l0 22c0,1 0,3 0,3 -1,3 -1,2 0,0 0,0 0,-1 0,-2l0 298 -331 0 0 -349c4,-37 15,-84 46,-111z"/>
    <path class="fil1" d="M8307 13171c26,-23 54,-35 77,-45 20,-9 36,-16 39,-26l1 -4 4 0 2 0 4 0 2 4c3,10 18,17 39,26 22,10 50,22 77,45 16,15 28,35 35,57 11,30 14,63 14,86l0 0 0 22 0 0 0 1 0 0 0 298 0 6 -5 0 -331 0 -6 0 0 -6 0 -349 0 -1c2,-19 6,-40 14,-60 7,-21 18,-40 34,-54zm81 -35c-22,10 -49,22 -74,43 -14,13 -24,31 -31,49 -7,20 -11,40 -13,58l0 344 320 0 0 -289 0 0 0 0 0 0 0 -1 0 0 0 -1 0 0 0 -1 0 0 0 -2 0 0 0 -22 0 0c0,-22 -3,-54 -13,-83 -7,-20 -18,-38 -33,-52 -24,-21 -52,-33 -74,-43 -18,-8 -33,-15 -41,-25 -7,10 -22,17 -41,25z"/>
    <path class="fil2" d="M7441 13175c50,-44 109,-49 117,-73l2 0c8,24 68,29 118,73 39,34 47,101 48,139l0 22c0,1 0,3 0,3 -1,3 -1,2 0,0 0,0 0,-1 0,-2l0 298 -331 0 0 -349c4,-37 15,-84 46,-111z"/>
    <path class="fil1" d="M7437 13171c26,-23 54,-35 77,-45 20,-9 36,-16 39,-26l1 -4 4 0 2 0 4 0 2 4c3,10 18,17 39,26 22,10 50,22 77,45 16,15 28,35 35,57 11,30 14,63 14,86l0 0 0 22 0 0 0 1 0 0 0 298 0 6 -5 0 -331 0 -6 0 0 -6 0 -349 0 -1c2,-19 6,-40 14,-60 7,-21 18,-40 34,-54zm81 -35c-22,10 -49,22 -74,43 -14,13 -24,31 -31,49 -7,20 -11,40 -13,58l0 344 320 0 0 -289 0 0 0 0 0 0 0 -1 0 0 0 -1 0 0 0 -1 0 0 0 -2 0 0 0 -22 0 0c0,-22 -3,-54 -13,-83 -7,-20 -18,-38 -33,-52 -24,-21 -52,-33 -74,-43 -18,-8 -33,-15 -41,-25 -7,10 -22,17 -41,25z"/>
    <path class="fil2" d="M6581 13175c50,-44 109,-49 117,-73l2 0c8,24 68,29 118,73 39,34 47,101 48,139l0 22c0,1 0,3 0,3 -1,3 -1,2 0,0 0,0 0,-1 0,-2l0 298 -331 0 0 -349c4,-37 15,-84 46,-111z"/>
    <path class="fil1" d="M6577 13171c26,-23 54,-35 77,-45 20,-9 36,-16 39,-26l1 -4 4 0 2 0 4 0 2 4c3,10 18,17 39,26 22,10 50,22 77,45 16,15 28,35 35,57 11,30 14,63 14,86l0 0 0 22 0 0 0 1 0 0 0 298 0 6 -5 0 -331 0 -6 0 0 -6 0 -349 0 -1c2,-19 6,-40 14,-60 7,-21 18,-40 34,-54zm81 -35c-22,10 -49,22 -74,43 -14,13 -24,31 -31,49 -7,20 -11,40 -13,58l0 344 320 0 0 -289 0 0 0 0 0 0 0 -1 0 0 0 -1 0 0 0 -1 0 0 0 -2 0 0 0 -22 0 0c0,-22 -3,-54 -13,-83 -7,-20 -18,-38 -33,-52 -24,-21 -52,-33 -74,-43 -18,-8 -33,-15 -41,-25 -7,10 -22,17 -41,25z"/>
    <path class="fil2" d="M11781 13175c50,-44 109,-49 117,-73l2 0c8,24 68,29 118,73 39,34 47,101 48,139l0 22c0,1 0,3 0,3 -1,3 -1,2 0,0 0,0 0,-1 0,-2l0 298 -331 0 0 -349c4,-37 15,-84 46,-111z"/>
    <path class="fil1" d="M11777 13171c26,-23 54,-35 77,-45 20,-9 36,-16 39,-26l1 -4 4 0 2 0 4 0 2 4c3,10 18,17 39,26 22,10 50,22 77,45 16,15 28,35 35,57 11,30 14,63 14,86l0 0 0 22 0 0 0 1 0 0 0 298 0 6 -5 0 -331 0 -6 0 0 -6 0 -349 0 -1c2,-19 6,-40 14,-60 7,-21 18,-40 34,-54zm81 -35c-22,10 -49,22 -74,43 -14,13 -24,31 -31,49 -7,20 -11,40 -13,58l0 344 320 0 0 -289 0 0 0 0 0 0 0 -1 0 0 0 -1 0 0 0 -1 0 0 0 -2 0 0 0 -22 0 0c0,-22 -3,-54 -13,-83 -7,-20 -18,-38 -33,-52 -24,-21 -52,-33 -74,-43 -18,-8 -33,-15 -41,-25 -7,10 -22,17 -41,25z"/>
    <path class="fil2" d="M10921 13175c50,-44 109,-49 117,-73l2 0c8,24 68,29 118,73 39,34 47,101 48,139l0 22c0,1 0,3 0,3 -1,3 -1,2 0,0 0,0 0,-1 0,-2l0 298 -331 0 0 -349c4,-37 15,-84 46,-111z"/>
    <path class="fil1" d="M10917 13171c26,-23 54,-35 77,-45 20,-9 36,-16 39,-26l1 -4 4 0 2 0 4 0 2 4c3,10 18,17 39,26 22,10 50,22 77,45 16,15 28,35 35,57 11,30 14,63 14,86l0 0 0 22 0 0 0 1 0 0 0 298 0 6 -5 0 -331 0 -6 0 0 -6 0 -349 0 -1c2,-19 6,-40 14,-60 7,-21 18,-40 34,-54zm81 -35c-22,10 -49,22 -74,43 -14,13 -24,31 -31,49 -7,20 -11,40 -13,58l0 344 320 0 0 -289 0 0 0 0 0 0 0 -1 0 0 0 -1 0 0 0 -1 0 0 0 -2 0 0 0 -22 0 0c0,-22 -3,-54 -13,-83 -7,-20 -18,-38 -33,-52 -24,-21 -52,-33 -74,-43 -18,-8 -33,-15 -41,-25 -7,10 -22,17 -41,25z"/>
    <path class="fil2" d="M10051 13175c50,-44 109,-49 117,-73l2 0c8,24 68,29 118,73 39,34 47,101 48,139l0 22c0,1 0,3 0,3 -1,3 -1,2 0,0 0,0 0,-1 0,-2l0 298 -331 0 0 -349c4,-37 15,-84 46,-111z"/>
    <path class="fil1" d="M10047 13171c26,-23 54,-35 77,-45 20,-9 36,-16 39,-26l1 -4 4 0 2 0 4 0 2 4c3,10 18,17 39,26 22,10 50,22 77,45 16,15 28,35 35,57 11,30 14,63 14,86l0 0 0 22 0 0 0 1 0 0 0 298 0 6 -5 0 -331 0 -6 0 0 -6 0 -349 0 -1c2,-19 6,-40 14,-60 7,-21 18,-40 34,-54zm81 -35c-22,10 -49,22 -74,43 -14,13 -24,31 -31,49 -7,20 -11,40 -13,58l0 344 320 0 0 -289 0 0 0 0 0 0 0 -1 0 0 0 -1 0 0 0 -1 0 0 0 -2 0 0 0 -22 0 0c0,-22 -3,-54 -13,-83 -7,-20 -18,-38 -33,-52 -24,-21 -52,-33 -74,-43 -18,-8 -33,-15 -41,-25 -7,10 -22,17 -41,25z"/>
    <path class="fil2" d="M9191 13175c50,-44 109,-49 117,-73l2 0c8,24 68,29 118,73 39,34 47,101 48,139l0 22c0,1 0,3 0,3 -1,3 -1,2 0,0 0,0 0,-1 0,-2l0 298 -331 0 0 -349c4,-37 15,-84 46,-111z"/>
    <path class="fil1" d="M9187 13171c26,-23 54,-35 77,-45 20,-9 36,-16 39,-26l1 -4 4 0 2 0 4 0 2 4c3,10 18,17 39,26 22,10 50,22 77,45 16,15 28,35 35,57 11,30 14,63 14,86l0 0 0 22 0 0 0 1 0 0 0 298 0 6 -5 0 -331 0 -6 0 0 -6 0 -349 0 -1c2,-19 6,-40 14,-60 7,-21 18,-40 34,-54zm81 -35c-22,10 -49,22 -74,43 -14,13 -24,31 -31,49 -7,20 -11,40 -13,58l0 344 320 0 0 -289 0 0 0 0 0 0 0 -1 0 0 0 -1 0 0 0 -1 0 0 0 -2 0 0 0 -22 0 0c0,-22 -3,-54 -13,-83 -7,-20 -18,-38 -33,-52 -24,-21 -52,-33 -74,-43 -18,-8 -33,-15 -41,-25 -7,10 -22,17 -41,25z"/>
    <path class="fil2" d="M5721 13175c50,-44 109,-49 117,-73l2 0c8,24 68,29 118,73 39,34 47,101 48,139l0 22c0,1 0,3 0,3 -1,3 -1,2 0,0 0,0 0,-1 0,-2l0 298 -331 0 0 -349c4,-37 15,-84 46,-111z"/>
    <path class="fil1" d="M5717 13171c26,-23 54,-35 77,-45 20,-9 36,-16 39,-26l1 -4 4 0 2 0 4 0 2 4c3,10 18,17 39,26 22,10 50,22 77,45 16,15 28,35 35,57 11,30 14,63 14,86l0 0 0 22 0 0 0 1 0 0 0 298 0 6 -5 0 -331 0 -6 0 0 -6 0 -349 0 -1c2,-19 6,-40 14,-60 7,-21 18,-40 34,-54zm81 -35c-22,10 -49,22 -74,43 -14,13 -24,31 -31,49 -7,20 -11,40 -13,58l0 344 320 0 0 -289 0 0 0 0 0 0 0 -1 0 0 0 -1 0 0 0 -1 0 0 0 -2 0 0 0 -22 0 0c0,-22 -3,-54 -13,-83 -7,-20 -18,-38 -33,-52 -24,-21 -52,-33 -74,-43 -18,-8 -33,-15 -41,-25 -7,10 -22,17 -41,25z"/>
    <path class="fil2" d="M4861 13175c50,-44 109,-49 117,-73l2 0c8,24 68,29 118,73 39,34 47,101 48,139l0 22c0,1 0,3 0,3 -1,3 -1,2 0,0 0,0 0,-1 0,-2l0 298 -331 0 0 -349c4,-37 15,-84 46,-111z"/>
    <path class="fil1" d="M4857 13171c26,-23 54,-35 77,-45 20,-9 36,-16 39,-26l1 -4 4 0 2 0 4 0 2 4c3,10 18,17 39,26 22,10 50,22 77,45 16,15 28,35 35,57 11,30 14,63 14,86l0 0 0 22 0 0 0 1 0 0 0 298 0 6 -5 0 -331 0 -6 0 0 -6 0 -349 0 -1c2,-19 6,-40 14,-60 7,-21 18,-40 34,-54zm81 -35c-22,10 -49,22 -74,43 -14,13 -24,31 -31,49 -7,20 -11,40 -13,58l0 344 320 0 0 -289 0 0 0 0 0 0 0 -1 0 0 0 -1 0 0 0 -1 0 0 0 -2 0 0 0 -22 0 0c0,-22 -3,-54 -13,-83 -7,-20 -18,-38 -33,-52 -24,-21 -52,-33 -74,-43 -18,-8 -33,-15 -41,-25 -7,10 -22,17 -41,25z"/>
    <path class="fil2" d="M3991 13175c50,-44 109,-49 117,-73l2 0c8,24 68,29 118,73 39,34 47,101 48,139l0 22c0,1 0,3 0,3 -1,3 -1,2 0,0 0,0 0,-1 0,-2l0 298 -331 0 0 -349c4,-37 15,-84 46,-111z"/>
    <path class="fil1" d="M3987 13171c26,-23 54,-35 77,-45 20,-9 36,-16 39,-26l1 -4 4 0 2 0 4 0 2 4c3,10 18,17 39,26 22,10 50,22 77,45 16,15 28,35 35,57 11,30 14,63 14,86l0 0 0 22 0 0 0 1 0 0 0 298 0 6 -5 0 -331 0 -6 0 0 -6 0 -349 0 -1c2,-19 6,-40 14,-60 7,-21 18,-40 34,-54zm81 -35c-22,10 -49,22 -74,43 -14,13 -24,31 -31,49 -7,20 -11,40 -13,58l0 344 320 0 0 -289 0 0 0 0 0 0 0 -1 0 0 0 -1 0 0 0 -1 0 0 0 -2 0 0 0 -22 0 0c0,-22 -3,-54 -13,-83 -7,-20 -18,-38 -33,-52 -24,-21 -52,-33 -74,-43 -18,-8 -33,-15 -41,-25 -7,10 -22,17 -41,25z"/>
    <path class="fil2" d="M3131 13175c50,-44 109,-49 117,-73l2 0c8,24 68,29 118,73 39,34 47,101 48,139l0 22c0,1 0,3 0,3 -1,3 -1,2 0,0 0,0 0,-1 0,-2l0 298 -331 0 0 -349c4,-37 15,-84 46,-111z"/>
    <path class="fil1" d="M3127 13171c26,-23 54,-35 77,-45 20,-9 36,-16 39,-26l1 -4 4 0 2 0 4 0 2 4c3,10 18,17 39,26 22,10 50,22 77,45 16,15 28,35 35,57 11,30 14,63 14,86l0 0 0 22 0 0 0 1 0 0 0 298 0 6 -5 0 -331 0 -6 0 0 -6 0 -349 0 -1c2,-19 6,-40 14,-60 7,-21 18,-40 34,-54zm81 -35c-22,10 -49,22 -74,43 -14,13 -24,31 -31,49 -7,20 -11,40 -13,58l0 344 320 0 0 -289 0 0 0 0 0 0 0 -1 0 0 0 -1 0 0 0 -1 0 0 0 -2 0 0 0 -22 0 0c0,-22 -3,-54 -13,-83 -7,-20 -18,-38 -33,-52 -24,-21 -52,-33 -74,-43 -18,-8 -33,-15 -41,-25 -7,10 -22,17 -41,25z"/>
    <path class="fil2" d="M8311 13175c50,-44 109,-49 117,-73l2 0c8,24 68,29 118,73 39,34 47,101 48,139l0 22c0,1 0,3 0,3 -1,3 -1,2 0,0 0,0 0,-1 0,-2l0 298 -331 0 0 -349c4,-37 15,-84 46,-111z"/>
    <path class="fil1" d="M8307 13171c26,-23 54,-35 77,-45 20,-9 36,-16 39,-26l1 -4 4 0 2 0 4 0 2 4c3,10 18,17 39,26 22,10 50,22 77,45 16,15 28,35 35,57 11,30 14,63 14,86l0 0 0 22 0 0 0 1 0 0 0 298 0 6 -5 0 -331 0 -6 0 0 -6 0 -349 0 -1c2,-19 6,-40 14,-60 7,-21 18,-40 34,-54zm81 -35c-22,10 -49,22 -74,43 -14,13 -24,31 -31,49 -7,20 -11,40 -13,58l0 344 320 0 0 -289 0 0 0 0 0 0 0 -1 0 0 0 -1 0 0 0 -1 0 0 0 -2 0 0 0 -22 0 0c0,-22 -3,-54 -13,-83 -7,-20 -18,-38 -33,-52 -24,-21 -52,-33 -74,-43 -18,-8 -33,-15 -41,-25 -7,10 -22,17 -41,25z"/>
    <path class="fil2" d="M7441 13175c50,-44 109,-49 117,-73l2 0c8,24 68,29 118,73 39,34 47,101 48,139l0 22c0,1 0,3 0,3 -1,3 -1,2 0,0 0,0 0,-1 0,-2l0 298 -331 0 0 -349c4,-37 15,-84 46,-111z"/>
    <path class="fil1" d="M7437 13171c26,-23 54,-35 77,-45 20,-9 36,-16 39,-26l1 -4 4 0 2 0 4 0 2 4c3,10 18,17 39,26 22,10 50,22 77,45 16,15 28,35 35,57 11,30 14,63 14,86l0 0 0 22 0 0 0 1 0 0 0 298 0 6 -5 0 -331 0 -6 0 0 -6 0 -349 0 -1c2,-19 6,-40 14,-60 7,-21 18,-40 34,-54zm81 -35c-22,10 -49,22 -74,43 -14,13 -24,31 -31,49 -7,20 -11,40 -13,58l0 344 320 0 0 -289 0 0 0 0 0 0 0 -1 0 0 0 -1 0 0 0 -1 0 0 0 -2 0 0 0 -22 0 0c0,-22 -3,-54 -13,-83 -7,-20 -18,-38 -33,-52 -24,-21 -52,-33 -74,-43 -18,-8 -33,-15 -41,-25 -7,10 -22,17 -41,25z"/>
    <path class="fil2" d="M6581 13175c50,-44 109,-49 117,-73l2 0c8,24 68,29 118,73 39,34 47,101 48,139l0 22c0,1 0,3 0,3 -1,3 -1,2 0,0 0,0 0,-1 0,-2l0 298 -331 0 0 -349c4,-37 15,-84 46,-111z"/>
    <path class="fil1" d="M6577 13171c26,-23 54,-35 77,-45 20,-9 36,-16 39,-26l1 -4 4 0 2 0 4 0 2 4c3,10 18,17 39,26 22,10 50,22 77,45 16,15 28,35 35,57 11,30 14,63 14,86l0 0 0 22 0 0 0 1 0 0 0 298 0 6 -5 0 -331 0 -6 0 0 -6 0 -349 0 -1c2,-19 6,-40 14,-60 7,-21 18,-40 34,-54zm81 -35c-22,10 -49,22 -74,43 -14,13 -24,31 -31,49 -7,20 -11,40 -13,58l0 344 320 0 0 -289 0 0 0 0 0 0 0 -1 0 0 0 -1 0 0 0 -1 0 0 0 -2 0 0 0 -22 0 0c0,-22 -3,-54 -13,-83 -7,-20 -18,-38 -33,-52 -24,-21 -52,-33 -74,-43 -18,-8 -33,-15 -41,-25 -7,10 -22,17 -41,25z"/>
   </g>
   <g>
    <path class="fil2" d="M28355 13185c50,-44 109,-49 118,-74l2 0c8,25 67,30 117,74 39,34 47,101 48,138l0 22c0,2 0,3 0,4 0,2 0,2 0,0 0,0 0,-1 0,-2l0 298 -331 0 0 -350c4,-37 16,-83 46,-110z"/>
    <path class="fil1" d="M28351 13181c26,-23 54,-35 77,-45 21,-9 36,-16 39,-26l2 -4 4 0 2 0 4 0 1 4c3,10 19,17 39,26 23,10 51,22 77,45 17,14 28,35 35,56 11,31 14,64 15,86l0 0 0 22 0 1 -1 1 1 0 0 298 0 5 -6 0 -331 0 -5 0 0 -5 0 -350 0 0c2,-19 6,-40 13,-61 7,-20 18,-39 34,-53zm81 -35c-21,9 -49,21 -73,43 -15,13 -25,30 -32,49 -7,19 -10,40 -12,58l0 343 320 0 0 -289 -1 0 0 0 0 0 0 0 0 0 0 -1 0 0 0 -2 0 0 1 -2 0 0 0 -22 0 0c-1,-21 -4,-53 -14,-82 -7,-20 -17,-39 -32,-52 -25,-22 -52,-34 -74,-43 -19,-9 -34,-15 -41,-25 -8,10 -23,17 -42,25z"/>
    <path class="fil2" d="M27495 13185c50,-44 109,-49 118,-74l2 0c8,25 67,30 117,74 39,34 47,101 48,138l0 22c0,2 0,3 0,4 0,2 0,2 0,0 0,0 0,-1 0,-2l0 298 -331 0 0 -350c4,-37 16,-83 46,-110z"/>
    <path class="fil1" d="M27491 13181c26,-23 54,-35 77,-45 21,-9 36,-16 39,-26l2 -4 4 0 2 0 4 0 1 4c3,10 19,17 39,26 23,10 51,22 77,45 17,14 28,35 35,56 11,31 14,64 15,86l0 0 0 22 0 1 -1 1 1 0 0 298 0 5 -6 0 -331 0 -5 0 0 -5 0 -350 0 0c2,-19 6,-40 13,-61 7,-20 18,-39 34,-53zm81 -35c-21,9 -49,21 -73,43 -15,13 -25,30 -32,49 -7,19 -10,40 -12,58l0 343 320 0 0 -289 -1 0 0 0 0 0 0 0 0 0 0 -1 0 0 0 -2 0 0 1 -2 0 0 0 -22 0 0c-1,-21 -4,-53 -14,-82 -7,-20 -17,-39 -32,-52 -25,-22 -52,-34 -74,-43 -19,-9 -34,-15 -41,-25 -8,10 -23,17 -42,25z"/>
    <path class="fil2" d="M26625 13185c50,-44 109,-49 118,-74l2 0c8,25 67,30 117,74 39,34 47,101 48,138l0 22c0,2 0,3 0,4 0,2 0,2 0,0 0,0 0,-1 0,-2l0 298 -331 0 0 -350c4,-37 16,-83 46,-110z"/>
    <path class="fil1" d="M26621 13181c26,-23 54,-35 77,-45 21,-9 36,-16 39,-26l2 -4 4 0 2 0 4 0 1 4c3,10 19,17 39,26 23,10 51,22 77,45 17,14 28,35 35,56 11,31 14,64 15,86l0 0 0 22 0 1 -1 1 1 0 0 298 0 5 -6 0 -331 0 -5 0 0 -5 0 -350 0 0c2,-19 6,-40 13,-61 7,-20 18,-39 34,-53zm81 -35c-21,9 -49,21 -73,43 -15,13 -25,30 -32,49 -7,19 -10,40 -12,58l0 343 320 0 0 -289 -1 0 0 0 0 0 0 0 0 0 0 -1 0 0 0 -2 0 0 1 -2 0 0 0 -22 0 0c-1,-21 -4,-53 -14,-82 -7,-20 -17,-39 -32,-52 -25,-22 -52,-34 -74,-43 -19,-9 -34,-15 -41,-25 -8,10 -23,17 -42,25z"/>
    <path class="fil2" d="M25765 13185c50,-44 109,-49 118,-74l2 0c8,25 67,30 117,74 39,34 47,101 48,138l0 22c0,2 0,3 0,4 0,2 0,2 0,0 0,0 0,-1 0,-2l0 298 -331 0 0 -350c4,-37 16,-83 46,-110z"/>
    <path class="fil1" d="M25761 13181c26,-23 54,-35 77,-45 21,-9 36,-16 39,-26l2 -4 4 0 2 0 4 0 1 4c3,10 19,17 39,26 23,10 51,22 77,45 17,14 28,35 35,56 11,31 14,64 15,86l0 0 0 22 0 1 -1 1 1 0 0 298 0 5 -6 0 -331 0 -5 0 0 -5 0 -350 0 0c2,-19 6,-40 13,-61 7,-20 18,-39 34,-53zm81 -35c-21,9 -49,21 -73,43 -15,13 -25,30 -32,49 -7,19 -10,40 -12,58l0 343 320 0 0 -289 -1 0 0 0 0 0 0 0 0 0 0 -1 0 0 0 -2 0 0 1 -2 0 0 0 -22 0 0c-1,-21 -4,-53 -14,-82 -7,-20 -17,-39 -32,-52 -25,-22 -52,-34 -74,-43 -19,-9 -34,-15 -41,-25 -8,10 -23,17 -42,25z"/>
    <path class="fil2" d="M22295 13185c50,-44 109,-49 118,-74l2 0c8,25 67,30 117,74 39,34 47,101 48,138l0 22c0,2 0,3 0,4 0,2 0,2 0,0 0,0 0,-1 0,-2l0 298 -331 0 0 -350c4,-37 16,-83 46,-110z"/>
    <path class="fil1" d="M22291 13181c26,-23 54,-35 77,-45 21,-9 36,-16 39,-26l2 -4 4 0 2 0 4 0 1 4c3,10 19,17 39,26 23,10 51,22 77,45 17,14 28,35 35,56 11,31 14,64 15,86l0 0 0 22 0 1 -1 1 1 0 0 298 0 5 -6 0 -331 0 -5 0 0 -5 0 -350 0 0c2,-19 6,-40 13,-61 7,-20 18,-39 34,-53zm81 -35c-21,9 -49,21 -73,43 -15,13 -25,30 -32,49 -7,19 -10,40 -12,58l0 343 320 0 0 -289 -1 0 0 0 0 0 0 0 0 0 0 -1 0 0 0 -2 0 0 1 -2 0 0 0 -22 0 0c-1,-21 -4,-53 -14,-82 -7,-20 -17,-39 -32,-52 -25,-22 -52,-34 -74,-43 -19,-9 -34,-15 -41,-25 -8,10 -23,17 -42,25z"/>
    <path class="fil2" d="M21435 13185c50,-44 109,-49 118,-74l2 0c8,25 67,30 117,74 39,34 47,101 48,138l0 22c0,2 0,3 0,4 0,2 0,2 0,0 0,0 0,-1 0,-2l0 298 -331 0 0 -350c4,-37 16,-83 46,-110z"/>
    <path class="fil1" d="M21431 13181c26,-23 54,-35 77,-45 21,-9 36,-16 39,-26l2 -4 4 0 2 0 4 0 1 4c3,10 19,17 39,26 23,10 51,22 77,45 17,14 28,35 35,56 11,31 14,64 15,86l0 0 0 22 0 1 -1 1 1 0 0 298 0 5 -6 0 -331 0 -5 0 0 -5 0 -350 0 0c2,-19 6,-40 13,-61 7,-20 18,-39 34,-53zm81 -35c-21,9 -49,21 -73,43 -15,13 -25,30 -32,49 -7,19 -10,40 -12,58l0 343 320 0 0 -289 -1 0 0 0 0 0 0 0 0 0 0 -1 0 0 0 -2 0 0 1 -2 0 0 0 -22 0 0c-1,-21 -4,-53 -14,-82 -7,-20 -17,-39 -32,-52 -25,-22 -52,-34 -74,-43 -19,-9 -34,-15 -41,-25 -8,10 -23,17 -42,25z"/>
    <path class="fil2" d="M20565 13185c50,-44 109,-49 118,-74l2 0c8,25 67,30 117,74 39,34 47,101 48,138l0 22c0,2 0,3 0,4 0,2 0,2 0,0 0,0 0,-1 0,-2l0 298 -331 0 0 -350c4,-37 16,-83 46,-110z"/>
    <path class="fil1" d="M20561 13181c26,-23 54,-35 77,-45 21,-9 36,-16 39,-26l2 -4 4 0 2 0 4 0 1 4c3,10 19,17 39,26 23,10 51,22 77,45 17,14 28,35 35,56 11,31 14,64 15,86l0 0 0 22 0 1 -1 1 1 0 0 298 0 5 -6 0 -331 0 -5 0 0 -5 0 -350 0 0c2,-19 6,-40 13,-61 7,-20 18,-39 34,-53zm81 -35c-21,9 -49,21 -73,43 -15,13 -25,30 -32,49 -7,19 -10,40 -12,58l0 343 320 0 0 -289 -1 0 0 0 0 0 0 0 0 0 0 -1 0 0 0 -2 0 0 1 -2 0 0 0 -22 0 0c-1,-21 -4,-53 -14,-82 -7,-20 -17,-39 -32,-52 -25,-22 -52,-34 -74,-43 -19,-9 -34,-15 -41,-25 -8,10 -23,17 -42,25z"/>
    <path class="fil2" d="M19705 13185c50,-44 109,-49 118,-74l2 0c8,25 67,30 117,74 39,34 47,101 48,138l0 22c0,2 0,3 0,4 0,2 0,2 0,0 0,0 0,-1 0,-2l0 298 -331 0 0 -350c4,-37 16,-83 46,-110z"/>
    <path class="fil1" d="M19701 13181c26,-23 54,-35 77,-45 21,-9 36,-16 39,-26l2 -4 4 0 2 0 4 0 1 4c3,10 19,17 39,26 23,10 51,22 77,45 17,14 28,35 35,56 11,31 14,64 15,86l0 0 0 22 0 1 -1 1 1 0 0 298 0 5 -6 0 -331 0 -5 0 0 -5 0 -350 0 0c2,-19 6,-40 13,-61 7,-20 18,-39 34,-53zm81 -35c-21,9 -49,21 -73,43 -15,13 -25,30 -32,49 -7,19 -10,40 -12,58l0 343 320 0 0 -289 -1 0 0 0 0 0 0 0 0 0 0 -1 0 0 0 -2 0 0 1 -2 0 0 0 -22 0 0c-1,-21 -4,-53 -14,-82 -7,-20 -17,-39 -32,-52 -25,-22 -52,-34 -74,-43 -19,-9 -34,-15 -41,-25 -8,10 -23,17 -42,25z"/>
    <path class="fil2" d="M24885 13185c50,-44 109,-49 118,-74l2 0c8,25 67,30 117,74 39,34 47,101 48,138l0 22c0,2 0,3 0,4 0,2 0,2 0,0 0,0 0,-1 0,-2l0 298 -331 0 0 -350c4,-37 16,-83 46,-110z"/>
    <path class="fil1" d="M24881 13181c26,-23 54,-35 77,-45 21,-9 36,-16 39,-26l2 -4 4 0 2 0 4 0 1 4c3,10 19,17 39,26 23,10 51,22 77,45 17,14 28,35 35,56 11,31 14,64 15,86l0 0 0 22 0 1 -1 1 1 0 0 298 0 5 -6 0 -331 0 -5 0 0 -5 0 -350 0 0c2,-19 6,-40 13,-61 7,-20 18,-39 34,-53zm81 -35c-21,9 -49,21 -73,43 -15,13 -25,30 -32,49 -7,19 -10,40 -12,58l0 343 320 0 0 -289 -1 0 0 0 0 0 0 0 0 0 0 -1 0 0 0 -2 0 0 1 -2 0 0 0 -22 0 0c-1,-21 -4,-53 -14,-82 -7,-20 -17,-39 -32,-52 -25,-22 -52,-34 -74,-43 -19,-9 -34,-15 -41,-25 -8,10 -23,17 -42,25z"/>
    <path class="fil2" d="M24015 13185c50,-44 109,-49 118,-74l2 0c8,25 67,30 117,74 39,34 47,101 48,138l0 22c0,2 0,3 0,4 0,2 0,2 0,0 0,0 0,-1 0,-2l0 298 -331 0 0 -350c4,-37 16,-83 46,-110z"/>
    <path class="fil1" d="M24011 13181c26,-23 54,-35 77,-45 21,-9 36,-16 39,-26l2 -4 4 0 2 0 4 0 1 4c3,10 19,17 39,26 23,10 51,22 77,45 17,14 28,35 35,56 11,31 14,64 15,86l0 0 0 22 0 1 -1 1 1 0 0 298 0 5 -6 0 -331 0 -5 0 0 -5 0 -350 0 0c2,-19 6,-40 13,-61 7,-20 18,-39 34,-53zm81 -35c-21,9 -49,21 -73,43 -15,13 -25,30 -32,49 -7,19 -10,40 -12,58l0 343 320 0 0 -289 -1 0 0 0 0 0 0 0 0 0 0 -1 0 0 0 -2 0 0 1 -2 0 0 0 -22 0 0c-1,-21 -4,-53 -14,-82 -7,-20 -17,-39 -32,-52 -25,-22 -52,-34 -74,-43 -19,-9 -34,-15 -41,-25 -8,10 -23,17 -42,25z"/>
    <path class="fil2" d="M23155 13185c50,-44 109,-49 118,-74l2 0c8,25 67,30 117,74 39,34 47,101 48,138l0 22c0,2 0,3 0,4 0,2 0,2 0,0 0,0 0,-1 0,-2l0 298 -331 0 0 -350c4,-37 16,-83 46,-110z"/>
    <path class="fil1" d="M23151 13181c26,-23 54,-35 77,-45 21,-9 36,-16 39,-26l2 -4 4 0 2 0 4 0 1 4c3,10 19,17 39,26 23,10 51,22 77,45 17,14 28,35 35,56 11,31 14,64 15,86l0 0 0 22 0 1 -1 1 1 0 0 298 0 5 -6 0 -331 0 -5 0 0 -5 0 -350 0 0c2,-19 6,-40 13,-61 7,-20 18,-39 34,-53zm81 -35c-21,9 -49,21 -73,43 -15,13 -25,30 -32,49 -7,19 -10,40 -12,58l0 343 320 0 0 -289 -1 0 0 0 0 0 0 0 0 0 0 -1 0 0 0 -2 0 0 1 -2 0 0 0 -22 0 0c-1,-21 -4,-53 -14,-82 -7,-20 -17,-39 -32,-52 -25,-22 -52,-34 -74,-43 -19,-9 -34,-15 -41,-25 -8,10 -23,17 -42,25z"/>
    <path class="fil2" d="M28355 13185c50,-44 109,-49 118,-74l2 0c8,25 67,30 117,74 39,34 47,101 48,138l0 22c0,2 0,3 0,4 0,2 0,2 0,0 0,0 0,-1 0,-2l0 298 -331 0 0 -350c4,-37 16,-83 46,-110z"/>
    <path class="fil1" d="M28351 13181c26,-23 54,-35 77,-45 21,-9 36,-16 39,-26l2 -4 4 0 2 0 4 0 1 4c3,10 19,17 39,26 23,10 51,22 77,45 17,14 28,35 35,56 11,31 14,64 15,86l0 0 0 22 0 1 -1 1 1 0 0 298 0 5 -6 0 -331 0 -5 0 0 -5 0 -350 0 0c2,-19 6,-40 13,-61 7,-20 18,-39 34,-53zm81 -35c-21,9 -49,21 -73,43 -15,13 -25,30 -32,49 -7,19 -10,40 -12,58l0 343 320 0 0 -289 -1 0 0 0 0 0 0 0 0 0 0 -1 0 0 0 -2 0 0 1 -2 0 0 0 -22 0 0c-1,-21 -4,-53 -14,-82 -7,-20 -17,-39 -32,-52 -25,-22 -52,-34 -74,-43 -19,-9 -34,-15 -41,-25 -8,10 -23,17 -42,25z"/>
    <path class="fil2" d="M27495 13185c50,-44 109,-49 118,-74l2 0c8,25 67,30 117,74 39,34 47,101 48,138l0 22c0,2 0,3 0,4 0,2 0,2 0,0 0,0 0,-1 0,-2l0 298 -331 0 0 -350c4,-37 16,-83 46,-110z"/>
    <path class="fil1" d="M27491 13181c26,-23 54,-35 77,-45 21,-9 36,-16 39,-26l2 -4 4 0 2 0 4 0 1 4c3,10 19,17 39,26 23,10 51,22 77,45 17,14 28,35 35,56 11,31 14,64 15,86l0 0 0 22 0 1 -1 1 1 0 0 298 0 5 -6 0 -331 0 -5 0 0 -5 0 -350 0 0c2,-19 6,-40 13,-61 7,-20 18,-39 34,-53zm81 -35c-21,9 -49,21 -73,43 -15,13 -25,30 -32,49 -7,19 -10,40 -12,58l0 343 320 0 0 -289 -1 0 0 0 0 0 0 0 0 0 0 -1 0 0 0 -2 0 0 1 -2 0 0 0 -22 0 0c-1,-21 -4,-53 -14,-82 -7,-20 -17,-39 -32,-52 -25,-22 -52,-34 -74,-43 -19,-9 -34,-15 -41,-25 -8,10 -23,17 -42,25z"/>
    <path class="fil2" d="M26625 13185c50,-44 109,-49 118,-74l2 0c8,25 67,30 117,74 39,34 47,101 48,138l0 22c0,2 0,3 0,4 0,2 0,2 0,0 0,0 0,-1 0,-2l0 298 -331 0 0 -350c4,-37 16,-83 46,-110z"/>
    <path class="fil1" d="M26621 13181c26,-23 54,-35 77,-45 21,-9 36,-16 39,-26l2 -4 4 0 2 0 4 0 1 4c3,10 19,17 39,26 23,10 51,22 77,45 17,14 28,35 35,56 11,31 14,64 15,86l0 0 0 22 0 1 -1 1 1 0 0 298 0 5 -6 0 -331 0 -5 0 0 -5 0 -350 0 0c2,-19 6,-40 13,-61 7,-20 18,-39 34,-53zm81 -35c-21,9 -49,21 -73,43 -15,13 -25,30 -32,49 -7,19 -10,40 -12,58l0 343 320 0 0 -289 -1 0 0 0 0 0 0 0 0 0 0 -1 0 0 0 -2 0 0 1 -2 0 0 0 -22 0 0c-1,-21 -4,-53 -14,-82 -7,-20 -17,-39 -32,-52 -25,-22 -52,-34 -74,-43 -19,-9 -34,-15 -41,-25 -8,10 -23,17 -42,25z"/>
    <path class="fil2" d="M25765 13185c50,-44 109,-49 118,-74l2 0c8,25 67,30 117,74 39,34 47,101 48,138l0 22c0,2 0,3 0,4 0,2 0,2 0,0 0,0 0,-1 0,-2l0 298 -331 0 0 -350c4,-37 16,-83 46,-110z"/>
    <path class="fil1" d="M25761 13181c26,-23 54,-35 77,-45 21,-9 36,-16 39,-26l2 -4 4 0 2 0 4 0 1 4c3,10 19,17 39,26 23,10 51,22 77,45 17,14 28,35 35,56 11,31 14,64 15,86l0 0 0 22 0 1 -1 1 1 0 0 298 0 5 -6 0 -331 0 -5 0 0 -5 0 -350 0 0c2,-19 6,-40 13,-61 7,-20 18,-39 34,-53zm81 -35c-21,9 -49,21 -73,43 -15,13 -25,30 -32,49 -7,19 -10,40 -12,58l0 343 320 0 0 -289 -1 0 0 0 0 0 0 0 0 0 0 -1 0 0 0 -2 0 0 1 -2 0 0 0 -22 0 0c-1,-21 -4,-53 -14,-82 -7,-20 -17,-39 -32,-52 -25,-22 -52,-34 -74,-43 -19,-9 -34,-15 -41,-25 -8,10 -23,17 -42,25z"/>
    <path class="fil2" d="M22295 13185c50,-44 109,-49 118,-74l2 0c8,25 67,30 117,74 39,34 47,101 48,138l0 22c0,2 0,3 0,4 0,2 0,2 0,0 0,0 0,-1 0,-2l0 298 -331 0 0 -350c4,-37 16,-83 46,-110z"/>
    <path class="fil1" d="M22291 13181c26,-23 54,-35 77,-45 21,-9 36,-16 39,-26l2 -4 4 0 2 0 4 0 1 4c3,10 19,17 39,26 23,10 51,22 77,45 17,14 28,35 35,56 11,31 14,64 15,86l0 0 0 22 0 1 -1 1 1 0 0 298 0 5 -6 0 -331 0 -5 0 0 -5 0 -350 0 0c2,-19 6,-40 13,-61 7,-20 18,-39 34,-53zm81 -35c-21,9 -49,21 -73,43 -15,13 -25,30 -32,49 -7,19 -10,40 -12,58l0 343 320 0 0 -289 -1 0 0 0 0 0 0 0 0 0 0 -1 0 0 0 -2 0 0 1 -2 0 0 0 -22 0 0c-1,-21 -4,-53 -14,-82 -7,-20 -17,-39 -32,-52 -25,-22 -52,-34 -74,-43 -19,-9 -34,-15 -41,-25 -8,10 -23,17 -42,25z"/>
    <path class="fil2" d="M21435 13185c50,-44 109,-49 118,-74l2 0c8,25 67,30 117,74 39,34 47,101 48,138l0 22c0,2 0,3 0,4 0,2 0,2 0,0 0,0 0,-1 0,-2l0 298 -331 0 0 -350c4,-37 16,-83 46,-110z"/>
    <path class="fil1" d="M21431 13181c26,-23 54,-35 77,-45 21,-9 36,-16 39,-26l2 -4 4 0 2 0 4 0 1 4c3,10 19,17 39,26 23,10 51,22 77,45 17,14 28,35 35,56 11,31 14,64 15,86l0 0 0 22 0 1 -1 1 1 0 0 298 0 5 -6 0 -331 0 -5 0 0 -5 0 -350 0 0c2,-19 6,-40 13,-61 7,-20 18,-39 34,-53zm81 -35c-21,9 -49,21 -73,43 -15,13 -25,30 -32,49 -7,19 -10,40 -12,58l0 343 320 0 0 -289 -1 0 0 0 0 0 0 0 0 0 0 -1 0 0 0 -2 0 0 1 -2 0 0 0 -22 0 0c-1,-21 -4,-53 -14,-82 -7,-20 -17,-39 -32,-52 -25,-22 -52,-34 -74,-43 -19,-9 -34,-15 -41,-25 -8,10 -23,17 -42,25z"/>
    <path class="fil2" d="M20565 13185c50,-44 109,-49 118,-74l2 0c8,25 67,30 117,74 39,34 47,101 48,138l0 22c0,2 0,3 0,4 0,2 0,2 0,0 0,0 0,-1 0,-2l0 298 -331 0 0 -350c4,-37 16,-83 46,-110z"/>
    <path class="fil1" d="M20561 13181c26,-23 54,-35 77,-45 21,-9 36,-16 39,-26l2 -4 4 0 2 0 4 0 1 4c3,10 19,17 39,26 23,10 51,22 77,45 17,14 28,35 35,56 11,31 14,64 15,86l0 0 0 22 0 1 -1 1 1 0 0 298 0 5 -6 0 -331 0 -5 0 0 -5 0 -350 0 0c2,-19 6,-40 13,-61 7,-20 18,-39 34,-53zm81 -35c-21,9 -49,21 -73,43 -15,13 -25,30 -32,49 -7,19 -10,40 -12,58l0 343 320 0 0 -289 -1 0 0 0 0 0 0 0 0 0 0 -1 0 0 0 -2 0 0 1 -2 0 0 0 -22 0 0c-1,-21 -4,-53 -14,-82 -7,-20 -17,-39 -32,-52 -25,-22 -52,-34 -74,-43 -19,-9 -34,-15 -41,-25 -8,10 -23,17 -42,25z"/>
    <path class="fil2" d="M19705 13185c50,-44 109,-49 118,-74l2 0c8,25 67,30 117,74 39,34 47,101 48,138l0 22c0,2 0,3 0,4 0,2 0,2 0,0 0,0 0,-1 0,-2l0 298 -331 0 0 -350c4,-37 16,-83 46,-110z"/>
    <path class="fil1" d="M19701 13181c26,-23 54,-35 77,-45 21,-9 36,-16 39,-26l2 -4 4 0 2 0 4 0 1 4c3,10 19,17 39,26 23,10 51,22 77,45 17,14 28,35 35,56 11,31 14,64 15,86l0 0 0 22 0 1 -1 1 1 0 0 298 0 5 -6 0 -331 0 -5 0 0 -5 0 -350 0 0c2,-19 6,-40 13,-61 7,-20 18,-39 34,-53zm81 -35c-21,9 -49,21 -73,43 -15,13 -25,30 -32,49 -7,19 -10,40 -12,58l0 343 320 0 0 -289 -1 0 0 0 0 0 0 0 0 0 0 -1 0 0 0 -2 0 0 1 -2 0 0 0 -22 0 0c-1,-21 -4,-53 -14,-82 -7,-20 -17,-39 -32,-52 -25,-22 -52,-34 -74,-43 -19,-9 -34,-15 -41,-25 -8,10 -23,17 -42,25z"/>
    <path class="fil2" d="M24885 13185c50,-44 109,-49 118,-74l2 0c8,25 67,30 117,74 39,34 47,101 48,138l0 22c0,2 0,3 0,4 0,2 0,2 0,0 0,0 0,-1 0,-2l0 298 -331 0 0 -350c4,-37 16,-83 46,-110z"/>
    <path class="fil1" d="M24881 13181c26,-23 54,-35 77,-45 21,-9 36,-16 39,-26l2 -4 4 0 2 0 4 0 1 4c3,10 19,17 39,26 23,10 51,22 77,45 17,14 28,35 35,56 11,31 14,64 15,86l0 0 0 22 0 1 -1 1 1 0 0 298 0 5 -6 0 -331 0 -5 0 0 -5 0 -350 0 0c2,-19 6,-40 13,-61 7,-20 18,-39 34,-53zm81 -35c-21,9 -49,21 -73,43 -15,13 -25,30 -32,49 -7,19 -10,40 -12,58l0 343 320 0 0 -289 -1 0 0 0 0 0 0 0 0 0 0 -1 0 0 0 -2 0 0 1 -2 0 0 0 -22 0 0c-1,-21 -4,-53 -14,-82 -7,-20 -17,-39 -32,-52 -25,-22 -52,-34 -74,-43 -19,-9 -34,-15 -41,-25 -8,10 -23,17 -42,25z"/>
    <path class="fil2" d="M24015 13185c50,-44 109,-49 118,-74l2 0c8,25 67,30 117,74 39,34 47,101 48,138l0 22c0,2 0,3 0,4 0,2 0,2 0,0 0,0 0,-1 0,-2l0 298 -331 0 0 -350c4,-37 16,-83 46,-110z"/>
    <path class="fil1" d="M24011 13181c26,-23 54,-35 77,-45 21,-9 36,-16 39,-26l2 -4 4 0 2 0 4 0 1 4c3,10 19,17 39,26 23,10 51,22 77,45 17,14 28,35 35,56 11,31 14,64 15,86l0 0 0 22 0 1 -1 1 1 0 0 298 0 5 -6 0 -331 0 -5 0 0 -5 0 -350 0 0c2,-19 6,-40 13,-61 7,-20 18,-39 34,-53zm81 -35c-21,9 -49,21 -73,43 -15,13 -25,30 -32,49 -7,19 -10,40 -12,58l0 343 320 0 0 -289 -1 0 0 0 0 0 0 0 0 0 0 -1 0 0 0 -2 0 0 1 -2 0 0 0 -22 0 0c-1,-21 -4,-53 -14,-82 -7,-20 -17,-39 -32,-52 -25,-22 -52,-34 -74,-43 -19,-9 -34,-15 -41,-25 -8,10 -23,17 -42,25z"/>
    <path class="fil2" d="M23155 13185c50,-44 109,-49 118,-74l2 0c8,25 67,30 117,74 39,34 47,101 48,138l0 22c0,2 0,3 0,4 0,2 0,2 0,0 0,0 0,-1 0,-2l0 298 -331 0 0 -350c4,-37 16,-83 46,-110z"/>
    <path class="fil1" d="M23151 13181c26,-23 54,-35 77,-45 21,-9 36,-16 39,-26l2 -4 4 0 2 0 4 0 1 4c3,10 19,17 39,26 23,10 51,22 77,45 17,14 28,35 35,56 11,31 14,64 15,86l0 0 0 22 0 1 -1 1 1 0 0 298 0 5 -6 0 -331 0 -5 0 0 -5 0 -350 0 0c2,-19 6,-40 13,-61 7,-20 18,-39 34,-53zm81 -35c-21,9 -49,21 -73,43 -15,13 -25,30 -32,49 -7,19 -10,40 -12,58l0 343 320 0 0 -289 -1 0 0 0 0 0 0 0 0 0 0 -1 0 0 0 -2 0 0 1 -2 0 0 0 -22 0 0c-1,-21 -4,-53 -14,-82 -7,-20 -17,-39 -32,-52 -25,-22 -52,-34 -74,-43 -19,-9 -34,-15 -41,-25 -8,10 -23,17 -42,25z"/>
   </g>
   <g>
    <polygon class="fil5" points="929,13864 2772,13864 2564,2927 1247,2927 "/>
    <polygon class="fil1" points="1873,13650 1873,2927 1247,2927 929,13864 2772,13864 2768,13650 "/>
    <path class="fil2" d="M1610 601l169 -195c-1,-2 -1,-4 -1,-6 0,-38 20,-70 49,-84 -10,-10 -17,-25 -17,-42 0,-26 15,-47 36,-53l0 -83c-13,-6 -22,-20 -22,-37 0,-22 15,-40 34,-40 19,0 34,18 34,40 0,17 -9,31 -22,37l0 83c21,6 36,27 36,53 0,17 -7,32 -17,42 29,14 49,46 49,84 0,2 0,4 0,6l0 0 194 224 -522 -29z"/>
    <path class="fil4" d="M2274 816c0,156 -186,282 -415,282 -229,0 -415,-126 -415,-282 0,-155 186,-281 415,-281 229,0 415,126 415,281z"/>
    <path class="fil1" d="M1104 1868l0 1123 431 -181 0 -1124 -431 182zm43 514l0 0c1,-70 9,-196 49,-274 51,-103 112,-137 120,-185l2 -1c8,41 69,24 121,83 31,36 43,117 47,183l0 639 -339 143 0 -545c0,1 0,3 0,4 0,-2 0,-4 0,-7l0 -40z"/>
    <path class="fil0" d="M2289 1686l0 1124 431 109 0 -1051 -431 -182zm49 502l0 0c4,-66 16,-147 47,-183 52,-59 112,-42 120,-83l3 1c8,48 68,82 120,185 40,78 48,204 49,274l0 40c0,3 0,5 0,7 0,-1 0,-3 0,-4l0 545 -339 -143 0 -639z"/>
    <path class="fil5" d="M1536 1686l0 1124 753 0 0 -1124 -753 0zm74 532l0 0c3,-69 17,-191 86,-253 90,-81 196,-89 211,-135l3 0c15,46 121,54 211,135 54,48 75,134 82,202l0 639 -593 0 0 -544c1,1 1,2 1,3 0,-1 0,-4 -1,-7l0 -40z"/>
    <path class="fil5" d="M1291 933l0 0c-3,5 -6,9 -9,14l-1 1c-3,5 -5,9 -8,13l-1 3c-3,4 -5,8 -8,12l-1 4c-3,4 -5,8 -7,12l-2 4c-2,3 -5,7 -7,11 0,2 -1,3 -2,5 -2,4 -4,8 -6,12 -1,1 -1,3 -2,4 -2,4 -4,8 -6,12 -1,2 -2,4 -3,6 -1,4 -3,7 -5,11 -1,2 -2,4 -3,7 -1,3 -3,6 -4,10 -1,2 -2,5 -3,7 -2,4 -3,7 -5,11 -1,2 -2,5 -3,7 -1,4 -2,7 -4,11 -1,2 -2,5 -3,8 -1,4 -2,7 -4,10 -1,3 -2,6 -3,9 -1,3 -2,6 -3,10 -1,3 -3,6 -4,10 -1,3 -2,6 -3,9 -1,4 -2,8 -4,12 0,2 -1,5 -2,7 -2,7 -4,14 -6,20 -131,452 114,481 114,481 9,132 251,-101 527,-112 3,-1 6,-1 9,-1l1 0c17,0 33,0 50,0l0 0c268,8 593,127 636,113 94,-30 185,111 136,-328 -55,-496 -465,-757 -753,-757 -218,0 -446,97 -598,332z"/>
    <path class="fil2" d="M950 1666c206,-156 629,-233 939,-233 5,0 10,0 15,0l0 0c5,0 10,0 15,0 310,0 733,77 939,233 15,11 30,22 44,33 0,94 -111,234 -198,169 -251,-116 -475,-153 -785,-153l-11 0 0 0 -4 0 0 0 -4 0 0 0 -11 0c-310,0 -534,37 -785,153 -87,65 -198,-75 -198,-169 14,-11 29,-22 44,-33z"/>
    <path class="fil2" d="M2721 7329c-185,-124 -564,-185 -842,-185 -5,0 -9,0 -13,0l0 0c-5,0 -9,0 -14,0 -277,0 -656,61 -842,185 -13,8 -26,17 -39,26 0,75 100,186 177,134 225,-91 427,-121 704,-121l10 0 0 0 4 0 0 0 3 0 0 0 10 0c278,0 479,30 704,121 78,52 177,-59 177,-134 -13,-9 -26,-18 -39,-26z"/>
    <path class="fil2" d="M2767 11716c-200,-133 -611,-200 -912,-200 -5,0 -9,0 -14,0l0 0c-5,0 -10,0 -15,0 -301,0 -711,67 -912,200 -14,10 -29,20 -43,29 0,81 108,201 192,145 244,-99 462,-131 763,-131l11 0 0 0 4 0 0 0 3 0 0 0 11 0c301,0 519,32 763,131 84,56 192,-64 192,-145 -14,-9 -28,-19 -43,-29z"/>
    <path class="fil3" d="M1155 2880c38,-19 83,-36 133,-51 58,-17 123,-31 190,-43l0 -598 0 0c-3,-37 -7,-78 -16,-113 -7,-27 -17,-50 -29,-64 -25,-28 -52,-38 -74,-46 -17,-7 -31,-12 -40,-22 -8,18 -22,35 -40,56 -22,27 -50,61 -76,112 -16,32 -27,72 -34,112 -10,58 -13,118 -14,159l0 0 0 40 0 0 0 6 0 0 0 0 0 0 0 0 0 452zm138 -35c-55,17 -103,35 -142,56l-13 7 0 -14 0 -469 0 0 0 -3 0 0 0 -40 0 -1c1,-41 4,-102 15,-161 7,-42 19,-83 35,-116 27,-53 56,-88 79,-115 21,-26 37,-46 41,-68l1 -4 4 -2 2 -1 9 -4 2 10c4,16 19,22 39,29 23,9 53,19 80,51 15,16 25,42 33,71 9,36 14,79 16,116l0 1 0 605 0 7 -7 1c-69,12 -135,27 -194,44z"/>
    <path class="fil1" d="M1619 2265l0 501c46,-5 93,-9 138,-12 50,-3 98,-5 143,-5l0 0 12 0 0 0 0 0 0 0 12 0 0 0c43,0 89,2 137,5 44,2 89,6 134,11l0 -598c-4,-37 -12,-80 -28,-118 -12,-30 -29,-58 -52,-78 -44,-40 -93,-62 -132,-80 -34,-15 -61,-27 -74,-46 -13,19 -41,31 -75,46 -39,18 -88,40 -132,80 -34,30 -54,74 -66,120 -12,46 -16,93 -17,127l0 0 0 40 0 0 0 7 0 0zm-17 510l0 -513 0 -1 0 -2 0 -1 0 -40 0 0c1,-35 5,-84 18,-131 13,-48 35,-96 71,-128 46,-42 96,-65 136,-83 38,-17 66,-29 72,-48l2 -6 6 0 3 0 6 0 2 6c6,19 34,32 72,48 40,18 90,41 136,83 25,22 43,51 56,83 17,41 25,85 29,124l1 1 0 607 0 9 -10 -1c-47,-5 -95,-9 -142,-12 -47,-3 -93,-4 -136,-4l0 0 -12 0 0 0 0 0 0 0 -12 0 0 0c-45,0 -93,2 -142,5 -48,2 -97,7 -147,13l-9 1 0 -10z"/>
    <path class="fil5" d="M2346 2188l0 598c67,12 132,26 190,44 50,14 95,31 133,50l0 -452 0 0 0 0 0 0 0 0 0 -6 0 0 0 -40 0 0c-1,-35 -3,-83 -10,-133 -7,-49 -19,-99 -38,-138 -26,-51 -54,-84 -77,-112 -17,-21 -31,-38 -39,-56 -9,10 -23,15 -40,22 -22,8 -49,18 -74,46 -13,14 -22,37 -29,64 -9,35 -14,76 -16,113l0 0zm-17 605l0 -605 0 -1c3,-37 8,-80 17,-116 8,-29 18,-55 33,-71 27,-32 57,-42 80,-51 20,-7 35,-13 38,-29l2 -10 10 4 2 1 4 2 1 4c3,22 20,42 41,68 23,28 52,62 78,115 21,40 33,92 40,143 8,50 10,99 11,134l0 1 0 40 0 0 -1 3 1 0 0 469 0 14 -13 -7c-39,-21 -88,-39 -142,-56 -59,-17 -126,-32 -195,-44l-7 -1 0 -7z"/>
    <path class="fil2" d="M2726 2898c-178,-94 -543,-140 -810,-140 -5,0 -9,0 -13,0l0 0c-4,0 -9,0 -13,0 -267,0 -632,46 -811,140 -12,7 -25,14 -37,21 0,56 95,141 170,101 217,-69 411,-92 678,-92l10 0 0 0 3 0 0 0 3 0 0 0 10 0c267,0 461,23 677,92 75,40 171,-45 171,-101 -12,-7 -25,-14 -38,-21z"/>
    <path class="fil6" d="M1149 1560c117,-41 246,-73 382,-98 -45,-406 0,-665 109,-817 -68,28 -129,64 -185,105 -233,231 -344,498 -306,810z"/>
   </g>
   <g>
    <polygon class="fil5" points="28948,13803 30792,13803 30583,2865 29266,2865 "/>
    <polygon class="fil1" points="29893,13589 29893,2865 29266,2865 28948,13803 30792,13803 30788,13589 "/>
    <path class="fil2" d="M29630 539l168 -194c0,-2 0,-4 0,-6 0,-38 20,-71 48,-85 -10,-10 -16,-25 -16,-41 0,-26 15,-47 35,-53l0 -84c-13,-5 -22,-20 -22,-36 0,-22 15,-40 34,-40 19,0 35,18 35,40 0,16 -9,31 -22,36l0 84c20,6 35,27 35,53 0,16 -6,31 -16,41 28,14 48,47 48,85 0,2 0,4 0,6l0 -1 194 225 -521 -30z"/>
    <path class="fil4" d="M30294 755c0,156 -186,282 -416,282 -229,0 -415,-126 -415,-282 0,-155 186,-281 415,-281 230,0 416,126 416,281z"/>
    <path class="fil1" d="M29123 1806l0 1124 431 -182 0 -1123 -431 181zm43 514l0 0c1,-69 9,-195 49,-274 52,-102 112,-136 121,-185l2 -1c8,42 69,25 120,84 31,36 43,116 47,182l0 640 -339 142 0 -544c0,1 0,2 0,3 0,-1 0,-4 0,-7l0 -40z"/>
    <path class="fil0" d="M30308 1625l0 1123 431 109 0 -1051 -431 -181zm49 501l0 0c4,-66 16,-146 47,-182 52,-59 113,-42 121,-84l2 1c8,49 69,83 120,185 40,79 48,205 50,274l0 40c0,3 -1,6 -1,7 0,-1 1,-2 1,-3l0 544 -340 -142 0 -640z"/>
    <path class="fil5" d="M29555 1625l0 1123 753 0 0 -1123 -753 0zm75 532l0 0c2,-69 16,-191 86,-254 90,-80 196,-89 210,-134l4 0c14,45 120,54 210,134 55,49 75,135 83,203l0 639 -593 0 0 -545c0,2 0,3 0,4 0,-2 0,-4 0,-7l0 -40z"/>
    <path class="fil5" d="M29310 872l0 0c-3,4 -6,9 -9,14l-1 1c-2,4 -5,9 -8,13l-1 3c-2,4 -5,8 -7,12l-2 3c-2,4 -5,8 -7,12l-2 4c-2,4 -4,8 -6,12 -1,2 -2,3 -3,5 -2,3 -3,7 -5,11 -1,2 -2,4 -3,5 -2,4 -4,8 -5,12 -1,2 -2,4 -3,6 -2,3 -4,7 -5,10 -1,3 -2,5 -3,7 -2,4 -3,7 -5,11 -1,2 -2,4 -3,7 -1,3 -3,7 -4,10 -1,3 -2,5 -3,8 -2,3 -3,7 -4,10 -1,3 -2,6 -4,9 -1,3 -2,6 -3,10 -1,3 -2,5 -3,8 -1,4 -3,7 -4,11 -1,3 -2,6 -3,9 -1,3 -2,6 -3,10 -2,4 -3,8 -4,12 -1,2 -2,5 -3,7 -2,7 -4,13 -5,20 -132,452 113,481 113,481 10,131 252,-101 528,-113 3,0 6,0 9,0l1 0c16,-1 33,0 50,0l0 0c267,8 592,127 636,113 94,-30 184,111 136,-329 -55,-496 -465,-757 -753,-757 -218,0 -446,98 -599,333z"/>
    <path class="fil2" d="M28969 1604c207,-155 630,-232 940,-232 5,0 9,0 14,0l1 0c4,0 9,0 14,0 310,0 733,77 940,232 15,11 29,23 44,34 0,94 -111,234 -198,168 -251,-115 -476,-152 -786,-152l-11 0 0 0 -3 0 -1 0 -3 0 0 0 -11 0c-310,0 -535,37 -786,152 -87,66 -198,-74 -198,-168 15,-11 29,-23 44,-34z"/>
    <path class="fil2" d="M30740 7267c-185,-123 -564,-184 -842,-184 -4,0 -9,0 -13,0l0 0c-4,0 -9,0 -13,0 -278,0 -657,61 -842,184 -13,9 -27,18 -39,27 0,75 99,185 177,134 225,-92 426,-122 704,-122l10 0 0 0 3 0 0 0 3 0 0 0 10 0c278,0 479,30 704,122 78,51 177,-59 177,-134 -12,-9 -26,-18 -39,-27z"/>
    <path class="fil2" d="M30787 11655c-201,-134 -612,-200 -913,-200 -4,0 -9,0 -14,0l0 0c-5,0 -9,0 -14,0 -301,0 -712,66 -913,200 -14,9 -28,19 -42,29 0,81 108,201 192,145 244,-99 462,-132 763,-132l10 0 0 0 4 0 0 0 4 0 0 0 10 0c301,0 519,33 763,132 85,56 192,-64 192,-145 -14,-10 -28,-20 -42,-29z"/>
    <path class="fil3" d="M29174 2819c38,-19 84,-36 134,-51 58,-17 122,-32 189,-43l0 -599 0 0c-2,-36 -7,-77 -16,-112 -7,-27 -16,-50 -29,-65 -25,-28 -52,-38 -74,-46 -17,-6 -31,-11 -40,-22 -8,19 -22,36 -39,57 -23,27 -51,61 -76,112 -16,32 -27,71 -34,112 -11,58 -14,118 -15,158l0 0 0 40 0 0 0 7 0 0 0 0 0 0 0 0 0 452zm138 -35c-54,16 -103,35 -142,56l-12 7 0 -14 0 -469 0 0 0 -3 0 -1 0 -40 0 0c0,-41 4,-102 14,-161 8,-42 19,-83 36,-117 26,-52 55,-87 78,-115 21,-26 38,-45 41,-67l1 -5 4 -1 2 -1 10 -4 2 10c3,16 18,21 38,29 24,8 53,19 81,50 14,17 25,43 32,72 10,36 14,78 17,116l0 0 0 606 0 7 -7 1c-69,12 -135,27 -195,44z"/>
    <path class="fil1" d="M29638 2204l0 501c47,-6 93,-10 139,-12 49,-3 97,-5 142,-5l0 0 12 0 0 0 0 0 0 0 12 0 0 0c44,0 90,1 138,4 44,3 88,7 133,12l0 -598c-4,-37 -12,-80 -28,-119 -12,-30 -29,-57 -51,-77 -45,-40 -94,-62 -133,-80 -34,-15 -61,-28 -74,-46 -13,18 -40,31 -74,46 -40,18 -88,40 -133,80 -33,29 -53,74 -65,120 -13,46 -17,93 -18,127l0 0 0 40 0 0 1 7 -1 0zm-17 510l0 -514 1 0 0 -3 -1 0 0 -40 1 0c1,-35 5,-84 17,-131 13,-49 35,-96 71,-129 47,-41 97,-64 137,-82 37,-17 65,-30 71,-48l2 -6 6 0 4 0 6 0 2 6c6,18 34,31 71,48 40,18 90,41 137,82 25,23 43,52 56,84 16,40 25,85 29,124l0 1 0 607 0 9 -9 -1c-48,-5 -96,-9 -142,-12 -47,-3 -93,-4 -137,-4l0 0 -12 0 0 0 0 0 0 0 -12 0 0 0c-45,0 -92,1 -141,4 -48,3 -98,7 -147,13l-10 1 0 -9z"/>
    <path class="fil5" d="M30366 2126l0 599c67,12 131,26 189,43 50,15 95,32 133,51l0 -452 0 0 0 0 0 0 0 0 0 -7 0 0 0 -40 0 0c0,-34 -3,-82 -10,-132 -7,-49 -19,-100 -38,-138 -26,-51 -54,-85 -76,-112 -18,-21 -32,-38 -40,-57 -9,11 -23,16 -40,22 -22,8 -49,18 -73,46 -13,15 -23,38 -29,65 -9,35 -14,76 -16,112l0 0zm-17 606l0 -606 0 0c2,-38 7,-80 16,-116 8,-29 18,-55 33,-72 27,-31 57,-42 81,-50 19,-8 35,-13 38,-29l2 -10 9 4 2 1 4 1 1 5c4,22 20,41 42,67 23,28 51,63 78,115 20,41 32,93 40,144 7,50 9,99 10,134l0 0 0 40 0 1 0 3 0 0 0 469 0 14 -12 -7c-40,-21 -88,-40 -143,-56 -59,-17 -125,-32 -194,-44l-7 -1 0 -7z"/>
    <path class="fil2" d="M30746 2837c-179,-94 -543,-141 -811,-141 -4,0 -8,0 -13,0l0 0c-4,0 -8,0 -12,0 -268,0 -633,47 -811,141 -13,7 -26,13 -38,20 0,57 96,141 171,102 216,-70 410,-92 678,-92l9 0 0 0 3 0 0 0 4 0 0 0 9 0c268,0 461,22 678,92 75,39 171,-45 171,-102 -13,-7 -25,-13 -38,-20z"/>
    <path class="fil6" d="M29168 1499c118,-42 246,-73 382,-98 -44,-407 0,-666 110,-817 -69,28 -130,63 -185,105 -233,230 -344,498 -307,810z"/>
   </g>
   <g>
    <polygon class="fil7" points="31640,14130 0,14130 0,13621 31640,13621 "/>
   </g>
  </g>
 </g>
</svg>
