<?xml version="1.0" encoding="UTF-8"?>
<!DOCTYPE svg PUBLIC "-//W3C//DTD SVG 1.1//EN" "http://www.w3.org/Graphics/SVG/1.1/DTD/svg11.dtd">
<!-- Creator: CorelDRAW X7 -->
<svg xmlns="http://www.w3.org/2000/svg" xml:space="preserve" width="100%" height="100%" version="1.1" style="shape-rendering:geometricPrecision; text-rendering:geometricPrecision; image-rendering:optimizeQuality; fill-rule:evenodd; clip-rule:evenodd"
viewBox="0 0 1170 1343"
 xmlns:xlink="http://www.w3.org/1999/xlink">
 <defs>
  <style type="text/css">
   <![CDATA[
    .fil4 {fill:black}
    .fil2 {fill:#292929}
    .fil0 {fill:#898989}
    .fil5 {fill:#C47D01}
    .fil6 {fill:#D9A22E}
    .fil1 {fill:#F8BB05}
    .fil3 {fill:#FEE555}
    .fil7 {fill:#FFCC31}
   ]]>
  </style>
 </defs>
 <g id="Layer_x0020_1">
  <metadata id="CorelCorpID_0Corel-Layer"/>
  <g id="_1072699209696">
   <rect class="fil0" x="85" y="2" width="992" height="229" rx="119" ry="105"/>
   <path class="fil1" d="M108 1018c157,1 314,2 472,2 80,0 159,0 239,0 71,0 170,4 236,-2 -1,-11 1,-24 -3,-43 36,0 67,1 91,-12 33,-18 27,-35 24,-75 -3,-29 -11,-177 -18,-190l-115 14 0 68c7,14 7,42 8,60l-185 17 4 82c-17,12 -38,34 -51,39 -14,-9 -39,-27 -53,-33l-7 -81 -341 0 -3 78c-18,8 -38,27 -55,35 -18,-11 -35,-27 -52,-39l6 -81 -184 -20 1 -38 4 -87 -102 -13c-21,-6 17,7 -6,-2l-5 -3c-2,4 -1,0 -2,8 0,8 0,5 1,11 5,35 -7,129 -9,169 -2,51 -22,93 105,93l0 43z"/>
   <polygon class="fil2" points="389,1343 774,1343 774,1062 389,1063 "/>
   <path class="fil3" d="M829 817l1 3c27,-5 73,-5 104,-8 34,-3 67,-7 100,-14l0 -18 0 -68 -2 -5c0,-1 -3,-2 -3,-23 -1,-41 4,-27 -3,-96 -2,-19 -4,-40 -7,-59 -1,-10 -3,-20 -4,-31 -1,-4 -3,-11 -3,-14 0,-2 0,-5 0,-6 1,-6 0,-3 2,-6 -8,-16 -10,-41 -16,-61 -6,-21 -10,-39 -18,-58 -14,-35 -33,-72 -60,-93l-104 3 38 554 -25 0z"/>
   <path class="fil3" d="M150 472c-1,27 -10,70 -13,99 -4,33 -6,66 -9,99l-2 42 -4 87 180 14 1 -8 37 -542 -101 -3c-31,9 -49,57 -60,89 -12,38 -23,81 -29,123z"/>
   <path class="fil2" d="M405 590c10,-10 164,-93 170,-95 12,-3 31,12 43,19 26,14 114,60 126,73 -14,14 -62,37 -83,50 -104,63 -63,55 -170,0 -20,-10 -72,-34 -86,-47zm202 -104c7,-8 4,-5 14,-11l52 -31c19,-12 51,-34 70,-41l11 159c-21,-8 -136,-65 -147,-76zm-201 76l7 -159c21,8 128,64 140,76 -16,16 -51,31 -73,43 -25,14 -50,30 -74,40zm-66 98l58 3 4 -48c20,8 136,71 147,83 -10,10 -141,85 -160,93l0 -21 -56 -3 -2 47 0 9 54 -2 3 -5c1,-1 0,-3 0,-4 32,-11 179,-101 194,-99 10,2 139,76 169,91 19,10 16,6 23,17l56 -1 -1 -3 -3 -47 -28 1 -28 -2 1 22c-27,-12 -54,-31 -81,-47 -17,-10 -71,-39 -80,-50 12,-12 129,-74 150,-83l4 51 55 -3 -28 -426 -54 0 3 150c-26,10 -152,83 -166,81 -12,-2 -137,-77 -161,-88l13 -145 -61 -1 -25 430z"/>
   <path class="fil4" d="M104 1062l208 1 0 277c12,1 16,3 29,3l46 0 2 0 0 -280 385 -1 0 281 48 0c10,0 20,-1 28,-3 -3,-9 -1,-243 1,-277 68,-3 133,-3 208,0 0,-21 -2,-30 -4,-45 -66,6 -165,2 -236,2 -80,0 -159,0 -239,0 -158,0 -315,-1 -472,-2 -2,15 -4,24 -4,44z"/>
   <path class="fil2" d="M850 1340c31,-3 69,-19 91,-31 86,-50 127,-143 118,-246 -75,-3 -140,-3 -208,0 -2,34 -4,268 -1,277z"/>
   <path class="fil5" d="M830 820l6 106 -28 21 -30 -19 -4 -105 -35 0 -293 -4 -49 -2 -13 0c-5,27 -1,89 -2,114l-31 16 -24 -24 4 -109 0 0c-16,0 -16,0 -29,-5l-180 -10 -1 38 184 20 -6 81c17,12 34,28 52,39 17,-8 37,-27 55,-35l3 -78 341 0 7 81c14,6 39,24 53,33 13,-5 34,-27 51,-39l-4 -82 185 -17c-1,-18 -1,-46 -8,-60l0 18c-33,7 -66,11 -100,14 -31,3 -77,3 -104,8z"/>
   <path class="fil2" d="M312 1340l0 -277 -208 -1c-4,34 2,87 8,107 10,29 25,61 43,82 38,42 99,88 157,89z"/>
   <path class="fil3" d="M437 368c23,10 130,76 140,78 13,1 119,-68 142,-78l-11 -105 -264 0 -7 105z"/>
   <path class="fil6" d="M444 263l264 0 11 105c-23,10 -129,79 -142,78 -10,-2 -117,-68 -140,-78l7 -105zm293 -30l-311 -2 -13 145c24,11 149,86 161,88 14,2 140,-71 166,-81l-3 -150z"/>
   <path class="fil3" d="M444 587c6,5 128,73 134,74 8,1 120,-64 131,-74 -11,-12 -48,-29 -65,-37 -88,-45 -46,-46 -133,-1 -18,9 -56,25 -67,38z"/>
   <path class="fil7" d="M1034 712l-2 -43 113 -6c6,-2 6,-3 15,-3 0,-27 -2,-57 -8,-77 -14,-45 -69,-71 -111,-96 -8,-5 -18,-12 -27,-15 -2,3 -1,0 -2,6 0,1 0,4 0,6 0,3 2,10 3,14 1,11 3,21 4,31 3,19 5,40 7,59 7,69 2,55 3,96 0,21 3,22 3,23l2 5z"/>
   <path class="fil7" d="M15 660c3,-2 96,9 113,10 3,-33 5,-66 9,-99 3,-29 12,-72 13,-99 -19,5 -89,52 -108,66 -32,24 -36,56 -39,94 -1,25 -7,26 12,28z"/>
   <path class="fil6" d="M239 260l101 3 -37 542 -1 8c13,2 13,1 29,1l2 -47c-16,-8 -10,-24 -8,-45 1,-20 1,-40 5,-59l10 -3 25 -430 -4 0 -13 0 -88 0c-8,13 -13,17 -21,30z"/>
   <polygon class="fil4" points="348,230 361,230 364,2 295,2 295,231 "/>
   <polygon class="fil4" points="798,233 864,229 868,0 799,2 "/>
   <path class="fil6" d="M819 659c26,1 19,19 20,45 1,61 9,62 -20,64 -12,1 -11,-1 -21,3l28 -1 4 50 24 -3 -38 -554 104 -3c-9,-12 -18,-12 -28,-27l-101 0 28 426z"/>
   <path class="fil3" d="M446 819l293 4c-14,-13 -128,-71 -155,-85 -16,-8 -24,1 -38,9 -12,8 -26,15 -38,22 -25,14 -52,33 -78,44l16 6z"/>
   <path class="fil6" d="M444 587c11,-13 49,-29 67,-38 87,-45 45,-44 133,1 17,8 54,25 65,37 -11,10 -123,75 -131,74 -6,-1 -128,-69 -134,-74zm-39 3c14,13 66,37 86,47 107,55 66,63 170,0 21,-13 69,-36 83,-50 -12,-13 -100,-59 -126,-73 -12,-7 -31,-22 -43,-19 -6,2 -160,85 -170,95z"/>
   <path class="fil6" d="M736 639l6 110 -98 -60 92 -50zm34 130c-11,-10 -8,-33 -9,-52 0,-19 -3,-39 3,-55l-4 -51c-21,9 -138,71 -150,83 9,11 63,40 80,50 27,16 54,35 81,47l-1 -22z"/>
   <path class="fil6" d="M418 746l2 -96c20,7 81,35 94,48l-96 48zm-20 -83l8 6 -6 98 -11 3 0 21c19,-8 150,-83 160,-93 -11,-12 -127,-75 -147,-83l-4 48z"/>
   <path class="fil6" d="M432 527l2 -89 78 39 -80 50zm-26 35c24,-10 49,-26 74,-40 22,-12 57,-27 73,-43 -12,-12 -119,-68 -140,-76l-7 159z"/>
   <path class="fil6" d="M726 438l-2 89 -83 -49 85 -40zm-119 48c11,11 126,68 147,76l-11 -159c-19,7 -51,29 -70,41l-52 31c-10,6 -7,3 -14,11z"/>
   <path class="fil6" d="M397 817l49 2 -16 -6c26,-11 53,-30 78,-44 12,-7 26,-14 38,-22 14,-8 22,-17 38,-9 27,14 141,72 155,85l35 0 0 -2c-7,-11 -4,-7 -23,-17 -30,-15 -159,-89 -169,-91 -15,-2 -162,88 -194,99l0 4c0,1 -2,1 0,1 2,0 5,0 9,0z"/>
   <polygon class="fil4" points="830,820 774,821 774,823 778,928 808,947 836,926 "/>
   <path class="fil4" d="M388 816l-57 -2 -4 109 24 24 31 -16c1,-25 6,-89 6,-115z"/>
   <path class="fil3" d="M778 694l44 -1 0 45 -44 1 0 -45zm-14 -32c-6,16 -3,36 -3,55 1,19 -2,42 9,52l28 2c10,-4 9,-2 21,-3 29,-2 21,-3 20,-64 -1,-26 6,-44 -20,-45l-55 3z"/>
   <path class="fil3" d="M344 692l45 3 -4 44 -45 -3 4 -44zm-11 75l56 3 11 -3 6 -98 -8 -6 -58 -3 -10 3c-4,19 -4,39 -5,59 -2,21 -8,37 8,45z"/>
   <polygon class="fil3" points="644,689 742,749 736,639 "/>
   <path class="fil3" d="M514 698c-13,-13 -74,-41 -94,-48l-2 96 96 -48z"/>
   <path class="fil5" d="M13 694l5 3c23,9 -15,-4 6,2l102 13 2 -42c-17,-1 -110,-12 -113,-10l-2 34z"/>
   <path class="fil5" d="M1034 712l115 -14c0,-19 1,-20 -4,-35l-113 6 2 43z"/>
   <polygon class="fil3" points="641,478 724,527 726,438 "/>
   <polygon class="fil3" points="512,477 434,438 432,527 "/>
   <polygon class="fil2" points="340,736 385,739 389,695 344,692 "/>
   <polygon class="fil2" points="778,739 822,738 822,693 778,694 "/>
  </g>
 </g>
</svg>
