<?xml version="1.0" encoding="UTF-8"?>
<!DOCTYPE svg PUBLIC "-//W3C//DTD SVG 1.1//EN" "http://www.w3.org/Graphics/SVG/1.1/DTD/svg11.dtd">
<!-- Creator: CorelDRAW X7 -->
<svg xmlns="http://www.w3.org/2000/svg" xml:space="preserve" width="100%" height="100%" version="1.1" style="shape-rendering:geometricPrecision; text-rendering:geometricPrecision; image-rendering:optimizeQuality; fill-rule:evenodd; clip-rule:evenodd"
viewBox="0 0 1240 727"
 xmlns:xlink="http://www.w3.org/1999/xlink">
 <defs>
  <style type="text/css">
   <![CDATA[
    .fil3 {fill:#FEFEFE}
    .fil0 {fill:#3497DA}
    .fil2 {fill:#BEC3C7}
    .fil1 {fill:white}
   ]]>
  </style>
 </defs>
 <g id="Layer_x0020_1">
  <metadata id="CorelCorpID_0Corel-Layer"/>
  <g id="_1072696998512">
   <path class="fil0" d="M670 465l2 55 -99 2 2 -35 95 -22zm90 262l-667 0c-8,0 -13,0 -15,0 -9,-2 -27,-9 -34,-13 -38,-25 -44,-57 -44,-102l3 -95c4,-90 -19,-192 44,-248 67,-59 150,-42 248,-42l17 0 0 500 18 0 0 -500 7 0 23 0 0 500 125 0 0 -320 275 0 0 320z"/>
   <path class="fil0" d="M935 725c57,0 151,-2 205,2l1 0 10 0c18,-1 35,-7 46,-13 40,-22 43,-56 43,-94l0 -257c0,-10 -1,-16 -1,-20 -8,-40 -27,-65 -55,-84 -25,-17 -67,-32 -106,-32 -47,0 -94,0 -141,0l-2 0 0 498z"/>
   <polygon class="fil1" points="760,727 885,725 885,230 760,230 760,385 485,385 485,227 360,227 360,725 485,710 485,407 760,407 "/>
   <polygon class="fil0" points="885,725 917,725 917,227 900,227 485,227 485,385 760,385 760,230 885,230 "/>
   <path class="fil2" d="M295 227l17 0 18 0 7 0c-18,-36 -40,-114 -4,-149 16,-17 24,-14 50,-18 78,-11 158,-19 240,-25l62 -3c58,0 191,-4 228,37 23,24 3,106 -11,136 -6,13 -9,9 -2,22l17 0 18 0 2 0c9,-35 55,-125 17,-181 -27,-39 -82,-46 -133,-46l-46 0 -88 0c-116,0 -294,3 -344,23 -34,14 -62,39 -71,78 -8,34 3,65 13,96 3,9 6,22 10,30z"/>
   <polygon class="fil1" points="917,725 935,725 935,227 917,227 "/>
   <polygon class="fil1" points="330,227 312,227 312,725 330,725 "/>
   <polygon class="fil3" points="575,487 573,522 672,520 670,465 "/>
  </g>
 </g>
</svg>
