<?xml version="1.0" encoding="UTF-8"?>
<!DOCTYPE svg PUBLIC "-//W3C//DTD SVG 1.1//EN" "http://www.w3.org/Graphics/SVG/1.1/DTD/svg11.dtd">
<!-- Creator: CorelDRAW X7 -->
<svg xmlns="http://www.w3.org/2000/svg" xml:space="preserve" width="100%" height="100%" version="1.1" style="shape-rendering:geometricPrecision; text-rendering:geometricPrecision; image-rendering:optimizeQuality; fill-rule:evenodd; clip-rule:evenodd"
viewBox="0 0 667 1640"
 xmlns:xlink="http://www.w3.org/1999/xlink">
 <defs>
  <style type="text/css">
   <![CDATA[
    .fil1 {fill:#111111}
    .fil0 {fill:#7C8A8B}
    .fil2 {fill:#919FA0}
    .fil3 {fill:#D2D8D8}
   ]]>
  </style>
 </defs>
 <g id="Layer_x0020_1">
  <metadata id="CorelCorpID_0Corel-Layer"/>
  <g id="_1072815568016">
   <path class="fil0" d="M518 1380c6,10 21,19 10,36 -8,14 -23,12 -43,12 -38,0 -75,0 -113,1 -29,0 -210,4 -221,-1 -10,-5 -22,-19 -13,-35 8,-16 21,-13 42,-13l338 0zm149 101l0 21c0,5 -1,9 -2,14 -13,65 -49,54 -98,54l-45 0 -380 0 -45 0c-42,2 -95,1 -97,-54l0 -30 2 -581c1,-44 -5,-111 1,-152 10,-78 81,-143 162,-143l340 0c32,0 44,1 67,10 18,8 32,18 46,32 20,21 44,67 44,108 0,102 3,199 3,302 0,102 0,204 0,305 0,25 -2,54 0,78 0,11 2,23 2,36zm-149 -184c6,11 21,19 10,37 -8,14 -23,11 -43,11 -38,1 -75,1 -113,1 -29,0 -210,4 -221,0 -10,-5 -22,-20 -13,-35 8,-17 21,-14 42,-14l338 0zm0 -82c6,10 21,19 10,36 -8,14 -23,12 -43,12 -50,0 -324,4 -334,0 -10,-5 -22,-19 -13,-35 8,-16 21,-13 42,-13l338 0zm0 -75c6,10 21,19 10,36 -8,14 -23,12 -43,12 -50,0 -324,4 -334,0 -10,-5 -22,-19 -13,-35 8,-16 21,-13 42,-13l338 0zm0 -83c3,5 27,25 5,43 -11,9 -47,5 -63,5l-265 2c-27,0 -42,5 -56,-12 -12,-15 2,-38 18,-38l361 0zm0 -82c5,8 12,11 13,21 7,36 -51,27 -71,27l-265 2c-27,0 -42,5 -56,-12 -12,-16 2,-38 18,-38l361 0z"/>
   <path class="fil1" d="M450 587l-233 0 0 -417c0,-50 10,-87 49,-117 35,-27 95,-20 129,2 40,27 55,63 55,110l0 422zm-131 -587l14 0c24,1 55,11 72,19 40,19 74,64 75,111l0 457c26,1 25,3 25,23l-340 0c-6,-32 16,-20 20,-23 0,-33 -3,-64 -3,-95l0 -275c0,-66 -8,-101 30,-154 23,-33 63,-60 107,-63z"/>
   <path class="fil1" d="M567 1570l-45 0c4,18 -4,67 23,70l6 0c23,-3 16,-51 16,-70z"/>
   <path class="fil1" d="M142 1570l-45 0c3,15 1,25 3,42 2,19 11,27 20,28l4 0c9,-1 17,-10 18,-22 1,-14 0,-34 0,-48z"/>
   <path class="fil2" d="M615 1229l2 -440c1,-98 -80,-178 -178,-178l-218 0c-98,0 -178,80 -178,178l0 440 0 233c0,29 24,53 53,53l466 0c29,0 53,-24 53,-53l0 -233z"/>
   <path class="fil3" d="M180 1140c-21,0 -34,-3 -42,13 -9,16 3,30 13,35 10,4 284,0 334,0 20,0 35,2 43,-12 11,-17 -4,-26 -10,-36l-338 0z"/>
   <path class="fil3" d="M180 1215c-21,0 -34,-3 -42,13 -9,16 3,30 13,35 10,4 284,0 334,0 20,0 35,2 43,-12 11,-17 -4,-26 -10,-36l-338 0z"/>
   <path class="fil3" d="M138 1393c-9,16 3,30 13,35 11,5 192,1 221,1 38,-1 75,-1 113,-1 20,0 35,2 43,-12 11,-17 -4,-26 -10,-36l-338 0c-21,0 -34,-3 -42,13z"/>
   <path class="fil3" d="M138 1311c-9,15 3,30 13,35 11,4 192,0 221,0 38,0 75,0 113,-1 20,0 35,3 43,-11 11,-18 -4,-26 -10,-37l-338 0c-21,0 -34,-3 -42,14z"/>
   <path class="fil3" d="M518 975l-361 0c-16,0 -30,22 -18,38 14,17 29,12 56,12l265 -2c20,0 78,9 71,-27 -1,-10 -8,-13 -13,-21z"/>
   <path class="fil3" d="M518 1057l-361 0c-16,0 -30,23 -18,38 14,17 29,12 56,12l265 -2c16,0 52,4 63,-5 22,-18 -2,-38 -5,-43z"/>
  </g>
 </g>
</svg>
