<?xml version="1.0" encoding="UTF-8"?>
<!DOCTYPE svg PUBLIC "-//W3C//DTD SVG 1.1//EN" "http://www.w3.org/Graphics/SVG/1.1/DTD/svg11.dtd">
<!-- Creator: CorelDRAW X7 -->
<svg xmlns="http://www.w3.org/2000/svg" xml:space="preserve" width="100%" height="100%" version="1.1" style="shape-rendering:geometricPrecision; text-rendering:geometricPrecision; image-rendering:optimizeQuality; fill-rule:evenodd; clip-rule:evenodd"
viewBox="0 0 1801 498"
 xmlns:xlink="http://www.w3.org/1999/xlink">
 <defs>
  <style type="text/css">
   <![CDATA[
    .fil0 {fill:#252525}
    .fil1 {fill:#F3F308}
   ]]>
  </style>
 </defs>
 <g id="Layer_x0020_1">
  <metadata id="CorelCorpID_0Corel-Layer"/>
  <g id="_1072397082976">
   <rect class="fil0" width="1801" height="498" rx="256" ry="256"/>
   <path class="fil1" d="M670 325l-31 0 0 -133 -41 0 0 -24 114 0 0 24 -42 0 0 133zm90 3c-17,0 -31,-6 -40,-19 -9,-12 -13,-26 -13,-42 0,-18 5,-32 15,-43 10,-12 23,-18 40,-18 15,0 28,6 38,17 10,11 15,26 15,44 0,18 -5,33 -16,44 -10,11 -23,17 -39,17zm1 -22c17,0 26,-13 26,-39 0,-12 -2,-22 -6,-29 -4,-7 -11,-10 -20,-10 -9,0 -15,4 -20,11 -4,7 -6,16 -6,28 0,13 2,22 7,29 4,7 11,10 19,10zm256 19l-29 0 0 -68 -60 0 0 68 -28 0 0 -157 28 0 0 65 60 0 0 -65 29 0 0 157zm78 3c-17,0 -30,-6 -39,-19 -9,-12 -14,-26 -14,-42 0,-18 5,-32 15,-43 10,-12 24,-18 40,-18 16,0 28,6 38,17 11,11 16,26 16,44 0,18 -6,33 -16,44 -11,11 -24,17 -40,17zm1 -22c18,0 27,-13 27,-39 0,-12 -2,-22 -7,-29 -4,-7 -10,-10 -19,-10 -9,0 -16,4 -20,11 -5,7 -7,16 -7,28 0,13 2,22 7,29 5,7 11,10 19,10zm253 19l-28 0 0 -72c0,-15 -7,-23 -20,-23 -8,0 -14,3 -19,9 -4,5 -7,14 -7,25l0 61 -28 0 0 -72c0,-15 -6,-23 -18,-23 -8,0 -14,3 -20,9 -5,6 -7,15 -7,25l0 61 -28 0 0 -116 26 0 0 25c8,-18 21,-28 39,-28 17,0 28,10 33,28 10,-18 23,-28 39,-28 11,0 20,4 27,11 7,7 11,16 11,26l0 82zm105 -37l24 3c-3,11 -9,20 -18,27 -9,6 -20,10 -34,10 -16,0 -29,-6 -39,-16 -9,-11 -14,-26 -14,-45 0,-17 5,-32 15,-43 9,-12 23,-18 40,-18 17,0 29,6 38,18 9,11 14,26 14,43l0 3 -80 0c0,8 1,15 2,19 2,5 5,9 9,13 5,3 10,5 17,5 13,0 22,-6 26,-19zm-1 -35c-1,-8 -3,-15 -8,-20 -5,-5 -11,-8 -18,-8 -8,0 -14,2 -18,7 -5,5 -8,12 -9,21l53 0z"/>
   <circle class="fil1" cx="249" cy="250" r="202"/>
   <path class="fil0" d="M168 205c-3,1 -5,7 -7,10 -5,10 -9,13 2,16l37 11c4,1 6,1 10,2 4,2 15,6 18,6 -1,2 -4,4 -6,5 -2,2 -4,4 -6,6l-25 20c-4,4 -9,8 -13,11 0,1 -6,5 -6,5 -2,1 -7,0 -9,-1l-26 -4c-4,0 -6,1 -8,3 -1,3 -2,5 -3,7 -6,11 -4,11 8,17 4,3 8,5 12,7 4,2 8,4 12,6 8,4 19,4 26,-1 3,-2 4,-3 7,-5 4,-3 8,-6 13,-9l142 -103c13,-10 33,-20 30,-37 -1,-5 -8,-8 -12,-10 -9,-2 -15,-2 -24,0 -12,2 -27,14 -37,21 -5,4 -11,8 -16,12 -5,4 -4,2 -10,3l-60 1c-6,0 -45,1 -49,1z"/>
  </g>
 </g>
</svg>
