<?xml version="1.0" encoding="UTF-8"?>
<!DOCTYPE svg PUBLIC "-//W3C//DTD SVG 1.1//EN" "http://www.w3.org/Graphics/SVG/1.1/DTD/svg11.dtd">
<!-- Creator: CorelDRAW X7 -->
<svg xmlns="http://www.w3.org/2000/svg" xml:space="preserve" width="100%" height="100%" version="1.1" style="shape-rendering:geometricPrecision; text-rendering:geometricPrecision; image-rendering:optimizeQuality; fill-rule:evenodd; clip-rule:evenodd"
viewBox="0 0 4250 1177"
 xmlns:xlink="http://www.w3.org/1999/xlink">
 <defs>
  <style type="text/css">
   <![CDATA[
    .fil0 {fill:#252525}
    .fil1 {fill:#F3F308}
   ]]>
  </style>
 </defs>
 <g id="Capa_x0020_1">
  <metadata id="CorelCorpID_0Corel-Layer"/>
  <g id="_1025976767104">
   <path class="fil0" d="M604 1l3042 0c333,0 604,263 604,587l0 0c0,325 -271,588 -604,588l-3042 0c-333,0 -604,-263 -604,-588l0 0c0,-324 271,-587 604,-587z"/>
   <circle class="fil1" cx="588" cy="591" r="477"/>
   <path class="fil1" d="M1977 773l-68 0 -146 -247c-3,-4 -6,-10 -11,-19 -3,-3 -6,-9 -11,-18l0 284 -56 0 0 -387 77 0 135 228c2,2 10,16 25,42l0 -270 55 0 0 387zm263 -91l59 8c-8,25 -23,47 -44,64 -22,17 -50,25 -83,25 -40,0 -72,-13 -96,-40 -24,-27 -36,-63 -36,-108 0,-44 12,-79 37,-108 24,-28 57,-42 99,-42 41,0 72,14 94,42 23,28 34,63 34,107l0 8 -197 0c0,19 2,35 6,46 3,12 11,22 22,31 11,9 24,13 41,13 32,0 53,-15 64,-46zm-4 -86c0,-21 -6,-37 -18,-50 -12,-13 -27,-20 -45,-20 -18,0 -33,6 -45,18 -12,13 -19,30 -21,52l129 0zm337 177l-74 0 -60 -104 -67 104 -55 0 95 -147 -82 -139 74 0 47 84 53 -84 54 0 -80 124 95 162zm171 -51l0 51c-19,4 -34,6 -44,6 -18,0 -33,-3 -45,-10 -12,-7 -22,-16 -27,-28 -6,-13 -9,-31 -9,-56l0 -148 -36 0 0 -50 40 0 6 -75 53 -5 0 80 57 0 0 50 -57 0 0 140c0,17 3,30 9,36 7,7 19,10 37,10 5,0 11,0 16,-1z"/>
   <g>
    <path class="fil0" d="M478 588c4,13 0,126 0,146 0,24 0,48 16,56 12,4 133,4 145,0 21,-8 17,-32 17,-56 0,-20 0,-133 0,-146 24,0 80,4 92,-4 9,-4 13,-16 9,-28 0,0 -13,-12 -17,-16 -20,-20 -52,-65 -76,-89 -25,-28 -53,-64 -81,-93l-16 -16c-8,4 -121,137 -142,162 -8,8 -8,12 -16,16l-32 36c-4,12 0,20 4,28 16,8 77,4 97,4l0 0z"/>
    <rect class="fil0" x="481" y="815" width="174.545" height="51.6398" rx="20" ry="20"/>
   </g>
  </g>
 </g>
</svg>
