<?xml version="1.0" encoding="UTF-8"?>
<!DOCTYPE svg PUBLIC "-//W3C//DTD SVG 1.1//EN" "http://www.w3.org/Graphics/SVG/1.1/DTD/svg11.dtd">
<!-- Creator: CorelDRAW X7 -->
<svg xmlns="http://www.w3.org/2000/svg" xml:space="preserve" width="100%" height="100%" version="1.1" style="shape-rendering:geometricPrecision; text-rendering:geometricPrecision; image-rendering:optimizeQuality; fill-rule:evenodd; clip-rule:evenodd"
viewBox="0 0 627 1840"
 xmlns:xlink="http://www.w3.org/1999/xlink">
 <defs>
  <style type="text/css">
   <![CDATA[
    .fil2 {fill:#363636}
    .fil4 {fill:#555555}
    .fil1 {fill:#A1A0A0}
    .fil6 {fill:#E51909}
    .fil3 {fill:#EAEBEB}
    .fil0 {fill:#F21B08}
    .fil5 {fill:#E21909;fill-rule:nonzero}
   ]]>
  </style>
 </defs>
 <g id="Layer_x0020_1">
  <metadata id="CorelCorpID_0Corel-Layer"/>
  <g id="_1072824408592">
   <path class="fil0" d="M250 252l-15 1 -5 0 -7 0c-30,228 -23,561 -20,790 2,134 4,267 8,400 1,66 3,131 6,197l8 142c5,25 9,21 -3,34l-4 4c2,9 4,13 5,20l44 0c11,-1 20,-4 27,-9 8,-8 4,-15 23,-18 3,0 9,0 13,0l82 -3c12,-11 25,-15 32,-32 11,-28 -18,-76 64,-133 6,-4 37,-24 39,-25 26,-27 10,-127 46,-150 0,-210 0,-420 0,-630 0,-107 -3,-206 -3,-310 0,-103 1,-145 -69,-207l-14 -20c-3,7 0,3 -3,5l-67 -32 -2 -3c-16,-1 -26,-7 -42,-9l-111 -14c-13,0 -24,2 -32,2z"/>
   <path class="fil0" d="M187 1819c-16,-3 -15,-162 -15,-182 -6,-395 2,-795 9,-1190 1,-63 9,-152 9,-204 -24,-14 -50,-10 -64,-4 -6,3 -29,21 -34,27 -19,22 -34,48 -45,77 -24,59 -33,193 -34,274l-7 116c0,21 2,43 -1,62 -5,35 -1,84 -5,119l0 361 0 12c0,22 3,34 3,53 2,106 9,309 38,395 9,25 28,61 47,77 28,24 46,28 95,28 2,-8 3,-10 4,-21z"/>
   <path class="fil1" d="M186 253c-8,48 -4,141 -5,194 -7,395 -15,795 -9,1190 0,20 -1,179 15,182l31 1 4 -4c12,-13 8,-9 3,-34l-8 -142c-3,-66 -5,-131 -6,-197 -4,-133 -6,-266 -8,-400 -3,-229 -10,-562 20,-790 -12,-8 -12,-10 -33,-10l-4 10z"/>
   <path class="fil2" d="M230 253l5 0 15 -1 0 -75c0,-23 -2,-55 10,-66 8,-7 96,-37 113,-44 19,-9 40,-12 60,-14 8,16 4,31 4,54 0,17 -6,135 -5,166 0,6 2,1 3,0l2 3 4 -89c1,-45 -1,-31 76,-34 0,-34 13,-99 13,-140 -14,-7 -27,-11 -40,-13l-25 0c-15,2 -30,7 -47,14 -34,16 -67,27 -100,44 -97,49 -88,44 -88,195z"/>
   <path class="fil1" d="M412 1810c23,0 81,2 97,-10 -12,-15 -25,-18 -32,-44 -7,-21 -4,-45 7,-62 21,-33 60,-48 106,-27 0,-16 3,-26 3,-47 0,-33 7,-130 1,-148 0,0 0,-1 -1,-2 -36,23 -20,123 -46,150 -2,1 -33,21 -39,25 -82,57 -53,105 -64,133 -7,17 -20,21 -32,32z"/>
   <path class="fil3" d="M437 276l67 32c3,-2 0,2 3,-5 1,-2 -6,-10 -5,-13 2,-20 -1,-45 15,-137 -77,3 -75,-11 -76,34l-4 89z"/>
   <path class="fil4" d="M536 1685c32,-9 59,14 65,37 10,33 -13,60 -36,66 -68,19 -99,-83 -29,-103zm91 37c3,68 -51,109 -118,78 -13,-13 -25,-18 -32,-44 -7,-21 -4,-45 7,-62 21,-33 60,-48 106,-27 22,14 34,34 37,55z"/>
   <path class="fil3" d="M544 1737c0,-8 11,-10 11,0 0,10 -11,7 -11,0zm-8 -52c-70,20 -39,122 29,103 23,-6 46,-33 36,-66 -6,-23 -33,-46 -65,-37z"/>
   <path class="fil4" d="M282 250l111 14c0,-37 -13,-54 -50,-54 -52,-1 -38,15 -61,40z"/>
   <path class="fil4" d="M544 1737c0,22 0,-23 0,0z"/>
   <g>
    <path class="fil5" d="M351 844c18,74 27,141 26,206 -1,64 -12,127 -35,191 -3,7 -9,13 -17,16 -7,2 -15,3 -22,1 -8,-1 -16,-4 -23,-9 -10,-7 -18,-19 -20,-35l0 -3c12,-59 18,-118 19,-174 2,-56 -3,-111 -13,-165 -5,-20 5,-37 19,-47 5,-4 11,-6 17,-8 6,-1 12,-2 18,-1 14,1 27,10 31,28zm10 205c1,-63 -8,-128 -26,-202 -2,-9 -9,-14 -17,-15 -4,0 -8,0 -12,1 -4,1 -8,3 -11,6 -10,6 -16,17 -13,30l1 0c10,54 14,111 13,168 -1,57 -8,116 -20,176 2,11 7,18 14,23 4,3 10,5 15,6 5,1 10,0 14,-1 4,-1 6,-3 7,-6 22,-62 33,-123 35,-186z"/>
    <path class="fil6" d="M316 882c26,96 28,194 3,297 3,-93 5,-203 -3,-297z"/>
   </g>
   <path class="fil4" d="M534 1693l16 32 17 -31c-11,-5 -22,-6 -33,-1z"/>
   <path class="fil4" d="M580 1702l-20 30 35 -2c-1,-12 -5,-22 -15,-28z"/>
   <path class="fil4" d="M595 1745l-36 -2 19 30c10,-7 16,-16 17,-28z"/>
   <circle class="fil4" cx="550" cy="1737" r="6"/>
   <path class="fil4" d="M565 1780l-16 -32 -17 31c11,6 22,7 33,1z"/>
   <path class="fil4" d="M517 1769l22 -28 -35 -2c0,13 4,23 13,30z"/>
   <path class="fil4" d="M504 1729l36 1 -19 -29c-10,7 -16,16 -17,28z"/>
  </g>
 </g>
</svg>
