<?xml version="1.0" encoding="UTF-8"?>
<!DOCTYPE svg PUBLIC "-//W3C//DTD SVG 1.1//EN" "http://www.w3.org/Graphics/SVG/1.1/DTD/svg11.dtd">
<!-- Creator: CorelDRAW X7 -->
<svg xmlns="http://www.w3.org/2000/svg" xml:space="preserve" width="100%" height="100%" version="1.1" style="shape-rendering:geometricPrecision; text-rendering:geometricPrecision; image-rendering:optimizeQuality; fill-rule:evenodd; clip-rule:evenodd"
viewBox="0 0 1801 498"
 xmlns:xlink="http://www.w3.org/1999/xlink">
 <defs>
  <style type="text/css">
   <![CDATA[
    .fil0 {fill:#252525}
    .fil1 {fill:#F3F308}
   ]]>
  </style>
 </defs>
 <g id="Layer_x0020_1">
  <metadata id="CorelCorpID_0Corel-Layer"/>
  <g id="_1072422809632">
   <rect class="fil0" width="1801" height="498" rx="256" ry="256"/>
   <circle class="fil1" cx="249" cy="250" r="202"/>
   <g>
    <path class="fil0" d="M196 344l107 0c1,0 4,0 5,-1 16,-6 14,-23 14,-36l0 -114c0,-14 2,-25 -9,-33 -5,-4 -8,-3 -10,-4l-107 0c-3,2 -7,1 -13,6 -3,3 -5,8 -6,13 0,4 0,36 0,39l14 0c1,-4 0,-24 0,-30 0,-14 2,-14 16,-14l90 0c4,0 9,1 10,5 1,3 0,69 0,75 0,6 1,72 0,74 0,2 -2,4 -3,5 -2,1 -4,1 -6,1l-90 0c-15,0 -17,1 -17,-14 0,-5 1,-26 0,-30l-14 0c0,3 0,35 0,39 1,6 3,10 6,13 6,6 10,5 13,6z"/>
    <path class="fil0" d="M206 228c-3,1 -31,0 -36,0 -6,0 -12,0 -14,4 -1,3 -1,33 0,36 2,5 8,4 14,4 5,0 33,0 36,0 0,6 -1,20 1,23 1,2 4,3 7,2 0,0 3,-3 4,-4 5,-5 16,-13 22,-19 7,-6 16,-13 23,-20l4 -4c-1,-2 -34,-30 -40,-35 -2,-2 -3,-2 -4,-4l-9 -8c-3,-1 -5,0 -7,1 -2,4 -1,19 -1,24z"/>
   </g>
   <path class="fil1" d="M676 327l-30 0 0 -132 -42 0 0 -25 114 0 0 25 -42 0 0 132zm143 0l-25 0c-2,-7 -4,-15 -4,-24 -7,18 -20,26 -39,26 -12,0 -21,-3 -28,-10 -7,-7 -10,-15 -10,-25 0,-27 23,-40 70,-40 1,0 4,0 7,0l0 -9c0,-12 -8,-18 -25,-18 -15,0 -24,6 -27,18l-22 -3c1,-10 6,-18 15,-24 9,-6 21,-9 38,-9 9,0 16,0 22,2 5,1 10,4 14,7 4,4 7,8 8,12 2,4 2,11 2,21l0 52c0,8 2,16 4,24zm-29 -59c-34,0 -51,8 -51,24 0,5 2,9 5,12 4,4 9,5 16,5 10,0 17,-3 22,-9 5,-6 8,-13 8,-21l0 -11zm164 59l-27 0 -30 -60 -25 29 0 31 -25 0 0 -157 25 0 0 97c2,-2 4,-5 5,-6l46 -50 28 0 -35 38 38 78zm88 -37l23 3c-3,11 -9,19 -17,26 -9,7 -20,10 -34,10 -16,0 -29,-5 -38,-16 -10,-11 -15,-25 -15,-44 0,-17 5,-32 15,-43 10,-12 23,-17 40,-17 16,0 29,5 38,17 9,11 14,25 14,43l-1 3 -79 0c0,8 1,14 2,19 2,5 5,9 9,12 5,4 10,6 17,6 13,0 21,-7 26,-19zm-2 -35c0,-8 -2,-15 -7,-20 -5,-5 -11,-8 -18,-8 -8,0 -14,2 -18,7 -5,5 -8,12 -9,21l52 0zm169 74c-21,0 -37,-8 -48,-23 -12,-16 -18,-35 -18,-58 0,-23 6,-42 19,-57 12,-15 28,-23 48,-23 21,0 37,8 48,23 12,15 18,34 18,57 0,25 -6,44 -18,59 -13,15 -29,22 -49,22zm0 -23c10,0 19,-4 26,-12 7,-9 11,-24 11,-46 0,-18 -3,-32 -9,-42 -6,-10 -15,-15 -27,-15 -24,0 -36,19 -36,58 0,19 3,33 9,43 6,10 15,14 26,14zm121 21l-25 0 0 -96 -17 0 0 -20 17 0 0 -6c0,-11 3,-20 8,-27 6,-7 17,-10 33,-10 3,0 6,0 10,0l0 21c-4,-1 -6,-1 -7,-1 -6,0 -11,1 -14,3 -2,2 -4,4 -4,6 -1,2 -1,7 -1,14l26 0 0 20 -26 0 0 96zm79 0l-25 0 0 -96 -17 0 0 -20 17 0 0 -6c0,-11 3,-20 8,-27 6,-7 17,-10 34,-10 2,0 5,0 9,0l0 21c-3,-1 -6,-1 -7,-1 -6,0 -11,1 -13,3 -3,2 -4,4 -5,6 0,2 -1,7 -1,14l26 0 0 20 -26 0 0 96z"/>
  </g>
 </g>
</svg>
