<?xml version="1.0" encoding="UTF-8"?>
<!DOCTYPE svg PUBLIC "-//W3C//DTD SVG 1.1//EN" "http://www.w3.org/Graphics/SVG/1.1/DTD/svg11.dtd">
<!-- Creator: CorelDRAW X7 -->
<svg xmlns="http://www.w3.org/2000/svg" xml:space="preserve" width="100%" height="100%" version="1.1" style="shape-rendering:geometricPrecision; text-rendering:geometricPrecision; image-rendering:optimizeQuality; fill-rule:evenodd; clip-rule:evenodd"
viewBox="0 0 2807 907"
 xmlns:xlink="http://www.w3.org/1999/xlink"
 baseProfile="tiny"
 enable-background="new 0 0 253.382 55.879">
 <defs>
  <style type="text/css">
   <![CDATA[
    .fil5 {fill:#2B2A29}
    .fil2 {fill:#37A84C}
    .fil1 {fill:#4192CA}
    .fil0 {fill:#E13217}
    .fil3 {fill:#E8740F}
    .fil4 {fill:#FFF100}
   ]]>
  </style>
 </defs>
 <g id="Layer_x0020_1">
  <metadata id="CorelCorpID_0Corel-Layer"/>
  <g id="_1073101416576">
   <g>
    <path class="fil0" d="M380 658c0,1 1,0 1,1 1,4 -1,-1 6,3l41 33c4,2 -1,1 5,1 4,-51 -60,-104 -96,-130 -10,-7 -22,-17 -31,-26 -25,-20 -39,-33 -58,-58l-7 -11c0,0 0,0 0,-1l-3 -4c0,0 0,-1 -1,-1l-9 -20c-6,-6 -11,-33 -13,-44 -5,-37 0,-66 9,-102 11,-43 71,-166 55,-212 -2,-6 -2,-5 -6,-8 -3,3 0,-3 -3,4 -1,0 -2,3 -2,4 0,2 0,6 0,9 -2,17 -18,70 -24,84 -31,66 -72,137 -143,157 -37,11 -89,15 -100,72 -4,24 0,52 8,72 6,-4 8,-25 24,-50 8,-13 24,-26 41,-31 57,-17 102,55 114,101 9,37 1,88 -32,107 -25,15 -30,9 -60,8 7,13 41,32 64,32 13,0 27,-5 39,-9 39,-15 72,-27 118,-12 41,13 37,18 63,31z"/>
    <path class="fil1" d="M463 1c17,23 31,50 22,81 -7,28 -28,48 -46,62 -58,45 -116,42 -147,69 -56,48 -56,143 -32,210 11,29 39,85 70,92 -3,-12 -10,-27 -14,-40 -12,-43 -12,-97 9,-134 30,-56 71,-65 116,-93 63,-41 132,-123 81,-201 -9,-14 -39,-42 -59,-46z"/>
    <path class="fil2" d="M480 416c-1,8 -4,16 -5,24 -2,7 -3,17 -4,25 -4,20 -2,27 2,48 20,99 128,72 89,11 -14,-21 -39,-36 -73,-42 -1,-6 7,-41 10,-45 1,-10 7,-30 10,-42 8,-38 65,-271 65,-286 -3,-2 -4,-4 -9,-6 -7,11 -12,76 -59,123 -23,22 -31,19 -55,34 -18,11 -35,27 -35,57 8,-5 14,-13 22,-19 16,-11 68,-36 78,-37 -1,18 -19,38 -30,45 -10,6 -16,6 -28,10 -55,17 -92,74 -68,103 4,-3 6,-9 9,-16 7,-15 17,-32 30,-42 21,-17 35,-13 55,-19 9,-3 8,-7 15,-7 3,19 -15,61 -19,81z"/>
    <path class="fil3" d="M347 502c5,3 5,3 5,10 4,-1 3,-1 2,2l25 32c19,23 72,70 96,79l-20 -48c-4,-9 -14,-42 -12,-54 -3,-1 -2,5 -2,-4 -1,-46 -3,-65 12,-109 4,-11 10,-21 13,-32 -21,4 -38,21 -47,33 -12,16 -16,35 -14,62 -16,-3 -48,-69 -28,-131 3,-9 5,-14 8,-20 3,-6 8,-13 10,-19 -19,15 -45,53 -55,84 -21,65 5,98 7,115z"/>
    <path class="fil0" d="M154 263c5,-25 -13,-48 -33,-50 -27,-4 -46,11 -50,34 -10,55 71,71 83,16z"/>
    <path class="fil4" d="M294 53c16,28 13,60 6,93 -2,7 -7,23 -7,30 32,-26 34,-23 79,-34 25,-7 68,-21 75,-40 -10,1 -19,5 -28,7 -15,3 -41,0 -60,5 -10,3 -12,7 -20,10 -4,-23 3,-30 -10,-49 -6,-8 -22,-22 -35,-22z"/>
   </g>
   <path class="fil5" d="M777 270l-2 17c0,6 -1,11 -1,17 -8,117 79,170 81,175 0,0 1,0 1,1l10 6c0,0 1,0 1,0l4 3c6,3 0,0 6,2 0,0 0,1 1,1l4 2c5,2 6,2 9,6 5,-1 3,-1 3,1 6,0 3,0 3,2 5,0 5,0 10,2 1,0 2,1 3,1 3,2 2,1 3,3 13,0 47,19 89,13 49,-6 70,-25 80,-25 -1,-3 -1,-2 2,-1 -1,-4 -1,-3 2,-1 -1,-3 -1,-3 2,-2 3,-6 -5,2 1,-2 4,-2 -4,0 4,-1 2,-4 30,-25 36,-32 2,-1 1,-1 2,-2 1,0 1,-1 1,-1l7 -8c1,0 1,0 1,-1l19 -22 38 -78c0,-2 1,-6 2,-7 1,-3 -1,0 1,-3 1,0 1,-1 1,-1 0,-1 1,-1 1,-1 -1,-9 15,-59 7,-99 -1,-9 -5,-24 -5,-31 29,-15 56,-27 92,-37 19,-5 91,-21 109,-7 14,5 14,6 25,17l1 1c12,34 7,65 -2,103 -12,53 -22,86 -37,136 -9,30 -6,28 -24,32 -24,4 -66,11 -91,1 -7,-3 -7,-4 -8,-5 -20,-4 -17,-49 -13,-71 5,-30 15,-44 27,-64 8,-7 11,-11 19,-18 6,-5 13,-10 21,-14 25,-15 60,-28 89,-28 -6,-6 -14,-5 -23,-5 -11,0 -15,1 -26,2 -42,5 -80,39 -99,61 -21,25 -44,63 -56,102 -4,30 -12,61 34,74 9,1 5,0 6,2 25,-3 25,2 71,-6 26,-5 46,-18 58,-20 0,14 -13,34 -14,48 7,-2 20,-14 31,-19 18,-9 35,-10 41,-13l1 -43c14,-11 68,-38 74,-57 -14,7 -52,40 -72,46 -2,-59 39,-200 31,-241 -2,-12 -8,-23 -15,-30 -10,-12 -23,-17 -27,-21l-26 -7c-9,3 -24,-4 -54,1 -16,2 -30,7 -44,12 -20,8 -38,19 -55,30 -4,2 -6,3 -9,5l-8 4 -28 22c-4,2 -4,-5 -4,-9 -3,0 -2,2 -2,-3 -6,-5 -10,-29 -42,-60l-20 -13c14,12 33,62 41,87 6,17 1,9 5,24 4,21 -2,65 -10,85 -8,21 -35,62 -48,79 -10,13 -52,58 -66,60 -2,3 0,0 -3,3l-7 4c-47,24 -91,45 -149,14 -3,-2 -6,-3 -9,-5 -6,-4 -6,-4 -8,-7 -7,-2 -2,0 -4,-4 -3,1 -2,2 -2,-2 -10,-4 -31,-33 -38,-46 -10,-18 -18,-40 -21,-64 -5,-43 11,-111 29,-138 1,-4 0,-3 3,-2 0,-7 -1,-4 3,-7 3,-19 51,-74 71,-91 0,-1 1,-1 1,-1 4,-4 6,-6 10,-6 -1,-4 -2,-3 2,-2 -1,-3 -1,-2 1,-1 2,-3 0,-1 3,-3 0,0 1,0 1,0 0,-1 1,-1 1,-1 3,-4 2,-4 8,-5 2,-2 -1,0 3,-3 5,-3 1,-1 6,-1 2,-5 3,-4 10,-6 17,-14 82,-17 103,-5 6,1 10,2 13,6 4,-1 4,-2 2,1 7,-1 3,-1 4,2 5,-1 2,-2 3,1 6,-1 3,-1 3,2 4,-1 3,-2 3,1 6,0 7,3 14,6 -3,-9 -9,-10 -11,-18 -3,1 -2,2 -1,-2 -4,1 -3,2 -2,-1 -3,1 -2,1 -1,-2 -3,1 -3,1 -2,-2 -3,1 -2,2 -2,-1 -2,0 -2,1 -1,-2 -3,1 -2,1 -2,-2 -3,1 -2,2 -1,-1 -3,0 -3,1 -2,-2 -3,1 -2,1 -2,-1 -3,0 -2,1 -1,-2 -3,1 -3,1 -2,-2 -3,1 -2,2 -1,-1 -4,1 -3,1 -2,-2l-5 -2c0,0 0,0 -1,0l-8 -7c0,0 -1,0 -1,0 0,-1 -1,-1 -1,-1l-3 -3c-11,-1 -16,-12 -58,-10 -20,1 -38,7 -53,14 -51,24 -110,85 -138,133 -8,15 -16,29 -22,46 -11,30 -8,38 -13,54z"/>
   <path class="fil5" d="M1514 113l-5 6c-25,22 -14,15 -25,33 -2,18 -7,28 3,44 8,13 16,15 21,20 2,3 1,0 2,3l4 1c6,1 2,0 3,2 5,0 3,-1 3,2 7,0 8,0 12,4 7,0 -1,-1 4,1 8,3 -4,-5 2,2 2,0 49,8 56,10 18,4 36,8 52,15 -4,7 -13,12 -19,17l-18 13c0,0 -1,1 -1,1 -3,4 -3,5 -9,6 2,4 2,3 -1,2 1,3 1,3 -2,1 1,4 2,3 -2,2 1,3 2,3 -1,1 1,4 1,3 -2,2 -1,4 0,0 -2,3 0,1 -1,2 -2,3 -2,1 -2,2 -4,3 0,3 0,2 -2,2 0,2 0,2 -2,1 0,3 1,2 -2,1 1,3 1,3 -2,2 1,3 1,2 -2,1 1,4 2,3 -1,2 1,3 1,2 -2,1 -1,4 0,2 -2,5 -1,1 -2,2 -3,3l-16 17c6,-2 25,-22 34,-28l2 -1 2 -1c0,-3 -1,-2 2,-2l4 -4 1 -1 3 -1c-1,-3 -1,-2 2,-1 3,-4 0,-3 6,-5 0,-3 -1,-2 2,-1 1,-2 -1,-2 4,-5 3,-2 0,-1 5,-2 -1,-2 -2,-2 1,-1 3,-5 1,-4 8,-5 -1,-3 -1,-3 2,-2 -1,-3 -1,-2 2,-2 3,-5 11,-9 16,-12 6,-4 11,-9 19,-7 6,1 30,17 35,21 38,27 76,93 78,146 1,19 -1,34 -6,50 -3,8 -14,33 -19,34 -7,12 -12,18 -23,28l-52 40c-85,56 -264,59 -360,41 -26,-5 -130,-29 -143,-42l-7 -2 8 6c5,0 43,20 51,24l54 23c5,-1 33,9 41,11 66,17 74,11 140,16 46,2 100,-4 143,-14 10,-2 32,-10 40,-11l24 -13c27,-11 58,-31 78,-50l30 -32c6,-7 11,-13 16,-22l15 -25c0,-4 -1,0 0,-4l5 -15c10,-32 8,-36 6,-64 -6,-68 -74,-132 -132,-160 3,-7 -1,0 3,-4l9 -6c49,-24 174,-76 191,-2 9,38 -28,205 -35,250l-2 12c-1,10 -7,25 0,32 7,6 21,2 29,-1 9,-4 27,-22 40,-30l4 -4c2,-1 1,-1 3,-2l15 -11c3,-5 15,-9 19,-17 -25,0 -45,22 -51,26 -16,9 -3,-28 0,-39 10,-49 12,-75 19,-122 4,-27 6,-58 9,-86 2,-18 10,-72 3,-85 -23,-6 -69,1 -92,4 -53,7 -127,41 -171,71 -6,3 -8,7 -17,5 -14,-3 -32,-11 -56,-16 -34,-7 -86,-4 -81,-63 4,-47 62,-59 89,-48 13,5 17,14 26,22 0,-24 -29,-37 -53,-39 -40,-4 -66,16 -73,16z"/>
   <path class="fil5" d="M2510 305c8,-1 21,-4 30,-5 28,-3 70,-6 95,2 45,16 3,67 -12,85 -19,23 -46,47 -73,65 -8,4 -15,8 -23,13 -7,5 -36,58 -39,65l14 -9c54,-42 115,-90 159,-142 11,-12 25,-30 33,-48 26,-62 -90,-84 -158,-66 -1,-24 20,-91 26,-114 11,-3 31,-6 42,-7 18,-3 68,-6 83,-15 7,-5 24,-14 29,-19 -16,-1 -33,1 -48,1 -33,1 -111,0 -134,14 -4,32 -6,61 -11,92l-13 88z"/>
   <path class="fil5" d="M1949 330c-11,36 2,81 18,106 16,27 40,48 73,61 35,15 77,5 109,-9 83,-35 89,-133 53,-174 -32,-37 -97,-33 -135,-67 -12,-10 -14,-34 -8,-52 10,-30 24,-46 62,-37 8,2 16,7 24,8 -21,-25 -61,-26 -92,-6 -14,8 -26,16 -32,33 -7,19 -1,38 8,51 26,36 48,37 80,47 31,10 62,27 75,51 17,35 -13,98 -68,115 -54,17 -111,18 -141,-27 -27,-42 -22,-90 -26,-100z"/>
   <path class="fil5" d="M2301 523c-1,6 0,2 -2,8 6,3 11,-1 20,-3l26 -12c0,0 1,0 1,0 0,0 1,0 1,-1l41 -20c12,-6 22,-12 34,-17 10,-4 10,-4 12,-14 2,-5 5,-13 5,-18l-28 1c0,-15 13,-65 17,-81 12,-50 23,-112 35,-162l19 -80c-39,2 -94,41 -105,80 14,-5 22,-21 51,-21 -1,29 -42,208 -51,243 -8,37 1,28 -44,43 -10,4 -14,2 -17,12 -3,8 -11,36 -15,42z"/>
   <path class="fil5" d="M2302 150c22,-12 48,-72 48,-113 -8,1 -39,19 -44,23 10,4 17,3 19,15 4,26 -21,65 -23,75z"/>
   <path class="fil5" d="M2070 692c-5,-21 42,-101 47,-83 2,8 -7,16 -8,26 -1,12 3,5 -7,21 -8,13 -19,33 -32,36zm31 -92c1,4 1,3 -3,2 0,4 1,4 -3,2 0,5 1,4 -3,3 1,5 2,3 -3,3 -3,7 -1,3 -6,10 -33,45 -17,66 -40,67 -7,-12 8,-38 16,-52 9,-18 25,-40 -1,-38 -15,13 -30,45 -44,61 6,-27 24,-43 20,-56 -11,1 -13,4 -19,16 -21,43 -15,62 -32,66 -13,-18 24,-59 23,-82l-9 -2c-10,10 -36,74 -54,81 4,-26 20,-52 31,-72 -3,-3 -3,-4 -9,-5 -13,11 -22,34 -30,52 -9,20 -14,42 13,42 3,-4 5,-6 8,-10l10 -11c-1,17 2,23 21,17l1 3c1,0 1,1 1,1 4,9 5,8 14,6 6,-11 20,-50 36,-64 -8,27 -20,39 -11,60 16,4 14,0 28,-6l2 4c12,16 23,6 34,-7 4,3 1,1 4,4l3 2c6,5 11,4 20,-2 8,-6 18,-20 16,-29 -6,3 -1,-1 -7,7 -6,9 -5,13 -17,14 -3,-13 20,-58 27,-75 15,-36 34,-66 7,-58l-18 46c-15,-2 -12,-1 -26,0z"/>
   <path class="fil5" d="M2357 650c0,0 -1,-1 0,-1l0 -6c2,-7 17,-35 26,-38 -1,9 -4,20 -9,30 -5,9 -10,17 -17,15zm-135 38c-5,-11 8,-35 16,-51 15,-29 10,-26 45,-27l-19 54c-11,6 -2,-1 -10,7 -9,9 -17,17 -32,17zm16 -90c-3,2 -1,1 -7,3 -3,2 -3,1 -5,2 -9,4 -6,1 -11,10 6,-2 5,-3 1,3 6,-2 5,-3 2,2l14 -2c-14,35 -19,39 -25,75 4,3 3,0 2,7 7,1 5,0 6,5l19 -1c0,-4 -1,-3 3,-2l9 -7c3,-2 5,-3 7,-5 5,9 1,13 16,14 6,-11 5,-18 14,-26 3,-12 20,-36 28,-44 -8,32 -40,82 16,63 6,7 13,28 38,11 10,-7 31,-32 25,-47 -6,3 -2,0 -7,7 0,0 -3,5 -4,7 -9,14 -22,27 -39,20 -1,-9 2,-21 8,-30l5 -1c16,1 13,3 29,-14 9,-22 25,-49 3,-55 -18,5 -29,25 -39,43 -23,43 -11,53 -35,52 0,-30 24,-56 30,-84 -4,-3 -6,-5 -16,-5 -25,26 -32,47 -44,58 6,-26 37,-82 42,-102l-12 -4c-11,10 -18,34 -26,51 -10,-2 -3,-6 -24,-7 5,-14 10,-14 -2,-20 -7,3 -7,4 -11,11 -1,2 -2,4 -4,7 -5,6 0,2 -6,5z"/>
   <path class="fil5" d="M2530 617c-3,26 -21,94 -4,97 11,2 14,-15 19,-25 10,-25 20,-44 32,-66 8,-15 32,-53 34,-62l-11 -3c-11,13 -23,35 -32,53 -5,9 -10,19 -14,28 -5,11 -8,21 -17,29 2,-39 10,-48 19,-79 4,-14 4,-14 -9,-14 -16,12 -43,78 -57,96 0,0 0,-1 0,-1l0 -4c0,-1 0,-1 0,-2l3 -21c14,-59 39,-86 14,-85 -16,19 -33,97 -35,125 0,14 -1,25 13,25 12,-16 26,-71 45,-91z"/>
   <path class="fil5" d="M1884 689c-4,-5 -5,-12 -3,-23 6,-20 6,-7 16,-22 9,-14 17,-38 32,-33 3,13 -8,35 -16,50 -6,13 -15,28 -29,28zm-14 -48c-4,-23 34,-44 2,-44 -9,10 -13,25 -23,35 5,-20 16,-30 -3,-32 0,1 -55,116 -21,98 6,-3 7,-14 10,-20 7,-20 12,-22 19,-38 7,7 4,10 20,10 -5,21 -10,41 1,49 29,21 60,-45 65,-77 4,-24 -10,-22 -29,-26 -24,22 -19,23 -29,37 -6,9 -2,7 -12,8z"/>
   <path class="fil5" d="M2720 571c-1,11 1,5 -4,7 -1,12 -8,25 -14,38 -2,6 -5,12 -8,16 -5,7 -6,8 -15,9 -1,-8 5,-23 11,-29 5,-13 6,-16 -8,-15 -11,11 -15,27 -26,39l13 -34c-11,0 -12,-7 -19,6l-25 73c-3,9 -5,16 3,17 15,3 10,-17 28,-45l8 -9 21 8c0,-1 1,0 1,0l-13 46c13,11 12,7 19,-13l42 -105c3,-6 1,-4 4,-6l3 -17 -8 -2 -13 16z"/>
   <path class="fil5" d="M1780 632c-1,-2 13,-18 18,-24 8,-10 14,-18 23,-25 1,6 -10,30 -13,39 -4,9 -3,14 -10,14l-14 -2c-8,-2 0,2 -4,-2zm-47 46c-8,20 -22,31 2,34 5,-10 11,-28 19,-36 9,-26 16,-28 43,-27 -2,26 -26,49 4,51 7,-23 10,-48 18,-74 5,-15 25,-62 22,-65 -14,-9 -41,25 -51,36 -7,9 -15,19 -22,28 -16,22 -10,9 -25,20 -2,13 6,6 0,17 -2,5 -6,10 -10,16z"/>
   <path class="fil5" d="M2717 691c-2,-13 23,-81 48,-84 -2,13 -7,19 -9,24 -2,9 5,6 -6,24 -8,13 -19,36 -33,36zm18 -79c-1,6 0,5 -4,4 -5,15 -20,31 -25,55 -2,9 -3,19 0,25 4,9 8,8 20,11 0,-6 -1,-4 4,-2 -1,-6 -2,-5 3,-3 -1,-5 -2,-5 3,-2 -1,-6 -2,-5 3,-3 3,-7 -4,-1 4,-6 3,3 0,1 -1,6 6,-2 5,-3 3,3 28,1 40,-25 37,-35 -12,12 -8,19 -22,22 -7,-15 46,-108 47,-132l-10 -2c-4,3 0,0 -5,5 0,1 -2,5 -3,6 -2,4 -3,7 -5,11 -3,10 -6,15 -9,24 -27,-3 -19,0 -40,13z"/>
   <path class="fil5" d="M2583 689c-7,-4 -7,-8 -4,-20 4,-19 6,-11 14,-24 5,-8 8,-14 14,-22 7,-10 8,-12 20,-13 1,23 -23,74 -44,79zm24 -92c-89,89 -13,163 26,44 11,-36 5,-43 -26,-44z"/>
   <path class="fil5" d="M2272 885c-3,-10 1,-24 6,-39 7,-4 6,-2 13,-8 7,-6 41,-33 28,0 -8,21 -27,49 -47,47zm-22 -67c0,1 -1,1 -1,1l-20 15c-14,8 -24,9 -16,-11 9,-23 26,-47 49,-47 3,12 0,21 -5,37l-7 5zm-30 -33l-2 2c-14,12 -25,43 -18,56 11,22 30,5 45,-3 -5,17 -31,41 -44,46 -10,-7 -2,-15 -17,-13 -7,21 14,37 38,19 18,-14 26,-30 40,-50 -25,122 83,23 72,-18 -6,-26 -25,-13 -42,-6 6,-17 28,-38 40,-43 11,6 2,8 14,14 5,-8 4,-9 5,-17l-4 -3c-31,-26 -50,22 -76,50 19,-82 -30,-65 -51,-34z"/>
   <path class="fil5" d="M2687 839c13,9 15,29 -4,51l-20 -2c0,-12 7,-18 13,-30l-6 -12c6,-6 8,-12 17,-7zm-51 -41c0,5 2,4 -2,3 -3,11 -8,23 -11,33 -3,9 -6,24 -12,30 -4,12 -6,16 -19,18 -5,-24 27,-62 25,-81l-10 -2c-7,7 -8,14 -14,24 -4,8 -7,14 -12,22 -6,10 -19,32 -28,35 6,-35 31,-62 29,-77 -12,2 -8,-1 -15,10l-21 39c-5,10 -9,24 -7,32 2,9 6,12 19,13 6,-7 14,-16 19,-26 0,0 -4,41 26,17 3,8 0,8 12,9l4 -7c5,-8 15,-39 28,-51 2,5 1,5 6,9l10 6c-25,21 -9,53 12,52 39,-1 34,-57 34,-57 -5,0 -4,1 -1,-4 -5,1 -4,2 -2,-3 -4,2 -4,2 -1,-2 -5,1 -4,2 -2,-2 -4,1 -4,2 -2,-3 -4,2 -4,2 -1,-2 -5,1 -5,2 -2,-2 -6,2 -5,3 -2,-2 -6,-1 -6,0 -9,-3 3,-4 10,-7 15,-8 9,-3 7,1 17,3 -1,-5 -1,-3 3,-2 0,-4 -1,-3 3,-2 0,-4 -1,-4 3,-2 0,-5 -1,-4 3,-3 0,-5 -2,-4 3,-2 2,-22 -7,-15 -25,-9 -65,24 -17,32 -45,39 -7,-6 -2,-12 4,-23 5,-7 12,-18 4,-21 -15,-7 -17,21 -33,37 6,-23 19,-31 -3,-35z"/>
   <path class="fil5" d="M2498 888c-6,-4 -7,-9 -6,-19 3,-18 4,-13 12,-21 10,-10 17,-33 29,-38 21,-10 0,35 -5,44 -7,15 -15,30 -30,34zm-68 -37c4,-15 16,-44 22,-59 9,-19 28,-41 4,-42 -14,18 -41,96 -50,122 -6,19 -10,28 10,29 6,-12 22,-48 32,-59 8,-9 1,-2 7,-6 -5,17 -17,36 -13,52 6,21 22,8 37,1 5,3 1,0 4,3 1,1 2,3 3,4 18,20 42,-13 52,-34 7,-14 14,-33 15,-47 0,-21 -12,-16 -31,-19 -16,20 -20,18 -33,46 -9,21 -6,45 -31,44 -3,-25 29,-65 28,-86l-16 -2c-21,25 -27,37 -37,50l-3 3z"/>
   <path class="fil5" d="M2068 853c4,-19 11,-26 17,-43 8,-20 -10,-11 -20,8 -10,20 -22,80 -41,71 -8,-10 34,-74 33,-85 -17,-8 -18,2 -26,20 -14,30 -53,101 8,71 4,7 1,8 13,8 16,-25 18,-46 41,-68 -8,25 -24,45 -13,64 11,7 41,-13 33,-26 -9,7 -9,16 -20,11 -4,-13 10,-37 17,-53 10,-19 25,-36 -1,-36l-41 58z"/>
   <path class="fil5" d="M2053 785c13,6 24,-7 25,-16 0,-1 -1,-9 -1,-10 -9,-18 -26,13 -24,26z"/>
  </g>
 </g>
</svg>
