<?xml version="1.0" encoding="UTF-8"?>
<!DOCTYPE svg PUBLIC "-//W3C//DTD SVG 1.1//EN" "http://www.w3.org/Graphics/SVG/1.1/DTD/svg11.dtd">
<!-- Creator: CorelDRAW X7 -->
<svg xmlns="http://www.w3.org/2000/svg" xml:space="preserve" width="100%" height="100%" version="1.1" style="shape-rendering:geometricPrecision; text-rendering:geometricPrecision; image-rendering:optimizeQuality; fill-rule:evenodd; clip-rule:evenodd"
viewBox="0 0 3527 1177"
 xmlns:xlink="http://www.w3.org/1999/xlink">
 <defs>
  <style type="text/css">
   <![CDATA[
    .fil0 {fill:#252525}
    .fil1 {fill:#F3F308}
    .fil2 {fill:#F3F308;fill-rule:nonzero}
   ]]>
  </style>
 </defs>
 <g id="Capa_x0020_1">
  <metadata id="CorelCorpID_0Corel-Layer"/>
  <g id="_1025965304080">
   <rect class="fil0" x="1" y="1" width="3525" height="1175"/>
   <rect class="fil1" x="1" y="91" width="3525" height="60.6594"/>
   <rect class="fil1" x="1" y="1024" width="3525" height="60.6594"/>
   <g>
    <path class="fil2" d="M2748 808l0 -274 124 0 -248 -274 -248 274 124 0 0 274 248 0zm0 -137m62 -137m-62 -137m-248 0m-62 137m62 137m124 137"/>
    <rect class="fil1" x="2500" y="857" width="245.423" height="33.3327"/>
   </g>
   <path class="fil1" d="M789 779l-54 0 -231 -390 0 30c1,11 1,20 1,28l0 332 -45 0 0 -448 70 0 216 365 -1 -31c0,-13 0,-23 0,-33l0 -301 44 0 0 448zm327 -98l48 10c-9,28 -26,52 -52,70 -25,19 -55,28 -89,28 -46,0 -82,-16 -110,-48 -28,-32 -43,-74 -43,-126 0,-52 15,-95 44,-128 29,-32 66,-49 110,-49 43,0 78,15 104,46 27,30 40,75 41,135l-241 0c0,50 10,84 31,101 21,18 44,26 67,26 43,0 73,-21 90,-65zm-3 -101c-1,-18 -4,-35 -10,-49 -5,-15 -15,-27 -29,-38 -13,-10 -30,-15 -49,-15 -26,0 -47,9 -65,28 -18,18 -28,43 -30,74l183 0zm353 199l-59 0 -85 -133 -86 133 -51 0 112 -172 -101 -159 60 0 70 112 73 -112 50 0 -97 150 114 181zm205 -35l0 41c-19,3 -34,4 -48,4 -64,0 -96,-34 -96,-101l0 -200 -59 0 0 -40 59 0 2 -84 49 -4 0 88 74 0 0 40 -74 0 0 208c0,35 18,52 53,52 12,0 25,-1 40,-4z"/>
  </g>
 </g>
</svg>
