<?xml version="1.0" encoding="UTF-8"?>
<!DOCTYPE svg PUBLIC "-//W3C//DTD SVG 1.1//EN" "http://www.w3.org/Graphics/SVG/1.1/DTD/svg11.dtd">
<!-- Creator: CorelDRAW X7 -->
<svg xmlns="http://www.w3.org/2000/svg" xml:space="preserve" width="100%" height="100%" version="1.1" style="shape-rendering:geometricPrecision; text-rendering:geometricPrecision; image-rendering:optimizeQuality; fill-rule:evenodd; clip-rule:evenodd"
viewBox="0 0 2622 911"
 xmlns:xlink="http://www.w3.org/1999/xlink">
 <defs>
  <style type="text/css">
   <![CDATA[
    .fil0 {fill:#FEFEFE}
   ]]>
  </style>
 </defs>
 <g id="Layer_x0020_1">
  <metadata id="CorelCorpID_0Corel-Layer"/>
  <g id="_1072331914240">
   <g>
    <g>
     <path class="fil0" d="M684 326l-3 18c0,6 0,11 -1,16 -8,118 80,171 81,176 1,0 1,0 2,0l10 6c0,1 0,1 0,1l4 3c7,2 0,-1 6,2 0,0 1,0 1,1l4 2c5,2 7,2 9,5 5,0 3,-1 3,2 6,0 3,-1 4,1 5,1 4,1 9,3 1,0 3,1 4,1 3,2 1,1 3,3 12,0 46,18 89,13 49,-7 70,-25 79,-25 -1,-4 -1,-3 3,-1 -2,-4 -2,-3 2,-2 -1,-3 -2,-2 1,-1 4,-6 -5,2 2,-2 4,-2 -5,0 3,-1 2,-4 30,-25 36,-32 2,-2 1,-1 3,-2 0,-1 0,-1 0,-1l8 -8c0,0 0,-1 1,-1l18 -22 38 -79c0,-1 1,-5 2,-6 1,-4 0,0 2,-3 0,-1 0,-1 0,-2 1,0 1,0 1,-1 -1,-8 15,-58 8,-99 -2,-8 -6,-23 -6,-30 29,-15 56,-28 92,-37 19,-5 91,-22 109,-7 15,5 14,6 25,17l1 0c12,34 7,66 -2,103 -12,53 -22,86 -37,136 -8,30 -5,29 -24,32 -24,5 -65,12 -90,2 -8,-3 -7,-5 -8,-6 -21,-3 -18,-48 -14,-70 5,-30 15,-44 27,-64 8,-7 11,-11 19,-18 7,-5 13,-10 21,-15 25,-14 60,-27 90,-28 -7,-5 -15,-4 -24,-4 -11,0 -14,1 -25,2 -42,5 -80,39 -99,61 -21,25 -45,63 -57,102 -3,30 -12,61 34,74 9,1 5,0 6,2 26,-3 25,1 72,-7 26,-4 46,-17 57,-19 0,13 -13,33 -14,48 7,-3 21,-14 32,-20 18,-9 35,-10 41,-12l0 -44c15,-10 68,-37 74,-56 -13,7 -52,40 -72,45 -2,-59 39,-199 32,-240 -3,-13 -9,-23 -15,-31 -11,-12 -24,-16 -27,-20l-27 -8c-9,3 -23,-3 -54,1 -15,3 -29,8 -43,13 -20,7 -39,18 -56,29 -4,2 -6,4 -9,6l-8 4 -27 22c-5,1 -5,-5 -5,-9 -2,0 -2,2 -1,-3 -6,-5 -10,-29 -42,-60l-20 -14c13,13 32,63 40,88 6,17 2,9 5,24 5,21 -2,64 -9,85 -8,21 -35,62 -49,79 -10,12 -51,58 -66,59 -2,4 0,1 -2,3l-7 5c-48,24 -92,45 -149,14 -4,-2 -7,-4 -10,-5 -5,-4 -6,-4 -7,-8 -8,-2 -3,1 -4,-4 -4,2 -3,2 -3,-1 -10,-4 -30,-33 -38,-47 -9,-17 -17,-39 -20,-63 -5,-44 10,-112 29,-138 0,-4 -1,-4 2,-3 0,-6 0,-3 3,-6 3,-19 51,-74 72,-92 0,0 0,0 0,0 5,-4 6,-6 10,-7 -1,-3 -1,-2 2,-1 -1,-3 -1,-2 2,-2 1,-2 0,0 2,-2 0,0 1,0 1,-1 1,0 1,0 2,0 2,-5 1,-4 8,-5 1,-3 -2,0 3,-3 4,-3 0,-1 5,-2 3,-4 3,-3 10,-5 18,-14 83,-17 103,-5 6,1 11,2 14,5 3,0 3,-2 2,2 7,-1 3,-1 3,1 6,-1 3,-1 3,2 7,-1 3,-1 3,2 4,-2 3,-3 3,1 7,0 8,3 14,6 -3,-9 -9,-10 -11,-18 -3,1 -2,1 -1,-2 -3,1 -3,2 -2,-2 -3,1 -2,2 -1,-1 -3,0 -2,1 -2,-2 -3,1 -2,1 -1,-2 -3,1 -3,2 -2,-1 -3,0 -2,1 -1,-2 -3,1 -3,1 -2,-2 -3,1 -2,2 -2,-1 -2,0 -2,1 -1,-2 -3,1 -3,2 -2,-1 -3,0 -2,1 -2,-2 -2,1 -2,1 -1,-2 -3,1 -3,2 -2,-1l-4 -2c-1,0 -1,0 -1,-1l-9 -6c0,0 0,0 -1,-1 0,0 0,0 -1,0l-2 -3c-11,-1 -16,-12 -58,-10 -21,1 -38,7 -54,14 -51,24 -109,84 -138,133 -8,14 -15,29 -21,46 -12,30 -8,38 -13,53z"/>
     <path class="fil0" d="M1420 170l-5 6c-24,22 -13,15 -25,33 -2,18 -6,28 3,43 8,14 17,16 22,21 2,2 0,0 1,3l4 1c6,1 2,-1 3,2 5,-1 3,-1 3,1 7,1 9,1 12,5 8,0 -1,-1 4,1 8,3 -4,-5 2,2 3,0 49,8 57,10 18,4 36,8 51,15 -3,7 -12,11 -19,16l-18 14c0,0 0,0 -1,0 -2,5 -3,6 -8,7 1,4 2,3 -2,2 1,3 2,2 -2,1 2,3 2,3 -1,2 1,3 1,2 -2,1 1,3 1,3 -2,2 -1,3 1,0 -1,3 -1,0 -2,2 -3,3 -1,1 -2,2 -4,3 0,2 0,2 -2,1 0,3 1,2 -2,2 1,2 1,2 -2,1 1,3 1,2 -1,2 0,3 1,2 -2,1 1,3 1,3 -2,2 1,3 2,2 -2,1 -1,4 0,2 -2,4 0,1 -2,3 -3,4l-16 17c7,-3 25,-22 34,-28l2 -1 2 -2c0,-2 0,-2 2,-1l4 -4 2 -1 2 -1c0,-3 -1,-2 2,-1 3,-5 0,-4 7,-5 -1,-3 -1,-3 2,-2 1,-2 -1,-1 3,-4 3,-2 0,-1 5,-2 -1,-3 -1,-2 2,-2 2,-4 1,-4 7,-5 0,-3 -1,-2 2,-1 -1,-3 -1,-2 2,-2 4,-5 12,-9 16,-12 6,-4 12,-10 19,-8 7,2 30,17 36,21 37,28 75,93 78,147 0,18 -2,34 -7,49 -3,8 -13,33 -19,34 -6,13 -12,19 -22,28l-53 41c-85,55 -263,59 -360,40 -25,-5 -129,-28 -143,-42l-7 -1 8 6c5,0 43,20 51,23l54 24c6,-1 33,8 41,10 66,18 75,12 141,16 45,3 100,-3 142,-13 11,-2 33,-11 40,-11l25 -13c26,-12 58,-31 78,-50l30 -33c5,-7 10,-12 15,-21l15 -25c0,-4 0,0 1,-5l5 -14c9,-32 7,-37 5,-64 -6,-68 -74,-132 -132,-161 4,-6 -1,0 3,-3l10 -6c49,-24 173,-76 190,-2 9,38 -27,205 -35,250l-2 12c-1,9 -6,24 1,31 6,7 21,3 28,0 9,-4 28,-23 40,-30l5 -5c1,-1 1,0 2,-2l16 -10c2,-5 14,-9 18,-17 -24,0 -44,22 -51,26 -16,9 -2,-28 0,-39 10,-50 12,-75 19,-123 5,-26 6,-57 9,-85 3,-18 11,-73 4,-85 -23,-6 -69,0 -93,4 -53,7 -127,41 -171,70 -5,4 -8,8 -16,6 -15,-3 -33,-11 -56,-16 -35,-7 -87,-4 -82,-64 4,-46 62,-58 89,-47 13,5 18,13 27,22 -1,-24 -29,-37 -54,-39 -39,-4 -65,16 -73,16z"/>
     <path class="fil0" d="M2416 361c8,0 21,-3 30,-4 28,-3 70,-7 95,2 46,16 3,66 -11,84 -19,24 -46,47 -74,65 -8,5 -15,9 -22,14 -7,4 -36,57 -40,65l14 -9c54,-42 115,-91 160,-142 11,-13 24,-30 32,-48 26,-62 -90,-85 -157,-66 -1,-24 19,-92 25,-114 11,-3 31,-6 42,-8 18,-3 68,-6 83,-15 8,-4 25,-13 29,-18 -16,-1 -33,0 -48,1 -33,1 -111,0 -133,14 -4,31 -7,61 -12,92l-13 87z"/>
     <path class="fil0" d="M1856 386c-12,37 2,82 17,107 17,27 41,47 73,61 35,15 77,4 109,-9 84,-36 89,-134 54,-175 -32,-36 -97,-32 -136,-66 -11,-10 -14,-34 -8,-52 11,-30 25,-46 62,-37 8,2 16,7 24,8 -21,-25 -60,-26 -92,-7 -14,9 -25,17 -31,33 -7,20 -2,38 7,51 26,36 49,37 81,48 30,9 62,27 74,51 18,35 -13,97 -68,115 -53,17 -111,18 -141,-27 -27,-42 -21,-90 -25,-101z"/>
     <path class="fil0" d="M2208 580c-2,6 -1,2 -2,8 5,3 10,-2 20,-4l25 -11c1,0 1,0 2,0 0,-1 0,-1 1,-1l40 -21c12,-6 22,-11 35,-16 10,-5 9,-4 12,-14 1,-5 4,-14 4,-19l-28 2c0,-15 13,-65 17,-82 12,-49 23,-111 35,-161l20 -80c-40,2 -95,41 -105,79 13,-4 21,-20 50,-20 -1,29 -42,207 -50,243 -9,36 0,28 -44,43 -10,3 -15,2 -18,11 -3,9 -10,37 -14,43z"/>
     <path class="fil0" d="M2208 207c22,-12 49,-73 48,-113 -7,1 -39,19 -43,23 9,4 17,3 18,15 4,25 -20,65 -23,75z"/>
    </g>
    <g>
     <path class="fil0" d="M1927 747c-4,-16 32,-77 36,-63 2,6 -5,12 -6,20 -1,8 2,3 -5,15 -7,11 -15,26 -25,28zm24 -71c0,4 1,3 -3,2 1,4 1,3 -2,2 0,3 1,3 -2,2 0,3 1,3 -3,3 -2,5 0,1 -4,7 -25,35 -13,51 -31,51 -5,-9 7,-29 12,-39 8,-14 20,-31 0,-30 -11,10 -23,35 -33,47 4,-20 18,-33 14,-43 -8,1 -9,3 -14,12 -16,33 -11,48 -24,51 -10,-14 18,-45 17,-62l-7 -2c-8,7 -28,56 -42,62 4,-20 16,-40 25,-56 -2,-2 -2,-3 -7,-3 -10,8 -17,25 -24,39 -6,16 -10,32 10,33 3,-3 4,-5 7,-8l7 -8c-1,12 2,17 17,13l1 2c0,0 0,1 0,1 3,7 4,6 11,4 5,-8 15,-38 28,-49 -7,21 -16,30 -9,46 12,3 10,0 21,-5l2 4c9,12 18,5 26,-6 3,3 1,1 3,3l2 2c5,4 9,3 15,-2 7,-5 15,-15 13,-22 -5,2 -1,0 -5,5 -5,7 -4,10 -14,11 -2,-10 15,-44 21,-57 12,-28 26,-51 6,-44l-14 35c-11,-2 -10,-1 -20,-1z"/>
     <path class="fil0" d="M2147 715c0,0 -1,-1 -1,-1l1 -5c1,-5 13,-26 19,-29 0,7 -3,16 -6,23 -4,8 -8,14 -13,12zm-104 29c-4,-8 6,-27 13,-39 11,-22 7,-20 34,-21l-15 42c-8,4 -1,-1 -7,5 -7,7 -13,13 -25,13zm12 -69c-2,2 0,1 -4,3 -3,1 -3,0 -5,1 -6,3 -4,0 -8,8 5,-2 4,-2 1,2 4,-2 4,-3 2,1l10 -1c-11,26 -14,30 -19,58 3,2 2,0 2,5 5,1 3,-1 4,3l15 0c0,-3 -1,-2 2,-1l7 -6c2,-2 4,-3 5,-4 4,7 1,10 12,10 5,-8 5,-13 11,-19 3,-9 15,-27 21,-34 -5,25 -30,63 12,48 5,6 10,22 30,9 8,-5 24,-25 19,-36 -5,2 -2,0 -5,5 0,0 -3,4 -4,5 -7,12 -16,21 -29,16 -1,-7 1,-16 6,-23l4 -1c12,1 10,2 22,-11 7,-17 19,-37 2,-42 -13,4 -22,19 -30,34 -18,32 -8,40 -26,39 -1,-23 18,-43 22,-64 -3,-2 -4,-4 -11,-4 -20,20 -25,36 -34,44 4,-20 28,-63 32,-77l-9 -4c-9,8 -15,26 -20,39 -8,-2 -3,-4 -19,-5 4,-11 8,-11 -1,-15 -6,2 -5,3 -8,8 -2,2 -2,3 -4,5 -4,5 0,2 -5,4z"/>
     <path class="fil0" d="M2279 690c-2,20 -16,72 -3,74 8,1 11,-11 14,-19 9,-19 16,-34 25,-51 6,-12 25,-40 26,-47l-8 -2c-9,9 -17,26 -24,40 -4,7 -8,15 -11,22 -5,8 -7,16 -14,21 3,-29 8,-36 15,-60 3,-10 3,-11 -7,-11 -12,10 -33,60 -43,74 0,0 0,-1 0,-1l-1 -3c0,0 0,-1 0,-1l3 -16c10,-46 30,-66 11,-65 -12,14 -26,74 -27,95 0,11 -1,19 9,19 10,-12 21,-54 35,-69z"/>
     <path class="fil0" d="M2534 708c-7,16 -16,37 -12,45l12 -45z"/>
     <path class="fil0" d="M1784 745c-3,-4 -3,-10 -1,-18 4,-15 4,-5 11,-16 7,-11 14,-29 25,-26 2,10 -6,27 -12,38 -5,11 -12,21 -23,22zm-10 -37c-3,-17 26,-34 1,-34 -6,8 -10,20 -17,27 4,-15 12,-23 -2,-24 -1,0 -43,89 -17,74 5,-2 6,-10 8,-15 5,-15 9,-17 15,-29 5,6 2,8 15,8 -4,16 -8,31 1,38 22,16 45,-35 50,-60 3,-18 -8,-16 -23,-19 -18,17 -14,17 -22,28 -5,7 -2,5 -9,6z"/>
     <path class="fil0" d="M2425 655c-1,8 0,3 -3,5 -1,9 -7,19 -11,29 -2,4 -4,9 -6,12 -4,6 -5,7 -12,7 -1,-6 4,-17 9,-22 4,-10 4,-12 -6,-12 -9,9 -12,21 -20,30l10 -26c-9,0 -9,-5 -15,5l-19 55c-2,8 -4,13 3,14 10,2 7,-14 21,-35l6 -7 16 6c0,0 1,0 1,1l-10 35c9,8 9,5 14,-10l33 -81c2,-4 1,-2 3,-4l2 -13 -6 -2 -10 13z"/>
     <path class="fil0" d="M1705 701c-1,-1 10,-14 14,-18 6,-8 11,-14 17,-19 1,4 -7,23 -10,30 -2,6 -2,10 -7,10l-11 -1c-6,-2 0,1 -3,-2zm-36 35c-6,15 -17,24 1,26 4,-7 9,-21 15,-27 7,-20 12,-21 33,-21 -2,20 -20,38 3,39 6,-17 8,-37 14,-56 4,-12 19,-48 17,-51 -11,-6 -32,20 -39,29 -6,6 -12,14 -17,21 -13,17 -8,6 -19,15 -2,10 4,5 0,13 -2,4 -5,8 -8,12z"/>
     <path class="fil0" d="M2422 747c-1,-11 18,-63 37,-65 -1,10 -6,15 -7,19 -1,6 5,4 -4,18 -6,10 -15,27 -26,28zm15 -61c-2,4 -1,4 -4,3 -3,11 -15,23 -19,42 -2,7 -2,15 0,20 3,6 6,6 16,7 -1,-4 -1,-3 2,-1 0,-4 -1,-4 3,-2 -1,-4 -2,-4 2,-2 -1,-4 -2,-4 2,-2 2,-6 -3,-1 4,-5 1,3 0,1 -1,5 4,-1 3,-2 2,2 21,1 31,-19 28,-26 -9,8 -6,14 -17,16 -5,-11 35,-83 36,-101l-8 -1c-2,2 0,-1 -3,4 0,0 -2,3 -2,4 -2,3 -3,5 -4,9 -3,7 -5,11 -7,18 -21,-2 -15,0 -30,10z"/>
     <path class="fil0" d="M2320 745c-6,-3 -6,-6 -3,-16 3,-14 4,-8 11,-18 4,-6 6,-11 10,-17 6,-7 7,-9 16,-10 0,18 -18,57 -34,61zm18 -71c-68,68 -10,125 20,34 9,-27 4,-33 -20,-34z"/>
    </g>
    <g>
     <path class="fil0" d="M2082 895c-3,-7 0,-19 4,-30 6,-3 5,-2 10,-6 6,-4 32,-26 22,0 -7,16 -21,37 -36,36zm-17 -51c0,0 -1,0 -1,1l-15 11c-11,6 -18,7 -12,-8 7,-18 20,-37 37,-37 2,10 0,17 -4,29l-5 4zm-23 -25l-2 0c-10,10 -19,34 -14,44 9,16 23,3 35,-2 -4,13 -23,31 -34,34 -7,-5 -1,-11 -13,-10 -5,17 11,29 29,15 14,-10 21,-22 31,-38 -19,93 63,18 56,-14 -5,-20 -20,-10 -33,-4 5,-14 22,-29 31,-33 8,4 1,6 10,10 4,-6 3,-6 4,-13l-2 -2c-25,-20 -39,17 -59,38 15,-62 -23,-49 -39,-25z"/>
     <path class="fil0" d="M2399 860c10,6 12,22 -2,39l-16 -2c0,-9 5,-14 10,-23l-4 -9c4,-5 6,-10 12,-5zm-38 -32c0,4 1,4 -2,2 -2,9 -6,18 -9,26 -2,7 -4,19 -9,23 -2,9 -5,12 -14,14 -4,-19 21,-48 19,-63l-8 -1c-5,6 -6,11 -10,19 -4,6 -6,10 -10,16 -4,8 -14,24 -21,27 5,-27 24,-48 22,-59 -9,1 -6,-1 -11,8l-16 29c-4,8 -7,19 -6,25 2,7 4,9 15,10 5,-5 10,-12 14,-20 0,0 -3,31 21,13 1,6 -1,6 8,7l4 -5c3,-6 11,-30 21,-39 2,4 1,4 4,6l8 5c-19,16 -7,41 10,40 29,-1 25,-44 25,-44 -3,0 -3,1 -1,-3 -3,1 -2,2 -1,-2 -3,1 -3,2 -1,-2 -3,1 -3,2 -1,-1 -4,1 -3,1 -1,-2 -4,1 -4,2 -2,-2 -4,1 -4,2 -1,-1 -4,1 -4,2 -2,-2 -4,0 -4,0 -6,-2 2,-3 7,-6 11,-7 7,-2 5,1 13,3 -1,-4 -1,-3 2,-1 0,-4 -1,-3 3,-2 0,-4 -1,-3 2,-2 0,-3 -1,-3 2,-2 0,-3 -1,-3 2,-2 2,-16 -5,-11 -19,-6 -50,18 -12,24 -34,29 -6,-4 -2,-9 3,-17 4,-6 9,-14 3,-17 -12,-5 -13,17 -25,29 4,-18 14,-24 -2,-27z"/>
     <path class="fil0" d="M2255 897c-5,-3 -6,-7 -5,-14 3,-14 4,-10 10,-16 7,-8 12,-25 22,-30 15,-7 -1,27 -4,34 -6,12 -12,23 -23,26zm-52 -28c3,-12 12,-34 17,-45 6,-15 21,-31 3,-32 -11,13 -32,73 -38,93 -5,14 -8,21 7,22 4,-9 17,-36 25,-45 5,-7 0,-1 5,-5 -4,14 -13,28 -10,40 4,16 17,6 28,1 4,2 1,0 3,3 1,0 2,2 3,2 13,16 32,-10 39,-26 6,-11 11,-25 12,-36 0,-16 -9,-12 -24,-14 -12,15 -15,13 -25,35 -7,16 -5,34 -24,34 -2,-19 22,-50 22,-66l-13 -1c-16,18 -20,28 -28,38l-2 2z"/>
     <path class="fil0" d="M1925 870c3,-14 9,-20 14,-33 5,-15 -8,-8 -15,7 -9,15 -17,61 -32,54 -7,-8 26,-57 25,-65 -13,-6 -13,2 -20,15 -11,23 -40,77 6,55 3,5 1,6 10,6 13,-20 14,-35 31,-53 -5,20 -18,35 -9,50 8,5 31,-11 25,-20 -7,5 -7,12 -15,8 -3,-10 7,-28 13,-40 7,-15 19,-28 -1,-28l-32 44z"/>
     <path class="fil0" d="M1914 819c10,4 18,-6 19,-13 1,-1 -1,-7 -1,-7 -7,-14 -19,10 -18,20z"/>
    </g>
   </g>
   <g>
    <path class="fil0" d="M380 658c1,0 1,0 2,1 1,3 -2,-1 6,3l41 32c3,2 -1,1 4,1 4,-51 -60,-104 -96,-130 -9,-7 -21,-17 -31,-25 -24,-20 -39,-34 -58,-59l-6 -10c0,-1 -1,-1 -1,-1l-3 -4c0,-1 0,-1 0,-1l-10 -21c-5,-6 -11,-32 -12,-44 -6,-36 0,-66 9,-102 11,-43 70,-165 54,-211 -2,-7 -1,-6 -6,-9 -3,3 0,-2 -3,4 0,0 -1,4 -1,4 -1,3 -1,6 -1,9 -2,17 -17,71 -24,85 -31,65 -71,136 -143,157 -36,11 -89,14 -99,71 -5,24 -1,53 8,73 5,-5 7,-25 23,-50 8,-13 24,-27 42,-32 56,-16 101,55 113,102 10,37 1,87 -31,107 -25,14 -30,8 -60,7 7,13 41,32 63,32 14,0 28,-4 39,-9 39,-15 72,-27 119,-11 40,13 37,17 62,31z"/>
    <path class="fil0" d="M463 0c17,23 31,51 23,81 -8,29 -28,48 -46,62 -59,46 -117,43 -148,69 -56,48 -56,143 -32,210 11,30 40,85 70,92 -2,-12 -9,-26 -13,-39 -13,-44 -12,-97 8,-135 30,-55 71,-64 117,-93 63,-40 132,-123 81,-201 -9,-14 -39,-42 -60,-46z"/>
    <path class="fil0" d="M481 415c-2,9 -4,17 -6,24 -1,8 -2,17 -3,25 -4,20 -2,28 2,48 19,100 127,72 88,12 -13,-22 -39,-37 -73,-42 0,-7 7,-41 11,-45 0,-10 7,-30 9,-42 8,-39 65,-271 66,-286 -3,-3 -5,-5 -10,-6 -6,11 -11,75 -59,122 -23,23 -30,19 -55,35 -18,11 -35,26 -35,56 9,-4 15,-13 23,-19 16,-11 68,-35 78,-36 -1,17 -19,37 -30,44 -10,7 -17,7 -29,11 -55,17 -91,74 -68,103 5,-3 6,-10 9,-16 7,-16 18,-33 31,-43 21,-16 34,-13 54,-19 9,-2 9,-6 16,-7 2,19 -15,61 -19,81z"/>
    <path class="fil0" d="M348 501c4,3 4,3 5,10 3,0 2,-1 1,2l25 32c19,24 73,70 97,79l-21 -47c-3,-10 -14,-43 -11,-54 -3,-1 -2,4 -3,-5 0,-45 -3,-65 12,-109 4,-10 11,-20 13,-31 -20,3 -38,20 -46,32 -13,16 -17,36 -15,62 -15,-3 -47,-69 -28,-131 3,-9 6,-13 9,-20 3,-6 8,-13 9,-18 -18,14 -44,52 -54,84 -21,65 5,97 7,114z"/>
    <path class="fil0" d="M154 262c6,-25 -12,-48 -32,-50 -28,-3 -46,11 -50,34 -10,55 70,72 82,16z"/>
    <path class="fil0" d="M294 53c17,27 13,60 6,92 -1,8 -6,23 -6,30 32,-26 34,-23 78,-34 26,-6 68,-21 76,-39 -10,1 -19,4 -28,6 -16,3 -41,0 -60,6 -11,2 -13,6 -21,9 -3,-23 4,-30 -10,-48 -5,-8 -22,-23 -35,-22z"/>
   </g>
  </g>
 </g>
</svg>
