<?xml version="1.0" encoding="iso-8859-1"?>
<!-- Generator: Adobe Illustrator 16.0.0, SVG Export Plug-In . SVG Version: 6.00 Build 0)  -->
<!DOCTYPE svg PUBLIC "-//W3C//DTD SVG 1.1//EN" "http://www.w3.org/Graphics/SVG/1.1/DTD/svg11.dtd">
<svg version="1.1" id="Layer_1" xmlns="http://www.w3.org/2000/svg" xmlns:xlink="http://www.w3.org/1999/xlink" x="0px" y="0px"
	 width="726.41px" height="291.273px" viewBox="0 0 726.41 291.273" style="enable-background:new 0 0 726.41 291.273;"
	 xml:space="preserve">
<g>
	<path style="fill:#99073E;" d="M726.41,274.186c-23.438-1.521-46.88-2.894-70.365-3.461c-51.003-1.231-101.959-1.103-152.754,4.604
		c-16.408,1.843-32.248,6.655-48.485,9.229c-38.112,6.041-76.489,7.925-115.06,5.983c-24.507-1.233-48.654-4.593-72.585-10.091
		c-11.183-2.569-22.558,0.308-33.813,1.28c-9.957,0.861-19.896,1.907-29.897,2.135c-5.768,0.131-11.189-1.109-16.345-3.727
		c-8.614-4.371-10.245-9.845-5.459-18.319c1.277-2.263,4.427-4.238,3.784-6.555c-0.649-2.335-4.374-2.539-6.576-3.991
		c-2.779-1.833-5.886-3.391-5.77-7.44c0.02-0.677,0.11-1.597-0.635-1.642c-4.906-0.297-9.633-3.289-14.686-1.122
		c-1.999,0.857-3.96,2.238-5.934,0.276c-1.295-1.288-1.575-0.009-2.216,0.564c-11.586,10.374-22.68,7.702-28-6.729
		c-0.108-0.294-0.366-0.532-0.557-0.794c-0.145,0.089-0.331,0.143-0.423,0.267c-8.132,10.945-11.523,11.972-24.313,7.056
		c-3.563-1.369-7.112-2.853-10.483-4.631C58.95,222.882,29.871,218.049,0,216.46c6.463-2.405,13.45-2.711,20.323-3.168
		c21.351-1.42,42.626-0.649,63.686,3.45c1.837,0.356,3.244,0.085,4.67-0.864c14.321-9.537,27.723-6.916,40.435,3.212
		c2.822,2.248,5.324,3.312,8.958,1.634c2.318-1.07,5.552-1.969,7.729-1.175c5.463,1.99,8.059-0.75,11.362-4.329
		c5.184-5.618,11.897-9.105,19.624-9.99c12-1.371,23.595,6.726,27.552,19.332c1.064,3.394,2.442,6.481,4.457,9.383
		c3.388,4.882,3.517,5.531,3.927,12.919c5.704-1.114,11.471-3.632,17.006,0.602c1.168,0.894,1.864-0.943,2.553-1.749
		c2.683-3.14,4.902-6.869,9.813-6.849c1.966,0.008,1.247-1.646,1.275-2.592c0.074-2.509,0.304-4.963,0.889-7.419
		c3.387-14.198,15.472-19.486,27.822-11.882c2.688,1.654,4.952,2.362,7.762,0.875c1.211-0.642,2.841-1.256,3.778-0.28
		c3.364,3.499,7.394,2.021,11.251,1.888c8.717-0.304,15.129,3.291,18.864,11.252c1.114,2.375,2.52,4.003,5.153,4.938
		c3.242,1.15,5.676,2.146,6.676-2.604c0.492-2.334,2.698-4.07,5.196-4.073c4.679-0.007,9.457-1.411,14.443,0.867
		c0.334-3.822,0.01-7.65,2.237-10.972c2.209-3.293,5.846-4.553,9.629-6.688c-3.678-1.599-6.8-2.624-9.59-4.228
		c-10.465-6.014-12.342-17.588-4.3-26.606c1.476-1.654,1.929-2.924,1.587-5.199c-1.828-12.168,9.094-25.492,21.328-26.013
		c2.639-0.112,3.598-0.966,4.514-3.341c4.356-11.313,7.08-12.714,19.183-10.186c1.361,0.284,2.161,0.102,3.087-0.746
		c4.26-3.9,9.465-5.356,15.828-5.604c-3.949-2.876-7.972-4.503-10.914-7.597c-2.217-2.331-4.629-4.785-3.336-8.296
		c1.381-3.751,4.979-3.971,8.347-4.166c2.981-0.173,5.954,0.062,9.309,0.91c-0.881-2.139-1.654-3.74-2.209-5.416
		c-1.623-4.899-0.963-9.278,3.496-12.416c1.973-1.389,2.735-2.396,1.638-5.094c-3.479-8.53,1.472-15.961,10.827-16.993
		c5.701-0.628,10.819,1.267,16.003,3.523c-0.484-4.877-1.337-9.63-1.357-14.387c-0.062-14.072,7.249-21.587,21.278-22.323
		c0.998-0.052,2.037-0.28,2.99-0.091c5.433,1.076,9.508-0.646,12.889-5.124c2.228-2.951,5.474-5.021,9.49-4.661
		c2.424,0.215,2.678-1.405,3.12-2.979c1.402-4.988,3.281-9.771,6.087-14.153c5.754-8.987,14.482-12.627,24.951-10.312
		c2.428,0.537,4.975,1.003,7.153,2.113c15.525,7.907,31.753,14.522,46.198,24.432c6.622,4.542,12.429,10.002,15.877,18.22
		c3.368-5.898,6.167-11.457,10.138-16.269c5.25-6.363,11.346-11.313,19.959-11.935c1.85-0.135,2.51-1.279,3.434-2.446
		c1.753-2.215,3.427-4.535,5.441-6.494c5.129-4.987,10.738-5.954,16.84-2.271c8.812,5.318,16.508,11.672,18.732,22.697
		c1.162,5.764,1.854,5.833,7.478,3.4c7.308-3.162,14.739-5.356,22.752-3.009c10.075,2.95,13.625,12.408,7.936,21.252
		c-2.86,4.445-6.979,7.534-11.543,10.089c-5.979,3.348-6.054,11.523-0.93,15.946c3.157,2.725,5.29,2.872,8.753,1.009
		c3.548-1.911,5.348-1.36,11.706,1.155c0.456-9.936,4.515-16.948,15.174-18.387C726.41,131.519,726.41,202.853,726.41,274.186z"/>
</g>
</svg>
