<?xml version="1.0" encoding="iso-8859-1"?>
<!-- Generator: Adobe Illustrator 16.0.0, SVG Export Plug-In . SVG Version: 6.00 Build 0)  -->
<!DOCTYPE svg PUBLIC "-//W3C//DTD SVG 1.1//EN" "http://www.w3.org/Graphics/SVG/1.1/DTD/svg11.dtd">
<svg version="1.1" id="Layer_1" xmlns="http://www.w3.org/2000/svg" xmlns:xlink="http://www.w3.org/1999/xlink" x="0px" y="0px"
	 width="1560.094px" height="429.093px" viewBox="0 0 1560.094 429.093" style="enable-background:new 0 0 1560.094 429.093;"
	 xml:space="preserve">
<g>
	<path style="fill:#5F0632;" d="M1560.094,35.093c-8.022,7.892-18.208,10.607-28.918,11.962c-18.803,2.38-37.595,0.655-56.387-0.271
		c-6.487-0.319-12.979-0.604-19.469-0.807c-4.865-0.152-9.279,0.678-13.762,3.3c-6.135,3.589-13.496,3.291-20.438,3.611
		c-13.312,0.615-26.645,0.854-39.969,1.139c-3.01,0.064-5.279,1.027-7.502,3.168c-12.42,11.969-26.635,18.029-44.053,12.506
		c-1.22-0.387-2.138-0.38-3.248,0.329c-16.632,10.612-34.007,8.238-51.391,2.528c-3.227-1.06-5.449-0.635-8.224,0.868
		c-18.892,10.238-38.503,14.094-58.751,4.494c-5.312-2.519-9.528-2.974-15.236-1.352c-22.195,6.306-44.086-3.22-55.107-23.336
		c-1.07-1.952-1.948-1.998-3.836-1.546c-3.055,0.733-6.212,1.31-9.342,1.398c-6.319,0.18-9.083-2.599-9.574-9.468
		c-0.16-2.245-0.222-3.651-3.184-3.521c-14.397,0.63-26.097-5.435-36.291-15.062c-1.421-1.342-2.712-2.908-5.376-3.79
		c-0.256,6.256,0.565,12.374-0.844,18.305c-0.575,2.421-0.936,4.916-1.754,7.251c-3.709,10.565-10.413,13.919-23.336,11.586
		c0.298,18.274-4.233,33.956-24.701,38.384c-13.317,2.882-26.062,1.091-36.351-9.746c-5.957,4.155-12.741,3.368-18.787-0.336
		c-4.848-2.97-9.247-2.904-14.489-2.003c-16.175,2.779-31.189,0.189-43.789-11.255c-1.841-1.672-3.924-3.371-5.025-5.506
		c-2.916-5.655-6.646-8.52-13.5-7.258c-2.431,0.447-3.844,0.299-5.041,2.881c-4.515,9.738-13.084,12.698-23.016,12.59
		c-2.966-0.032-4.989,0.354-6.372,3.255c-1.011,2.122-2.891,4.095-5.424,3.808c-3.753-0.425-4.246,1.779-4.962,4.537
		c-0.916,3.525-2.264,6.937-4.143,10.111c-6.08,10.271-15.396,12.906-26.005,7.355c-3.268-1.71-5.952-4.173-8.638-6.675
		c-9.22,11.749-21.017,17.811-35.857,17.628c-1.18-0.015-2.207,0.046-3.157,1.026c-7.771,8.016-17.72,8.563-27.85,7.484
		c-4.191-0.447-6.847,0.201-9.725,3.648c-7.193,8.614-16.284,13.282-27.838,9.655c-6.099-1.913-11.019-5.653-13.508-11.729
		c-1.051-2.565-2.187-2.943-4.569-1.982c-9.781,3.941-19.392,4.727-28.852-2.801c1.396,8.981-2.062,15.146-8.297,20.071
		c-0.95,0.751-2.004,1.064-1.653,3.036c1.806,10.181-3.601,17.006-14.113,17.402c-4.213,0.158-6.259,1.359-7.962,5.364
		c-3.573,8.403-10.615,11.935-19.651,11.807c-1.515-0.021-3.31-0.985-4.023,2.071c-3.777,16.177-11.069,19.906-27.42,14.482
		c-1.137,11.542-2.989,13.639-14.834,16.341c-1.32,0.301-1.991,0.813-2.498,2.002c-6.766,15.89-28.482,19.784-39.802,8.562
		c-2.007-1.989-2.457,0.092-3.356,0.932c-8.538,7.965-23.312,9.879-33.581,4.385c-2.708-1.447-4.697-3.623-6.494-6.055
		c-12.74,14.408-36.875,15.084-50.084,1.491c-1.256-1.292-1.998-2.031-4.044-1.14c-16.324,7.108-26.859-0.06-26.5-17.875
		c0.01-0.484-0.083-0.97-0.181-2.032c-6.736,7.386-14.008,5.847-21.79,1.653c0.156,4.049,1.903,7.476,1.903,11.238
		c0,10.797-6.278,21.728-20.74,16.763c-2.682-0.922-2.775,0.662-3.097,2.229c-1.154,5.609-3.22,10.848-6.533,15.51
		c-9.719,13.674-29.538,19.383-45.123,13.104c-3.777-1.521-7.073-3.652-9.691-8.192c-3.765,19.729-11.656,35.972-30.819,43.043
		c-18.292,6.752-35.923,4.386-52-7.172c0.998,20.419-14.145,32.544-31.534,24.854c-0.515,1.922-0.256,4.424-2.418,5.33
		c-3.688,1.545-3.66,3.75-2.688,7.338c3.152,11.648-4.16,22.254-16.944,24.719c-2.751,0.529-3.666,1.625-4.609,4.031
		c-4.116,10.484-11.322,18.365-21.392,23.412c-14.757,7.395-32.573-0.486-37.304-16.299c-0.269-0.896,0.587-2.748-1.48-2.473
		c-5.717,0.764-8.603-3.41-12.28-7.129c-0.47,2.83-0.889,5.336-1.302,7.844c-0.913,5.539-2.677,11.152-6.759,14.732
		c-5.954,5.223-7.439,11.662-9.077,18.875c-4.284,18.861-18.957,30.061-40.688,32.404c-1.196,0.129-2.731-0.625-3.556,0.977
		c-8,0-8,0-8-8C0.094,282.259,0.112,143.426,0,4.593C-0.003,0.844,0.845-0.001,4.594,0c392.833,0.099,785.667,0.093,1178.5,0.093
		c8.421,1.842,15.029,6.914,21.229,12.435c4.046,3.602,7.877,4.438,13.159,2.806c8.587-2.653,17.456-3.789,26.573-2.602
		c8.971,1.169,14.57,3.858,20.457,10.862c5.515-9.76,11.791-18.793,22.58-23.501c21.333,0,42.667,0,64,0
		c5.193,1.919,9.348,5.649,14.259,8.114c15.421,7.738,31.545,10.751,48.403,6.668c20.834-5.046,40.271-1.762,58.791,8.38
		c16.925,9.269,35.104,10.332,53.804,8.885c8.771-0.68,17.57-1.119,26.369-1.424c2.688-0.093,5.344,0.261,7.375,2.377
		C1560.094,33.76,1560.094,34.426,1560.094,35.093z"/>
</g>
</svg>
