<?xml version="1.0" encoding="iso-8859-1"?>
<!-- Generator: Adobe Illustrator 16.0.0, SVG Export Plug-In . SVG Version: 6.00 Build 0)  -->
<!DOCTYPE svg PUBLIC "-//W3C//DTD SVG 1.1//EN" "http://www.w3.org/Graphics/SVG/1.1/DTD/svg11.dtd">
<svg version="1.1" id="Layer_1" xmlns="http://www.w3.org/2000/svg" xmlns:xlink="http://www.w3.org/1999/xlink" x="0px" y="0px"
	 width="602.094px" height="182.246px" viewBox="0 0 602.094 182.246" style="enable-background:new 0 0 602.094 182.246;"
	 xml:space="preserve">
<linearGradient id="SVGID_1_" gradientUnits="userSpaceOnUse" x1="-262.9531" y1="417.2461" x2="-262.9531" y2="235.001" gradientTransform="matrix(1 0 0 -1 564 417.2461)">
	<stop  offset="0" style="stop-color:#FFFFFF"/>
	<stop  offset="0" style="stop-color:#C1523F"/>
	<stop  offset="0.3366" style="stop-color:#B64A3C"/>
	<stop  offset="0.9311" style="stop-color:#983335"/>
	<stop  offset="1" style="stop-color:#943034"/>
</linearGradient>
<path style="fill:url(#SVGID_1_);" d="M602,180c-0.4,0.025-0.802,0.051-1.202,0.076c-16.604-6.137-33.704-7.481-51.083-4.76
	c-3.012,0.473-4.441-0.271-6.259-2.311c-13.286-14.911-28.931-18.348-47.303-9.986c-5.3,2.412-10.036,4.59-15.604,1.067
	c-1.312-0.828-3.199-0.956-4.836-1.015c-3.965-0.145-5.844-1.707-6.966-5.903c-4.226-15.812-18.012-20.995-31.866-12.125
	c-4.397,2.813-8.251,6.39-13.508,7.786c-1.471,0.391-2.912,1.714-3.893,2.979c-3.107,4.004-6.24,3.951-10.258,1.16
	c-7.622-5.297-15.306-5.302-21.853,1.084c-3.974,3.873-7.941,4.096-12.615,3.682c-3.137-0.278-6.272-0.563-9.394-0.844
	c-0.277-1.435,0.837-2.199,1.229-3.25c3.359-8.99,0.502-16.811-5.19-23.613c-5.072-6.06-11.983-7.742-19.463-5.077
	c-4.207,1.5-7.982,3.464-12.396,0.37c-1.512-1.059-3.924-0.438-5.838,0.283c-3.064,1.151-5.873,0.898-9.078-0.14
	c-9.801-3.177-18.339-1.096-25.012,7.226c-3.172,3.957-8.269,3.261-10.668-1.336c-1.209-2.317-2.928-4.338-5.345-4.988
	c-4.879-1.315-9.87-2.209-14.478-4.408c-0.29-1.297-0.556-2.602-0.875-3.891c-1.12-4.535-3.337-8.4-7.464-10.768
	c-3.778-2.167-7.273-1.209-10.633,1.377c-1.264,0.973-2.788,0.6-3.723-1.109c-3.372-6.159-9.229-8.275-15.641-9.402
	c-1.286-0.227-2.726,0.041-3.57-1.322c-3.318-5.359-8.394-5.372-13.685-4.337c-1.521,0.297-2.273,0.263-3.148-1.237
	c-6.541-11.221-13.937-12.206-23.47-3.255c-5.617,5.273-8.617,5.325-14.643,0.255c-7.043-5.927-11.344-5.659-17.345,1.131
	c-2.335,2.643-4.578,2.309-6.577-0.262c-1.213-1.56-2.109-3.366-3.147-5.062c3.979-1.627,7.349-4.131,9.248-7.989
	c4.755-9.66,4.269-19.203-1.296-28.455c-1.381-3.489-3.832-6.049-6.969-8.012c-0.858-0.874-1.716-1.748-2.574-2.621l0,0
	c0,0,0,0,0-0.001c-0.16-0.643-0.334-1.282-0.477-1.93c-2.919-13.273-9.212-23.145-24.343-24.01
	c-1.545-0.088-2.357-0.813-3.063-2.081C102.187,6.607,96.777,2.467,90,0c-2.667,0-5.333,0-8,0
	C71.283,2.214,63.356,9.378,54.87,15.483c-1.701,1.224-3.201,2.229-5.306,2.241c-10.068,0.064-17.334,5.287-22.825,13.101
	c-2.991,4.256-5.146,9.101-9.662,12.113c-0.24-0.185-0.484-0.367-0.742-0.543c-3.198,0.304-6.358,0.85-9.629,0.435
	C4.264,42.52,1.858,43.113,0,45c0,13,0,26,0,39c0,10,0,20,0,30c0,1.333,0,2.667,0,4c0,3,0,6,0,9c0,18,0,36,0,54
	c0.9,2.066,2.704,0.938,4,0.939C50,182.012,96,182,142,182c151.835,0,303.672,0,455.507,0c1.166,0,2.334-0.052,3.496,0.012
	C602.973,182.118,601.588,180.627,602,180z"/>
</svg>
