<?xml version="1.0" encoding="iso-8859-1"?>
<!-- Generator: Adobe Illustrator 16.0.0, SVG Export Plug-In . SVG Version: 6.00 Build 0)  -->
<!DOCTYPE svg PUBLIC "-//W3C//DTD SVG 1.1//EN" "http://www.w3.org/Graphics/SVG/1.1/DTD/svg11.dtd">
<svg version="1.1" id="Layer_1" xmlns="http://www.w3.org/2000/svg" xmlns:xlink="http://www.w3.org/1999/xlink" x="0px" y="0px"
	 width="349px" height="91px" viewBox="0 0 349 91" style="enable-background:new 0 0 349 91;" xml:space="preserve">
<g>
	<path style="fill:#040002;" d="M273,0c10.334,0,20.666,0,31,0c9.792,1.236,19.755,0.673,29.465,2.653
		C338.73,3.728,344.42,3.429,349,7c0,1,0,2,0,3c-5.061,24.758-12.693,48.859-18.699,73.379c-0.646,2.643-0.855,5.719-3.949,7.086
		c-4.502,0.046-8.998,0.01-13.496,0.021c-6.231-0.002-12.463,0.002-18.692,0c-3.459-0.002-6.917,0.002-10.377,0
		c-9.597-0.002-19.191,0.002-28.787,0c-16.715,0-33.431-0.014-50.146,0.021c-1.619,0.004-3.316-0.443-4.854,0.492c-7,0-14,0-21,0
		c-5.766-1.105-11.587-0.385-17.38-0.479c-8.828-0.142-17.659-0.035-26.489-0.037c-6.651,0-13.302,0.002-19.952,0
		c-5.001,0-10.004,0.002-15.005,0c-4.016,0-8.032,0.002-12.048,0c-3.386,0-6.771,0.002-10.158,0c-4.036,0-8.072,0.002-12.108,0
		c-18.974,0.135-37.933-0.512-56.895-1.021C5.796,89.378,2.613,89.186,0,87c0-0.333,0-0.667,0-1c1.097-4.52,4.577-6.712,8.388-8.568
		c6.246-3.046,12.953-4.244,19.797-4.774c2.694-0.209,5.363-0.47,7.642-2.002c10.403-6.989,22.194-10.771,34.056-14.039
		c9.891-2.726,18.774-7.709,28.345-11.11c11.981-4.259,24.082-7.756,36.755-9.112c3.517-0.377,6.817-1.451,9.843-3.365
		c17.694-11.189,37.406-16.316,57.848-19.363c18.432-2.747,37.061-4.579,54.674-11.345C262.359,0.395,267.837,1.158,273,0z"/>
	<path style="fill:#3F373B;" d="M134.951,90.041c0.04,0.318,0.056,0.639,0.049,0.959c-6.667,0-13.333,0-20,0
		c-0.313-0.175-0.426-0.364-0.341-0.568c0.088-0.211,0.18-0.316,0.277-0.316C121.607,90.09,128.279,90.064,134.951,90.041z"/>
	<path style="fill:#605B5E;" d="M114.936,90.114C114.978,90.408,115,90.703,115,91c-5,0-10,0-15,0
		c-0.311-0.166-0.421-0.345-0.334-0.537c0.09-0.197,0.183-0.297,0.281-0.297C104.943,90.148,109.939,90.132,114.936,90.114z"/>
	<path style="fill:#D2D0D1;" d="M66,91c-0.013-0.277-0.024-0.557-0.035-0.835c3.993,0.007,7.986,0.013,11.979,0.021
		c0.365,0.156,0.495,0.33,0.39,0.52C78.226,90.9,78.115,91,78,91C74,91,70,91,66,91z"/>
	<path style="fill:#7F7B7D;" d="M99.946,90.166C99.968,90.443,99.985,90.723,100,91c-4,0-8,0-12,0
		c-0.316-0.174-0.427-0.357-0.334-0.552c0.095-0.199,0.192-0.3,0.292-0.3C91.954,90.155,95.95,90.16,99.946,90.166z"/>
</g>
</svg>
