<?xml version="1.0" encoding="iso-8859-1"?>
<!-- Generator: Adobe Illustrator 16.0.0, SVG Export Plug-In . SVG Version: 6.00 Build 0)  -->
<!DOCTYPE svg PUBLIC "-//W3C//DTD SVG 1.1//EN" "http://www.w3.org/Graphics/SVG/1.1/DTD/svg11.dtd">
<svg version="1.1" id="Layer_1" xmlns="http://www.w3.org/2000/svg" xmlns:xlink="http://www.w3.org/1999/xlink" x="0px" y="0px"
	 width="161.096px" height="108.166px" viewBox="0 0 161.096 108.166" style="enable-background:new 0 0 161.096 108.166;"
	 xml:space="preserve">
<g>
	<path d="M0,106.06c0-2,0-4,0-6C2.475,87.493,10.498,78.83,20.309,71.524c15.618-11.627,33.403-18.553,52.044-23.51
		c2.475-0.658,4.754-1.341,6.425-3.462c8.449-10.727,19.748-17.787,31.582-24.021c12.527-6.6,25.289-12.716,38.652-17.537
		c3.619-1.306,7.377-1.776,10.988-2.935c1.596-0.342,0.979,0.893,0.979,1.5c0.023,34.667-0.004,69.333,0.083,104
		c0.005,2.146-0.396,2.825-2.566,2.547c-1.805-0.231-3.66-0.047-5.494-0.047c-4-0.851-8-0.851-12,0c-2.334,0-4.666,0-7,0
		c-1.377-0.89-2.92-0.5-4.385-0.498c-40.948,0.055-81.894-0.852-122.843-0.533C4.497,107.045,2.078,107.61,0,106.06z"/>
</g>
</svg>
