<?xml version="1.0" encoding="UTF-8"?>
<!DOCTYPE svg PUBLIC "-//W3C//DTD SVG 1.1//EN" "http://www.w3.org/Graphics/SVG/1.1/DTD/svg11.dtd">
<!-- Creator: CorelDRAW X7 -->
<svg xmlns="http://www.w3.org/2000/svg" xml:space="preserve" width="100%" height="100%" version="1.1" style="shape-rendering:geometricPrecision; text-rendering:geometricPrecision; image-rendering:optimizeQuality; fill-rule:evenodd; clip-rule:evenodd"
viewBox="0 0 1063 53"
 xmlns:xlink="http://www.w3.org/1999/xlink"
 baseProfile="tiny">
 <defs>
  <style type="text/css">
   <![CDATA[
    .fil0 {fill:#F09369}
   ]]>
  </style>
 </defs>
 <g id="Layer_x0020_1">
  <metadata id="CorelCorpID_0Corel-Layer"/>
  <path class="fil0" d="M296 4c38,0 69,4 111,4l-129 7c-49,0 -86,3 -135,3l0 3c99,0 188,4 284,4l0 3c-43,0 -87,0 -131,0 -49,0 -85,4 -132,4l45 7c-35,0 -70,0 -104,0 -40,0 -67,3 -105,3l243 11 820 -4c-22,0 -44,0 -66,0 -25,0 -36,-3 -63,-3l105 -7 -337 7c-85,0 -154,-7 -236,-7l409 -4 -27 -7c-12,0 -26,0 -39,0l164 -7c-25,0 -34,-3 -59,-3 -21,0 -42,0 -63,0l188 -7c-37,0 -60,-4 -94,-3 -34,0 -67,0 -101,0l84 -7 -632 3z"/>
 </g>
</svg>
