<?xml version="1.0" encoding="UTF-8"?>
<!DOCTYPE svg PUBLIC "-//W3C//DTD SVG 1.1//EN" "http://www.w3.org/Graphics/SVG/1.1/DTD/svg11.dtd">
<!-- Creator: CorelDRAW X7 -->
<svg xmlns="http://www.w3.org/2000/svg" xml:space="preserve" width="100%" height="100%" version="1.1" style="shape-rendering:geometricPrecision; text-rendering:geometricPrecision; image-rendering:optimizeQuality; fill-rule:evenodd; clip-rule:evenodd"
viewBox="0 0 560 23"
 xmlns:xlink="http://www.w3.org/1999/xlink"
 baseProfile="tiny">
 <defs>
  <style type="text/css">
   <![CDATA[
    .fil0 {fill:#F8B495}
   ]]>
  </style>
 </defs>
 <g id="Layer_x0020_1">
  <metadata id="CorelCorpID_0Corel-Layer"/>
  <path class="fil0" d="M1 10c-1,1 -1,2 0,3 38,0 62,4 101,4 36,0 71,0 107,0 -17,-1 -28,1 -34,7l267 0c13,0 22,-1 26,-2 16,-2 29,-2 47,-2 35,1 36,5 45,-7l-108 -3c29,0 48,-7 77,-7 -4,-1 -3,-4 -12,-3 -61,0 -98,3 -158,3 -57,0 -105,-3 -159,-3l-28 0c-15,0 -20,3 -36,3 -15,1 -33,-1 -48,0 -26,1 -60,7 -87,7z"/>
 </g>
</svg>
