<?xml version="1.0" encoding="UTF-8"?>
<!DOCTYPE svg PUBLIC "-//W3C//DTD SVG 1.1//EN" "http://www.w3.org/Graphics/SVG/1.1/DTD/svg11.dtd">
<!-- Creator: CorelDRAW X7 -->
<svg xmlns="http://www.w3.org/2000/svg" xml:space="preserve" width="100%" height="100%" version="1.1" style="shape-rendering:geometricPrecision; text-rendering:geometricPrecision; image-rendering:optimizeQuality; fill-rule:evenodd; clip-rule:evenodd"
viewBox="0 0 673 30"
 xmlns:xlink="http://www.w3.org/1999/xlink"
 baseProfile="tiny">
 <defs>
  <style type="text/css">
   <![CDATA[
    .fil0 {fill:#F09369}
   ]]>
  </style>
 </defs>
 <g id="Layer_x0020_1">
  <metadata id="CorelCorpID_0Corel-Layer"/>
  <path class="fil0" d="M0 13l265 4c-40,3 -79,5 -119,8 -4,2 -1,3 2,3 24,2 48,3 76,3 31,0 61,0 92,0l3 0c44,0 74,-4 118,-4l176 -8c19,-2 37,-2 60,-2l-131 -7c11,0 84,-2 94,-9l-1 -2c-25,0 -49,0 -74,0l-5 0c-30,0 -47,4 -77,4 -27,0 -53,0 -80,0 -31,0 -48,3 -80,3 -26,0 -53,0 -80,0 -31,0 -48,4 -79,4 -27,0 -54,0 -80,0 -31,0 -49,3 -80,3z"/>
 </g>
</svg>
