<?xml version="1.0" encoding="iso-8859-1"?>
<!-- Generator: Adobe Illustrator 16.0.0, SVG Export Plug-In . SVG Version: 6.00 Build 0)  -->
<!DOCTYPE svg PUBLIC "-//W3C//DTD SVG 1.1//EN" "http://www.w3.org/Graphics/SVG/1.1/DTD/svg11.dtd">
<svg version="1.1" id="Layer_1" xmlns="http://www.w3.org/2000/svg" xmlns:xlink="http://www.w3.org/1999/xlink" x="0px" y="0px"
	 width="91.984px" height="731.156px" viewBox="0 0 91.984 731.156" style="enable-background:new 0 0 91.984 731.156;"
	 xml:space="preserve">
<g>
	<path style="fill:#140A0D;" d="M80.38,41.615c-21.81,53.896-30.787,88.869-40.618,146.337c-5.012,29.296-7.977,58.659-9.924,88.25
		c-2.266,34.442-0.77,68.936-2.08,103.352c-1.89,49.594-3.718,99.174-2.636,148.789c0.689,31.662,3.22,63.381,11.521,94
		c5.521,20.357,8.969,41.25,16.324,61.193c4.893,13.262,5.283,27.76,7.674,41.705c0.322,1.879-0.412,3.938-0.658,5.914
		c-6.334,0-12.666,0-19,0c-7.028-4.066-14.648-5.129-22.532-3.941c-8.991,1.354-10.545,0.402-10.4-8.604
		c0.197-12.336-0.551-24.625-1.55-36.889c-1.458-17.904-4.146-35.658-5.567-53.607c-1.95-24.623-0.293-91.963,0.021-108.924
		c0.301-16.324,0.756-32.639,0.89-48.947c0.279-33.979,0.677-67.939,2.003-101.898c0.904-23.12,1.635-46.24,2.974-69.345
		c1.477-25.465,4.018-50.794,7.707-76.018c5.439-37.183,14.236-73.638,24.965-109.586c9.527-31.923,19.675-63.688,35.45-93.291
		c3.36-6.308,6.258-10.549,10.042-18.95c7-3,7,0,7,7.178C91.985,10.94,80.38,41.615,80.38,41.615z"/>
</g>
</svg>
