<?xml version="1.0" encoding="iso-8859-1"?>
<!-- Generator: Adobe Illustrator 16.0.0, SVG Export Plug-In . SVG Version: 6.00 Build 0)  -->
<!DOCTYPE svg PUBLIC "-//W3C//DTD SVG 1.1//EN" "http://www.w3.org/Graphics/SVG/1.1/DTD/svg11.dtd">
<svg version="1.1" id="Layer_1" xmlns="http://www.w3.org/2000/svg" xmlns:xlink="http://www.w3.org/1999/xlink" x="0px" y="0px"
	 width="210.328px" height="167px" viewBox="0 0 210.328 167" style="enable-background:new 0 0 210.328 167;" xml:space="preserve"
	>
<g>
	<path style="fill:#140A0D;" d="M210.328,9c-11.98,9.242-24.844,17.586-35.544,28.128c-4.89,4.818-8.032-3.699-12.382,1.735
		c-5.599,6.994-14.996,17.929-20.404,16.711c-13.293-2.993-7.038,11.713-13.402,11.4c-4.297-0.212-6.807,1.247-9.576,3.56
		c0.117-3.939,0.326-7.878,0.33-11.816c0.008-7.198-0.106-14.396-0.172-21.595c-1.27,6.754-2.518,13.512-3.816,20.261
		c-1.389,7.206,0.56,15.267-5.207,21.34c-1.383,1.454-3.331,2.368-5.02,3.531c-0.594-1.981-1.502-3.93-1.721-5.951
		c-0.603-5.566-0.917-11.164-1.458-18.239c-5.059,10.705-3.427,22.169-11.268,30.19c-1.923,1.968-2.947,4.813-4.384,7.257
		c-0.285-0.562-0.779-1.109-0.82-1.688c-0.219-3.103-0.325-6.214-0.725-14.769c-3.116,12.567-4.892,19.976-6.828,27.342
		c-0.393,1.496-1.387,2.834-2.104,4.244c-0.746-1.556-2.142-3.111-2.134-4.662c0.06-12.313,0.445-24.625,0.578-36.938
		c0.023-2.202-0.66-4.412-1.016-6.619c-0.729,2.042-1.962,4.05-2.103,6.131c-0.762,11.289-1.216,22.599-1.862,33.896
		c-0.213,3.726,0.426,7.776-3.215,10.479c-0.908-2.778-1.817-5.557-3.636-11.118c-0.953,8.039-1.441,13.602-2.367,19.088
		c-0.281,1.664-1.773,3.125-2.71,4.679c-0.664-1.552-1.855-3.089-1.901-4.657c-0.208-7.08-0.09-14.171-1.934-21.334
		c-0.612,7.297-1.077,14.612-1.929,21.881c-0.244,2.081-1.605,4.03-2.455,6.04c-0.578-2.183-1.658-4.37-1.64-6.548
		c0.059-7.316,0.581-14.631,0.752-21.949c0.035-1.518-0.676-3.053-1.043-4.578c-0.602,1.573-1.639,3.122-1.736,4.729
		c-0.713,11.773-1.062,23.572-1.905,35.337c-0.354,4.926-2.805,10.049-8.316,8.924c-4.232-0.862-1.267-6.229-1.836-9.526
		c-0.9-5.209,2.993-10.629-0.569-15.787c-2.237,5.24-4.798,10.371-6.621,15.75c-1.92,5.666-2.938,11.635-4.76,17.34
		c-0.669,2.097-2.513,3.818-3.821,5.71c-0.166-2.353-0.607-4.726-0.433-7.052c0.269-3.586,0.961-7.142-0.451-11.349
		c-3.811,9.5-7.623,18.999-11.434,28.498c-1,0-2.076,0.384-3,0c-0.871-0.36-1.333-1.333-2-2c0-2.667,6.097-17.739,4-23
		c-2.097-5.261-5.378-9.362-4-12s13.488-36.03,22.191-52.746C38.576,46.421,66.62,27.962,98.959,16.968
		C119.316,10.043,140.509,5.571,161.328,0c3,0,6,0,9,0c0.398,1.818,0.797,3.638,1.195,5.456C184.562-1.848,197.377,6.902,210.328,6
		C210.328,7,210.328,8,210.328,9z"/>
</g>
</svg>
