<?xml version="1.0" encoding="iso-8859-1"?>
<!-- Generator: Adobe Illustrator 16.0.0, SVG Export Plug-In . SVG Version: 6.00 Build 0)  -->
<!DOCTYPE svg PUBLIC "-//W3C//DTD SVG 1.1//EN" "http://www.w3.org/Graphics/SVG/1.1/DTD/svg11.dtd">
<svg version="1.1" id="Layer_1" xmlns="http://www.w3.org/2000/svg" xmlns:xlink="http://www.w3.org/1999/xlink" x="0px" y="0px"
	 width="151.973px" height="251.076px" viewBox="0 0 151.973 251.076" style="enable-background:new 0 0 151.973 251.076;"
	 xml:space="preserve">
<g>
	<path style="fill:#140A0D;" d="M151.794,3.076c-7.898,9.351-13.57,19.639-13.603,32.302c-0.003,1.247,1.021,3.159-0.532,3.534
		c-1.836,0.443-1.951-1.802-2.584-3.06c-0.147-0.293-0.154-0.655-0.295-0.952c-0.873-1.84-0.447-5.472-2.916-5.088
		c-3.176,0.493-1.984,4.085-1.908,6.362c0.122,3.649,0.791,7.278,1.161,10.923c0.178,1.75,1.37,4.051-0.471,5.098
		c-2.149,1.223-2.194-2.551-4.835-2.621c0.349,14.948,7.672,29.121,4.87,44.423c-3.84-6.061-6.301-12.611-7.868-19.503
		c-1.184-5.194-1.968-10.49-3.955-15.471c-0.521-1.306-0.863-3.374-2.827-2.794c-1.711,0.506-1.601,2.49-1.313,3.917
		c0.822,4.076,2.001,8.081,2.765,12.166c0.412,2.207,1.019,4.505,0.165,7.365c-3.017-3.986-4.156-8.283-5.443-12.479
		c-0.631-2.059-0.786-4.258-1.291-6.36c-0.396-1.651,0.076-4.665-2.129-4.319c-2.104,0.329-0.89,3.061-0.684,4.76
		c1.844,15.176,3.742,30.345,5.543,45.525c0.187,1.568,0.694,3.862-1.146,4.475c-2.357,0.785-2.859-1.771-3.606-3.283
		c-2.021-4.093-2.548-8.589-3.181-13.047c-1.143-8.044-3.335-15.785-6.369-24.004c-2.151,2.25-1.009,3.81-0.594,5.223
		c3.01,10.245,5.562,20.582,6.596,31.241c0.113,1.16,0.4,2.327,0.334,3.476c-0.119,2.063,1.108,5.405-1.03,5.848
		c-2.563,0.529-3.109-3.011-3.813-5.024c-1.536-4.391-2.499-8.979-3.896-13.423c-0.605-1.926-0.609-4.322-3.852-5.862
		c0.688,5.271,1.167,9.943,1.936,14.567c1.046,6.298,0.746,12.625,0.709,18.948c-0.008,1.412,0.49,3.556-1.226,3.945
		c-1.845,0.419-2.016-1.824-2.601-3.086c-3.79-8.167-7.247-16.457-9.583-25.188c-0.419-1.563-0.53-4.499-2.879-3.781
		c-1.882,0.575-0.471,2.938,0.037,4.396c3.901,11.226,4.57,23.196,7.994,34.532c0.278,0.926,0.188,1.987,0.14,2.979
		c-0.048,0.99-0.118,2.149-1.231,2.527c-1.45,0.49-2.166-0.66-2.623-1.711c-1.26-2.9-2.37-5.863-3.572-8.787
		c-0.81-1.969-0.985-4.228-3.047-6.297c-0.918,2.553-0.187,4.743,0.033,6.879c1.128,10.924,3.607,21.7,3.582,32.746
		c-0.002,1.271,0.477,3.249-0.885,3.59c-1.863,0.469-2.062-1.769-2.685-2.979c-2.312-4.506-2.937-9.521-4.124-14.366
		c-0.939-3.831-1.933-7.656-4.225-12.078c-1.376,4.448,0.113,7.707,0.574,10.986c0.649,4.611,1.63,9.177,2.229,13.793
		c0.191,1.482,0.74,3.925-1.409,4.186c-1.979,0.237-2.333-2.177-2.629-3.699c-1.146-5.897-2.97-11.553-5.465-17.282
		c-1.796,1.05-1.238,2.669-1.312,3.971c-0.408,7.367,0.825,14.61,1.711,21.882c0.168,1.379,0.845,3.441-1.014,3.922
		c-1.688,0.436-2.438-1.513-3.023-2.818c-1.194-2.663-2.169-5.426-3.349-8.443c-1.968,2.174-1.005,4.155-0.67,5.984
		c1.289,7.043,2.76,14.054,4.019,21.102c0.31,1.73,1.026,4.346-0.709,5.071c-2.188,0.916-2.667-1.956-3.544-3.334
		c-3.582-5.623-6.841-11.435-9.076-17.761c-0.479-1.357-0.825-2.861-2.824-3.842c-0.008,4.862,1.515,9.053,2.277,13.352
		c0.785,4.425,1.695,8.83,2.37,13.271c0.224,1.478,1.563,3.808-0.526,4.346c-1.701,0.438-2.229-2.117-2.958-3.526
		c-1.796-3.478-3.438-7.033-5.241-10.761c-1.878,1.838-0.803,3.486-0.662,5.017c0.319,3.479,0.868,6.937,1.12,10.418
		c0.115,1.603,0.696,3.946-0.817,4.656c-2.134,1.001-2.213-1.808-3.296-2.851c-0.57-0.547-1.365-1.537-1.812-1.416
		c-1.506,0.408-1.064,1.912-1.005,2.973c0.439,7.738-0.736,15.286-2.614,22.746c-0.348,1.379-0.333,3.674-2.015,3.605
		c-2.002-0.078-1.103-2.346-1.351-3.685c-0.438-2.363,0.995-6.468-1.229-6.739c-2.726-0.334-1.794,3.865-2.705,5.983
		c-1.575,3.664-2.775,7.489-4.184,11.229c-0.35,0.928-0.858,2.004-2.042,1.873c-1.511-0.166-1.736-1.559-1.613-2.678
		c0.308-2.805,0.877-5.577,1.272-8.373c0.132-0.936,0.468-2.221-0.904-2.439c-0.916-0.146-1.247,0.944-1.597,1.688
		c-2.899,6.147-3.947,12.681-4.025,19.414c-1.333,0-2.667,0-4,0c-0.55-9.037,1.153-18.004,1.417-28.257
		c-2.33,3.119-3.874,5.188-5.417,7.257c0-7.333-1-13.832,0.83-21.998c2.771-2.608,2.175-6.185,2.472-9.565
		c0.079-0.902-1.468-2.103-3.573-3.769c-0.4-2.167-1.061-3,0.272-5.668c0.674-0.935,1.746-1.784,1.961-2.813
		c2.797-13.393,9.222-25.293,15.181-37.391c0.416-0.843,1.313-2.232,0.148-2.613c-5.729-1.877-2.023-5.274-0.851-7.347
		c2.611-4.612,6.131-8.702,9.003-13.182c2.304-3.596,4.853-7.231,2.097-11.945c-0.925-1.582-0.06-3.65,0.865-5.258
		c8.426-14.639,17.295-29.111,30.911-39.498c13.478-10.282,27.701-19.569,41.355-29.663c15.829-11.7,29.72-25.584,45.125-37.707
		c0.505-0.396,0.809-1.05,1.204-1.583C149.812,0.165,152.723-0.941,151.794,3.076z M74.78,118.786
		c-0.044-4.323-0.15-8.643-3.335-12.11C71.174,111.053,72.382,115.066,74.78,118.786z"/>
</g>
</svg>
