<?xml version="1.0" encoding="iso-8859-1"?>
<!-- Generator: Adobe Illustrator 16.0.0, SVG Export Plug-In . SVG Version: 6.00 Build 0)  -->
<!DOCTYPE svg PUBLIC "-//W3C//DTD SVG 1.1//EN" "http://www.w3.org/Graphics/SVG/1.1/DTD/svg11.dtd">
<svg version="1.1" id="Layer_1" xmlns="http://www.w3.org/2000/svg" xmlns:xlink="http://www.w3.org/1999/xlink" x="0px" y="0px"
	 width="126px" height="244px" viewBox="0 0 126 244" style="enable-background:new 0 0 126 244;" xml:space="preserve">
<g>
	<path style="fill:#140A0D;" d="M78,244c-0.666,0-1.334,0-2,0c0-9.118,0-18.236,0-29.807c-1.583,3.388-2.324,4.975-5.723,12.244
		c1.881-12.931,2.766-19.006,4.436-30.492c-6.83,12.902-11.01,20.798-15.188,28.689c-1.089-0.479-2.178-0.96-3.267-1.438
		c3.151-9.228,6.303-18.451,9.454-27.678c-0.56-0.215-1.12-0.433-1.681-0.646c-2.047,4.188-4.095,8.378-7.021,14.361
		c-2.987-11.754,3.318-19.612,5.25-30.623c-8.103,12.634-14.875,23.191-21.646,33.753c2.483-26.712,25.967-44.669,28.186-73.972
		c-14.04,13.487-15.896,32.197-31.854,44.896c3.542-12.994,6.306-23.139,9.071-33.281c0.074-0.134,0.147-0.269,0.221-0.402
		c-0.059-0.027-0.118-0.059-0.177-0.088c-0.031,0.15-0.062,0.301-0.092,0.45c-5.488,8.347-10.976,16.691-18.446,28.052
		c0.408-24.465,11.949-41.67,19.835-64.738c-7.852,11.501-12.938,18.947-18.023,26.396c-0.889-0.468-1.778-0.935-2.668-1.401
		c4.451-13.422,8.901-26.843,13.352-40.266c0-0.001-0.045-0.041-0.045-0.041c-5.841,8.336-11.681,16.671-20.548,29.326
		c2.35-11.552,3.668-18.03,5.183-25.475c-3.626,6.594-6.801,12.368-9.977,18.143c-0.885-0.371-1.77-0.741-2.655-1.111
		c1.373-5.819,2.745-11.64,4.19-17.767c-1.332-0.074-2.468-0.138-4.207-0.233c1.246-16.876,13.098-31.05,11.104-54.454
		c-4.781,16.886-8.799,27.736-18.527,39.373c4.41-18.717,8.071-34.259,12.415-52.697C10.07,43.598,5.035,51.299,0,59
		c0-8.667,0-17.333,0-26c8.364-9.721,8.326-21.224,7-33c5,0,10,0,15,0c12.497,3.665,24.994,7.33,43.004,12.613
		c-7.667,0.862-9.339,1.051-11.481,1.292c7.548,2.43,14.504,4.668,21.461,6.907c-0.151,0.602-0.303,1.204-0.455,1.806
		c-3.278-0.408-6.562-0.815-12.317-1.531c10.415,6.402,20.69,9.159,26.072,19.821c-5.201-1.668-9.37-3.006-16.384-5.255
		c11.062,8.172,22.677,10.452,31.047,22.221c-11.475-4.851-20.424-8.635-29.374-12.419C94.084,54.789,112.087,67.088,126,85
		c0,1,0,2,0,3c-7.664-4.673-15.327-9.346-22.99-14.018l-0.041,0.045c6.146,7.192,12.291,14.385,21.555,25.229
		c-21.312-9.995-33.162-25.811-55.604-32.86C91.344,82.45,109.991,96.167,126,113c0,1,0,2,0,3
		c-7.997-4.339-15.994-8.679-23.99-13.018l-0.041,0.045c6.606,7.029,13.213,14.059,19.818,21.089
		c-0.575,0.575-1.15,1.151-1.727,1.729c-9.492-7.418-18.985-14.837-31.623-24.714c10.176,17.48,29.748,24.133,28.922,45.828
		c-7.686-6.3-13.775-11.294-24.592-20.161c10.469,14.911,17.33,24.767,20.295,39.552c-10.395-12.548-17.194-24.813-29.035-32.38
		c-0.002,0-0.045,0.04-0.045,0.04c7.019,19.407,27.153,32.484,28.053,56.467c-2.871-2.156-4.438-3.332-6.004-4.509
		c-0.018,0.015-0.033,0.027-0.049,0.041c0.305,3.361,0.605,6.724,1.437,15.894c-5.058-13.041-8.028-20.699-13.003-33.527
		c1.189,19.758,9.227,33.702,2.625,49.146c-2.398-9.896-4.551-18.768-6.702-27.64C91.096,209.227,88.367,227.43,78,244z"/>
	<path d="M45.969,149.968c0.031-0.149,0.063-0.3,0.092-0.45c0.059,0.029,0.118,0.061,0.177,0.088
		c-0.074,0.136-0.147,0.271-0.221,0.402L45.969,149.968z"/>
	<path d="M105.982,186.009c0.016-0.014,0.031-0.026,0.049-0.041L105.982,186.009z"/>
	<path d="M102.969,74.027l0.041-0.045L102.969,74.027z"/>
	<path d="M39.973,97.969c0,0,0.045,0.04,0.045,0.041L39.973,97.969z"/>
	<path d="M101.969,103.027l0.041-0.045L101.969,103.027z"/>
	<path d="M83.982,134.01c0,0,0.043-0.04,0.045-0.04L83.982,134.01z"/>
</g>
</svg>
