<?xml version="1.0" encoding="iso-8859-1"?>
<!-- Generator: Adobe Illustrator 16.0.0, SVG Export Plug-In . SVG Version: 6.00 Build 0)  -->
<!DOCTYPE svg PUBLIC "-//W3C//DTD SVG 1.1//EN" "http://www.w3.org/Graphics/SVG/1.1/DTD/svg11.dtd">
<svg version="1.1" id="Layer_1" xmlns="http://www.w3.org/2000/svg" xmlns:xlink="http://www.w3.org/1999/xlink" x="0px" y="0px"
	 width="248px" height="220.002px" viewBox="0 0 248 220.002" style="enable-background:new 0 0 248 220.002;" xml:space="preserve"
	>
<g>
	<path style="fill:#140A0D;" d="M248,200c-3.449-4.079-6.896-8.158-10.844-12.826c2.021,11.222,3.935,21.836,5.848,32.45
		c-0.633,0.126-1.266,0.252-1.898,0.378c-5.6-14.338-11.198-28.676-19.979-51.151c1.294,17.652,1.945,26.529,2.812,38.368
		c-5.562-18.112-10.234-33.327-17.228-56.092c-0.485,25.788,10.88,42.431,5.181,63.86c-4.871-18.766-8.968-34.543-14.615-56.297
		c-3.453,13.801-5.438,21.729-9.012,36.002c-1.798-22.088-3.102-38.117-4.81-59.114c-2.793,13.264-4.574,21.726-7.127,33.854
		c-1.492-8.554-2.34-13.412-3.67-21.037c-1.979,8.854-3.33,14.912-4.685,20.971c-1.354,0.011-2.707,0.021-4.063,0.033
		c-2.521-13.586-5.038-27.172-7.905-42.631c-1.229,7.604-2.165,13.412-4.04,25.037c-3.136-12.41-4.849-19.188-7.811-30.908
		c-1.957,11.483-3.087,18.103-5.062,29.692c-3.298-12.802-5.412-21.01-8.115-31.503c-1.385,6.844-2.323,11.493-4.252,21.02
		c-2.604-10.287-4.016-15.855-5.528-21.834c-1.182-0.233-2.523-0.498-4.186-0.828c-2.059-12.054-4.135-24.208-6.211-36.362
		c-0.664,0.064-1.328,0.13-1.993,0.195c0,8.695,0,17.391,0,34.332c-3.024-13.438-4.261-18.938-6.63-29.47
		c-0.934,10.002-1.397,14.965-2.582,27.646c-4.376-17.911-6.938-28.396-9.979-40.837c-1.866,3.687-2.701,5.337-4.058,8.02
		c-2.587-4.426-4.755-8.136-7.769-13.292c-0.638,5.278-1.072,8.871-1.875,15.517c-4.284-8.271-7.229-13.954-10.485-20.241
		c-1.535,2.137-2.527,3.52-4.186,5.829c-1.902-5.546-3.521-10.266-6.02-17.549c-1.237,9.319-2.121,15.98-4.196,31.618
		c-1.85-15.486-2.63-22.02-3.392-28.401c-2.871-0.781-5.357-1.458-8.182-2.227c-1.142,0.628-2.551,1.402-4.559,2.507
		C28.575,38.785,14.394,34.236,0,30c0-1.667,0-3.333,0-5C18.838,10.279,41.252,4.712,64,0c17,0,34,0,51,0
		c23.053,9.49,46.775,17.753,67.836,36.025c-4.287,0-5.953,0-7.298,0c11.291,9.615,22.599,19.245,33.905,28.875
		c-0.537,0.683-1.076,1.365-1.613,2.047c-4.635-2.93-9.27-5.86-19.852-12.553c15.732,15.261,25.494,26.388,30.002,45.437
		c-7.316-8.344-12.209-13.923-21.537-24.559c7.086,16.173,14.25,25.228,13.972,38.11c-3.108-2.371-4.906-3.743-11.097-8.466
		c5.098,7.272,6.796,10.265,9.026,12.78c9.515,10.729,21.272,21.102,23.209,35.419C233.689,168.922,242.586,181.062,248,195
		C248,196.667,248,198.333,248,200z"/>
</g>
</svg>
