<?xml version="1.0" encoding="iso-8859-1"?>
<!-- Generator: Adobe Illustrator 16.0.0, SVG Export Plug-In . SVG Version: 6.00 Build 0)  -->
<!DOCTYPE svg PUBLIC "-//W3C//DTD SVG 1.1//EN" "http://www.w3.org/Graphics/SVG/1.1/DTD/svg11.dtd">
<svg version="1.1" id="Layer_1" xmlns="http://www.w3.org/2000/svg" xmlns:xlink="http://www.w3.org/1999/xlink" x="0px" y="0px"
	 width="247.176px" height="119.086px" viewBox="0 0 247.176 119.086" style="enable-background:new 0 0 247.176 119.086;"
	 xml:space="preserve">
<g>
	<path style="fill:#140A0D;" d="M102.143,62.03c2.09,2.476,4.18,4.95,9.092,10.771c-14.926-6.392-26.126-11.187-38.498-16.483
		c13.785,10.239,26.537,19.709,39.289,29.181c-0.82,1.228-1.64,2.455-2.46,3.683c-4.966-2.447-9.932-4.894-15.264-7.521
		c-0.084,1.772-0.153,3.239-0.284,6.01c-7.26-3.212-13.796-6.104-22.614-10.006c5.826,5.093,9.756,8.528,18.57,16.233
		c-12.559-4.562-19.012-6.908-26.992-9.811c3.077,3.548,5.014,5.781,8.833,10.186c-6.225-2.121-9.714-3.311-14.873-5.065
		c2.426,3.2,3.905,5.149,6.443,8.499c-5.856,0.895-10.674,1.627-16.747,2.553c-6.279,2.059-13.154,7.021-22.79,4.684
		c2.323,3.656,3.942,6.203,7.253,11.414c-11.794-7.051-19.789-4.344-26.927,2.646c-2.041-0.058-4.917,1.001-4-3
		C18.05,84.71,42.311,58.175,64.825,27.601c0.188,3.642,0.26,5.017,0.331,6.392l0.046,0.041
		C78.011,23.26,90.817,12.488,103.625,1.718c0.412,0.447,0.824,0.896,1.236,1.344c-4.834,5.654-9.669,11.31-17.992,21.044
		C101.378,13.91,111.277,6.955,121.176,0c3,0,6,0,9,0c-5.017,4.241-10.033,8.482-20.683,17.487
		c18.733-5.572,28.041-14.1,40.293-13.432c-5.991,4.047-11.815,7.981-17.642,11.917l0.041,0.046
		c18.811-5.001,37.83-6.238,61.156-3.916c-6.555,2.323-9.271,3.286-11.221,3.977C203.665,21.683,225.42,27.342,247.175,33
		c0,0.667,0,1.333,0,2c-14.116-2.075-28.231-4.15-48.452-7.122c9.588,4.998,13.646,7.113,17.7,9.229
		c-0.237,0.657-0.475,1.314-0.713,1.972c-10.728-3.415-21.454-6.83-32.183-10.245c-0.395,0.946-0.786,1.893-1.18,2.839
		c14.799,8.951,29.598,17.902,44.396,26.854c-0.466,1.05-0.929,2.1-1.394,3.149c-8.725-2.897-17.443-5.795-26.166-8.692
		l-0.041,0.045c0,1.444,0,2.889,0,5.7c-12.266-7.221-23.578-13.882-34.895-20.544c-0.289,0.432-0.577,0.863-0.866,1.296
		C171.057,45.4,178.729,51.32,186.4,57.24c-0.385,0.607-0.771,1.215-1.153,1.822c-20.073-9.813-40.147-19.624-60.222-29.437
		c15.727,14.349,34.176,24.867,44.18,44.348l-0.041,0.047c-13.326-7.346-26.654-14.689-39.98-22.036l-0.041,0.045
		c6.737,7.891,18.887,10.021,23.532,22.565c-4.706-3.088-8.118-5.326-12.965-8.507c1.423,3.929,2.224,6.138,3.841,10.603
		c-5.666-3.072-9.6-5.207-15.025-8.15c1.539,3.221,2.387,4.984,5.135,10.732c-12.622-6.933-22.049-12.107-31.478-17.285
		c-0.991-0.338-1.983-0.678-2.974-1.016c-3.071-2.169-6.142-4.337-9.213-6.506c-0.372,0.635-0.744,1.27-1.115,1.903
		c3.43,1.55,6.859,3.1,10.289,4.647C100.16,61.354,101.152,61.691,102.143,62.03z"/>
	<path style="fill:#140A0D;" d="M169.207,73.973l-0.041,0.047L169.207,73.973z"/>
	<path d="M99.169,61.016c-3.43-1.549-6.859-3.099-10.289-4.646c0.372-0.634,0.744-1.269,1.115-1.903
		c3.071,2.169,6.142,4.337,9.213,6.509C99.208,60.971,99.169,61.016,99.169,61.016z"/>
	<path d="M102.143,62.03c-0.991-0.339-1.983-0.677-2.974-1.015l0.039-0.047c0.992,0.338,1.983,0.678,2.975,1.016L102.143,62.03z"/>
	<path d="M132.186,16.019c0,0-0.039-0.046-0.041-0.046L132.186,16.019z"/>
	<path d="M65.204,34.031l-0.046-0.041L65.204,34.031z"/>
	<path d="M129.145,52.027l0.041-0.045C129.186,51.981,129.145,52.027,129.145,52.027z"/>
	<path d="M199.145,53.027l0.041-0.045C199.186,52.981,199.145,53.027,199.145,53.027z"/>
</g>
</svg>
