<?xml version="1.0" encoding="iso-8859-1"?>
<!-- Generator: Adobe Illustrator 16.0.0, SVG Export Plug-In . SVG Version: 6.00 Build 0)  -->
<!DOCTYPE svg PUBLIC "-//W3C//DTD SVG 1.1//EN" "http://www.w3.org/Graphics/SVG/1.1/DTD/svg11.dtd">
<svg version="1.1" id="Layer_1" xmlns="http://www.w3.org/2000/svg" xmlns:xlink="http://www.w3.org/1999/xlink" x="0px" y="0px"
	 width="97px" height="236px" viewBox="0 0 97 236" style="enable-background:new 0 0 97 236;" xml:space="preserve">
<g>
	<path style="fill:#140A0D;" d="M37.024,165.021c-5.271,8.363-12.295,14.963-20.84,20.182c5.304,1.113,9.882-2.442,15.463-1.557
		c-1.917,4.139-5.462,6.045-7.696,9.033c-1.175,1.387,0.514,2.918-0.5,4.84C10.938,206.88,8.239,222.115,3,236c-0.833,0-1.667,0-3,0
		c0-27.331,0-54.666,0-82c1.931,0.062,3.954,1.064,5.815-0.611c2.03-3.152-1.112-6.764,0.454-9.814
		c1.23-0.905,2.32,1.308,3.415-0.402c-0.195-6.078-3.113-12.32-0.779-18.432c2.942-0.215,2.595,2.635,4.753,2.953
		c-0.57-8.889-4.421-17.585-1.345-27.762c3.381,6.041,2.582,12.108,6.409,16.833c-3.023-13.765-2.243-27.155,2.417-41.475
		c1.688,4.867,0.6,9.538,4.978,12.783c3.636-7.453,1.875-15.95,5.964-23.869c2.167,7.304,1.371,14.055,3.226,20.403
		c4.542-13.102,4.921-27.062,10.362-39.727c0.788,7.938-2.499,15.426-2.162,23.279c2.943-6.233,2.935-13.5,7.136-19.615
		c2.108,2.182,0.547,4.881,3.029,7.053c5.803-10.6,0.635-24.087,8.973-33.84c3.834,3.021,1.058,7.532,4.112,11.355
		c3.345-8.23,4.918-16.565,9.744-23.485c2.517,1.994,0.342,5.169,3.297,6.79C84.623,11.058,88.383,4.688,94,0c1,0,2,0,3,0
		c0,1.667,0,0,0,1.667c-2.011,0.569-3.718,4.969-4.629,6.873c-3.254,6.795-7.85,12.766-11.65,19.22
		c-0.818,1.389-2.102,2.881-0.934,5.202c4.107-4.339,7.844-8.497,14.037-10.003C90.18,35.575,80.941,43.307,72.6,51.827
		c3.447-0.429,5.875-2.347,8.435-4.079C85.975,44.402,90.639,40.437,97,40c0,0.667,0,1.333,0,2
		c-9.959,7.355-21.3,13.128-29.176,25.172c7.605-1.798,12.525-6.453,19.359-7.933c-1.779,6.126-5.129,9.988-10.455,12.32
		c-4.101,1.794-8.086,3.842-9.578,8.234c0.574,2.653,3.463,1.677,4.412,3.924c-1.758,6.923-8.408,10.971-11.586,17.262l-0.234,0.15
		l0.266-0.115c2.234-0.049,4.528-1.51,7.199,0.629c-2.336,8.463-11.834,6.938-16.74,11.871c7.258-0.346,13.5-5.371,21.793-5.068
		c-2.311,5.138-6.391,6.327-9.91,8.223c-4.474,2.408-10.021,2.851-13.374,7.308c-0.249,0.097-0.499,0.189-0.749,0.284
		c0.004,0.011,0.008,0.021,0.011,0.03c0.257-0.093,0.513-0.186,0.77-0.277c1.768-0.104,3.54-0.94,5.338-0.174
		c0.523,2.82-3.16,3.1-2.896,5.797c1.418,1.816,4.166-0.474,6.5,2.225c-9.854,5.037-20.25,9.146-27.648,19.326
		c6.755,0.061,11.193-4.032,18-4.709c-6.483,8.254-14.285,13.862-20.691,22.359c4.645-0.384,6.547-3.222,9.384-3.854L37.024,165.021
		z"/>
	<polygon style="fill:#140A0D;" points="36.992,164.984 37.258,164.87 37.024,165.021 	"/>
	<path d="M49.007,124.014c-0.257,0.094-0.513,0.187-0.77,0.277c-0.003-0.011-0.007-0.021-0.011-0.03
		c0.25-0.095,0.5-0.188,0.749-0.284L49.007,124.014z"/>
	<polygon points="60.008,101.015 59.742,101.13 59.977,100.979 	"/>
</g>
</svg>
