<?xml version="1.0" encoding="iso-8859-1"?>
<!-- Generator: Adobe Illustrator 16.0.0, SVG Export Plug-In . SVG Version: 6.00 Build 0)  -->
<!DOCTYPE svg PUBLIC "-//W3C//DTD SVG 1.1//EN" "http://www.w3.org/Graphics/SVG/1.1/DTD/svg11.dtd">
<svg version="1.1" id="Layer_1" xmlns="http://www.w3.org/2000/svg" xmlns:xlink="http://www.w3.org/1999/xlink" x="0px" y="0px"
	 width="110px" height="216px" viewBox="0 0 110 216" style="enable-background:new 0 0 110 216;" xml:space="preserve">
<g>
	<path style="fill:#140A0D;" d="M12,25.066c4.275,0,8.55,0,14.65,0C17.248,17.688,9.722,10.403,0,6c0-1,0-2,0-3
		c13.409-0.532,24.109,6.416,35.257,13.788C34.325,9.138,28.725,5.398,26,0c1.667,0,3.333,0,5,0
		c8.479,6.129,15.39,13.813,21.745,24.059c1.134-5.33,1.857-8.722,3.011-14.148c3.578,6.333,6.125,10.842,8.869,15.698
		c1.587-2.369-0.422-4.904,2.5-6.303c8.282,7.792,7.211,18.778,9.414,28.507c1.525,0.803,2.818,1.484,4.359,2.295
		c0.576,3.124,1.156,6.271,1.967,10.661c3.201-9.124-2.352-17.944,3.215-26.595c5.597,7.162,4.83,15.282,6.73,22.943
		c2.496-3.046,1.078-7.24,5.226-9.679c4.604,14.899,0.03,29.62,0.45,45.096c3.334-4.279,0.92-9.358,5.906-13.375
		c6.191,14.375-1.65,27.401-1.844,41.519c2.842-3.816,2.49-8.916,7.449-9.678c0,15.333,0,30.667,0,46
		c-0.655,1.984-1.83,3.957-1.885,5.958c-0.484,17.678-0.771,35.36-1.115,53.042c-0.666,0-1.334,0-2,0
		c-1.528-14.02-1.564-28.411-12.193-39.748c-5.119-5.459-10.147-10.195-18.541-6.434c-0.846-7.319,6.021-6.774,8.4-10.788
		c-2.098-1.427-4.062-2.767-6.319-4.304c1.138-1.307,2.058-2.358,3.397-3.897c-6.231-4.152-12.188-8.121-20.715-13.802
		c7.68,0.843,12.303,1.351,16.927,1.857c0.112-0.357,0.228-0.717,0.341-1.074c-5.311-2.149-10.615-4.302-18.605-7.537
		c7.242-1.559,11.584-2.49,18.086-3.891c-5.901-2.082-9.698-3.422-15.947-5.627c6.165-0.55,9.873-0.88,14.674-1.308
		c-7.891-5.443-17.521-5.444-23.753-13.052c7.374-4.166,14.749-1.634,23.328-2.255c-12.906-5.896-25.175-8.434-39.747-9.683
		c9.329-5.064,18.146-4.355,25.947-7.071c-6.661-10.765-18.284-11.42-29.533-14.401c4.463-4.227,8.641-2.158,12.584-3.517
		c-0.718-0.823-1.342-1.54-2.382-2.733c2.698-0.544,5.128-1.033,9.641-1.942c-7.393-2.555-12.908-4.46-18.406-6.36
		c-0.752-1.48-1.418-2.79-2.056-4.044c-2.181-1.137-4.291-2.236-8.25-4.3c4.708-0.712,7.372-1.114,11.521-1.742
		c-7.121-2.883-13.069-5.291-20.542-8.316c3.552-0.721,5.659-1.148,8.186-1.661c-0.136-2.107-0.269-4.178-0.427-6.642
		c-2.85-1.549-5.739-3.118-8.627-4.688C11.989,26.384,11.994,25.726,12,25.066z M101.536,125.906
		c0.178,0.048,0.354,0.095,0.532,0.142c0.098-0.364,0.195-0.728,0.293-1.092c-0.188-0.049-0.371-0.099-0.557-0.147
		C101.716,125.175,101.626,125.541,101.536,125.906z"/>
	<path style="fill:#140A0D;" d="M12,25.066c-0.005,0.659-0.01,1.317-0.016,1.977c-0.348-0.26-0.696-0.519-1.353-1.008
		C11.185,25.643,11.592,25.354,12,25.066z"/>
	<path d="M101.536,125.906c0.09-0.365,0.18-0.731,0.269-1.098c0.188,0.049,0.371,0.099,0.557,0.146
		c-0.098,0.362-0.193,0.729-0.293,1.092C101.893,126.001,101.714,125.954,101.536,125.906z"/>
</g>
</svg>
