<?xml version="1.0" encoding="iso-8859-1"?>
<!-- Generator: Adobe Illustrator 16.0.0, SVG Export Plug-In . SVG Version: 6.00 Build 0)  -->
<!DOCTYPE svg PUBLIC "-//W3C//DTD SVG 1.1//EN" "http://www.w3.org/Graphics/SVG/1.1/DTD/svg11.dtd">
<svg version="1.1" id="Layer_1" xmlns="http://www.w3.org/2000/svg" xmlns:xlink="http://www.w3.org/1999/xlink" x="0px" y="0px"
	 width="109.074px" height="168.035px" viewBox="0 0 109.074 168.035" style="enable-background:new 0 0 109.074 168.035;"
	 xml:space="preserve">
<g>
	<path style="fill:#140A0D;" d="M18,0c4.056,6.03,10.727,9.178,15.255,14.575c1.987-1.417-0.143-3.261,1.451-4.488
		c2.663-0.245,3.226,2.223,4.328,3.887c2.769,4.183,5.374,8.395,10.835,9.651c2.244,0.518,3.204,2.744,4.272,4.641
		c7.598,13.486,14.544,27.272,19.802,41.875c3.445,9.571,8.257,18.517,13.328,27.303c5.72,9.904,9.269,20.533,11.535,31.71
		c1.92,9.467,5.993,18.2,10.193,26.846c0,3.5-0.168,7.012,0.062,10.496c0.139,2.06-1.08,1.428-2.062,1.504
		c-2.709-9.189-7.253-17.574-12.354-25.533c-4.865-7.588-7.725-16.713-15.994-21.928c-2.102-1.324-1.047-4.437-2.639-7.035
		c-7.627-0.783-9.015-9.758-15.902-12.662c2.99-4.09,7.738-2.729,11.902-5.192c-8.216-3.534-15.669-6.741-23.79-10.237
		c4.205-2.54,8.163-0.315,12.417-2.726c-4.812-1.394-8.807-2.552-12.802-3.709c0.073-0.385,0.146-0.77,0.219-1.154
		c4.825,0.501,9.649,1.002,14.474,1.503c-7.728-3.348-16.136-4.42-25.302-8.345c1.926-0.711,2.828-1.044,3.804-1.404
		c-2.472-2.2-5.463-1.771-7.791-4.831c7.499-1.613,14.749-0.024,22.179-1.189c-1.221-3.619-3.874-4.161-6.386-4.579
		c-8.379-1.395-16.787-2.62-25.177-3.955c-2.398-0.381-5.069-0.337-6.585-3.797c5.191-3.847,11.528-1.199,18.332-2.991
		c-11.36-3.886-22.68-4.138-32.956-11.157c12.227-3.133,22.723,3.007,33.638,1.237c-10.492-4.68-21.955-6.602-32.339-11.8
		c5.517-1.018,10.882-0.282,16.242,0.824c5.473,1.131,10.788,3.15,16.604,2.853C26.691,25.164,15.111,23.91,4.542,18.198
		c4.586-4.049,8.663,0.538,13.366-1.306C11.507,12.641,5.753,8.82,0,5c0-1,0-2,0-3c6.938-0.802,11.62,4.439,18.062,7.47
		C17.235,5.642,15.738,2.974,16,0C16.667,0,17.333,0,18,0z"/>
</g>
</svg>
