<?xml version="1.0" encoding="iso-8859-1"?>
<!-- Generator: Adobe Illustrator 16.0.0, SVG Export Plug-In . SVG Version: 6.00 Build 0)  -->
<!DOCTYPE svg PUBLIC "-//W3C//DTD SVG 1.1//EN" "http://www.w3.org/Graphics/SVG/1.1/DTD/svg11.dtd">
<svg version="1.1" id="Layer_1" xmlns="http://www.w3.org/2000/svg" xmlns:xlink="http://www.w3.org/1999/xlink" x="0px" y="0px"
	 width="191.113px" height="147.057px" viewBox="0 0 191.113 147.057" style="enable-background:new 0 0 191.113 147.057;"
	 xml:space="preserve">
<g>
	<path style="fill:#140A0D;" d="M153.113,147.057c0.162-3.723,2.578-6.806,3.133-10.49c-3.312-4.604-9.135-0.753-12.803-3.783
		c-0.318-3.637,3.746-2.945,5.127-5.948c-8.676-1.945-17.473,0.335-25.316-1.298c-1.932-1.714-0.471-3.316-0.977-4.88
		c-4.303-2.548-9.586,1.155-13.867-1.838c-0.652-3.91,3.367-4.175,5.039-6.875c-6.229,0.337-10.84,5.216-17.322,5.004
		c2.312-5.526,8.082-7.771,10.857-13.814c-9.789,1.953-17.413,7.552-27.12,9.416c1.452-6.958,8.632-7.043,11.789-11.91
		c-7.299-0.462-12.391,4.923-20.223,5.361c7.893-8.743,18.388-10.444,26.98-15.505c-20.723,0.154-36.652,14.031-56.82,19.443
		c4.452-5.861,11.085-6.672,16.069-10.917c-3.933-0.634-7.159,2.23-11.23,1.097c2.099-2.928,4.834-4.092,7.472-5.322
		c2.622-1.228,5.314-2.296,9.049-3.895c-7.504-2.102-13.536,2.053-20.028,0.613c1.146-3.161,4.415-3.355,6.064-5.494
		c-2.882-2.23-6.337,1.308-9.602-1.742c17.507-10.413,36.794-13.274,56.113-16.462c-15.531-2.561-31.253-3.373-46.229-8.508
		c7.18-3.053,15.037-1.4,23.042-3.962c-11.436-4.479-22.164-8.687-32.893-12.891c10.07-2.592,19.792-0.009,30.203,0.834
		c-1.27-2.085-2.983-2.248-4.404-2.661c-9.914-2.884-19.831-5.763-29.794-8.471c-4.092-1.113-7.269-3.022-8.938-7.692
		c5.821-2.833,11.812-0.612,18.717-1.035c-4.833-3.436-10.12-2.982-14.927-6.431c7.396-2.105,13.697,0.253,20.106,0.465
		c-2.834-2.149-6.272-2.719-9.516-3.613C27.233,10.09,13.968,5.051,0.113,2.057c-0.399-1.73,0.262-2.09,2.001-2.055
		c6.664,0.135,10.916,1.08,17.749,1.805c4,0.5,7.886,1.101,10,1.5c6.247,1.187,10.363,2.298,16.229,4.735
		c41.969,17.438,77.958,43.81,110.973,74.543c13.377,12.454,21.834,28.438,30.34,44.306c1.021,1.905,1.635,4.042,3.709,5.166
		c0,3.667,0,7.333,0,11c-2.36-0.775-4.713-1.583-7.082-2.326c-10.236-3.209-22.432-0.438-27.918,6.326
		C155.113,147.057,154.113,147.057,153.113,147.057z"/>
</g>
</svg>
