<?xml version="1.0" encoding="iso-8859-1"?>
<!-- Generator: Adobe Illustrator 16.0.0, SVG Export Plug-In . SVG Version: 6.00 Build 0)  -->
<!DOCTYPE svg PUBLIC "-//W3C//DTD SVG 1.1//EN" "http://www.w3.org/Graphics/SVG/1.1/DTD/svg11.dtd">
<svg version="1.1" id="Layer_1" xmlns="http://www.w3.org/2000/svg" xmlns:xlink="http://www.w3.org/1999/xlink" x="0px" y="0px"
	 width="249px" height="86px" viewBox="0 0 249 86" style="enable-background:new 0 0 249 86;" xml:space="preserve">
<g>
	<path style="fill:#140A0D;" d="M74.5,0.875C96.125,0,100.623-0.036,118.875,0.559c9.001,0.535,22.623,1.243,25.104,1.489
		C179.574,5.592,215.236,8.804,249,22c0,0.333,0,0.667,0,1c-33.553,5.627-66.607,13.037-97.766,27.986
		c-0.637-2.25-1.099-3.881-1.803-6.373c-3.117,3.843-5.699,7.022-8.279,10.203c-0.396-0.238-0.791-0.477-1.187-0.715
		c1.685-5.134,3.369-10.267,5.056-15.399c-10.496,10.185-17.668,22.456-26.109,34.233c-3.394-4.232,0.82-7.845-0.562-11.688
		c-4.175,3.446-4.019,9.717-9.806,12.981c0.162-9.696,5.82-16.621,8.084-24.599c-10.032,9.748-13.773,24.103-25.825,32.32
		c1.425-4.044,2.85-8.089,4.275-12.132c-0.442-0.235-0.885-0.473-1.327-0.707C89.502,74.741,85.251,80.371,81,86
		c-1.333,0-2.667,0-4,0c0.568-1.72,0.943-3.536,1.736-5.146c7.427-15.084,14.937-30.129,22.377-45.208
		c0.45-0.913,1.449-1.977-0.02-3.288c-12.865,14.622-20.812,32.995-35.54,46.22c1.688-11.22,8.546-20.048,12.217-30.552
		c-7.96,10.271-15.921,20.543-23.882,30.812c-0.702-0.479-1.405-0.958-2.107-1.438c6.844-19.164,21.85-33.754,30.62-51.898
		C65.655,41.774,52.262,60.707,39.395,80.125c5.339-18.75,16.737-34.128,25.665-50.924C53.983,41.845,47.218,58.227,30.056,66.434
		c1.9-13.67,15.819-19.611,17.871-32.593C34.01,50.643,19.457,66.626,0,77c0-2.667,0-5.333,0-8
		c4.487-5.159,8.975-10.318,13.461-15.479c-2.205-0.271-3.617,0.447-5.076,1.057c-1.634,0.683-3.322,1.832-5.702-0.903
		c9.384-11.834,23.411-17.905,35.589-26.837c-4.107-2.774-7.733,1.338-12.304-1.48c15.651-9.894,32.552-13.634,50.93-16.681
		c-4.849-2.673-9.563-0.693-13.18-4.1C67.463,2.91,70.5,1.625,74.5,0.875z"/>
</g>
</svg>
