<?xml version="1.0" encoding="iso-8859-1"?>
<!-- Generator: Adobe Illustrator 16.0.0, SVG Export Plug-In . SVG Version: 6.00 Build 0)  -->
<!DOCTYPE svg PUBLIC "-//W3C//DTD SVG 1.1//EN" "http://www.w3.org/Graphics/SVG/1.1/DTD/svg11.dtd">
<svg version="1.1" id="Layer_1" xmlns="http://www.w3.org/2000/svg" xmlns:xlink="http://www.w3.org/1999/xlink" x="0px" y="0px"
	 width="261px" height="527.003px" viewBox="0 0 261 527.003" style="enable-background:new 0 0 261 527.003;" xml:space="preserve"
	>
<g>
	<path style="fill:#140A0D;" d="M208.003-1c-6.455,12.224-13.054,24.371-19.338,36.682c-14.479,28.357-28.469,56.98-37.199,87.73
		c-9.553,33.645-20.182,67.057-26.779,101.449c-5.143,26.811-8.838,53.852-9.916,81.256c-0.732,18.678-2.272,37.469,1.028,55.811
		c4.354,24.154,6.578,48.436,8.298,72.826c0.124,1.754-0.136,4.291,2.127,4.504c2.264,0.213,1.776-2.387,2.188-3.836
		c4.562-16.055,9.773-31.842,18.03-46.473c2.438-4.322,5.062-8.592,6.562-13.592c1.597,3.006,2.053,6.111,1.785,9.355
		c-1.297,15.752-0.594,31.646-3.42,47.291c-0.195,1.076-0.613,2.564,0.84,3.043c1.275,0.42,2.082-0.842,2.854-1.652
		c5.627-5.902,11.2-11.859,16.821-17.77c1.104-1.158,2.338-2.189,3.951-3.031c-1.835,9.311-5.792,17.955-6.713,27.666
		c6.958-12.955,21.17-16.867,31.104-26.264c-6.05,16.881-13.743,32.717-23.2,49.016c4.722-0.857,6.845-3.346,9.356-5.068
		c3.704-2.541,7.149-5.494,11.488-6.971c1.086-0.369,2.304-0.887,3.301,0.076c1.026,0.988,0.479,2.201,0.055,3.271
		c-1.409,3.527-2.885,7.041-4.48,10.924c2.398,0.236,3.686-1.217,5.073-2.164c10.188-6.943,20.307-13.986,30.5-20.92
		c2.712-1.844,5.648-4.432,8.996-1.611c3.497,2.949,2.847,6.854,1.242,10.572c-1.706,3.963-4.729,6.793-8.329,9.061
		c-7.636,4.809-14.73,10.32-21.334,16.461c-1.416,1.32-2.632,2.857-3.942,4.301c0.636,0.549,0.937,0.971,1.093,0.922
		c9.681-3,18.688-0.584,27.646,3.125c7.692,3.188,15.531,6.021,23.31,9.014c0,3,0,6,0,9c-14.772,12.203-31.369,16.928-50.256,12.238
		c-3.761-0.936-7.543-1.205-11.354-0.34c-21.646,4.912-43.677,6.213-65.759,7.387c-10.912,0.58-21.756,2.438-32.631,3.715
		c-5.333,0-10.667,0-16,0c-15.333-6.566-30.667-6.311-46,0c-3.333,0-6.667,0-10,0c-6.062-2.785-12.371-4.611-19.054-5.121
		c-3.495-0.266-6.816-1.275-9.946-2.879c0-0.666,0-1.332,0-2c7.444-2.492,14.646-5.57,21.549-9.297
		c6.821-3.68,13.853-6.557,21.745-6.764c1.073-0.027,2.622,0.205,2.807-1.359c0.135-1.117-1.117-1.561-1.973-2.02
		c-3.931-2.109-5.876-6.277-9.409-8.879c-4.411-3.24-8.569-6.812-13.748-9.232c3.447-1.672,14.124-0.445,23.704,2.285
		c7.769,2.215,15.051,5.801,23.084,8.004c-11.175-16.041-19.772-33.029-25.79-52.408c14.54,11.344,31.098,19.133,33.519,30.115
		c-8.926-16.662-21.188-40.73-25.909-67.896c1.947,0.459,2.401,2.404,3.291,3.795c11.646,18.246,26.013,34.67,36.104,53.961
		c0.657,1.262,1.643,3.061,3.363,2.365c2.185-0.875,1.471-3.111,1.269-4.855c-1.662-14.23-3.393-28.453-5.063-42.686
		c-0.233-1.979-0.589-4.02-0.35-5.967c1.613-13.137,0.688-26.219,0.026-39.377c-0.892-17.828,1.021-35.623,3.271-53.295
		c8.99-70.508,27.736-138.502,54.42-204.256c11.079-27.303,23.177-54.242,37.552-80.053C189.507,17.333,197.39,7.878,206.003-1
		C206.669-1,207.337-1,208.003-1z"/>
</g>
</svg>
