<?xml version="1.0" encoding="iso-8859-1"?>
<!-- Generator: Adobe Illustrator 16.0.0, SVG Export Plug-In . SVG Version: 6.00 Build 0)  -->
<!DOCTYPE svg PUBLIC "-//W3C//DTD SVG 1.1//EN" "http://www.w3.org/Graphics/SVG/1.1/DTD/svg11.dtd">
<svg version="1.1" id="Layer_1" xmlns="http://www.w3.org/2000/svg" xmlns:xlink="http://www.w3.org/1999/xlink" x="0px" y="0px"
	 width="220px" height="110px" viewBox="0 0 220 110" style="enable-background:new 0 0 220 110;" xml:space="preserve">
<g>
	<path style="fill:#140A0D;" d="M43,110c-1,0-2,0-3,0c2.123-8.924,8.859-15.699,11.252-24.723C42.121,93.939,32.631,102.053,23,110
		c-0.333,0-0.667,0-1,0c-0.129-4.777,3.409-8.292,5.115-13.66C17.773,101.639,10.116,108.092,0,109c0-0.667,0-1.333,0-2
		c4.537-4.391,8.424-9.4,13.283-13.5c9.283-7.829,18.485-15.758,25.962-25.451c1.306-1.691,2.952-3.137,4.522-4.609
		c7.896-7.408,16.852-13.521,25.066-20.568c17.633-15.128,36.096-28.89,59.581-34.131C137.793,6.646,146.814,2.961,156,0
		c5,0,10,0,15,0c5.398,2.092,10.896,3.962,16.175,6.324c9.111,4.077,18.364,6.536,28.423,4.381C216.98,10.409,218.53,10.883,220,11
		c0,1,0,2,0,3c-7.779,4.217-13.199,10.543-16.65,18.629c-1.244,2.912-2.447,5.842-3.776,8.713c-0.785,1.692-2.152,3.92-4.05,2.617
		c-5.364-3.685-5.418,1.12-6.352,3.816c-1.744,5.04-3.008,10.272-6.338,14.583c-1.285,1.666-2.835,4.076-5.159,3.184
		c-2.612-1.004-1.422-3.756-1.06-5.771c0.865-4.826,1.934-9.614,2.92-14.419c-1.959,1.106-2.901,2.601-3.783,4.13
		c-2.416,4.186-4.763,8.422-8.082,11.989c-0.771,0.828-1.736,1.896-3.002,1.11c-0.971-0.603-0.628-1.817-0.48-2.783
		c0.379-2.47,0.83-4.929,1.254-7.392c-2.233,2.098-3.661,4.333-5.073,6.579c-0.621,0.986-1.224,1.984-1.813,2.99
		c-3.078,5.234-3.609,5.328-7.716,1.295c-1.633,1.586-1.874,3.86-2.864,5.754c-0.975,1.86-1.479,4.646-4.257,4.109
		c-3.026-0.585-2.463-3.477-2.646-5.751c-0.089-1.097,0.583-2.289-0.585-3.567c-0.687,1-1.379,1.885-1.939,2.846
		c-3.279,5.604-6.506,11.238-9.809,16.828c-0.654,1.106-1.336,2.641-2.959,2.209c-1.871-0.495-1.637-2.307-1.645-3.762
		c-0.015-3.213,0.901-6.246,2.004-9.229c1.368-3.701,2.784-7.391,2.631-11.624c-6.465,9.295-12.931,18.589-19.826,28.504
		c-1.657-3.703-0.608-6.438-0.352-9.155c0.107-1.135,0.7-2.672-0.445-3.257c-1.705-0.873-2.112,1.097-2.893,2.017
		c-2.626,3.092-3.785,7.289-8.223,10.862c1.462-15.858,10.525-27.676,14.717-41.223c-1.584,1.185-2.684,2.593-3.67,4.077
		c-5.455,8.203-9.765,17.058-14.32,25.757c-3.418,6.526-7.456,12.612-11.657,18.617c-0.919,1.313-1.847,3.269-3.853,2.389
		c-2.178-0.954-1.491-3.099-1.125-4.862c0.787-3.798,2.548-7.195,4.399-10.57c1.84-3.354,3.814-6.688,5.162-10.244
		c1.452-3.832,3.431-7.631,3.4-13.443c-1.534,2.721-2.418,4.104-3.125,5.573C81.35,77.771,73.527,87.943,65.651,98.075
		c-1.042,1.341-2.044,3.696-4.256,2.309c-1.849-1.159-1.095-3.333-0.545-5.063c1.473-4.633,3.902-8.817,6.263-13.037
		c2.202-3.936,4.621-7.789,5.489-12.367C62.146,82.884,55.1,98.307,43,110z"/>
</g>
</svg>
