<?xml version="1.0" encoding="iso-8859-1"?>
<!-- Generator: Adobe Illustrator 16.0.0, SVG Export Plug-In . SVG Version: 6.00 Build 0)  -->
<!DOCTYPE svg PUBLIC "-//W3C//DTD SVG 1.1//EN" "http://www.w3.org/Graphics/SVG/1.1/DTD/svg11.dtd">
<svg version="1.1" id="Layer_1" xmlns="http://www.w3.org/2000/svg" xmlns:xlink="http://www.w3.org/1999/xlink" x="0px" y="0px"
	 width="82px" height="248px" viewBox="0 0 82 248" style="enable-background:new 0 0 82 248;" xml:space="preserve">
<g>
	<path style="fill:#140A0D;" d="M0,141c0-4,0-8,0-12c5.169-13.226,10.7-26.298,17.467-38.843c-0.367-0.243-0.734-0.486-1.101-0.729
		C12.644,92.7,8.922,95.974,4.401,99.949c2.685-20.188,12.773-35.608,24.502-50.293c-2.027-0.953-3.549,1.319-4.729-0.258
		c-1.069-1.432,0.106-2.873,0.75-4.156c2.011-4.01,4.198-7.933,6.188-11.954C36.63,22.136,44.167,12.007,48,0c1.334,0,2.666,0,4,0
		c6.243,9.085,11.08,18.871,15.307,29.057C73.246,43.376,77.454,58.236,82,73c0,1,0,2,0,3c-2.448,1.873-4.006,0.505-5.283-1.526
		c-2.484-3.949-4.814-7.997-7.388-11.885c-1.556-2.35-2.726-5.111-5.886-7.304c0.408,5.312,2.305,9.195,3.817,13.189
		c3.013,7.95,7.714,15.161,10.22,23.331c0.584,1.899,1.481,5.056-1.033,4.936c-5.453-0.261-3.176,2.822-2.994,5.171
		c0.166,2.156,0.529,4.313,0.498,6.466c-0.065,4.37-0.328,8.395-2.375,12.793c-1.689,3.636,3.326,8.354,3.273,13.169
		c-0.029,2.5,0.172,5.238-2.392,6.686c-2.522,1.424-3.783-1.334-5.642-2.146c-0.229-0.1-0.59,0.104-0.941,0.18
		c-0.464,1.948,0.632,3.534,1.245,5.209c1.43,3.912,2.948,7.791,4.392,11.698c0.338,0.911,0.887,2.013-0.142,2.752
		c-0.92,0.661-1.955,0.138-2.808-0.387c-2.373-1.463-3.619-3.868-4.927-6.185c-3.409-6.041-6.767-12.112-10.144-18.174
		c0.092,5.284,2.412,9.687,4.594,14.049c6.602,13.207,6.51,27.76,8.755,41.842c0.171,1.074,0.282,2.654-1.065,3.031
		c-1.484,0.414-1.809-1.179-2.244-2.168c-1.59-3.615-2.98-7.326-5.594-10.459c0.519,3.6,1.383,7.086,2.162,10.592
		c0.25,1.135,0.434,2.44-0.85,3.119c-1.486,0.783-2.639-0.143-3.432-1.225c-1.312-1.791-2.424-3.729-4.186-6.488
		c0.305,4.354,1.812,7.154,2.92,10.068c2.124,5.596,5.373,10.848,6.014,16.891c0.345,3.237,2.772,7.989-1.043,9.545
		c-4.131,1.686-4.984-3.766-7.06-6.263c-1.366-1.646-2.209-3.72-3.412-5.519c-0.805-1.206-1.03-3.127-3.711-3.309
		C48.816,221.309,53.629,234.204,54,248c-0.334,0-0.666,0-1,0c-6.094-10.335-12.232-20.639-14.716-32.619
		c-0.413-1.99-0.592-5.629-2.635-5.234c-2.864,0.552-1.378,3.899-1.03,5.998c0.791,4.76,1.919,9.461,2.868,14.194
		c0.192,0.96,0.535,2.252-0.483,2.751c-1.455,0.715-1.952-0.824-2.61-1.693c-0.496-0.657-0.898-1.414-1.205-2.182
		c-3.762-9.412-8.26-18.609-8.324-29.093c-0.007-1.255,0.103-2.711-1.531-3.788c-2.946,6.184-2.052,13.363-5.563,19.369
		c-0.972-14.766-2.161-29.46-2.541-44.328c-1.604,2.521-2.508,5.131-3.481,7.716c-0.337,0.896-0.613,2.147-1.851,1.996
		c-1.145-0.142-1.379-1.358-1.526-2.319c-0.503-3.285-0.891-6.554-0.701-9.927c0.43-7.622,2.399-14.979,4.127-23.532
		c-3.551,3.493-3.055,7.924-6.335,11.354c-1.159-9.427-0.127-17.825,0.933-26.276C3.469,133.665,3.96,138.592,0,141z"/>
</g>
</svg>
