<?xml version="1.0" encoding="iso-8859-1"?>
<!-- Generator: Adobe Illustrator 16.0.0, SVG Export Plug-In . SVG Version: 6.00 Build 0)  -->
<!DOCTYPE svg PUBLIC "-//W3C//DTD SVG 1.1//EN" "http://www.w3.org/Graphics/SVG/1.1/DTD/svg11.dtd">
<svg version="1.1" id="Layer_1" xmlns="http://www.w3.org/2000/svg" xmlns:xlink="http://www.w3.org/1999/xlink" x="0px" y="0px"
	 width="142.094px" height="213.021px" viewBox="0 0 142.094 213.021" style="enable-background:new 0 0 142.094 213.021;"
	 xml:space="preserve">
<g>
	<path style="fill:#140A0D;" d="M142.096,172.021c0,0.667,0,1.333,0,2c-6.616,1.155-9.729-5.331-15.826-7.611
		c5.135,15.569,7.413,30.495,1.826,45.611c-0.334,0-0.666,0-1,0c-6.303-8.342-6.345-19.396-11.867-28.137
		c-0.035,4.778,0.586,9.351,1.094,13.933c0.15,1.358-0.082,2.778-1.731,3.181c-1.318,0.32-2.244-0.516-2.923-1.493
		c-0.756-1.095-1.407-2.265-2.031-3.438c-6.194-11.671-8.933-24.302-10.567-37.287c-0.897-7.151-0.586-14.495-3.184-21.53
		c-1.414,4.256-2.232,8.582-3.33,12.843c-0.502,1.94-0.119,5.489-2.644,5.201c-2.938-0.341-1.655-3.826-1.752-5.943
		c-0.278-6.319-0.215-12.653-0.461-18.977c-0.053-1.382-0.257-3.383-2.127-3.5c-1.63-0.104-1.778,1.771-2.208,2.956
		c-2.882,8.019-5.095,16.206-6.271,24.66c-0.312,2.226-0.312,4.566-2.354,7.396c-3.733-16.45-4.86-32.086-2.636-48.066
		c-3.22,2.36-3.797,5.94-5.423,8.914c-0.526,0.964-0.845,2.545-2.294,2.206c-1.396-0.326-1.127-1.883-1.206-2.996
		c-0.296-4.188,0.222-8.299,1.23-12.379c0.945-3.829,1.694-7.708,2.53-11.562c-6.107,8.052-8.176,17.681-12.412,26.537
		c3.705-13.28-0.301-26.88,2.652-40.104c-5.069,12.602-6.206,26.354-12.729,38.647c-0.899-12.271,0.359-24.521-0.78-37.88
		c-4.521,5.92-5.464,12.062-8.045,18.783c-0.743-2.14-1.152-2.873-1.241-3.644c-1.124-9.687,1.161-19.143,1.95-28.771
		c-2.484,5.943-3.991,12.311-8.513,18.745c-2.604-15.895,3.395-29.924,1.576-44.308c-5.415,8.256-7.885,17.631-11.495,26.562
		c-1.809-10.75,1.632-21.057,2.08-31.589c-4.401,6.147-3.562,14.348-8.653,20.633c-1.817-3.062-1.275-5.622-1.19-8.023
		c0.538-15.308-2-30.202-5.654-44.974C3.753,5.645,2.757,2.86,0.093,1.019c0.412-0.627-0.976-2.093,1-2.017
		c1.997,0.073,4,0.017,6,0.017c6.837,1.672,13.887,1.082,20.807,1.953c7.59,0.955,15.236,1.473,22.824,2.444
		c1.749,0.224,5.452,0.185,3.597,3.544c-1.839,3.33,0.108,4.088,2.19,5.243c5.817,3.23,11.658,6.429,17.458,9.692
		c1.26,0.709,3.07,1.345,2.727,3.164c-0.562,2.968,1.578,3.791,3.42,4.771c3.545,1.887,7.371,3.049,11.256,4.036
		c5.993,1.523,10.897,4.911,15.13,9.272c1.297,1.335,3.581,2.973,2.396,4.941c-1.025,1.705-3.381,0.371-5.125,0.063
		c-3.095-0.542-6.173-1.722-10.217-0.229c2.247,1.299,3.665,2.116,5.082,2.938c5.636,3.264,11.185,6.66,15.348,11.807
		c1.324,1.64,3.402,3.321,2.789,5.584c-0.72,2.652-3.68-0.477-5.42,1.695c2.114,1.846,4.148,3.753,6.322,5.487
		c6.945,5.541,13.479,11.42,16.996,19.873c0.406,0.977,1.438,2.244-0.008,3.062c-0.99,0.562-1.845-0.438-2.525-1.146
		c-7.759-8.057-19.483-10.632-26.591-19.693c-0.113,2.81,1.579,4.471,2.905,6.264c5.342,7.222,12.385,13.041,17.058,20.824
		c1.978,3.298,3.92,6.588,4.929,10.323c0.289,1.073,0.885,2.44-0.451,3.126c-1.028,0.528-1.808-0.54-2.507-1.207
		c-1.928-1.838-3.776-3.757-5.729-5.562c-0.821-0.764-1.831-1.948-3.014-1.089c-1.266,0.926-0.271,2.151,0.31,3.104
		c1.211,1.99,2.576,3.886,3.806,5.864c4.123,6.636,8.777,12.981,11.889,20.18c1.137,2.622,2.85,6.821,0.304,8.286
		c-2.481,1.427-4.146-2.837-6.024-4.754c-2.637-2.689-4.557-6.226-8.812-7.146C128.248,147.449,134.174,160.334,142.096,172.021z"/>
</g>
</svg>
