<?xml version="1.0" encoding="iso-8859-1"?>
<!-- Generator: Adobe Illustrator 16.0.0, SVG Export Plug-In . SVG Version: 6.00 Build 0)  -->
<!DOCTYPE svg PUBLIC "-//W3C//DTD SVG 1.1//EN" "http://www.w3.org/Graphics/SVG/1.1/DTD/svg11.dtd">
<svg version="1.1" id="Layer_1" xmlns="http://www.w3.org/2000/svg" xmlns:xlink="http://www.w3.org/1999/xlink" x="0px" y="0px"
	 width="246.998px" height="102px" viewBox="0 0 246.998 102" style="enable-background:new 0 0 246.998 102;" xml:space="preserve"
	>
<g>
	<path style="fill:#140A0D;" d="M0.002,33.994c0-1,0-2,0-3c3.564-2.439,6.992-5.111,10.714-7.279
		C31.949,11.348,55.292,5.912,79.398,2.979c10.868-1.322,21.832-1.871,32.604-3.982c5.333,0,10.666,0,16,0
		c5.789,1.654,11.731,2.51,17.701,2.973c12.999,1.011,25.251,4.328,36.438,11.15c1.578,0.963,4.541,1.654,3.283,4.121
		c-1.51,2.963,0.422,3.49,2.08,4.463c4.599,2.693,9.303,5.213,13.826,8.025c7.091,4.407,13.789,9.354,19.412,15.6
		c0.94,1.047,2.851,3.039,1.407,3.662c-5.311,2.289-0.729,3.955,0.359,4.848c8.695,7.134,13.905,16.295,17.002,26.976
		c1.578,5.438,4.275,10.475,7.486,15.186c0,0.666,0,1.332,0,2c-8.844-2.453-13.963-10.021-20.709-15.49
		c1.824,6.283,6.32,11.574,4.709,18.49c-0.666,0-1.334,0-2,0c-9.109-5.381-12.385-15.047-17.777-23.432
		c1.475,6.143,2.943,12.283,4.705,19.639c-7.6-4.615-10.156-11.283-14.156-16.979c-0.061,1.887,0.476,3.549,0.779,5.254
		c0.242,1.354,1.529,3.264-0.271,3.975c-1.55,0.611-2.361-1.424-3.274-2.547c-0.521-0.646-0.959-1.361-1.396-2.068
		c-7.48-12.02-14.938-24.055-22.462-36.045c-0.868-1.385-1.322-3.344-3.606-3.812c-0.771,2.66-0.004,4.895,0.508,7.133
		c1.9,8.309,4.937,16.244,7.972,24.184c0.5,1.308,1.428,3.17-0.517,3.896c-1.497,0.561-2.076-1.303-2.838-2.312
		c-0.599-0.795-1.115-1.668-1.546-2.563c-3.894-8.103-7.729-16.229-11.639-24.318c-1.861-3.852-1.92-3.824-4.877-6.024
		c5.216,10.461,9.146,20.87,11.202,31.907c0.913,4.906,0.852,4.908-3.589,3.732c-0.438-0.117-1.164-0.207-1.387,0.033
		c-3.382,3.664-3.578-0.332-4.291-1.941c-3.443-7.762-6.671-15.621-10.053-23.412c-0.926-2.131-1.623-4.477-4.551-7.112
		c1.928,8.896,4.629,16.021,7.229,23.186c0.647,1.785,3.438,4.033,0.69,5.535c-1.998,1.092-3.957-1.334-5.103-3.133
		c-1.601-2.521-3.009-5.197-4.175-7.943c-2.535-5.979-4.856-12.051-7.285-18.076c-0.605-1.51-1.29-2.987-1.938-4.479
		c0.965,9.062,3.045,17.705,2.514,26.744c-6.188-9.013-9.502-19.621-17.264-29.336c1.201,16.217,7.146,30.032,8.996,44.668
		c-9.312-9.384-12.832-21.845-18.761-32.994c0.265,4.918,3.105,9.164,2.974,14.062c-0.04,1.449,0.21,3.328-1.653,3.746
		c-1.612,0.363-2.116-1.344-2.752-2.451c-3.508-6.1-5.646-12.782-8.146-19.312c-0.646-1.697-0.955-3.639-3.046-5.404
		c0.387,5.635,2.778,10.277,1.657,16.637c-5.469-6.957-8.408-14.172-13.133-21.146c0.134,5.666,3.81,9.842,2.905,15.754
		c-4.859-5.354-6.901-11.779-12.32-16.863c0.093,7.738,3.906,13.359,6.534,19.947c-6.738-1.268-8.466-7.469-13.052-10.649
		c-0.347,0.967-0.61,1.545-0.76,2.151c-0.378,1.558-0.076,3.662-2.305,3.914c-1.88,0.211-2.905-1.434-3.922-2.719
		c-1.558-1.972-2.992-4.033-4.479-6.06c-0.354,2.252,0.118,4.013,0.309,5.802c0.198,1.897-0.329,3.312-2.771,2.971
		c-3.915-0.553-7.545-4.062-7.409-8.031c0.089-2.627-1.32-3.172-3.085-4.338c-3.733-2.467-7.486-0.475-11.198-0.652
		C23.237,39.118,12.189,33.034,0.002,33.994z"/>
</g>
</svg>
