<?xml version="1.0" encoding="iso-8859-1"?>
<!-- Generator: Adobe Illustrator 16.0.0, SVG Export Plug-In . SVG Version: 6.00 Build 0)  -->
<!DOCTYPE svg PUBLIC "-//W3C//DTD SVG 1.1//EN" "http://www.w3.org/Graphics/SVG/1.1/DTD/svg11.dtd">
<svg version="1.1" id="Layer_1" xmlns="http://www.w3.org/2000/svg" xmlns:xlink="http://www.w3.org/1999/xlink" x="0px" y="0px"
	 width="231.076px" height="100.178px" viewBox="0 0 231.076 100.178" style="enable-background:new 0 0 231.076 100.178;"
	 xml:space="preserve">
<g>
	<path style="fill:#140A0D;" d="M3.076,100c-4.017,0.929-2.912-1.983-3-4c3.623-1.188,5.421-4.345,7.347-7.185
		C21.425,68.164,38.877,50.711,57.384,34.17c11.293-10.093,25.565-14.66,38.565-21.59c7.937-4.229,16.083-7.962,24.968-9.816
		c1.958-0.408,3.871-1.037,5.158-2.765c3.666,0,7.334,0,11,0c-0.342,1.325-0.684,2.65-1.024,3.976
		c-4.437,0.557-8.541,1.924-11.964,4.954c4.367-0.731,8.221-2.727,11.996-4.915c3.794-0.279,7.572-1.583,11.387-0.489
		c2.135,0.612,5.42,0.562,5.578,3.232c0.139,2.354-3.115,1.771-4.785,2.647c-0.262,0.137-0.432,0.446-1.253,1.336
		c11.622,0.402,22.769,0.776,32.865,6.773c-4.563,0.593-9.128,1.186-13.692,1.778c1.539,0.755,3.025,0.667,4.498,0.769
		c9.659,0.671,18.582,3.604,26.652,8.966c1.301,0.865,3.564,1.724,3.023,3.515c-0.644,2.127-2.842,0.729-4.383,0.77
		s-3.24-0.918-4.802,0.872c5.371,3.51,10.604,6.977,15.106,11.448c4.613,4.581,8.83,9.493,13.08,14.392
		c3.662,4.221,6.146,9.617,11.716,11.978c0,1,0,2,0,3c-5.552-1.176-10.222-4.243-15.076-8.097
		c-0.565,4.873,3.253,7.227,3.694,11.318c-5.224-2.311-7.906-6.529-11.569-9.568c-1.207-1.002-3.095-3.42-4.099-0.305
		c-1.17,3.627-3.164,2.786-5.357,1.812c-5.191-2.307-9.971-5.342-14.589-8.639c-1.388-0.991-2.634-2.448-5.136-2.148
		c1.789,3.073,3.404,5.747,4.902,8.482c0.467,0.85,0.895,1.987-0.142,2.728c-0.968,0.69-2.015,0.121-2.707-0.567
		c-1.408-1.4-2.749-2.89-3.965-4.461c-2.845-3.676-5.599-7.423-8.964-11.902c-0.726,4.979,2.787,8.188,1.453,12.658
		c-9.666-7.58-15.867-17.676-24.422-25.616c2.034,8.454,8.194,15.006,10.668,24.674c-6-4.201-9.275-9.878-15.961-12.628
		c0.688,1.556,0.848,2.021,1.088,2.438c1.342,2.317,4.952,4.989,2.627,7.125c-2.111,1.938-4.131-2.173-6.266-3.494
		c-1.232-0.765-2.238-2.957-4.109-0.838c-3.027,3.426-7.98,4.182-11.899,1.738c-2.046-1.275-3.981-2.729-6.753-4.643
		c0.985,4.382,4.84,6.148,5.201,10.552c-6.786-2.616-11.912-7.457-18.939-8.992c1.186,3.374,7.015,4.83,4.839,7.562
		c-2.517,3.16-7.587,1.088-11.171-0.106c-2.906-0.969-5.018-3.671-7.658,0.513c-0.956,1.514-3.454,0.65-5.169-0.053
		c-2.155-0.884-4.239-1.938-6.367-2.891c-1.747-0.781-3.378-0.786-4.04,1.354c-1.144,3.702-4.058,4.102-7.177,3.938
		c-3.651-0.193-7.29-0.627-10.933-0.957l-0.266-0.114l0.234,0.151c0.117,2.062,3.658,3.526,1.723,5.595
		c-1.736,1.853-4.448,0.469-6.608-0.207c-3.691-1.155-7.299-2.574-10.942-3.882c0.146,1.378,0.743,1.904,1.223,2.521
		c1.623,2.086,5.814,3.516,4.045,6.51c-1.706,2.888-5.099,0.394-7.709-0.272c-1.638-0.417-3.476-1.368-3.113,1.718
		c0.364,3.096-1.582,4.499-4.016,5.531c-3.207,1.359-6.463,2.607-9.638,4.037C11.899,90.328,6.107,93.519,3.076,100z"/>
	<path d="M136.083,4.015c-3.775,2.188-7.629,4.184-11.996,4.915c3.423-3.03,7.527-4.397,11.964-4.954
		C136.05,3.976,136.083,4.015,136.083,4.015z"/>
	<polygon points="53.051,66.021 52.817,65.87 53.083,65.985 	"/>
</g>
</svg>
