<?xml version="1.0" encoding="iso-8859-1"?>
<!-- Generator: Adobe Illustrator 16.0.0, SVG Export Plug-In . SVG Version: 6.00 Build 0)  -->
<!DOCTYPE svg PUBLIC "-//W3C//DTD SVG 1.1//EN" "http://www.w3.org/Graphics/SVG/1.1/DTD/svg11.dtd">
<svg version="1.1" id="Layer_1" xmlns="http://www.w3.org/2000/svg" xmlns:xlink="http://www.w3.org/1999/xlink" x="0px" y="0px"
	 width="90.938px" height="146.857px" viewBox="0 0 90.938 146.857" style="enable-background:new 0 0 90.938 146.857;"
	 xml:space="preserve">
<g>
	<path style="fill:#140A0D;" d="M89.94,16.006c-4.824,2.638-8.738,6.395-12.947,9.811c0.535,0.672,0.687,1.052,0.938,1.146
		c1.741,0.651,4.511-0.51,5.063,2.145c0.59,2.812-1.867,4.063-3.878,5.186c-2.444,1.366-5.042,2.467-7.6,3.691
		c0.267,0.354,0.396,0.718,0.628,0.803c1.945,0.717,5.322-0.72,5.752,1.663c0.492,2.727-3.057,2.938-4.998,3.896
		c-3.189,1.579-6.551,2.819-10.049,4.291c1.965,2.344,5.881,0.337,5.886,2.739c0.005,2.646-3.604,2.97-5.78,3.938
		c-5.412,2.405-11.403,3.487-17.283,7.439c3.891,1.01,6.549-0.647,9.312-0.964c1.881-0.216,4.555-1.665,5.34,0.712
		c0.894,2.698-2.188,3.323-4.053,4.091c-4.729,1.947-9.664,3.436-13.811,6.698c1.049,1.702,2.197,0.682,3.174,0.45
		c9.248-2.196,18.283-5.095,27.24-8.26c1.146-0.402,2.635-1.563,3.551,0.017c0.684,1.18-0.678,2.073-1.438,2.898
		c-2.327,2.539-6.013,4.186-4.265,8.987c0.501,1.375-2.281,2.562-3.82,3.521c-5.99,3.73-12.865,5.36-19.474,7.896
		c0.586,1.947,3.992,1.088,3.343,3.693c-0.465,1.859-2.243,2.334-3.741,3.011c-1.516,0.686-3.151,1.135-4.601,1.935
		c-1.749,0.967-5.919,1.036-1.96,4.633c0.944,0.858,0.188,2.254-0.489,3.215c-1.149,1.628-2.254,3.331-3.646,4.733
		c-11.722,11.835-23.5,23.612-35.274,35.396c-0.439,0.438-1.016,0.743-1.994,1.442c-0.384-3.069,0.944-5.228,1.727-7.471
		c5.051-14.466,10.518-28.836,12.519-44.135c1.121-8.569,1.917-17.21,2.294-25.843C16.324,52.931,25.181,41.471,37.77,32.2
		c4.559-3.356,9.205-6.697,14.488-8.811C64.121,18.652,72.763,9.272,83.072,2.308c0.784-0.526,1.251-1.525,1.866-2.31
		c0.666,0,1.334,0,2,0c-0.955,5.073-4.495,8.69-7.17,12.804c-0.605,0.932-1.746,2.035-0.942,3.086c1.063,1.39,2.413,0.2,3.545-0.309
		c2.544-1.146,5.048-2.382,7.567-3.581C89.94,13.339,89.94,14.673,89.94,16.006z"/>
</g>
</svg>
