<?xml version="1.0" encoding="iso-8859-1"?>
<!-- Generator: Adobe Illustrator 16.0.0, SVG Export Plug-In . SVG Version: 6.00 Build 0)  -->
<!DOCTYPE svg PUBLIC "-//W3C//DTD SVG 1.1//EN" "http://www.w3.org/Graphics/SVG/1.1/DTD/svg11.dtd">
<svg version="1.1" id="Layer_1" xmlns="http://www.w3.org/2000/svg" xmlns:xlink="http://www.w3.org/1999/xlink" x="0px" y="0px"
	 width="51.378px" height="152.742px" viewBox="0 0 51.378 152.742" style="enable-background:new 0 0 51.378 152.742;"
	 xml:space="preserve">
<g>
	<path style="fill:#140A0D;" d="M41.378,0.741c2.334-1.667,2.666,0,4,0c-2.771,6.204-5.569,12.395-8.285,18.622
		c-0.693,1.592-2.668,3.549-1.16,4.921c1.842,1.677,3.566-0.742,5.113-1.722c3.254-2.058,6.646-3.73,10.332-4.821
		c0,1-1.696,2.957-1.696,3.957c-4.209,1.889-4.453,4.982-7.118,8.334c-0.523,0.659-0.926,1.634-0.139,2.249
		c2.807,2.199,0.277,3.389-0.862,4.751c-3.042,3.639-6.161,7.212-9.538,11.146c2.994,0.612,4.256-1.412,6.068-1.974
		c0.941-0.291,1.986-0.905,2.795-0.051c0.837,0.886,0.199,1.924-0.359,2.716c-1.246,1.765-2.533,3.512-3.933,5.155
		c-3.537,4.155-7.146,8.248-10.725,12.366c4.157-0.347,6.609-2.881,9.371-4.932c1.024-0.762,2.1-2.252,3.445-1.295
		c1.286,0.914,0.402,2.484,0.057,3.724c-2.017,7.168-8.429,12.887-6.211,21.444c0.896,0.08,4.748-1.336,2.656,2.469
		c-2.348,4.271-1.499,9.809-5.671,13.26c-1.009,0.834-1.476,2.207-1.033,3.663c1.279,4.223-4.979,7.771-1.142,12.276
		c0.084,0.1-0.497,0.799-0.801,1.194c-7.896,10.292-9.66,22.033-8.166,34.546c-1,0-2,0-3,0
		c-3.445-14.712-9.125-28.791-12.361-43.566c-0.195-0.889-1.077-1.625-1.639-2.434c-1.667-18.666-2-30.371,0-46
		c1.604-0.731,2.773-1.917,3.188-3.623c1.851-7.608,2.744-15.236,8.11-21.948c3.169-3.964,4.538-9.865,6.731-14.888
		c0.826-1.893,1.525-4.73,4.336-1.496c1.075,1.237,2.24,0.42,2.867-0.635C30.554,11.507,36.166,6.297,41.378,0.741z"/>
</g>
</svg>
