<?xml version="1.0" encoding="iso-8859-1"?>
<!-- Generator: Adobe Illustrator 16.0.0, SVG Export Plug-In . SVG Version: 6.00 Build 0)  -->
<!DOCTYPE svg PUBLIC "-//W3C//DTD SVG 1.1//EN" "http://www.w3.org/Graphics/SVG/1.1/DTD/svg11.dtd">
<svg version="1.1" id="Layer_1" xmlns="http://www.w3.org/2000/svg" xmlns:xlink="http://www.w3.org/1999/xlink" x="0px" y="0px"
	 width="87.549px" height="117.299px" viewBox="0 0 87.549 117.299" style="enable-background:new 0 0 87.549 117.299;"
	 xml:space="preserve">
<g>
	<path style="fill:#140A0D;" d="M85.489,117.187c-1.667-7.897-6.586-13.688-12.575-18.576c-3.985-3.254-8.442-5.928-12.665-8.896
		c-1.188-0.835-3.236-1.241-3.137-2.899c0.14-2.344,2.955-0.691,4.484-2.676c-3.844-2.13-5.361-6.07-7.57-9.619
		c-2.252-3.619-7.406-3.295-11.112-5.084c-2.396-1.156-7.051-0.625-4.577-6.002c0.725-1.576-2.053-1.582-3.271-2.22
		c-2.269-1.187-6.902-1.133-6.452-3.424c0.607-3.086,4.838-1.038,7.433-1.604c2.384-0.521,6.433,1.346,6.715-2.004
		c0.229-2.711-3.898-3.237-6.4-3.54c-5.23-0.631-10.011-2.431-14.698-4.614c-1.241-0.579-3.433-0.691-2.997-2.642
		c0.33-1.472,2.242-1.104,3.514-1.135c4.162-0.099,8.326-0.058,12.488-0.146c1.12-0.024,2.65,0.166,3.021-1.188
		c0.471-1.716-1.257-2.101-2.338-2.729c-2.512-1.457-5.273-1.988-8.157-1.984c-3.01,0.005-5.997-0.239-8.894-1.105
		c-1.559-0.467-3.625-0.507-4.186-2.287c-0.647-2.054,1.628-2.052,2.701-2.912c2.526-2.028,0.467-2.806-1.127-3.24
		c-4.335-1.184-8.734-2.129-13.095-3.223C1.511,23.165,0.032,23.05,0,21.568c-0.031-1.457,1.423-1.724,2.496-2.05
		c2.707-0.823,5.453-1.521,8.178-2.285c1.097-0.308,2.595-0.271,2.895-1.597c0.374-1.659-1.284-2.155-2.319-2.866
		c-2.194-1.507-4.595-2.736-6.669-4.385c-1.585-1.259-4.365-2.6-3.141-4.984c1.12-2.182,3.934-1.161,5.978-0.79
		c5.222,0.947,9.415,4.074,13.765,6.847c1.472,0.938,2.634,2.613,5.031,2.166C26.491,7.199,22.105,4.564,21.62,0
		c3.859,0.724,4.662,4.359,7.112,6.025c1.491,1.015,2.624,2.544,3.98,3.773c0.709,0.643,1.536,1.541,2.58,0.755
		c0.769-0.579,0.342-1.52,0.191-2.325c-0.233-1.242-1.208-2.809,0.416-3.553c1.586-0.728,2.872,0.6,3.847,1.683
		c2.248,2.497,3.713,5.504,5.076,8.55c0.786,1.759,0.751,4.479,3.122,4.653c2.277,0.167,0.845-3.399,3.471-4.198
		c3.171,5.501,5.143,11.566,7.066,17.693c0.631,2.013,0.299,6.988,4.932,2.743c1.374-1.26,2.562,0.013,2.754,1.527
		c0.271,2.137,0.236,4.313,0.337,6.472c0.112,2.43-0.409,4.923,3.437,5.384c2.216,0.265,2.33,2.976,2.451,4.979
		c0.198,3.313-0.064,6.636,0.74,9.933c0.774,3.173-1.029,7.854,5.465,6.921c1.883-0.271,2.316,2.892,2.672,4.848
		c1.064,5.892,2.043,11.799,3.146,17.683c0.459,2.446,0.945,4.942,3.076,6.644c0,5-0.102,10.002,0.055,14.998
		C87.599,116.928,87.222,117.585,85.489,117.187z"/>
</g>
</svg>
