<?xml version="1.0" encoding="iso-8859-1"?>
<!-- Generator: Adobe Illustrator 16.0.0, SVG Export Plug-In . SVG Version: 6.00 Build 0)  -->
<!DOCTYPE svg PUBLIC "-//W3C//DTD SVG 1.1//EN" "http://www.w3.org/Graphics/SVG/1.1/DTD/svg11.dtd">
<svg version="1.1" id="Layer_1" xmlns="http://www.w3.org/2000/svg" xmlns:xlink="http://www.w3.org/1999/xlink" x="0px" y="0px"
	 width="194.199px" height="115.186px" viewBox="0 0 194.199 115.186" style="enable-background:new 0 0 194.199 115.186;"
	 xml:space="preserve">
<g>
	<path style="fill:#140A0D;" d="M194.199,53c-6.096-0.104-12.312,0.799-17.52-3.911c-2.014-1.821-4.761-0.666-7.142,0.242
		c-1.374,0.522-2.896,1.398-4.149-0.035c-1.043-1.19-0.302-2.502,0.239-3.733c0.446-1.014,1.779-2.028,0.861-3.133
		c-1.104-1.327-2.439-0.127-3.64,0.279c-3.014,1.02-5.793,4.49-9.266,0.618c-0.536-0.6-1.695,0.685-2.479,1.277
		c-0.881,0.669-1.617,2.03-2.933,1.328c-1.184-0.634-0.944-2.047-0.899-3.174c0.088-2.122,0.315-4.239,0.52-6.771
		c-4.449,1.072-6.23,4.582-8.633,7.381c-1.957,2.276-3.328,5.68-7.508,2.507c-2.014-1.528-2.34,1.442-3.238,2.629
		c-1.389,1.833-0.938,6.13-3.896,5.316c-2.33-0.641-1.771-4.631-1.967-7.215c-0.268-3.527,2.137-6.513,2.86-10.918
		c-6.283,4.755-9.823,10.388-12.817,16.382c-2.275-0.541-1.898-2.311-2.271-3.646c-0.376-1.354,0.257-3.444-1.667-3.733
		c-1.719-0.259-2.271,1.694-3.078,2.889c-0.997,1.474-1.846,3.049-3.152,5.241c-2.383-4.685-0.133-8.848-0.883-13.272
		c-2.021,1.508-2.191,3.407-2.627,5.044c-0.857,3.221-2.129,5.832-5.725,6.858c-2.448,0.697-3.176,3.229-4.378,5.208
		c-0.826,1.356-1.401,3.845-3.189,3.287c-2.216-0.688-1.027-3.131-0.925-4.849c0.263-4.39,1.42-8.742,0.286-13.368
		c-6.412,9.6-7.809,21.365-13.483,32.357c-2.282-4.545-0.351-8.633-2.272-12.526c-2.833,3.149-3.506,6.999-5.397,10.166
		c-3.004,5.031-5.281,6.384-10.563,4.067c-2.794-1.227-3.107-0.036-3.85,1.716c-0.78,1.839-1.422,3.748-2.339,5.514
		c-0.948,1.825-1.549,4.626-4.364,3.896c-2.583-0.67-2.356-3.362-2.434-5.481c-0.114-3.114-0.029-6.236-0.029-9.385
		c-0.838-0.339-1.2,0.347-1.4,0.926c-4.998,14.452-12.427,27.578-21.568,39.783c-0.488,0.652-0.731,1.487-1.088,2.237c-1,0-2,0-3,0
		c1.117-5.117,2.233-10.234,3.35-15.353c-0.508-0.164-1.016-0.327-1.523-0.49c-3.275,5.281-6.55,10.562-9.826,15.844
		c-8.071,1.336-4.088-4.861-5-8c1.61-1.063,2.451-2.688,3.134-4.4c2.464-6.176,5.283-12.243,7.269-18.569
		C14.816,70.6,20.901,58.124,28.173,46.118C42.72,22.097,62.293,6.146,91.638,4.558C97.572,4.236,104.016,4.054,109.199,0
		c9.334,0,18.666,0,28,0c0.867,1.292,2.111,2.089,3.531,2.633c14.812,5.674,26.26,15.676,36.539,27.498
		c5.049,5.807,11.25,10.611,16.93,15.869C194.199,48.333,194.199,50.667,194.199,53z"/>
</g>
</svg>
