<?xml version="1.0" encoding="UTF-8"?>
<!DOCTYPE svg PUBLIC "-//W3C//DTD SVG 1.1//EN" "http://www.w3.org/Graphics/SVG/1.1/DTD/svg11.dtd">
<!-- Creator: CorelDRAW X7 -->
<svg xmlns="http://www.w3.org/2000/svg" xml:space="preserve" width="100%" height="100%" version="1.1" style="shape-rendering:geometricPrecision; text-rendering:geometricPrecision; image-rendering:optimizeQuality; fill-rule:evenodd; clip-rule:evenodd"
viewBox="0 0 467 47"
 xmlns:xlink="http://www.w3.org/1999/xlink">
 <defs>
  <style type="text/css">
   <![CDATA[
    .fil0 {fill:#E79966}
   ]]>
  </style>
 </defs>
 <g id="Layer_x0020_1">
  <metadata id="CorelCorpID_0Corel-Layer"/>
  <path class="fil0" d="M140 4l0 7c19,5 32,4 55,4 -25,9 -75,3 -104,3 -20,0 -30,2 -49,4 -22,1 -28,7 -41,10l0 10c15,4 63,3 86,0 35,-6 50,4 87,4l139 0c37,-3 74,-11 115,-11 19,0 20,4 38,4 -4,-3 3,-1 -8,-6 -48,-18 -163,-32 -214,-32l-79 0c-12,0 -21,1 -25,3z"/>
 </g>
</svg>
