<?xml version="1.0" encoding="UTF-8"?>
<!DOCTYPE svg PUBLIC "-//W3C//DTD SVG 1.1//EN" "http://www.w3.org/Graphics/SVG/1.1/DTD/svg11.dtd">
<!-- Creator: CorelDRAW X7 -->
<svg xmlns="http://www.w3.org/2000/svg" xml:space="preserve" width="100%" height="100%" version="1.1" style="shape-rendering:geometricPrecision; text-rendering:geometricPrecision; image-rendering:optimizeQuality; fill-rule:evenodd; clip-rule:evenodd"
viewBox="0 0 1007 83"
 xmlns:xlink="http://www.w3.org/1999/xlink">
 <defs>
  <style type="text/css">
   <![CDATA[
    .fil0 {fill:#EAE9E9}
   ]]>
  </style>
 </defs>
 <g id="Layer_x0020_1">
  <metadata id="CorelCorpID_0Corel-Layer"/>
  <path class="fil0" d="M194 3c-40,0 -111,7 -151,16 -18,4 -28,9 -43,12 0,15 0,15 11,20 7,3 22,6 28,7 107,23 143,-5 162,-6 38,-3 47,18 134,-2 54,-13 51,-25 131,-9 55,11 41,28 126,13 59,-11 55,-14 128,7 54,16 36,22 96,22 56,0 134,-48 191,-20 -5,-13 -34,-17 -47,-20 -38,-10 -79,-12 -118,-3 -16,4 -22,9 -40,9l31 -18c-13,-1 -11,-3 -27,-3 -44,-1 -37,0 -87,-11 -34,-9 -75,-10 -119,-10 -23,0 -36,-6 -58,-3l-116 4c-24,-5 -43,-7 -59,-8l-26 0c-38,2 -45,16 -74,17 -21,0 -49,-14 -73,-14z"/>
 </g>
</svg>
