<?xml version="1.0" encoding="UTF-8"?>
<!DOCTYPE svg PUBLIC "-//W3C//DTD SVG 1.1//EN" "http://www.w3.org/Graphics/SVG/1.1/DTD/svg11.dtd">
<!-- Creator: CorelDRAW X7 -->
<svg xmlns="http://www.w3.org/2000/svg" xml:space="preserve" width="100%" height="100%" version="1.1" style="shape-rendering:geometricPrecision; text-rendering:geometricPrecision; image-rendering:optimizeQuality; fill-rule:evenodd; clip-rule:evenodd"
viewBox="0 0 550 97"
 xmlns:xlink="http://www.w3.org/1999/xlink">
 <defs>
  <style type="text/css">
   <![CDATA[
    .fil0 {fill:url(#id0)}
   ]]>
  </style>
  <linearGradient id="id0" gradientUnits="userSpaceOnUse" x1="0.688976" y1="48.3307" x2="549.303" y2="48.3307">
   <stop offset="0" style="stop-opacity:1; stop-color:#F6A458"/>
   <stop offset="1" style="stop-opacity:1; stop-color:#EDB570"/>
  </linearGradient>
 </defs>
 <g id="Layer_x0020_1">
  <metadata id="CorelCorpID_0Corel-Layer"/>
  <path class="fil0" d="M1 31c0,19 3,21 3,38l163 -14c54,-6 104,-10 167,-10 -3,9 1,6 -13,12l-147 40c88,0 278,-11 353,-40 12,-4 19,-9 22,-13l0 -13c-7,-11 -32,-20 -59,-24 -25,-5 -51,-7 -78,-7l-45 0c-44,1 -88,3 -130,3 -21,0 -40,2 -62,4l-174 24z"/>
 </g>
</svg>
