<?xml version="1.0" encoding="UTF-8"?>
<!DOCTYPE svg PUBLIC "-//W3C//DTD SVG 1.1//EN" "http://www.w3.org/Graphics/SVG/1.1/DTD/svg11.dtd">
<!-- Creator: CorelDRAW X7 -->
<svg xmlns="http://www.w3.org/2000/svg" xml:space="preserve" width="100%" height="100%" version="1.1" style="shape-rendering:geometricPrecision; text-rendering:geometricPrecision; image-rendering:optimizeQuality; fill-rule:evenodd; clip-rule:evenodd"
viewBox="0 0 2500 197"
 xmlns:xlink="http://www.w3.org/1999/xlink">
 <defs>
  <style type="text/css">
   <![CDATA[
    .fil0 {fill:#EAEBEB}
   ]]>
  </style>
 </defs>
 <g id="Layer_x0020_1">
  <metadata id="CorelCorpID_0Corel-Layer"/>
  <path class="fil0" d="M1351 142l0 0zm104 -143l52 0c8,2 15,5 24,11 -4,18 -5,19 -20,31l-4 4c27,-3 141,-20 162,8 12,16 -2,28 -6,44 37,17 165,-9 205,-18 107,-22 109,-12 207,1 53,7 65,-8 99,-14 38,-7 128,-6 164,-2 48,7 111,12 162,12 -7,9 -16,9 -28,14 -57,22 -177,50 -236,55 -125,11 -136,-5 -232,-10 -16,-1 -20,-4 -39,-4 -89,0 -82,-6 -187,11 -62,11 -346,49 -414,25 -14,-5 -13,-8 -13,-25 -16,3 -23,8 -36,13 -99,38 -143,42 -229,42l-51 0c1,-12 -3,-6 10,-18l4 -3c-21,-4 -4,-5 -50,-12 -57,-8 -250,16 -354,-11 -19,-4 -29,-9 -37,-22 5,-19 26,-19 3,-24 -55,-10 -394,96 -611,45 13,-9 19,-6 34,-7l112 -14 -103 -29c-5,-1 -13,-2 -18,-3l-15 -6c23,0 29,3 49,4 127,1 200,6 321,-34 56,-18 192,-43 259,-43 40,0 66,-5 90,11 -3,13 -7,10 -14,20 69,-5 308,-68 365,-41 -1,21 -5,13 -14,28 50,0 88,-12 138,-3 7,1 21,6 27,11 15,10 7,13 14,25 7,14 30,12 43,-13 -12,-7 -18,-13 -38,-13 17,-23 169,-44 205,-46z"/>
 </g>
</svg>
