<?xml version="1.0" encoding="UTF-8"?>
<!DOCTYPE svg PUBLIC "-//W3C//DTD SVG 1.1//EN" "http://www.w3.org/Graphics/SVG/1.1/DTD/svg11.dtd">
<!-- Creator: CorelDRAW X7 -->
<svg xmlns="http://www.w3.org/2000/svg" xml:space="preserve" width="100%" height="100%" version="1.1" style="shape-rendering:geometricPrecision; text-rendering:geometricPrecision; image-rendering:optimizeQuality; fill-rule:evenodd; clip-rule:evenodd"
viewBox="0 0 3753 263"
 xmlns:xlink="http://www.w3.org/1999/xlink">
 <defs>
  <style type="text/css">
   <![CDATA[
    .fil0 {fill:#EBEAEA}
   ]]>
  </style>
 </defs>
 <g id="Layer_x0020_1">
  <metadata id="CorelCorpID_0Corel-Layer"/>
  <path class="fil0" d="M1847 232l-14 0c7,-4 -7,-4 7,-3 8,1 3,1 7,3zm622 -232l121 0c26,1 50,4 72,8 76,13 68,13 147,13 54,0 97,-7 149,-7l0 7c-16,3 -29,7 -49,10 -51,5 -227,25 -262,19 -29,-4 -74,-5 -105,-5 25,22 113,18 145,21 83,7 215,4 293,-16 58,-15 150,-12 209,-3 18,2 15,-2 23,8 -50,0 -141,-3 -177,8 -37,11 -83,12 -122,17 -21,3 -26,-1 -35,10 56,0 100,-3 153,-3 52,0 104,0 156,0l0 6c-16,0 -14,3 -27,4l5 2c0,0 1,0 2,1 18,5 116,7 131,7 50,0 100,0 150,0 49,0 93,4 146,4 48,0 97,0 146,0l0 3c-61,0 -156,0 -213,7l-58 11c5,20 42,21 61,25 18,3 54,8 74,9 28,2 56,4 81,7l68 14 0 11c-24,0 -48,0 -73,0 -28,0 -40,-6 -62,-7 -46,-3 -89,-4 -139,-4 -27,0 -41,-3 -69,-3l-768 -4c27,0 55,13 77,18l0 7c-113,0 -217,-11 -330,-11l-80 4c-26,1 -53,-3 -79,1 -18,2 -58,4 -77,5 -26,2 -51,8 -73,8 8,11 22,9 40,11 44,6 91,13 133,13 -8,11 1,5 -17,7l-138 11c-30,3 -101,7 -172,10l-155 0c-12,-1 -21,-2 -28,-4l0 -7c22,-5 63,-17 87,-17l-234 13c-21,3 -56,1 -79,1l0 -7c31,0 158,-22 193,-30 18,-4 42,-6 47,-26 -38,-20 -108,-17 -156,-17 -218,0 -275,67 -570,18 -28,-5 -53,-9 -79,-15 -18,-5 -59,-8 -70,-24 22,0 41,7 62,11 80,13 91,3 157,3l0 -4c-31,0 -65,-7 -98,-6 -64,0 -224,-21 -288,-21 6,5 0,1 9,5 12,6 19,5 19,22 -47,23 -278,3 -335,-8 -27,-5 -46,-12 -75,-16 -54,-6 -109,-12 -166,-14l-167 -14c33,0 96,-10 146,-10 78,0 150,2 225,11 21,2 44,6 64,9 2,0 96,21 74,-8 -14,-19 -63,-16 -85,-16 -46,0 -91,0 -136,0 3,-10 4,-10 14,-14 40,-17 100,-10 142,-10 105,0 245,24 323,24 74,0 140,-10 216,-10 80,0 42,4 88,13 68,12 166,8 238,8 105,0 90,-32 253,1 45,9 69,9 115,9 24,0 35,7 53,10 53,8 129,4 183,4l0 -7c-14,0 -28,-4 -42,-7l-128 -17c-29,-2 -60,-7 -87,-10 -48,-5 -135,-16 -179,-10 -45,6 -95,6 -140,6 -21,0 -26,3 -45,4 -31,0 -63,0 -94,0 11,-10 6,-6 24,-8 23,-2 50,-9 73,-10 -9,-12 1,-4 -16,-8l-64 -6c-30,0 -53,-3 -87,-3 -44,0 -88,6 -128,7 -77,2 -126,7 -208,7 0,-1 1,-1 2,-1 20,-9 53,-10 77,-14 86,-12 171,-20 261,-20 80,0 193,12 265,1l65 -5c11,0 23,1 34,0l101 -3c26,0 39,-6 66,-3 39,3 95,2 130,9 38,8 74,21 113,26 21,2 34,-1 52,-12 46,-28 120,-30 177,-30 47,0 125,11 165,5 28,-4 50,-6 77,-10 28,-4 59,-8 92,-9z"/>
 </g>
</svg>
