<?xml version="1.0" encoding="UTF-8"?>
<!DOCTYPE svg PUBLIC "-//W3C//DTD SVG 1.1//EN" "http://www.w3.org/Graphics/SVG/1.1/DTD/svg11.dtd">
<!-- Creator: CorelDRAW X7 -->
<svg xmlns="http://www.w3.org/2000/svg" xml:space="preserve" width="100%" height="100%" version="1.1" style="shape-rendering:geometricPrecision; text-rendering:geometricPrecision; image-rendering:optimizeQuality; fill-rule:evenodd; clip-rule:evenodd"
viewBox="0 0 1440 127"
 xmlns:xlink="http://www.w3.org/1999/xlink">
 <defs>
  <style type="text/css">
   <![CDATA[
    .fil0 {fill:url(#id0)}
   ]]>
  </style>
  <linearGradient id="id0" gradientUnits="userSpaceOnUse" x1="295.106" y1="-125.512" x2="1144.89" y2="252.173">
   <stop offset="0" style="stop-opacity:1; stop-color:#EB8642"/>
   <stop offset="0.670588" style="stop-opacity:1; stop-color:#EABA97"/>
   <stop offset="0.301961" style="stop-opacity:1; stop-color:#F0E9E1"/>
   <stop offset="1" style="stop-opacity:1; stop-color:#E8EEEC"/>
  </linearGradient>
 </defs>
 <g id="Layer_x0020_1">
  <metadata id="CorelCorpID_0Corel-Layer"/>
  <path class="fil0" d="M398 74c45,0 4,-6 74,0 -7,9 -22,15 -36,19 -24,7 -36,4 -44,15 21,1 33,7 61,3l175 -27c-7,10 -7,5 -10,18 46,31 281,1 308,4 32,3 61,11 93,17 5,1 12,2 18,3l54 0c12,-1 23,-3 31,-7 56,-23 251,-4 318,-4l0 -7c-48,-11 -110,-20 -159,-20l-87 -4c-26,-3 -55,-3 -87,-3l0 -4c40,0 84,-10 122,-10 -9,-12 -9,-6 -28,-8 -13,0 -15,-3 -31,-3 -63,0 -143,-9 -212,-3 -36,3 -100,9 -133,4 -23,-3 -49,0 -72,0 -17,-1 -18,-3 -31,-4 -12,-1 -27,0 -38,0l107 -11c38,0 70,-3 111,-3 -4,-16 -17,-14 -48,-18l-191 -13c-22,0 -44,2 -65,-1 -29,-4 -47,-6 -65,-6l-68 0 -2 0c-8,0 -15,0 -23,0l-34 0c-3,0 -4,2 -7,5l17 0c-12,11 -4,20 12,24 -13,6 -2,7 0,19l-14 -8c-2,18 0,11 -16,14 4,19 3,14 0,19zm-192 24l-1 -13c12,6 0,7 14,4 -9,-21 10,17 -5,-7 -2,-3 -7,-2 1,-17l10 -23c18,-2 3,-7 18,0 -2,-10 -3,-7 -1,-17 -59,0 -119,-7 -177,-13 -19,-3 -40,-8 -59,-8 11,16 36,22 53,28 5,1 7,1 11,3 23,8 -17,-7 5,2l4 2c-45,0 -56,8 -79,10l0 7c20,0 103,11 118,28 -11,6 -23,10 -39,11l0 7c26,5 106,4 127,-4zm36 -73c-2,10 -1,7 1,17 -15,-7 0,-2 -18,0l-10 23c-8,15 -3,14 -1,17 15,24 -4,-14 5,7 -14,3 -2,2 -14,-4l1 13c27,0 58,-7 83,-10 16,-2 23,-3 39,-5 6,-1 31,-5 40,-6 2,-12 4,-3 -3,-9 5,-5 2,-6 10,-6 -1,-1 -2,-1 -5,-2 -4,-2 -7,-1 -9,-9 -2,-5 -1,-2 0,-5l1 -6c0,0 0,-1 0,-2 0,0 0,-2 0,-2l1 -5c11,-2 5,13 12,-2l6 -20c1,-1 3,-4 4,-5 -21,1 -46,9 -67,13 -5,1 -14,3 -18,3l-58 5zm126 52c17,0 15,-3 30,-3 3,-5 4,0 0,-19 16,-3 14,4 16,-14l14 8c-2,-12 -13,-13 0,-19 -16,-4 -24,-13 -12,-24l-17 0 -14 -2c-1,1 -3,4 -4,5l-6 20c-7,15 -1,0 -12,2l-1 5c0,0 0,2 0,2 0,1 0,2 0,2l-1 6c-1,3 -2,0 0,5 2,8 5,7 9,9 3,1 4,1 5,2 -8,0 -5,1 -10,6 7,6 5,-3 3,9z"/>
 </g>
</svg>
