<?xml version="1.0" encoding="UTF-8"?>
<!DOCTYPE svg PUBLIC "-//W3C//DTD SVG 1.1//EN" "http://www.w3.org/Graphics/SVG/1.1/DTD/svg11.dtd">
<!-- Creator: CorelDRAW X7 -->
<svg xmlns="http://www.w3.org/2000/svg" xml:space="preserve" width="100%" height="100%" version="1.1" style="shape-rendering:geometricPrecision; text-rendering:geometricPrecision; image-rendering:optimizeQuality; fill-rule:evenodd; clip-rule:evenodd"
viewBox="0 0 1137 57"
 xmlns:xlink="http://www.w3.org/1999/xlink"
 baseProfile="tiny">
 <defs>
  <style type="text/css">
   <![CDATA[
    .fil0 {fill:#E65F42}
   ]]>
  </style>
 </defs>
 <g id="Layer_x0020_1">
  <metadata id="CorelCorpID_0Corel-Layer"/>
  <path class="fil0" d="M1 56l212 -6c21,-3 43,3 69,3 58,-1 251,3 291,-1 152,-12 410,9 537,-12 16,-2 19,-2 26,-12 -16,0 -32,0 -49,0 -22,1 -28,-3 -48,-3 -83,-1 -165,-2 -247,-13 -18,-3 -29,-6 -45,-8 -16,-1 -32,-3 -48,-3l-134 0c-41,1 -81,2 -120,3 -29,0 -68,7 -97,7l0 3c50,0 113,11 139,11l0 3c-86,0 -172,1 -257,0l-122 7c-34,3 -93,1 -107,21z"/>
 </g>
</svg>
