<?xml version="1.0" encoding="UTF-8"?>
<!DOCTYPE svg PUBLIC "-//W3C//DTD SVG 1.1//EN" "http://www.w3.org/Graphics/SVG/1.1/DTD/svg11.dtd">
<!-- Creator: CorelDRAW X7 -->
<svg xmlns="http://www.w3.org/2000/svg" xml:space="preserve" width="100%" height="100%" version="1.1" style="shape-rendering:geometricPrecision; text-rendering:geometricPrecision; image-rendering:optimizeQuality; fill-rule:evenodd; clip-rule:evenodd"
viewBox="0 0 1020 57"
 xmlns:xlink="http://www.w3.org/1999/xlink"
 baseProfile="tiny">
 <defs>
  <style type="text/css">
   <![CDATA[
    .fil0 {fill:#ED6845}
   ]]>
  </style>
 </defs>
 <g id="Layer_x0020_1">
  <metadata id="CorelCorpID_0Corel-Layer"/>
  <path class="fil0" d="M0 25c10,9 18,8 37,11 78,13 174,10 254,10 40,0 64,-8 108,-7l111 7c42,1 73,3 115,3 62,0 76,7 111,7l128 0c41,-1 120,-12 156,-3 -3,-13 -9,-14 -38,-17 -119,-14 -261,-11 -378,-11l0 -4c45,0 77,-9 104,-10 -11,-15 -33,-3 -69,-8 -9,-1 -32,-2 -61,-2l-221 0c-79,0 -96,21 -170,20 -35,0 -56,4 -90,4 -33,0 -65,0 -97,0z"/>
 </g>
</svg>
