<?xml version="1.0" encoding="UTF-8"?>
<!DOCTYPE svg PUBLIC "-//W3C//DTD SVG 1.1//EN" "http://www.w3.org/Graphics/SVG/1.1/DTD/svg11.dtd">
<!-- Creator: CorelDRAW X7 -->
<svg xmlns="http://www.w3.org/2000/svg" xml:space="preserve" width="100%" height="100%" version="1.1" style="shape-rendering:geometricPrecision; text-rendering:geometricPrecision; image-rendering:optimizeQuality; fill-rule:evenodd; clip-rule:evenodd"
viewBox="0 0 1210 817"
 xmlns:xlink="http://www.w3.org/1999/xlink">
 <defs>
  <style type="text/css">
   <![CDATA[
    .fil0 {fill:#150009}
   ]]>
  </style>
 </defs>
 <g id="Layer_x0020_1">
  <metadata id="CorelCorpID_0Corel-Layer"/>
  <g id="_1072435767808">
   <path class="fil0" d="M341 802l24 0 0 4 -24 0 0 -4zm248 14l-57 0c-2,0 -3,0 -5,-1 0,0 -1,0 -1,-1 -30,-13 -63,-1 -119,-8 -28,-3 -25,4 -42,7l-96 -8c-11,1 3,-1 -7,2l-67 6c-27,-1 -50,-11 -83,-10 -33,0 -33,-10 -55,-39 -9,-13 -32,-45 -42,-52 7,-19 -9,19 6,-7 6,-11 -14,-25 -20,-52 24,-6 4,4 35,4 1,-15 57,-143 67,-166l186 -450c5,-14 11,-26 14,-41l17 0c7,14 12,31 18,45 5,15 10,28 16,43 50,143 116,299 166,441 11,31 22,58 34,88 26,67 14,67 48,74 0,18 2,41 -4,52l14 4c0,57 7,45 -52,45 10,16 14,10 52,10l0 11c-5,1 -13,2 -23,3zm-408 -17l49 0 0 3 -49 0 0 -3zm372 -97c14,10 2,13 10,31 -13,-1 -9,-3 -24,-3 6,-9 11,-16 14,-28zm35 41l0 -38 7 0c-2,14 -3,7 -3,22 -1,17 8,12 -4,16zm-167 -45c25,0 36,4 59,4 22,0 44,0 66,0l-14 27c-14,1 -41,-4 -53,-5 -16,-2 -40,-5 -55,-5 0,-27 2,-11 -3,-21zm-7 0l1 1c0,0 -1,0 -1,-1zm170 -3c4,-4 13,5 4,2 0,0 -10,4 -4,-2zm-28 0l1 1c0,0 -1,-1 -1,-1zm-86 -4l41 0 0 4 -41 0 0 -4zm-181 -3c24,0 41,3 69,3l0 4 -69 0 0 -7zm-52 -7c13,1 11,3 28,3l0 11 -32 0c3,-5 4,-6 4,-14zm-205 3c18,0 18,-2 31,-3 3,9 12,20 18,28l-39 0 -10 -25zm538 0l1 1c0,0 -1,0 -1,-1zm-187 -3c26,0 52,7 83,7l0 3c-32,0 -55,-3 -83,-3l0 -7zm-181 17l0 -21c14,2 11,4 28,4 -5,19 -7,12 -28,17zm115 -17l59 0 0 7c-16,0 -15,-2 -28,-3 -10,-1 -21,-1 -31,-1l0 -3zm250 -4l1 1c0,0 -2,0 -1,-1zm-278 0c2,-1 20,2 6,2 0,0 0,0 0,0 -3,-1 -12,4 -6,-2zm-215 0c19,0 36,-5 62,-3 20,3 38,3 63,3 -8,17 3,14 -11,25 -22,19 -70,7 -93,7 -8,-15 -13,-17 -21,-32zm472 -41l-28 0c-7,-33 -37,-103 -50,-137 -23,-57 -63,-149 -81,-204 -9,-25 -17,-49 -25,-73 -16,-48 -45,-117 -45,-159 0,-19 3,-21 3,-38l32 79c9,26 21,55 30,81 21,55 41,106 61,161 20,56 41,108 61,162l60 167c-1,-1 -16,-32 -18,-39zm-257 3c47,0 84,4 129,4l124 7c1,11 10,29 14,38 -57,0 -133,-14 -198,-14l-69 -4 0 -31zm-267 28c0,-6 10,-5 4,0l-1 0c-4,0 -3,8 -3,0zm132 -7c21,0 40,-6 59,-10 21,-4 37,-10 55,-14l0 34c-39,-3 -69,-6 -114,-6l0 -4zm114 -97l-4 -107c-8,-73 -8,-246 2,-319 3,-25 16,-58 25,-82l12 -27 -3 66c-1,17 -3,16 -4,31 -3,47 -2,123 -9,172 -3,21 -1,47 -4,65 -4,29 -3,74 -4,104l-7 90c-4,8 -1,3 -4,7z"/>
   <polygon class="fil0" points="928,802 1018,802 1018,799 928,799 "/>
   <path class="fil0" d="M1171 795l1 -1c0,1 -1,1 -1,1zm3 4c19,0 27,4 35,-7 -14,0 -28,1 -35,7z"/>
   <polygon class="fil0" points="1091,792 1133,792 1133,789 1091,789 "/>
   <path class="fil0" d="M997 813c4,3 13,-5 4,-2 0,0 -9,-4 -4,2zm7 3l1 -1c0,0 -1,1 -1,1zm28 -3c-10,-3 -11,-4 -24,-4l0 4c22,0 2,4 17,3 7,-1 3,-1 7,-3z"/>
   <polygon class="fil0" points="792,816 817,816 817,813 792,813 "/>
   <polygon class="fil0" points="754,813 772,813 772,809 754,809 "/>
   <path class="fil0" d="M1164 799l1 -1c0,0 -1,1 -1,1z"/>
   <path class="fil0" d="M838 816l1 -1c0,0 -2,1 -1,1z"/>
   <path class="fil0" d="M640 792l1 -1c0,0 -2,1 -1,1z"/>
   <path class="fil0" d="M1070 792l1 -1c0,0 -1,1 -1,1z"/>
   <path class="fil0" d="M810 802l1 -1c0,0 -1,1 -1,1z"/>
   <path class="fil0" d="M900 802l1 -1c0,0 -1,1 -1,1z"/>
   <path class="fil0" d="M747 813l1 -1c0,0 -1,1 -1,1z"/>
   <path class="fil0" d="M775 813l1 -1c0,0 -1,1 -1,1z"/>
   <path class="fil0" d="M990 813l1 -1c0,0 -1,1 -1,1z"/>
   <path class="fil0" d="M1154 799l1 -1c0,0 -2,1 -1,1z"/>
   <path class="fil0" d="M1081 792l1 -1c0,0 -2,1 -1,1z"/>
   <path class="fil0" d="M831 816l1 -1c0,0 -2,1 -1,1z"/>
   <path class="fil0" d="M626 792l1 -1c0,0 -2,1 -1,1z"/>
   <path class="fil0" d="M1060 792l1 -1c0,0 -1,1 -1,1z"/>
   <path class="fil0" d="M786 813l1 -1c0,0 -2,1 -1,1z"/>
  </g>
 </g>
</svg>
